<svg width="24" height="25" viewBox="0 0 24 25" fill="none" xmlns="http://www.w3.org/2000/svg">
<path d="M19.25 10.4082C19.25 13.1371 17.85 15.6582 16.5 15.6582C15.15 15.6582 13.75 13.1371 13.75 10.4082C13.75 7.67926 15.15 5.1582 16.5 5.1582C17.85 5.1582 19.25 7.67926 19.25 10.4082Z" stroke="white" stroke-width="1.5"/>
<path d="M16.5 15.6582C16.5 15.6582 8 13.9082 7 13.6582C6 13.4082 4.75 12.0975 4.75 10.4082C4.75 8.71886 6 7.4082 7 7.1582C8 6.9082 16.5 5.1582 16.5 5.1582" stroke="white" stroke-width="1.5"/>
<path d="M6.75 13.9082V17.6582C6.75 18.7628 7.64543 19.6582 8.75 19.6582H9.25C10.3546 19.6582 11.25 18.7628 11.25 17.6582V14.9082" stroke="white" stroke-width="1.5"/>
</svg>
