<svg width="80" height="80" viewBox="0 0 80 80" fill="none" xmlns="http://www.w3.org/2000/svg">
<circle cx="40" cy="40" r="40" fill="#FEF3F2"/>
<g clip-path="url(#clip0_47_61)">
<path d="M26.6667 40C26.6667 37.7938 28.4573 36 30.6667 36H50.6667C52.8729 36 54.6667 37.7938 54.6667 40V52C54.6667 54.2062 52.8729 56 50.6667 56H30.6667C28.4573 56 26.6667 54.2062 26.6667 52V40Z" fill="#F04438"/>
<path opacity="0.4" d="M40.6667 28C37.9042 28 35.6667 30.2387 35.6667 33V36H31.6667V33C31.6667 28.0294 35.6979 24 40.6667 24C45.6354 24 49.6667 28.0294 49.6667 33V36H45.6667V33C45.6667 30.2387 43.4292 28 40.6667 28Z" fill="#F04438"/>
</g>
<defs>
<clipPath id="clip0_47_61">
<rect width="28" height="32" fill="white" transform="translate(26.6667 24)"/>
</clipPath>
</defs>
</svg>
