<svg xmlns="http://www.w3.org/2000/svg" width="166" height="140" fill="none"><circle cx="83" cy="70" r="70" fill="#F5FAFF"/><g filter="url(#a)"><rect width="118.25" height="43" x="23.87" y="63" fill="#fff" rx="6.14"/><rect width="117.48" height="42.23" x="24.26" y="63.38" stroke="#D9EBFF" stroke-width=".77" rx="5.76"/><rect width="15.36" height="15.36" x="30.02" y="69.14" fill="#C0DDFE" rx="3.07"/><rect width="88.3" height="3.84" x="48.45" y="69.14" fill="#C0DDFE" rx="1.92"/><rect width="88.3" height="3.84" x="48.45" y="74.52" fill="#C0DDFE" rx="1.92"/><rect width="31.48" height="3.84" x="48.45" y="80.66" fill="#C0DDFE" rx="1.92"/><path fill="#D9EBFF" d="M29.25 90.64h107.5v.77H29.25z"/><rect width="21.5" height="2.3" x="29.25" y="97.55" fill="#C0DDFE" rx="1.15"/><rect width="9.21" height="2.3" x="52.29" y="97.55" fill="#C0DDFE" rx="1.15"/></g><g filter="url(#b)"><rect width="140.25" height="51" x="12.88" y="48" fill="#fff" rx="7.29"/><rect width="139.34" height="50.09" x="13.33" y="48.46" stroke="#D9EBFF" stroke-width=".91" rx="6.83"/><rect width="18.21" height="18.21" x="20.16" y="55.29" fill="#C0DDFE" rx="3.64"/><rect width="104.73" height="4.55" x="42.02" y="55.29" fill="#C0DDFE" rx="2.28"/><rect width="104.73" height="4.55" x="42.02" y="61.66" fill="#C0DDFE" rx="2.28"/><rect width="37.34" height="4.55" x="42.02" y="68.95" fill="#C0DDFE" rx="2.28"/><path fill="#D9EBFF" d="M19.25 80.79h127.5v.91H19.25z"/><rect width="25.5" height="2.73" x="19.25" y="88.98" fill="#C0DDFE" rx="1.37"/><rect width="10.93" height="2.73" x="46.57" y="88.98" fill="#C0DDFE" rx="1.37"/></g><g filter="url(#c)"><rect width="154" height="56" x="6" y="33" fill="#fff" rx="8"/><rect width="153" height="55" x="6.5" y="33.5" stroke="#D9EBFF" rx="7.5"/><rect width="20" height="20" x="14" y="41" fill="#C0DDFE" rx="4"/><rect width="115" height="5" x="38" y="41" fill="#C0DDFE" rx="2.5"/><rect width="115" height="5" x="38" y="48" fill="#C0DDFE" rx="2.5"/><rect width="41" height="5" x="38" y="56" fill="#C0DDFE" rx="2.5"/><path fill="#D9EBFF" d="M13 69h140v1H13z"/><rect width="28" height="3" x="13" y="78" fill="#C0DDFE" rx="1.5"/><rect width="12" height="3" x="43" y="78" fill="#C0DDFE" rx="1.5"/></g><defs><filter id="a" width="127.47" height="53.07" x="19.27" y="62.14" color-interpolation-filters="sRGB" filterUnits="userSpaceOnUse"><feFlood flood-opacity="0" result="BackgroundImageFix"/><feColorMatrix in="SourceAlpha" result="hardAlpha" values="0 0 0 0 0 0 0 0 0 0 0 0 0 0 0 0 0 0 127 0"/><feMorphology in="SourceAlpha" radius=".77" result="effect1_dropShadow_267_7022"/><feOffset dy="1.45"/><feGaussianBlur stdDeviation="1.54"/><feColorMatrix values="0 0 0 0 0.0627451 0 0 0 0 0.0941176 0 0 0 0 0.156863 0 0 0 0.03 0"/><feBlend in2="BackgroundImageFix" result="effect1_dropShadow_267_7022"/><feColorMatrix in="SourceAlpha" result="hardAlpha" values="0 0 0 0 0 0 0 0 0 0 0 0 0 0 0 0 0 0 127 0"/><feMorphology in="SourceAlpha" radius="1.54" result="effect2_dropShadow_267_7022"/><feOffset dy="4.61"/><feGaussianBlur stdDeviation="3.07"/><feColorMatrix values="0 0 0 0 0.0627451 0 0 0 0 0.0941176 0 0 0 0 0.156863 0 0 0 0.08 0"/><feBlend in2="effect1_dropShadow_267_7022" result="effect2_dropShadow_267_7022"/><feBlend in="SourceGraphic" in2="effect2_dropShadow_267_7022" result="shape"/></filter><filter id="b" width="151.18" height="62.95" x="7.41" y="46.98" color-interpolation-filters="sRGB" filterUnits="userSpaceOnUse"><feFlood flood-opacity="0" result="BackgroundImageFix"/><feColorMatrix in="SourceAlpha" result="hardAlpha" values="0 0 0 0 0 0 0 0 0 0 0 0 0 0 0 0 0 0 127 0"/><feMorphology in="SourceAlpha" radius=".91" result="effect1_dropShadow_267_7022"/><feOffset dy="1.71"/><feGaussianBlur stdDeviation="1.82"/><feColorMatrix values="0 0 0 0 0.0627451 0 0 0 0 0.0941176 0 0 0 0 0.156863 0 0 0 0.03 0"/><feBlend in2="BackgroundImageFix" result="effect1_dropShadow_267_7022"/><feColorMatrix in="SourceAlpha" result="hardAlpha" values="0 0 0 0 0 0 0 0 0 0 0 0 0 0 0 0 0 0 127 0"/><feMorphology in="SourceAlpha" radius="1.82" result="effect2_dropShadow_267_7022"/><feOffset dy="5.46"/><feGaussianBlur stdDeviation="3.64"/><feColorMatrix values="0 0 0 0 0.0627451 0 0 0 0 0.0941176 0 0 0 0 0.156863 0 0 0 0.08 0"/><feBlend in2="effect1_dropShadow_267_7022" result="effect2_dropShadow_267_7022"/><feBlend in="SourceGraphic" in2="effect2_dropShadow_267_7022" result="shape"/></filter><filter id="c" width="166" height="69.12" x="0" y="31.88" color-interpolation-filters="sRGB" filterUnits="userSpaceOnUse"><feFlood flood-opacity="0" result="BackgroundImageFix"/><feColorMatrix in="SourceAlpha" result="hardAlpha" values="0 0 0 0 0 0 0 0 0 0 0 0 0 0 0 0 0 0 127 0"/><feMorphology in="SourceAlpha" radius="1" result="effect1_dropShadow_267_7022"/><feOffset dy="1.88"/><feGaussianBlur stdDeviation="2"/><feColorMatrix values="0 0 0 0 0.0627451 0 0 0 0 0.0941176 0 0 0 0 0.156863 0 0 0 0.03 0"/><feBlend in2="BackgroundImageFix" result="effect1_dropShadow_267_7022"/><feColorMatrix in="SourceAlpha" result="hardAlpha" values="0 0 0 0 0 0 0 0 0 0 0 0 0 0 0 0 0 0 127 0"/><feMorphology in="SourceAlpha" radius="2" result="effect2_dropShadow_267_7022"/><feOffset dy="6"/><feGaussianBlur stdDeviation="4"/><feColorMatrix values="0 0 0 0 0.0627451 0 0 0 0 0.0941176 0 0 0 0 0.156863 0 0 0 0.08 0"/><feBlend in2="effect1_dropShadow_267_7022" result="effect2_dropShadow_267_7022"/><feBlend in="SourceGraphic" in2="effect2_dropShadow_267_7022" result="shape"/></filter></defs></svg>