<svg width="111" height="103" fill="none" xmlns="http://www.w3.org/2000/svg"><g filter="url(#a)"><rect x="16.781" y="23.104" width="48" height="55" rx="3.756" transform="rotate(-16.398 16.78 23.104)" fill="#fff"/></g><g filter="url(#b)"><rect x="46.854" y="8.499" width="48" height="55" rx="3.756" transform="rotate(7.58 46.854 8.499)" fill="#fff"/></g><rect x="50.067" y="14.551" width="14" height="14" rx="3" transform="rotate(7.58 50.067 14.551)" fill="#9EA9B8" fill-opacity=".69"/><rect x="66.787" y="17.785" width="21" height="4" rx="2" transform="rotate(7.58 66.787 17.785)" fill="#9EA9B8" fill-opacity=".69"/><rect x="65.863" y="24.724" width="21" height="2" rx="1" transform="rotate(7.58 65.863 24.724)" fill="#9EA9B8" fill-opacity=".69"/><rect x="65.467" y="27.698" width="21" height="2" rx="1" transform="rotate(7.58 65.467 27.698)" fill="#9EA9B8" fill-opacity=".69"/><rect x="47.56" y="33.385" width="14" height="14" rx="3" transform="rotate(7.58 47.56 33.385)" fill="#9EA9B8" fill-opacity=".69"/><rect x="64.28" y="36.619" width="21" height="4" rx="2" transform="rotate(7.58 64.28 36.62)" fill="#9EA9B8" fill-opacity=".69"/><rect x="63.357" y="43.558" width="21" height="2" rx="1" transform="rotate(7.58 63.357 43.558)" fill="#9EA9B8" fill-opacity=".69"/><rect x="62.961" y="46.532" width="21" height="2" rx="1" transform="rotate(7.58 62.96 46.532)" fill="#9EA9B8" fill-opacity=".69"/><path d="M10 33.756A3.756 3.756 0 0 1 13.756 30h27.257c1.102 0 2.148.484 2.862 1.323l10.5 12.354A3.756 3.756 0 0 0 57.237 45h40.007A3.756 3.756 0 0 1 101 48.756v48.488A3.756 3.756 0 0 1 97.244 101H13.756A3.756 3.756 0 0 1 10 97.244V33.756Z" fill="#E1E5E9"/><g clip-path="url(#c)" fill="#9EA9B8"><path d="M54.894 76.154h7.756v4.09h-7.756v-4.09Z"/><path d="M61.03 63.038h-11a1.749 1.749 0 0 0-1.764 1.749v2.34h14.385v-4.089h-1.622Zm-.142 6.487H48.28v10.718h4.09v-6.628h8.546a1.777 1.777 0 0 0 1.664-1.17c.059-.158.087-.326.085-.494v-2.426h-1.777ZM55.501 88a16.5 16.5 0 0 1-11.663-28.163 16.5 16.5 0 1 1 18.08 26.865A16.374 16.374 0 0 1 55.5 88Zm0-30.814a14.314 14.314 0 0 0-10.126 24.44 14.32 14.32 0 1 0 15.607-23.353A14.215 14.215 0 0 0 55.5 57.2v-.014Z"/></g><defs><filter id="a" x=".84" y="2.036" width="93.456" height="98.195" filterUnits="userSpaceOnUse" color-interpolation-filters="sRGB"><feFlood flood-opacity="0" result="BackgroundImageFix"/><feColorMatrix in="SourceAlpha" values="0 0 0 0 0 0 0 0 0 0 0 0 0 0 0 0 0 0 127 0" result="hardAlpha"/><feOffset dy=".751"/><feGaussianBlur stdDeviation="1.878"/><feColorMatrix values="0 0 0 0 0 0 0 0 0 0 0 0 0 0 0 0 0 0 0.05 0"/><feBlend in2="BackgroundImageFix" result="effect1_dropShadow_590_29077"/><feColorMatrix in="SourceAlpha" values="0 0 0 0 0 0 0 0 0 0 0 0 0 0 0 0 0 0 127 0" result="hardAlpha"/><feOffset dy="8.424"/><feGaussianBlur stdDeviation="8.424"/><feColorMatrix values="0 0 0 0 0.247059 0 0 0 0 0.294118 0 0 0 0 0.356863 0 0 0 0.15 0"/><feBlend in2="effect1_dropShadow_590_29077" result="effect2_dropShadow_590_29077"/><feBlend in="SourceGraphic" in2="effect2_dropShadow_590_29077" result="shape"/></filter><filter id="b" x="23.214" y=".537" width="87.606" height="93.621" filterUnits="userSpaceOnUse" color-interpolation-filters="sRGB"><feFlood flood-opacity="0" result="BackgroundImageFix"/><feColorMatrix in="SourceAlpha" values="0 0 0 0 0 0 0 0 0 0 0 0 0 0 0 0 0 0 127 0" result="hardAlpha"/><feOffset dy=".751"/><feGaussianBlur stdDeviation="1.878"/><feColorMatrix values="0 0 0 0 0 0 0 0 0 0 0 0 0 0 0 0 0 0 0.05 0"/><feBlend in2="BackgroundImageFix" result="effect1_dropShadow_590_29077"/><feColorMatrix in="SourceAlpha" values="0 0 0 0 0 0 0 0 0 0 0 0 0 0 0 0 0 0 127 0" result="hardAlpha"/><feOffset dy="8.424"/><feGaussianBlur stdDeviation="8.424"/><feColorMatrix values="0 0 0 0 0.247059 0 0 0 0 0.294118 0 0 0 0 0.356863 0 0 0 0.15 0"/><feBlend in2="effect1_dropShadow_590_29077" result="effect2_dropShadow_590_29077"/><feBlend in="SourceGraphic" in2="effect2_dropShadow_590_29077" result="shape"/></filter><clipPath id="c"><path fill="#fff" transform="translate(39 55)" d="M0 0h33v33H0z"/></clipPath></defs></svg>