<svg xmlns="http://www.w3.org/2000/svg" width="169" height="91" fill="none"><g filter="url(#a)"><rect width="33.78" height="38.71" x="55.16" y="16.34" fill="#D8DBE7" rx="2.64" transform="rotate(-16.4 55.16 16.34)"/></g><g filter="url(#b)"><rect width="33.78" height="38.71" x="76.32" y="6.05" fill="#fff" rx="2.64" transform="rotate(7.58 76.32 6.05)"/></g><rect width="9.85" height="9.85" x="78.59" y="10.31" fill="#BEC2D1" fill-opacity=".69" rx="2.11" transform="rotate(7.58 78.59 10.31)"/><rect width="14.78" height="2.82" x="90.35" y="12.59" fill="#BEC2D1" fill-opacity=".69" rx="1.41" transform="rotate(7.58 90.35 12.59)"/><rect width="14.78" height="1.41" x="89.7" y="17.47" fill="#BEC2D1" fill-opacity=".69" rx=".7" transform="rotate(7.58 89.7 17.47)"/><rect width="14.78" height="1.41" x="89.42" y="19.57" fill="#BEC2D1" fill-opacity=".69" rx=".7" transform="rotate(7.58 89.42 19.57)"/><rect width="9.85" height="9.85" x="76.82" y="23.57" fill="#BEC2D1" fill-opacity=".69" rx="2.11" transform="rotate(7.58 76.82 23.57)"/><rect width="14.78" height="2.82" x="88.59" y="25.85" fill="#BEC2D1" fill-opacity=".69" rx="1.41" transform="rotate(7.58 88.59 25.85)"/><rect width="14.78" height="1.41" x="87.94" y="30.73" fill="#BEC2D1" fill-opacity=".69" rx=".7" transform="rotate(7.58 87.94 30.73)"/><rect width="14.78" height="1.41" x="87.66" y="32.82" fill="#BEC2D1" fill-opacity=".69" rx=".7" transform="rotate(7.58 87.66 32.82)"/><path fill="#EAECF6" d="M50.38 24.14a2.95 2.95 0 0 1 2.95-2.95h18.74c.87 0 1.69.38 2.25 1.04l7.2 8.48a2.95 2.95 0 0 0 2.25 1.04h27.72a2.95 2.95 0 0 1 2.95 2.95V68.2a2.95 2.95 0 0 1-2.95 2.95H53.33a2.95 2.95 0 0 1-2.95-2.95V24.14Z"/><g filter="url(#c)"><path fill="#fff" d="m29.82 71.87 25.71-6.89a3.28 3.28 0 0 0 2.32-4.01L52.5 40.94l-3.11-11.6-.85-3.16-10.27-6.29-8.02 2.15-12.85 3.44a3.28 3.28 0 0 0-2.32 4.02L25.8 69.55a3.28 3.28 0 0 0 4.02 2.32Z"/></g><g filter="url(#d)"><path fill="#fff" d="M48.53 26.18 38.26 19.9l1.8 6.75c.25.93 1.21 1.49 2.14 1.24l6.33-1.7Z"/></g><g fill="#9EA9B8" clip-path="url(#e)"><path d="m36.33 48.12 4.75-1.28.68 2.51L37 50.63l-.67-2.51Z"/><path d="m37.93 39.07-6.74 1.8a1.11 1.11 0 0 0-.8 1.37l.39 1.43 8.82-2.36-.67-2.51-1 .27Zm.98 4-7.73 2.07 1.76 6.58 2.51-.68-1.09-4.06 5.24-1.4a1.13 1.13 0 0 0 .83-1c.01-.1 0-.21-.03-.32l-.4-1.48-1.09.29Zm-.26 12.22a10.48 10.48 0 1 1-5.42-20.25 10.48 10.48 0 0 1 5.42 20.25Zm-5.07-18.9a9.09 9.09 0 1 0 4.7 17.54 9.09 9.09 0 0 0-4.7-17.54Z"/></g><g filter="url(#f)"><path fill="#fff" d="m108.54 63.88 28.5 7.64a3.64 3.64 0 0 0 4.45-2.57l5.95-22.2 3.44-12.85.94-3.5-6.37-11.73-8.88-2.38-14.25-3.82a3.63 3.63 0 0 0-4.45 2.57l-11.9 44.4a3.63 3.63 0 0 0 2.57 4.44Z"/></g><g clip-path="url(#g)"><path fill="#9EA9B8" d="M133.18 30.8a11.73 11.73 0 0 0-14.35 8.29 11.73 11.73 0 0 0 8.28 14.35 11.73 11.73 0 0 0 14.36-8.29 11.73 11.73 0 0 0-8.3-14.35Zm-13.21 8.6c.4-1.48 1.08-2.8 1.99-3.91l1.3 14.6a10.55 10.55 0 0 1-3.3-10.7Zm7.45 12.9c-1-.27-1.92-.68-2.77-1.19l5.44-8.05.83 9.4c0 .06.02.11.03.17-1.15.08-2.34-.02-3.53-.33Zm5.4-14.58c.63.14 1.2.22 1.2.22.56.08.71-.74.16-.86 0 0-1.69-.31-2.75-.6-1-.26-2.64-.84-2.64-.84-.54-.18-.83.64-.3.82 0 0 .51.2 1.05.38l.42 4.77-4.02 6.08-.75-12.01c.62.13 1.19.21 1.19.21.56.09.72-.74.16-.85 0 0-1.68-.32-2.75-.6l-.65-.2a10.53 10.53 0 0 1 15.9 2.21l-.14-.04c-1-.27-1.94.41-2.19 1.35-.22.84.07 1.67.36 2.65.2.78.43 1.78.09 3.03-.23.88-.84 1.8-1.66 3.09l-1.92 3.12-.75-11.93Zm.09 14.56 5.51-8.15a9.95 9.95 0 0 0 1.76-3.44c.1-.37.17-.73.2-1.06a10.52 10.52 0 0 1-7.48 12.66Z"/></g><g filter="url(#h)"><path fill="#fff" d="m151.82 30.4-6.37-11.73-2 7.48a1.94 1.94 0 0 0 1.36 2.37l7.01 1.88Z"/></g><defs><filter id="a" width="65.78" height="69.11" x="43.94" y="1.51" color-interpolation-filters="sRGB" filterUnits="userSpaceOnUse"><feFlood flood-opacity="0" result="BackgroundImageFix"/><feColorMatrix in="SourceAlpha" result="hardAlpha" values="0 0 0 0 0 0 0 0 0 0 0 0 0 0 0 0 0 0 127 0"/><feOffset dy=".53"/><feGaussianBlur stdDeviation="1.32"/><feColorMatrix values="0 0 0 0 0 0 0 0 0 0 0 0 0 0 0 0 0 0 0.05 0"/><feBlend in2="BackgroundImageFix" result="effect1_dropShadow_129_4921"/><feColorMatrix in="SourceAlpha" result="hardAlpha" values="0 0 0 0 0 0 0 0 0 0 0 0 0 0 0 0 0 0 127 0"/><feOffset dy="5.93"/><feGaussianBlur stdDeviation="5.93"/><feColorMatrix values="0 0 0 0 0.247059 0 0 0 0 0.294118 0 0 0 0 0.356863 0 0 0 0.15 0"/><feBlend in2="effect1_dropShadow_129_4921" result="effect2_dropShadow_129_4921"/><feBlend in="SourceGraphic" in2="effect2_dropShadow_129_4921" result="shape"/></filter><filter id="b" width="61.66" height="65.9" x="59.68" y=".45" color-interpolation-filters="sRGB" filterUnits="userSpaceOnUse"><feFlood flood-opacity="0" result="BackgroundImageFix"/><feColorMatrix in="SourceAlpha" result="hardAlpha" values="0 0 0 0 0 0 0 0 0 0 0 0 0 0 0 0 0 0 127 0"/><feOffset dy=".53"/><feGaussianBlur stdDeviation="1.32"/><feColorMatrix values="0 0 0 0 0 0 0 0 0 0 0 0 0 0 0 0 0 0 0.05 0"/><feBlend in2="BackgroundImageFix" result="effect1_dropShadow_129_4921"/><feColorMatrix in="SourceAlpha" result="hardAlpha" values="0 0 0 0 0 0 0 0 0 0 0 0 0 0 0 0 0 0 127 0"/><feOffset dy="5.93"/><feGaussianBlur stdDeviation="5.93"/><feColorMatrix values="0 0 0 0 0.247059 0 0 0 0 0.294118 0 0 0 0 0.356863 0 0 0 0.15 0"/><feBlend in2="effect1_dropShadow_129_4921" result="effect2_dropShadow_129_4921"/><feBlend in="SourceGraphic" in2="effect2_dropShadow_129_4921" result="shape"/></filter><filter id="c" width="72.43" height="81.52" x=".24" y="12.53" color-interpolation-filters="sRGB" filterUnits="userSpaceOnUse"><feFlood flood-opacity="0" result="BackgroundImageFix"/><feColorMatrix in="SourceAlpha" result="hardAlpha" values="0 0 0 0 0 0 0 0 0 0 0 0 0 0 0 0 0 0 127 0"/><feOffset dy="7.36"/><feGaussianBlur stdDeviation="7.36"/><feColorMatrix values="0 0 0 0 0.247059 0 0 0 0 0.294118 0 0 0 0 0.356863 0 0 0 0.15 0"/><feBlend in2="BackgroundImageFix" result="effect1_dropShadow_129_4921"/><feBlend in="SourceGraphic" in2="effect1_dropShadow_129_4921" result="shape"/></filter><filter id="d" width="17.92" height="15.03" x="33.89" y="17.27" color-interpolation-filters="sRGB" filterUnits="userSpaceOnUse"><feFlood flood-opacity="0" result="BackgroundImageFix"/><feColorMatrix in="SourceAlpha" result="hardAlpha" values="0 0 0 0 0 0 0 0 0 0 0 0 0 0 0 0 0 0 127 0"/><feOffset dx="-.87" dy=".87"/><feGaussianBlur stdDeviation="1.75"/><feColorMatrix values="0 0 0 0 0.247059 0 0 0 0 0.294118 0 0 0 0 0.356863 0 0 0 0.2 0"/><feBlend in2="BackgroundImageFix" result="effect1_dropShadow_129_4921"/><feColorMatrix in="SourceAlpha" result="hardAlpha" values="0 0 0 0 0 0 0 0 0 0 0 0 0 0 0 0 0 0 127 0"/><feOffset dy=".66"/><feGaussianBlur stdDeviation="1.64"/><feColorMatrix values="0 0 0 0 0 0 0 0 0 0 0 0 0 0 0 0 0 0 0.05 0"/><feBlend in2="effect1_dropShadow_129_4921" result="effect2_dropShadow_129_4921"/><feBlend in="SourceGraphic" in2="effect2_dropShadow_129_4921" result="shape"/></filter><filter id="f" width="78.58" height="91.9" x="89.54" y="4.2" color-interpolation-filters="sRGB" filterUnits="userSpaceOnUse"><feFlood flood-opacity="0" result="BackgroundImageFix"/><feColorMatrix in="SourceAlpha" result="hardAlpha" values="0 0 0 0 0 0 0 0 0 0 0 0 0 0 0 0 0 0 127 0"/><feOffset dy="8.15"/><feGaussianBlur stdDeviation="8.15"/><feColorMatrix values="0 0 0 0 0.247059 0 0 0 0 0.294118 0 0 0 0 0.356863 0 0 0 0.15 0"/><feBlend in2="BackgroundImageFix" result="effect1_dropShadow_129_4921"/><feBlend in="SourceGraphic" in2="effect1_dropShadow_129_4921" result="shape"/></filter><filter id="h" width="16.92" height="19.47" x="138.54" y="15.76" color-interpolation-filters="sRGB" filterUnits="userSpaceOnUse"><feFlood flood-opacity="0" result="BackgroundImageFix"/><feColorMatrix in="SourceAlpha" result="hardAlpha" values="0 0 0 0 0 0 0 0 0 0 0 0 0 0 0 0 0 0 127 0"/><feOffset dx="-.97" dy=".97"/><feGaussianBlur stdDeviation="1.94"/><feColorMatrix values="0 0 0 0 0.247059 0 0 0 0 0.294118 0 0 0 0 0.356863 0 0 0 0.2 0"/><feBlend in2="BackgroundImageFix" result="effect1_dropShadow_129_4921"/><feColorMatrix in="SourceAlpha" result="hardAlpha" values="0 0 0 0 0 0 0 0 0 0 0 0 0 0 0 0 0 0 127 0"/><feOffset dy=".73"/><feGaussianBlur stdDeviation="1.82"/><feColorMatrix values="0 0 0 0 0 0 0 0 0 0 0 0 0 0 0 0 0 0 0.05 0"/><feBlend in2="effect1_dropShadow_129_4921" result="effect2_dropShadow_129_4921"/><feBlend in="SourceGraphic" in2="effect2_dropShadow_129_4921" result="shape"/></filter><clipPath id="e"><path fill="#fff" d="m23.1 37.76 20.24-5.43 5.43 20.25L28.52 58z"/></clipPath><clipPath id="g"><path fill="#fff" d="m121.6 27.3 23.36 6.26-6.26 23.37-23.37-6.26z"/></clipPath></defs></svg>
