<?xml version="1.0" standalone="no"?>
<!DOCTYPE svg PUBLIC "-//W3C//DTD SVG 1.1//EN" "http://www.w3.org/Graphics/SVG/1.1/DTD/svg11.dtd" >
<svg xmlns="http://www.w3.org/2000/svg">
<metadata>Generated by IcoMoon</metadata>
<defs>
<font id="icomoon" horiz-adv-x="1024">
<font-face units-per-em="1024" ascent="839.6399217221135" descent="-184.3600782778865" />
<missing-glyph horiz-adv-x="1024" />
<glyph unicode="&#x20;" horiz-adv-x="0" d="" />
<glyph unicode="&#xe9d;" glyph-name="arrowup5_solid" d="M16.031 300.161c0 274.536 222.434 496.971 496.971 496.971s496.971-222.434 496.971-496.971-222.434-496.971-496.971-496.971-496.971 222.434-496.971 496.971zM776.517 245.054l-246.481 246.481c-9.418 9.418-24.648 9.418-34.067 0l-246.481-246.481c-15.23-15.23-4.409-41.080 17.033-41.080h492.963c21.442 0 32.263 25.85 17.033 41.080z" />
<glyph unicode="&#xe226;" glyph-name="attach_file" d="M722.569 579.583h69.854v-534.833c0-141.893-113.516-257.591-255.409-257.591s-257.591 115.698-257.591 257.591v580.674c0 102.6 85.136 187.737 187.737 187.737s185.552-85.136 185.552-187.737v-488.989c0-63.306-52.39-115.698-115.698-115.698s-117.882 52.39-117.882 115.698v443.146h69.854v-443.146c0-26.195 21.829-45.844 48.026-45.844s45.844 19.646 45.844 45.844v488.989c0 63.306-52.39 117.88-115.698 117.88s-117.882-54.575-117.882-117.88v-580.674c0-102.6 85.136-187.737 187.737-187.737s185.554 85.136 185.554 187.737v534.833z" />
<glyph unicode="&#xe260;" glyph-name="linear_scale" d="M898.355 427.811c69.844 0 127.649-57.803 127.649-127.649s-57.803-127.649-127.649-127.649c-52.987 0-98.747 31.311-118.014 77.071h-149.326c-19.268-45.761-65.027-77.071-118.014-77.071s-98.747 31.311-118.014 77.071h-149.324c-19.268-45.761-65.027-77.071-118.014-77.071-69.846 0-127.649 57.803-127.649 127.649s57.803 127.649 127.649 127.649c52.985 0 98.747-31.311 118.014-77.071h149.324c19.268 45.759 65.029 77.071 118.014 77.071s98.747-31.311 118.014-77.071h149.326c19.268 45.759 65.027 77.071 118.014 77.071z" />
<glyph unicode="&#xe292;" glyph-name="hashtag" d="M615.312 392.5l-20.498-184.677h-184.124l20.498 184.677zM651.787 720.763l-26.225-235.927h-184.124l25.071 225.767c2.818 25.348-15.466 48.154-40.77 50.972s-48.154-15.464-50.972-40.812l-26.225-235.927h-204.898c-25.486 0-46.17-20.684-46.17-46.17s20.684-46.17 46.17-46.17h194.65l-20.498-184.677h-174.152c-25.486 0-46.17-20.684-46.17-46.168s20.684-46.168 46.17-46.168h163.854l-25.071-225.767c-2.818-25.348 15.466-48.154 40.77-50.972s48.154 15.464 50.972 40.768l26.269 235.971h184.122l-25.069-225.767c-2.818-25.348 15.464-48.154 40.768-50.972s48.154 15.464 50.972 40.768l26.225 235.971h204.9c25.486 0 46.168 20.684 46.168 46.168s-20.684 46.168-46.168 46.168h-194.65l20.498 184.677h174.152c25.486 0 46.168 20.684 46.168 46.17s-20.684 46.17-46.168 46.17h-163.854l25.069 225.767c2.818 25.348-15.464 48.154-40.768 50.972s-48.154-15.464-50.972-40.768z" />
<glyph unicode="&#xe5d3;" glyph-name="more_horiz" d="M513.002 386.33c46.090 0 86.168-40.078 86.168-86.168s-40.078-86.168-86.168-86.168-86.168 40.078-86.168 86.168 40.078 86.168 86.168 86.168zM769.503 386.33c46.090 0 86.168-40.078 86.168-86.168s-40.078-86.168-86.168-86.168-86.168 40.078-86.168 86.168 40.078 86.168 86.168 86.168zM256.501 386.33c46.090 0 86.168-40.078 86.168-86.168s-40.078-86.168-86.168-86.168-86.168 40.078-86.168 86.168 40.078 86.168 86.168 86.168z" />
<glyph unicode="&#xe5d4;" glyph-name="more_vert" d="M513.002 129.829c46.090 0 86.168-40.078 86.168-86.168s-40.078-86.168-86.168-86.168-86.168 40.078-86.168 86.168 40.078 86.168 86.168 86.168zM513.002 386.33c46.090 0 86.168-40.078 86.168-86.168s-40.078-86.168-86.168-86.168-86.168 40.078-86.168 86.168 40.078 86.168 86.168 86.168zM513.002 470.494c-46.090 0-86.168 40.078-86.168 86.168s40.078 86.168 86.168 86.168 86.168-40.078 86.168-86.168-40.078-86.168-86.168-86.168z" />
<glyph unicode="&#xe600;" glyph-name="minus1" d="M256.501 351.461v-102.6h513.002v102.6h-513.002zM513.002 813.163c-283.177 0-513.002-229.825-513.002-513.002s229.825-513.002 513.002-513.002 513.002 229.825 513.002 513.002-229.825 513.002-513.002 513.002zM513.002-110.24c-226.234 0-410.4 184.168-410.4 410.402s184.166 410.4 410.4 410.4 410.4-184.166 410.4-410.4-184.168-410.4-410.4-410.4z" />
<glyph unicode="&#xe601;" glyph-name="logo" d="M493.79 156.080h243.339v-128.072h-243.337v128.072zM686.661 565.912h-343.301c-29.177 0-54.486-23.696-54.486-52.911v-75.161h448.255v128.072h-50.469zM682.641 360.996h-393.769v-332.988h128.072v204.916h265.695c23.396 0 44.293 15.649 51.659 36.842 1.846 4.841 2.828 10.062 2.828 15.12v76.111h-54.486zM513.002-212.841c-69.241 0-136.428 13.569-199.694 40.327-61.093 25.838-115.95 62.825-163.054 109.927s-84.088 101.961-109.927 163.054c-26.758 63.268-40.327 130.453-40.327 199.694s13.569 136.428 40.327 199.694c25.84 61.093 62.823 115.952 109.927 163.054s101.961 84.088 163.054 109.927c63.268 26.758 130.455 40.327 199.694 40.327s136.428-13.569 199.694-40.327c61.091-25.838 115.948-62.825 163.054-109.927s84.088-101.961 109.927-163.054c26.758-63.268 40.327-130.455 40.327-199.694s-13.569-136.428-40.327-199.694c-25.838-61.091-62.825-115.948-109.927-163.054s-101.961-84.088-163.054-109.927c-63.268-26.758-130.453-40.327-199.694-40.327zM513.002 747.705c-119.541 0-231.931-46.553-316.46-131.082s-131.082-196.919-131.082-316.46c0-119.541 46.553-231.931 131.082-316.46s196.919-131.082 316.46-131.082c119.541 0 231.931 46.553 316.46 131.082s131.082 196.919 131.082 316.46c0 119.541-46.553 231.931-131.082 316.46s-196.919 131.082-316.46 131.082z" />
<glyph unicode="&#xe602;" glyph-name="plus1" d="M564.302 556.662h-102.6v-205.201h-205.201v-102.6h205.201v-205.201h102.6v205.201h205.201v102.6h-205.201v205.201zM513.002 813.163c-283.177 0-513.002-229.825-513.002-513.002s229.825-513.002 513.002-513.002 513.002 229.825 513.002 513.002-229.825 513.002-513.002 513.002zM513.002-110.24c-226.234 0-410.4 184.168-410.4 410.402s184.166 410.4 410.4 410.4 410.4-184.166 410.4-410.4-184.168-410.4-410.4-410.4z" />
<glyph unicode="&#xe603;" glyph-name="plus2" d="M513.002 813.163c-283.177 0-513.002-229.825-513.002-513.002s229.825-513.002 513.002-513.002 513.002 229.825 513.002 513.002-229.825 513.002-513.002 513.002zM769.503 248.861h-205.201v-205.201h-102.6v205.201h-205.201v102.6h205.201v205.201h102.6v-205.201h205.201v-102.6z" />
<glyph unicode="&#xe604;" glyph-name="minus2" d="M513.002 813.163c-283.177 0-513.002-229.825-513.002-513.002s229.825-513.002 513.002-513.002 513.002 229.825 513.002 513.002-229.825 513.002-513.002 513.002zM769.503 248.861h-513.002v102.6h513.002v-102.6z" />
<glyph unicode="&#xe605;" glyph-name="check" d="M1009.973 300.161c0-274.47-222.501-496.971-496.971-496.971s-496.971 222.501-496.971 496.971 222.501 496.971 496.971 496.971 496.971-222.501 496.971-496.971zM455.518 37.019l368.72 368.72c12.52 12.52 12.52 32.822 0 45.343l-45.343 45.343c-12.52 12.522-32.822 12.522-45.345 0l-300.705-300.703-140.392 140.392c-12.52 12.52-32.822 12.52-45.345 0l-45.343-45.343c-12.52-12.52-12.52-32.822 0-45.343l208.407-208.407c12.522-12.522 32.822-12.522 45.345-0.002z" />
<glyph unicode="&#xe606;" glyph-name="check1" d="M513.002 797.132c-274.47 0-496.971-222.501-496.971-496.971s222.501-496.971 496.971-496.971 496.971 222.501 496.971 496.971-222.501 496.971-496.971 496.971zM513.002 700.944c221.497 0 400.783-179.252 400.783-400.783 0-221.497-179.252-400.783-400.783-400.783-221.497 0-400.783 179.252-400.783 400.783 0 221.497 179.252 400.783 400.783 400.783zM793.959 439.9l-45.16 45.525c-9.352 9.428-24.578 9.491-34.006 0.136l-283.257-280.981-119.818 120.79c-9.352 9.428-24.578 9.491-34.006 0.138l-45.527-45.16c-9.428-9.352-9.491-24.578-0.136-34.008l181.917-183.39c9.352-9.428 24.578-9.491 34.006-0.136l345.853 343.078c9.426 9.354 9.487 24.58 0.134 34.008z" />
<glyph unicode="&#xe607;" glyph-name="cancel" d="M513.002 813.163c-283.69 0-513.002-229.312-513.002-513.002s229.312-513.002 513.002-513.002 513.002 229.312 513.002 513.002-229.312 513.002-513.002 513.002zM769.503 115.996l-72.333-72.333-184.168 184.168-184.168-184.168-72.333 72.333 184.168 184.168-184.168 184.168 72.333 72.333 184.168-184.168 184.168 184.168 72.333-72.333-184.168-184.168 184.168-184.168z" />
<glyph unicode="&#xe608;" glyph-name="cancel1" d="M513.002 813.163c-283.69 0-513.002-229.312-513.002-513.002s229.312-513.002 513.002-513.002 513.002 229.312 513.002 513.002-229.312 513.002-513.002 513.002zM513.002-110.24c-226.234 0-410.4 184.168-410.4 410.402s184.166 410.4 410.4 410.4 410.4-184.166 410.4-410.4-184.168-410.4-410.4-410.4zM697.17 556.662l-184.168-184.168-184.168 184.168-72.333-72.333 184.168-184.168-184.168-184.168 72.333-72.333 184.168 184.168 184.168-184.168 72.333 72.333-184.168 184.168 184.168 184.168z" />
<glyph unicode="&#xe609;" glyph-name="arrowdown" d="M513.002 797.132c-274.536 0-496.971-222.434-496.971-496.971s222.434-496.971 496.971-496.971 496.971 222.434 496.971 496.971-222.434 496.971-496.971 496.971zM513.002-100.622c-221.432 0-400.783 179.35-400.783 400.783s179.35 400.783 400.783 400.783 400.783-179.35 400.783-400.783-179.35-400.783-400.783-400.783zM773.31 312.385l-39.277 39.277c-9.619 9.619-25.049 9.418-34.467-0.401l-134.463-140.875v322.229c0 13.226-10.821 24.047-24.047 24.047h-56.11c-13.226 0-24.047-10.821-24.047-24.047v-322.229l-134.463 140.875c-9.418 9.819-24.849 10.020-34.467 0.401l-39.277-39.277c-9.418-9.418-9.418-24.648 0-34.067l243.275-243.275c9.418-9.418 24.648-9.418 34.067 0l243.275 243.275c9.418 9.418 9.418 24.648 0 34.067z" />
<glyph unicode="&#xe60a;" glyph-name="clear" d="M1026.004-212.841h-1026.004v1026.004h1026.004v-1026.004zM68.4-144.439h889.203v889.203h-889.203v-889.203zM239.4 573.764h68.4v-547.203h-68.4v547.203z" />
<glyph unicode="&#xe60b;" glyph-name="noclear" d="M1026.004-212.841h-1026.004v1026.004h1026.004v-1026.004zM68.4-144.439h889.203v889.203h-889.203v-889.203zM239.4 573.764h342.002v-547.203h-342.002v547.203zM718.203 573.764h68.402v-547.203h-68.402v547.203z" />
<glyph unicode="&#xe60c;" glyph-name="arrowdown1" d="M1009.973 300.161c0-274.536-222.434-496.971-496.971-496.971s-496.971 222.434-496.971 496.971 222.434 496.971 496.971 496.971 496.971-222.434 496.971-496.971zM722.211 358.074l-145.083-151.295v365.915c0 26.652-21.442 48.094-48.094 48.094h-32.063c-26.652 0-48.094-21.442-48.094-48.094v-365.915l-145.083 151.295c-18.636 19.438-49.697 19.839-68.734 0.802l-21.843-22.043c-18.837-18.837-18.837-49.296 0-67.933l265.719-265.919c18.837-18.837 49.296-18.837 67.933 0l265.919 265.919c18.837 18.837 18.837 49.296 0 67.933l-21.843 22.043c-19.037 19.037-50.098 18.636-68.734-0.802z" />
<glyph unicode="&#xe60d;" glyph-name="arrowup" d="M513.002-196.809c274.536 0 496.971 222.434 496.971 496.971s-222.434 496.971-496.971 496.971-496.971-222.434-496.971-496.971 222.434-496.971 496.971-496.971zM513.002 700.944c221.432 0 400.783-179.35 400.783-400.783s-179.35-400.783-400.783-400.783-400.783 179.35-400.783 400.783 179.35 400.783 400.783 400.783zM252.694 322.004l243.275 243.275c9.418 9.418 24.648 9.418 34.067 0l243.275-243.275c9.418-9.418 9.418-24.648 0-34.067l-39.277-39.277c-9.619-9.619-25.049-9.418-34.467 0.401l-134.463 140.875v-322.229c0-13.226-10.821-24.047-24.047-24.047h-56.11c-13.226 0-24.047 10.821-24.047 24.047v322.229l-134.463-140.875c-9.418-9.819-24.849-10.020-34.467-0.401l-39.277 39.277c-9.418 9.418-9.418 24.648 0 34.067z" />
<glyph unicode="&#xe60e;" glyph-name="arrowup1" d="M16.031 300.161c0 274.536 222.434 496.971 496.971 496.971s496.971-222.434 496.971-496.971-222.434-496.971-496.971-496.971-496.971 222.434-496.971 496.971zM303.793 242.248l145.083 151.295v-365.915c0-26.652 21.442-48.094 48.094-48.094h32.063c26.652 0 48.094 21.442 48.094 48.094v365.915l145.083-151.295c18.636-19.438 49.697-19.839 68.734-0.802l21.843 22.043c18.837 18.837 18.837 49.296 0 67.933l-265.719 265.919c-18.837 18.837-49.296 18.837-67.933 0l-266.12-265.919c-18.837-18.837-18.837-49.296 0-67.933l21.843-22.043c19.238-19.037 50.298-18.636 68.935 0.802z" />
<glyph unicode="&#xe60f;" glyph-name="plus4" d="M993.941 428.412h-352.689v352.689c0 17.707-14.356 32.063-32.063 32.063h-192.376c-17.707 0-32.063-14.356-32.063-32.063v-352.689h-352.689c-17.707 0-32.063-14.356-32.063-32.063v-192.376c0-17.707 14.356-32.063 32.063-32.063h352.689v-352.689c0-17.707 14.356-32.063 32.063-32.063h192.376c17.707 0 32.063 14.356 32.063 32.063v352.689h352.689c17.707 0 32.063 14.356 32.063 32.063v192.376c0 17.707-14.356 32.063-32.063 32.063z" />
<glyph unicode="&#xe610;" glyph-name="delete" d="M384.751 407.040v-384.753c0-12.023-9.35-21.374-21.374-21.374h-42.751c-12.023 0-21.374 9.35-21.374 21.374v384.753c0 12.023 9.35 21.374 21.374 21.374h42.751c12.023 0 21.374-9.35 21.374-21.374zM555.753 407.040v-384.753c0-12.023-9.35-21.374-21.374-21.374h-42.751c-12.023 0-21.374 9.35-21.374 21.374v384.753c0 12.023 9.35 21.374 21.374 21.374h42.751c12.023 0 21.374-9.35 21.374-21.374zM726.755 407.040v-384.753c0-12.023-9.35-21.374-21.374-21.374h-42.751c-12.023 0-21.374 9.35-21.374 21.374v384.753c0 12.023 9.35 21.374 21.374 21.374h42.751c12.023 0 21.374-9.35 21.374-21.374zM812.258-76.575v633.239h-598.505v-633.239c0-32.063 18.035-50.767 21.374-50.767h555.755c3.339 0 21.374 18.705 21.374 50.767zM363.38 642.163h299.252l-32.063 78.153c-2.004 2.673-8.016 6.679-11.354 7.346h-211.748c-4.008-0.669-9.35-4.677-11.354-7.346zM983.256 620.789v-42.749c0-12.023-9.35-21.374-21.374-21.374h-64.125v-633.239c0-73.476-48.094-136.266-106.877-136.266h-555.755c-58.783 0-106.877 60.117-106.877 133.593v635.91h-64.125c-12.023 0-21.374 9.35-21.374 21.374v42.751c0 12.023 9.35 21.374 21.374 21.374h206.403l46.759 111.55c13.36 32.732 53.436 59.448 88.842 59.448h213.749c35.401 0 75.479-26.72 88.842-59.448l46.759-111.55h206.403c12.023 0 21.374-9.35 21.374-21.374z" />
<glyph unicode="&#xe611;" glyph-name="tooltip" d="M156.614-68.835c-96.625 93.416-156.614 224.2-156.614 368.997 0 283.323 229.679 513.002 513.002 513.002 144.797 0 275.582-59.989 368.856-156.47l0.138-0.144c89.098-92.158 144.005-217.862 144.005-356.388 0-283.323-229.679-513.002-513.002-513.002-138.527 0-264.23 54.905-356.532 144.146l0.144-0.138zM809.667 3.498c74.309 74.309 120.271 176.966 120.271 290.359 0 226.785-183.845 410.63-410.63 410.63-113.391 0-216.050-45.962-290.359-120.271v0c-74.309-74.309-120.271-176.966-120.271-290.359 0-226.785 183.845-410.63 410.63-410.63 113.393 0 216.050 45.962 290.359 120.271v0zM468.008 242.557v102.6h102.6v-307.801h-102.6v205.201zM468.008 550.358h102.6v-102.6h-102.6v102.6z" />
<glyph unicode="&#xe612;" glyph-name="required" d="M908.815 161.058l-253.313 139.104 253.313 139.104c21.011 11.537 28.432 38.090 16.446 58.849l-34.698 60.101c-11.985 20.759-38.688 27.608-59.186 15.182l-247.123-149.827 6.19 288.926c0.513 23.965-18.771 43.667-42.741 43.667h-69.398c-23.969 0-43.254-19.702-42.739-43.667l6.188-288.926-247.123 149.825c-20.494 12.426-47.202 5.575-59.186-15.182l-34.7-60.101c-11.983-20.757-4.565-47.31 16.446-58.849l253.311-139.102-253.313-139.104c-21.009-11.537-28.432-38.090-16.444-58.847l34.698-60.101c11.985-20.757 38.692-27.608 59.186-15.182l247.123 149.827-6.19-288.926c-0.513-23.965 18.773-43.667 42.741-43.667h69.4c23.969 0 43.254 19.702 42.741 43.667l-6.19 288.928 247.123-149.823c20.496-12.426 47.202-5.577 59.186 15.182l34.698 60.101c11.985 20.757 4.567 47.308-16.446 58.845z" />
<glyph unicode="&#xe613;" glyph-name="minus4" d="M0 396.349v-192.376c0-17.707 14.356-32.063 32.063-32.063h961.879c17.707 0 32.063 14.356 32.063 32.063v192.376c0 17.707-14.356 32.063-32.063 32.063h-961.879c-17.707 0-32.063-14.356-32.063-32.063z" />
<glyph unicode="&#xe615;" glyph-name="download" d="M923.404 146.261v-205.201c0-7.028-1.385-13.647-3.848-19.596-2.565-6.258-6.413-11.903-11.182-16.673s-10.414-8.567-16.673-11.182c-5.95-2.463-12.569-3.848-19.596-3.848h-718.203c-7.028 0-13.645 1.385-19.596 3.848-6.258 2.565-11.903 6.413-16.673 11.182s-8.567 10.414-11.184 16.673c-2.463 5.95-3.848 12.569-3.848 19.596v205.201c0 28.317-22.983 51.3-51.3 51.3s-51.3-22.983-51.3-51.3v-205.201c0-20.777 4.156-40.681 11.697-58.893 7.797-18.879 19.238-35.806 33.397-49.966s31.087-25.598 49.966-33.397c18.161-7.489 38.066-11.645 58.843-11.645h718.203c20.777 0 40.681 4.154 58.893 11.697 18.879 7.797 35.806 19.238 49.966 33.395s25.598 31.089 33.397 49.966c7.491 18.161 11.645 38.064 11.645 58.841v205.201c0 28.317-22.983 51.3-51.3 51.3s-51.3-22.983-51.3-51.3zM564.302 270.099v491.764c0 28.317-22.983 51.3-51.3 51.3s-51.3-22.983-51.3-51.3v-491.764l-168.93 168.93c-20.059 20.059-52.533 20.059-72.538 0s-20.059-52.531 0-72.538l256.501-256.501c0.102-0.102 0.204-0.206 0.309-0.309 4.874-4.771 10.414-8.362 16.314-10.825 6.156-2.565 12.775-3.848 19.34-3.9 0.204 0 0.411 0 0.565 0 6.565 0.052 13.184 1.335 19.34 3.9 6.054 2.515 11.697 6.208 16.622 11.132l256.501 256.501c20.059 20.059 20.059 52.531 0 72.538s-52.531 20.059-72.54 0z" />
<glyph unicode="&#xe616;" glyph-name="upload" d="M923.404 146.261v-205.203c0-7.028-1.385-13.647-3.848-19.596-2.565-6.258-6.413-11.903-11.182-16.673s-10.414-8.567-16.673-11.182c-5.95-2.463-12.569-3.848-19.596-3.848h-718.205c-7.028 0-13.645 1.385-19.596 3.848-6.258 2.565-11.903 6.413-16.673 11.182s-8.567 10.414-11.184 16.673c-2.463 5.95-3.848 12.569-3.848 19.596v205.201c0 28.317-22.983 51.3-51.3 51.3s-51.3-22.983-51.3-51.3v-205.201c0-20.777 4.156-40.681 11.697-58.893 7.797-18.879 19.238-35.806 33.397-49.966s31.087-25.6 49.966-33.397c18.161-7.491 38.066-11.645 58.843-11.645h718.205c20.777 0 40.681 4.156 58.893 11.697 18.879 7.797 35.806 19.238 49.966 33.397s25.598 31.089 33.397 49.966c7.491 18.161 11.645 38.064 11.645 58.841v205.201c0 28.317-22.983 51.3-51.3 51.3s-51.3-22.983-51.3-51.3zM461.702 638.025v-491.764c0-28.317 22.983-51.3 51.3-51.3s51.3 22.983 51.3 51.3v491.764l168.93-168.93c20.059-20.059 52.531-20.059 72.54 0s20.059 52.531 0 72.538l-256.501 256.501c-0.052 0.052-0.154 0.102-0.206 0.206-4.874 4.821-10.466 8.465-16.416 10.927-12.569 5.18-26.728 5.18-39.297 0-5.952-2.463-11.543-6.104-16.416-10.927-0.052-0.052-0.154-0.102-0.204-0.206l-256.501-256.501c-20.059-20.059-20.059-52.531 0-72.538s52.533-20.059 72.538 0z" />
<glyph unicode="&#xe617;" glyph-name="highrise" d="M876.915 136.584c0 52.823-38.441 102.316-108.237 139.338-1.323 0.707-2.655 1.379-3.99 2.072l-1.046 122.541-3.503-0.034-0.453 1.156 1.685 4.463-86.415 32.7-1.246-3.272-1.301 3.252-46.707-18.68 2.603-6.503 45.451 18.173 79.646-30.131-77.323-30.075-45.429 18.173-2.601-6.503 44.503-17.809v-268.13l-25.602 9.853-2.513-6.547 30.363-11.681 1.256 3.274 1.345-3.242 84.078 35.038-1.335 3.222 5.827 0.042-1.222 142.831c64.935-34.243 105.151-81.455 105.151-133.517h-0.794l0.463-3.926c0.208-1.808 0.319-3.637 0.319-5.423 0-33.668-36.952-65.632-104.071-90.022-68.221-24.784-159.001-38.431-255.609-38.431s-187.39 13.655-255.609 38.441c-67.107 24.376-104.071 56.348-104.071 90.018 0 1.798 0.11 3.627 0.319 5.423l0.475 3.926h-0.792c0 57.176 48.491 108.48 124.956 143.194v-154.878h3.505l-1.313-3.25 86.417-35.038 1.313 3.252 0.044-3.503v3.425l1.719-2.944 28.027 16.344-3.527 6.050-22.758-13.276v194.752l34.816 14.338-0.463 0.595 2.579 1.994-2.062 5.014-37.648-15.506-80.046 73.554 76.299 32.7 45.042-40.545 4.685 5.2-46.707 42.046-2.349-2.601-1.379 3.218-81.744-35.034 0.639-1.489-1.599-1.729h-3.505v-85.026c-8.166-3.637-16.091-7.473-23.728-11.518-69.796-37.030-108.237-86.515-108.237-139.338 0-1.212 0.022-2.413 0.056-3.627l0.066-2.032c-0.088-1.234-0.132-2.469-0.132-3.691 0-36.832 38.595-71.139 108.678-96.599 68.969-25.059 160.598-38.86 258.002-38.86s189.033 13.799 258.002 38.86c70.081 25.458 108.678 59.767 108.678 96.599 0 1.224-0.044 2.469-0.132 3.713l0.066 2.006c0.044 1.212 0.066 2.413 0.066 3.627l0.054-0.008zM758.792 130.466l-79.231-33.006v267.941l77.113 29.989 2.27-265.298-0.154 0.375zM282.52 364.497l79.407-72.969v-196.46l-79.405 32.193v237.237zM458.702 139.437l54.533 21.845-104.721 40.988 50.19-62.831zM400.951 111.278l111.135-46.134-54.863 68.672-56.274-22.538zM409.063 207.063l101.206-39.609-49.771 64.298-51.434-24.688zM467.245 429.61l-48.272-26.947 93.238-36.479-44.966 63.426zM513.753 262.498l-102.582 40.601 50.717-65.51 51.865 24.909zM463.231 332.348l-50.048-25.029 99.398-39.347-49.35 64.376zM511.216 361.565l-92.124 36.048 45.505-59.358 46.617 23.31zM403.111 209.388l54.454 26.143-53.827 69.518-2.866-1.178-5.224-91.563 7.463-2.92zM412.149 368.068l-4.685-5.212-3.054 2.755-3.074-53.981 2.481 1.014 2.062-5.016 0.958 0.739-0.397 0.782 53.915 26.959-50.058 65.29 1.884 1.511-0.012 2.248h0.022v-2.216l0.804 2.050 0.353-0.132 51.182 28.568-40.271 56.791 3.813 2.699 40.567-57.21 45.142 25.193 2.27-4.078-44.701-24.953 47.807-67.416-0.174-0.132 0.505-1.002 0.958-0.375-0.343-0.86 0.529-1.070-1.178-0.585-0.717-1.83-1.653 0.651-49.583-24.786 53.937-70.357-1.808-1.521 0.958-2.004-55.789-26.782 53.949-69.674 7.162-2.809-3.164-1.266 1.984-1.98-3.306-3.306-3.395 3.395-56.284-22.548 59.657-74.666-2.723-3.615-127.467 52.909 5.873 4.509 57.077 22.869-58.586 73.331-5.873-102.869 1.984 1.156 3.527-6.050-5.996-3.493-1.467-25.778 130.655-55.37v-0.331l0.395 0.154 3.657-1.555 0.034 3.030 126.808 51.058-1.653 28.456-3.208 1.234 2.513 6.537 0.242-0.096-15.935 274.883-3.218 1.289 2.601 6.503 0.176-0.066-1.411 24.368-1.092-0.441-2.601 6.503 3.274 1.313-4.387 75.716-103.246-37.141-96.655 36.788-12.553 4.509-7.228-126.697 7.218-6.481zM521.312 537.946l16.951-7.527v5.070l-16.829 7.483-22.879-8.749v-4.972l22.758 8.695zM521.354 459.983l103.248 37.141-74.658 33.185v-5.070l62.214-27.652-90.745-32.646-95.729 36.435 61.212 23.408v4.972l-74.227-28.389 108.688-41.383zM538.263 503.262h11.681v53.717h-2.337v56.053h-7.010v-56.053h-2.337v-53.717zM486.883 482.247h11.681v53.715h-2.337v56.053h-7.010v-56.053h-2.337v-53.715zM978.796 103.605c-28.185 343.014-229.075 601.685-467.293 601.685-114.84 0-225.384-60.632-311.288-170.719-84.499-108.287-139.494-256.812-154.876-418.263-1.258-6.172-1.9-12.476-1.9-18.715 0-55.44 49.453-106.931 139.252-144.989 87.611-37.141 203.928-57.578 327.532-57.578s239.925 20.454 327.532 57.578c88.361 37.445 137.653 87.904 139.214 142.326h2.529l-0.713 8.677 0.012-0.004zM961.462 102.387c0.1-1.561 0.158-3.172 0.158-4.793 0-48.497-46.052-94.729-129.677-130.17-85.808-36.361-200.071-56.398-321.722-56.398-121.654 0-235.915 20.039-321.72 56.398-83.629 35.445-129.679 81.674-129.679 130.17 0 5.246 0.557 10.553 1.643 15.771l0.134 0.918c15.031 158.55 68.852 304.228 151.548 410.215 82.926 106.276 189.236 164.808 299.345 164.808 228.17 0 421.094-248.032 451.203-578.38h-1.804l0.555-8.537h0.014v-0.002zM510.221-122.879c-125.97 0-244.772 20.953-334.521 58.997-96.839 41.042-150.171 98.39-150.171 161.479 0 7.106 0.695 14.272 2.066 21.322 15.823 164.445 72.095 315.939 158.498 426.671 89.375 114.534 204.94 177.613 325.41 177.613 120.862 0 236.839-63.618 326.552-179.138 88.355-113.766 144.677-269.669 158.588-438.991l1.593-19.374h-0.014l0.713-8.677h-5.95c-10.362-54.913-62.203-104.442-148.246-140.903-89.781-38.046-208.583-58.997-334.523-58.997zM511.491 671.396c-104.47 0-205.762-56.082-285.225-157.914-80.621-103.33-133.126-245.7-147.839-400.889l-0.431-2.886c-0.842-4.034-1.268-8.11-1.268-12.114 0-40.261 43.287-81.696 118.758-113.684 83.667-35.453 195.44-54.977 314.733-54.977s231.067 19.524 314.735 54.977c75.469 31.986 118.756 73.423 118.756 113.684 0 0.818-0.024 1.679-0.062 2.573l-1.866 28.666h1.094c-16.707 148.863-68.083 284.652-145.634 384.154-79.622 102.152-181.104 158.409-285.75 158.409zM510.221-116.885c-125.189 0-243.159 20.783-332.181 58.518-94.485 40.044-146.516 95.432-146.516 155.963 0 6.815 0.675 13.695 2.010 20.458 15.673 163.439 71.518 313.937 157.287 423.848 88.212 113.047 202.099 175.304 320.682 175.304 244.471 0 450.468-263.37 479.164-612.627l1.060-12.891h-0.010l0.713-8.675h-4.533c-7.707-54.793-58.813-104.648-145.498-141.38-89.058-37.74-207.030-58.522-332.185-58.522zM511.491 677.39c-106.356 0-209.329-56.901-289.95-160.223-81.315-104.218-134.26-247.696-149.079-404.009l-0.331-2.224c-0.926-4.439-1.395-8.925-1.395-13.34 0-43.411 43.475-85.745 122.413-119.201 84.385-35.758 196.991-55.45 317.071-55.45s232.682 19.692 317.075 55.45c78.938 33.455 122.407 75.792 122.407 119.201 0 0.934-0.026 1.932-0.076 2.982l-1.455 22.265h1.379c-16.017 152.556-68.199 291.984-147.582 393.831-80.784 103.64-183.943 160.718-290.477 160.718zM510.221-134.794c-127.535 0-247.99 21.288-339.172 59.943-101.522 43.026-157.435 104.27-157.435 172.449 0 7.673 0.731 15.412 2.176 23.023 16.107 166.445 73.237 319.945 160.912 432.3 91.683 117.491 210.583 182.198 334.802 182.198 123.866 0 242.698-64.712 334.606-182.22 90.569-115.794 148.248-274.488 162.409-446.849l2.655-32.269h-0.010l0.713-8.675h-9.404c-6.946-25.626-22.105-49.911-45.214-72.391-26.428-25.704-62.714-48.437-107.865-67.568-91.216-38.651-211.667-59.939-339.172-59.939zM511.503 699.299c-112.943 0-221.817-59.811-306.563-168.415-83.685-107.243-138.226-254.463-153.576-414.54l-0.086-0.888-0.172-0.874c-1.108-5.621-1.671-11.336-1.671-16.987 0-52.881 48.154-102.412 135.595-139.468 86.862-36.822 202.351-57.102 325.193-57.102 122.808 0 238.301 20.28 325.193 57.102 80.118 33.946 127.976 79.185 134.751 127.383l2.164 15.412h0.659l-0.529 6.417c-14.182 163.824-68.999 314.087-154.57 423.491-84.972 108.64-193.782 168.469-306.392 168.469zM510.221-94.964c-122.427 0-237.512 20.193-324.059 56.867-41.341 17.522-73.744 37.549-96.314 59.526-24.564 23.921-37.020 49.545-37.020 76.165 0 5.463 0.559 10.991 1.661 16.454l0.19 1.276c15.198 159.485 69.436 306.086 152.744 412.86 84.088 107.766 192.077 167.114 304.070 167.114 112.175 0 220.35-59.526 304.599-167.619 81.197-104.173 134.922-247.285 151.273-402.967l2.076-19.779h-2.152l0.226-3.503c0.066-1.349 0.094-2.631 0.094-3.833 0-26.618-12.454-52.246-37.018-76.165-22.568-21.977-54.973-42.006-96.312-59.526-86.549-36.674-201.636-56.871-324.061-56.871zM511.491 659.481c-100.719 0-198.676-54.452-275.831-153.329-79.243-101.56-130.868-241.73-145.37-394.681l-0.114-0.948-0.515-3.246c-0.675-3.236-1.018-6.491-1.018-9.679 0-35.247 40.637-72.682 111.492-102.713 82.225-34.842 192.35-54.030 310.082-54.030s227.855 19.187 310.088 54.030c70.85 30.031 111.488 67.468 111.488 102.713 0 0.623-0.018 1.287-0.048 1.98l-2.689 41.174h0.391c-17.953 141.386-67.895 270.338-141.605 364.911-77.315 99.192-175.459 153.818-276.352 153.818zM510.221-119.12c-125.349 0-243.494 20.821-332.674 58.629-95.262 40.371-147.725 96.515-147.725 158.087 0 6.95 0.685 13.965 2.038 20.859 15.741 163.872 71.758 314.793 157.78 425.028 88.543 113.47 202.848 175.958 321.863 175.958 245.339 0 452.061-264.232 480.857-614.632l1.262-15.354h-0.010l0.713-8.675h-5.024c-8.701-54.925-60.039-104.678-146.402-141.276-89.214-37.802-207.361-58.622-332.676-58.622zM511.491 675.158c-105.921 0-208.477-56.669-288.768-159.572-81.036-103.857-133.799-246.87-148.574-402.691l-0.377-2.529c-0.888-4.248-1.335-8.545-1.335-12.771 0-41.756 44.178-84.425 121.205-117.069 84.225-35.692 196.654-55.348 316.578-55.348s232.354 19.656 316.578 55.348c77.026 32.646 121.203 75.317 121.203 117.069 0 0.878-0.024 1.816-0.066 2.793l-1.615 24.688h1.281c-16.286 151.079-68.153 289.087-146.815 390.014-80.453 103.224-183.192 160.071-289.295 160.071zM510.221-137.029c-127.697 0-248.323 21.326-339.663 60.047-102.3 43.355-158.642 105.356-158.642 174.577 0 7.799 0.739 15.671 2.2 23.412 16.172 166.886 73.48 320.817 161.405 433.491 92.010 117.914 211.331 182.851 335.982 182.851 124.287 0 243.522-64.917 335.738-182.789 90.882-116.165 148.757-275.37 162.968-448.284l2.856-34.73h-0.014l0.713-8.675h-10.112c-7.308-25.69-22.728-50.016-45.988-72.484-26.552-25.652-62.821-48.32-107.781-67.372-91.372-38.724-212-60.047-339.659-60.047zM511.503 701.533c-113.377 0-222.669-60.041-307.743-169.066-83.936-107.566-138.655-255.204-154.071-415.724l-0.084-0.872-0.168-0.862c-1.13-5.765-1.701-11.623-1.701-17.414 0-53.927 48.585-104.212 136.803-141.599 87.020-36.89 202.684-57.206 325.684-57.206 122.968 0 238.632 20.316 325.684 57.204 79.832 33.83 128.028 79.141 135.703 127.589l2.391 15.108h0.884l-0.699 8.539c-14.18 164.513-69.209 315.408-155.151 425.261-85.285 109.011-194.5 169.044-307.529 169.044zM510.221-92.732c-122.271 0-237.183 20.159-323.566 56.765-40.367 17.109-72.309 36.87-94.943 58.731-24.326 23.498-37.185 49.374-37.185 74.83 0 5.272 0.539 10.615 1.603 15.887l0.234 1.579c15.154 158.995 69.209 305.126 152.237 411.538 83.764 107.352 191.33 166.469 302.89 166.469 111.742 0 219.501-59.296 303.421-166.966 80.431-103.194 133.877-244.93 150.494-399.103l2.138-19.831h-2.104l0.387-5.992c0.054-1.252 0.084-2.455 0.084-3.581 0-25.458-12.857-51.336-37.183-74.83-22.634-21.861-54.577-41.619-94.939-58.731-86.389-36.603-201.301-56.765-323.572-56.765zM511.491 657.249c-100.286 0-197.826-54.222-274.648-152.678-78.962-101.2-130.409-240.903-144.863-393.364l-0.114-0.948-0.559-3.551c-0.635-3.046-0.958-6.112-0.958-9.11 0-33.716 41.229-71.315 110.285-100.582 82.062-34.774 192.009-53.927 309.591-53.927s227.526 19.151 309.593 53.927c69.053 29.265 110.283 66.867 110.283 100.582 0 0.577-0.014 1.19-0.038 1.83l-2.848 43.559h0.236c-18.175 139.897-67.82 267.492-140.777 361.095-76.992 98.769-174.717 153.167-275.177 153.167zM510.221-131.035c-126.912 0-246.708 21.157-337.325 59.574-99.945 42.357-154.989 102.396-154.989 169.056 0 7.519 0.721 15.106 2.148 22.568 16.027 165.874 72.908 318.799 160.189 430.651 90.851 116.423 208.493 180.543 331.257 180.543 251.597 0 463.427-268.935 492.73-625.572l2.327-28.243h-0.014l0.713-8.677h-8.224c-6.457-26.267-21.738-51.172-45.541-74.165-26.023-25.137-61.67-47.399-105.955-66.167-90.649-38.413-210.445-59.568-337.321-59.568zM511.503 707.525c-115.263 0-226.232-60.861-312.468-171.373-84.629-108.452-139.787-257.198-155.311-418.838l-0.168-1.154c-1.206-6.14-1.816-12.388-1.816-18.566 0-56.484 49.883-108.732 140.458-147.119 87.741-37.199 204.235-57.683 328.025-57.683 123.752 0 240.247 20.484 328.023 57.681 81.812 34.67 131.272 81.603 139.282 132.17l1.591 10.050h2.266l-0.713 8.677h0.014l-0.202 2.459c-28.281 344.164-229.897 603.697-468.98 603.697zM510.221-86.736c-121.485 0-235.568 19.991-321.227 56.292-39.688 16.817-71.015 36.171-93.118 57.518-23.46 22.66-35.355 46.389-35.355 70.522 0 4.924 0.511 9.919 1.515 14.851l0.281 1.888c15.027 157.93 68.65 303.022 151.013 408.58 82.599 105.859 188.49 164.157 298.164 164.157 109.853 0 215.93-58.476 298.689-164.658 79.758-102.324 132.767-242.981 149.27-396.062l1.423-13.194h-1.83l0.794-12.222c0.054-1.17 0.082-2.288 0.082-3.343 0-24.135-11.893-47.861-35.353-70.518-22.101-21.35-53.43-40.701-93.114-57.52-85.667-36.301-199.746-56.292-321.231-56.292zM511.491 663.24c-102.172 0-201.391-55.042-279.376-154.985-79.656-102.089-131.545-242.894-146.103-396.484l-0.076-0.631-0.497-3.208c-0.719-3.449-1.086-6.928-1.086-10.338 0-36.199 42.593-75.862 113.939-106.099 82.786-35.083 193.566-54.402 311.931-54.402s229.144 19.318 311.931 54.402c71.345 30.237 113.937 69.899 113.937 106.099 0 0.673-0.018 1.389-0.048 2.134l-2.437 37.265h0.633c-17.578 143.584-68.071 274.831-142.851 370.772-78.147 100.258-177.547 155.472-279.895 155.472zM1017.313 39.526c-1.653-1.994-3.479-4.186-5.439-6.525-13.248-15.815-32.578-38.277-45.934-51.182-27.606-26.668-65.089-50.146-111.41-69.774-92.813-39.331-215.090-60.989-344.31-60.989-129.258 0-251.537 21.662-344.314 60.995-106.985 45.339-165.906 111.235-165.906 185.544 0 8.356 0.776 16.791 2.307 25.087 16.46 168.904 74.624 324.838 163.818 439.146 94.32 120.87 216.976 187.436 345.377 187.436 127.287 0 249.383-66.013 343.793-185.875 79.702-101.188 134.583-234.484 157.798-381.158 3.902-24.644 6.907-49.669 8.988-74.982l3.922-47.619h-0.014zM511.491 645.331c-96.535 0-190.741-52.593-265.256-148.093-77.582-99.43-128.152-236.925-142.394-387.156l-0.206-1.687-0.663-4.118c-0.469-2.25-0.707-4.499-0.707-6.681 0-27.915 40.437-63.089 103.017-89.609 80.623-34.167 188.921-52.983 304.942-52.983s224.318 18.815 304.942 52.983c62.578 26.522 103.013 61.697 103.013 89.609 0 0.377-0.010 0.778-0.028 1.192l-3.040 46.531c-18.31 136.168-67.073 260.629-137.849 351.436-74.68 95.813-169.066 148.578-265.771 148.578z" />
<glyph unicode="&#xe61a;" glyph-name="move" d="M479.050 598.422h64.981v-660.915h-64.981v660.915zM511.539 787.513l162.451-194.941h-324.901zM998.893 300.161l-194.941-162.451v324.901zM349.088 7.75h324.901l-162.451-194.941-162.451 194.941zM27.113 287.945l194.941 162.451v-324.901zM219.128 332.651h584.822v-64.981h-584.822v64.981z" />
<glyph unicode="&#xe61b;" glyph-name="duplicate" d="M64.125 813.163h705.378v-64.125h-705.378v64.125zM705.378 813.163h64.125v-256.501h-64.125v256.501zM64.125 813.163h705.378v-64.125h-705.378v64.125zM256.501 620.787h705.378v-64.125h-705.378v64.125zM897.753 620.787h64.125v-641.252h-64.125v641.252zM64.125 813.163h64.125v-833.628h-64.125v833.628zM64.125 43.66h256.501v-64.125h-256.501v64.125zM256.501 620.787h64.125v-833.628h-64.125v833.628zM256.501-148.715h513.002v-64.125h-513.002v64.125zM705.378 43.66h64.125v-256.501h-64.125v256.501zM705.378 43.66h256.501v-64.125h-256.501v64.125zM448.877 428.412h320.626v-64.125h-320.626v64.125zM448.877 300.161h320.626v-64.125h-320.626v64.125zM448.877 171.911h192.376v-64.125h-192.376v64.125zM766.489-212.841l-47.773 40.976 195.39 192.504 47.773-40.976z" />
<glyph unicode="&#xe61c;" glyph-name="sms" d="M434.777 681.512c77.576 0 154.798 0.048 232.005-0.016 74.065-0.064 113.357-39.405 113.373-113.694 0.064-223.444 0.080-446.873 0.016-670.317-0.016-69.191-40.639-109.911-110.424-110.119-104.524-0.289-209.048-0.289-313.572-0.016-69.704 0.176-110.311 40.928-110.344 110.231-0.064 219.661-0.032 439.306-0.016 658.951 0.016 78.137 19.27 104.364 94.921 127.176 0 26.404-0.048 53.561 0.016 80.702 0.080 39.71 8.336 48.687 44.727 48.767 37.177 0.080 45.497-8.641 45.657-47.613 0.112-25.73 0.353-51.477 0.641-77.223 0.016-1.331 1.122-2.661 2.998-6.829zM512.206 286.998c40.896 0 81.792-0.513 122.688 0.128 47.485 0.737 77.672 31.534 77.976 79.002 0.305 46.202 0.273 92.388-0.032 138.591-0.321 50.386-30.315 80.365-80.91 80.541-78.762 0.289-157.524 0.224-236.285 0.016-51.941-0.128-82.337-29.818-82.914-81.295-0.513-45.433-0.497-90.882-0.016-136.314 0.529-50.13 30.972-80.173 81.359-80.621 39.373-0.353 78.762-0.080 118.135-0.048zM412.91 21.936c-34.628 0.112-35.044-0.305-35.141-35.333-0.080-29.61 1.475-31.213 29.93-31.357 34.804-0.176 36.135 0.818 36.295 27.221 0.224 38.299-0.609 39.373-31.069 39.469zM614.007-44.756c33.105-0.048 34.483 1.106 34.467 29.145-0.016 36.936-0.529 37.529-33.057 37.561-32.704 0.016-33.008-0.289-33.153-34.98-0.128-30.636 0.914-31.662 31.758-31.71zM614.374 50.231c33.329-0.032 34.099 0.625 34.083 29.065-0.032 36.455-0.529 37.016-33.409 37.016-32.303-0.016-32.72-0.449-32.8-35.221-0.064-30.315 0.481-30.844 32.127-30.86zM614.566-73.082c-32.207-0.016-32.207-0.016-32.319-35.301-0.096-29.578 0.834-30.443 32.624-30.443 32.511-0.016 33.666 1.010 33.602 29.594-0.096 36.183-0.096 36.183-33.906 36.151zM410.714 50.231c32.399 0 33.153 0.625 33.249 27.558 0.128 37.625-0.561 38.459-31.822 38.523-34.002 0.080-34.355-0.273-34.387-35.99-0.032-29.642 0.449-30.075 32.976-30.091zM411.498-73.082c-33.521 0.016-33.746-0.224-33.762-36.215-0.016-28.327 1.186-29.45 31.373-29.53 33.89-0.080 34.836 0.673 34.852 28.215 0.032 37.289-0.16 37.513-32.463 37.529zM545.714-13.381c-0.208 35.445-0.208 35.445-34.772 35.317-30.636-0.112-30.796-0.321-30.604-39.485 0.128-26.42 1.443-27.414 35.91-27.205 28.504 0.176 29.642 1.379 29.482 31.389zM412.155 209.919c-34.211 0.064-34.211 0.064-34.403-33.586-0.176-30.748 0.545-31.453 31.854-31.485 33.986-0.048 34.387 0.289 34.339 28.937-0.048 36.086-0.048 36.086-31.79 36.151zM648.424 179.203c-0.385 31.181-0.433 31.229-39.549 30.716-26.339-0.353-27.125-1.507-26.644-38.972 0.337-25.907 1.266-26.532 39.501-26.099 26.323 0.289 27.109 1.283 26.692 34.355zM514.034 116.312c-33.634 0.080-33.634 0.080-33.698-36.792-0.048-28.664 0.465-29.177 29.353-29.273 35.333-0.128 35.894 0.289 36.038 27.141 0.192 38.395-0.192 38.86-31.694 38.924zM545.696-107.18c-0.289 34.483-0.289 34.483-38.363 34.099-26.82-0.273-27.109-0.689-26.997-38.619 0.080-26.788 0.834-27.349 36.022-27.125 28.712 0.176 29.578 1.106 29.321 31.646zM513.715 144.848c31.357 0.032 32.031 0.625 31.998 28.664-0.032 36.439-0.032 36.439-33.554 36.407-31.95-0.016-31.95-0.016-31.838-37.898 0.080-27.141 0.16-27.221 33.377-27.189z" />
<glyph unicode="&#xe61d;" glyph-name="pencil" d="M1008.375 698.65c-9.523 22.574-22.636 41.846-38.83 58.037v0c-32.345 32.397-77.059 52.44-126.453 52.44-0.062 0-0.122 0-0.182 0h0.010c-0.046 0-0.1 0-0.154 0-49.394 0-94.106-20.041-126.449-52.436l-631.459-631.459c-5.605-5.583-9.797-12.579-11.997-20.41l-0.078-0.329-70.195-257.266c-1.060-3.687-1.671-7.923-1.671-12.298s0.609-8.613 1.749-12.627l-0.078 0.327c5.581-20.029 23.662-34.481 45.118-34.481 4.381 0 8.621 0.603 12.643 1.729l-0.331-0.078 257.264 70.195c8.162 2.268 15.162 6.463 20.739 12.076l631.523 631.395c32.401 32.429 52.44 77.217 52.44 126.685 0 24.716-5.004 48.264-14.049 69.684l0.443-1.176zM660.492 568.596l120.942-120.942-444.418-444.45-120.928 120.942zM114.417-98.437l45.325 166.283 1.022 1.022 120.946-120.942-1.004-0.988zM921.939 597.28c-4.557-10.773-10.827-19.969-18.57-27.694l-66.654-66.654-120.942 120.942 66.688 66.684c15.476 15.436 36.832 24.979 60.42 24.979 47.254 0 85.559-38.305 85.559-85.559 0-11.797-2.387-23.037-6.705-33.263l0.21 0.563z" />
<glyph unicode="&#xe61f;" glyph-name="paypal" d="M882.363 682.139c25.746-12.601 48.19-30.54 64.622-52.583 34.612-46.395 44.327-109.59 28.888-187.839-15.582-79.179-50.515-146.013-101.366-194.428-9.298-9.715-19.254-18.789-29.866-27.141-54.458-42.884-123.233-65.552-198.9-65.552h-240.534l-64.686-303.312h-132.691l10.1 46.395h46.218l64.686 303.312h188.64c180.609 0 331.592 111.289 371.991 300.523 45.817 214.258-107.811 311.649-239.877 311.649h-450.159l-199.446-915.484h152.33l-24.079-110.52h264.18l64.686 303.312h188.64c180.609 0 331.592 111.289 371.991 300.523 33.778 157.989-40.88 252.429-135.384 291.129zM423.162 626.719h129.389c64.718 0 107.811-55.645 88.958-125.205-16.16-69.576-83.555-125.221-150.935-125.221h-124.002l56.591 250.425z" />
<glyph unicode="&#xe620;" glyph-name="twilio" d="M1026.004 300.161c0 141.076-50.018 262.272-150.053 362.949-100.035 100.035-221.232 150.053-362.949 150.053-141.076 0-262.272-50.018-362.949-150.053-100.035-100.677-150.053-221.873-150.053-362.949 0-141.717 50.018-262.914 150.053-362.949 100.677-100.035 221.873-150.053 362.949-150.053 141.717 0 262.914 50.018 362.949 150.053s150.053 221.232 150.053 362.949zM889.417 300.161c0-103.883-37.193-192.376-110.295-266.12-73.744-73.744-162.237-110.295-266.12-110.295s-192.376 36.551-266.12 110.295c-73.103 73.744-110.295 162.237-110.295 266.12s37.193 192.376 110.295 266.12c73.744 73.103 162.237 110.295 266.12 110.295s192.376-37.193 266.12-110.295c73.103-73.744 110.295-162.237 110.295-266.12zM383.469 522.676c-28.215 0-52.583-10.26-72.462-30.139-19.879-20.52-30.139-44.246-30.139-72.462s10.26-52.583 30.139-72.462c19.879-20.52 44.246-30.139 72.462-30.139s52.583 9.619 72.462 30.139c19.879 19.879 30.139 44.246 30.139 72.462s-10.26 51.941-30.139 72.462c-19.879 19.879-44.246 30.139-72.462 30.139zM643.176 522.676c-28.215 0-52.583-10.26-72.462-30.139-19.879-20.52-30.139-44.246-30.139-72.462s10.26-52.583 30.139-72.462c19.879-20.52 44.246-30.139 72.462-30.139s52.583 9.619 72.462 30.139c20.52 19.879 30.139 44.246 30.139 72.462s-9.619 51.941-30.139 72.462c-19.879 19.879-44.246 30.139-72.462 30.139zM383.469 282.847c-28.215 0-52.583-10.26-72.462-30.139s-30.139-44.246-30.139-72.462c0-28.215 10.26-52.583 30.139-72.462s44.246-30.139 72.462-30.139 52.583 10.26 72.462 30.139 30.139 44.246 30.139 72.462c0 28.215-10.26 52.583-30.139 72.462s-44.246 30.139-72.462 30.139zM643.176 282.847c-27.574 0-51.941-9.619-72.462-30.139-20.52-20.536-30.139-44.246-30.139-73.103 0-27.574 9.619-51.941 30.139-71.82s44.888-30.139 72.462-30.139c28.856 0 52.583 10.26 72.462 30.139 20.52 19.879 30.139 44.246 30.139 71.82 0 28.856-9.619 52.583-30.139 73.103-19.879 20.52-43.605 30.139-72.462 30.139z" />
<glyph unicode="&#xe622;" glyph-name="mailchimp" d="M611.508 716.755c0.064 0.032 0.112 0.064 0.16 0.080l-0.16-0.080c0 0 0 0 0 0zM966.826 68.32c-0.064 1.715-0.208 3.351-0.401 4.89-0.128 1.026-0.321 2.036-0.577 3.014-0.417 2.276-0.946 4.537-1.715 6.701l-0.016 0.032c-1.571 4.473-4.008 8.753-7.15 12.376-3.11 3.607-6.845 6.461-10.597 8.449l-0.112 0.080c-3.992 2.084-7.903 3.254-11.446 3.928-1.042 0.192-2.020 0.289-2.982 0.401 4.537 19.462-1.138 34.307-4.809 41.249 0.289 0.273 0.593 0.545 0.85 0.802 4.841 4.681 8.962 9.17 12.44 13.659l0.657 0.898c2.789 4.008 4.633 8.096 5.803 11.863 0.994 3.238 1.491 6.156 1.779 8.817h0.032l0.032 0.16 0.016 0.385 0.112 0.818h-0.064l0.048 0.93h0.032l0.016 0.545c0.016 0.545 0.032 1.106 0.032 1.715 0.032 1.106 0.032 2.244-0.032 3.495-0.257 6.028-1.363 13.851-5.306 22.332-1.972 4.216-4.713 8.561-8.352 12.585-3.623 4.024-8.128 7.679-13.322 10.581l0.032-0.016c-0.385 0.208-0.673 0.417-1.026 0.609-10.773 15.855-23.085 28.151-33.986 37.481-5.659 4.841-10.933 8.865-15.438 12.168-4.457 3.27-8.224 5.851-10.308 7.406l0.032-0.016c-4.809 3.527-8.368 5.643-10.068 6.605-3.928 2.389-6.861 4.296-8.625 5.627-1.379 1.042-2.052 1.715-2.309 1.988l-0.128 0.176c-0.032 0.032-0.176 0.337-0.385 1.395-0.224 1.058-0.465 2.87-0.561 5.483-0.176 4.12-0.032 10.148 0.417 18.115 0.721 12.793 2.18 30.476 3.671 54.41 0.497 7.615 0.577 14.781 0.289 21.546-0.449 10.837-1.844 20.664-4.12 29.562l-0.016 0.048c-0.497 2.020-1.074 4.008-1.683 5.98l-0.016 0.016-0.016 0.032c-0.449 1.459-0.866 2.565-1.106 3.27l0.016-0.048c-0.465 1.299-0.93 2.597-1.459 3.896l-0.016 0.064c-0.257 0.641-0.593 1.459-1.026 2.485l-0.016 0.032-0.016 0.016-0.016 0.032c-0.818 1.924-1.747 3.976-2.918 6.204l-0.321 0.593-0.593 1.058-0.417 0.705c-2.18 3.591-4.489 6.861-6.909 9.923-1.218 5.499-3.335 13.659-6.845 22.909-3.11 8.144-7.294 17.186-13.242 26.099-2.068 3.078-4.409 6.124-6.974 9.090l0.85 0.882c1.202 1.266 29.738 31.149 52.086 69.929 41.649 72.301 27.782 116.5 8.833 140.835l-0.545 0.673-0.577 0.641c-18.276 20.312-43.14 32.56-73.888 36.375-63.692 7.919-135.705-23.326-154.59-32.223l-34.451 38.058c-3.030 3.335-6.413 6.316-10.020 8.929-3.639 2.613-7.535 4.89-11.623 6.781-8.208 3.799-17.202 6.188-26.772 7.374-19.206 2.357-40.784 0.064-64.237-5.948-35.157-9.074-74.642-26.628-115.922-51.38-41.249-24.768-84.245-56.767-125.974-94.825-50.996-46.523-93.126-95.707-123.826-142.39-15.342-23.342-27.83-46.074-37.096-67.62-9.266-21.562-15.358-41.938-17.699-60.807-1.699-13.707-1.427-26.66 1.315-38.603 1.202-5.226 2.934-10.244 5.146-14.989 2.838-6.108 6.509-11.783 11.078-16.785l0.112-0.128 39.934-41.826-0.224-0.401c-0.433-0.753-0.834-1.523-1.266-2.276-0.609-1.138-1.234-2.276-1.828-3.415-0.401-0.786-0.786-1.571-1.154-2.357-0.577-1.17-1.122-2.325-1.667-3.511-0.369-0.786-0.705-1.587-1.058-2.405-0.529-1.202-1.026-2.405-1.523-3.623-0.321-0.802-0.625-1.603-0.946-2.421-0.465-1.234-0.914-2.501-1.347-3.751-0.273-0.818-0.561-1.619-0.818-2.453-0.417-1.283-0.802-2.565-1.186-3.864-0.112-0.369-0.224-0.705-0.337-1.074-0.128-0.449-0.257-0.93-0.385-1.379-0.369-1.331-0.689-2.677-1.026-4.008-0.192-0.802-0.401-1.603-0.593-2.437-0.128-0.593-0.257-1.17-0.369-1.763-0.176-0.834-0.321-1.667-0.497-2.501-0.144-0.753-0.305-1.507-0.433-2.276-0.289-1.683-0.545-3.399-0.786-5.114-0.064-0.513-0.16-0.994-0.224-1.507l-0.016-0.144-0.032-0.449c-0.128-1.106-0.224-2.244-0.353-3.367-0.16-1.763-0.305-3.527-0.401-5.322-0.064-0.77-0.096-1.571-0.128-2.373-0.032-0.609-0.080-1.218-0.096-1.828-0.032-1.25-0.016-2.501-0.032-3.767 0-0.753-0.016-1.507 0-2.276 0.016-0.449-0.016-0.898 0-1.347v-0.257c0.032-0.802 0.064-1.619 0.080-2.437 0.032-0.898 0.112-1.763 0.176-2.629 0.032-0.657 0.064-1.315 0.096-1.956 0.064-0.577 0.080-1.010 0.128-1.395 0.080-0.818 0.144-1.667 0.24-2.485 0.080-0.946 0.192-1.956 0.337-3.126l0.016-0.096v0.016c0.064-0.449 0.112-0.753 0.16-1.106 0.128-0.93 0.273-1.876 0.417-2.805 0.112-0.834 0.257-1.779 0.449-2.95 0.096-0.465 0.16-0.866 0.24-1.202 0.096-0.561 0.224-1.122 0.337-1.683l0.016-0.048 0.16-0.802c0.144-0.77 0.337-1.747 0.625-3.078l0.016-0.032v0.016c0.080-0.353 0.144-0.577 0.208-0.882 0.208-0.85 0.369-1.475 0.497-1.924l0.208-0.866c0.080-0.273 0.144-0.545 0.24-0.946l0.208-0.786 0.176-0.657 0.144-0.593 0.016-0.064v0.016c0.080-0.273 0.144-0.481 0.224-0.721l0.224-0.818c0.192-0.625 0.401-1.266 0.593-1.892 0.224-0.737 0.529-1.715 0.946-3.030l-0.080 0.208 0.080-0.24c0.096-0.321 0.176-0.529 0.273-0.786 0.385-1.090 0.689-1.924 0.834-2.373l0.032-0.048v-0.016c0.257-0.721 0.625-1.763 1.138-3.126l0.016-0.016 0.048-0.128-0.016 0.064 0.224-0.561c0.337-0.85 0.593-1.491 0.818-1.988l0.257-0.641 0.032-0.096c0.128-0.321 0.321-0.753 0.529-1.266 0.192-0.465 0.433-1.010 0.689-1.635v0c0 0 0 0 0-0.016l0.257-0.561c0.257-0.593 0.513-1.138 0.721-1.587 0.208-0.417 0.385-0.802 0.529-1.106l0.016-0.048c0.337-0.705 0.737-1.603 1.299-2.709l0.080-0.16 0.24-0.465c0.24-0.465 0.481-0.914 0.673-1.299 0.289-0.561 0.561-1.026 0.77-1.427l0.032-0.080c0.305-0.561 0.737-1.379 1.315-2.437l0.032-0.064 0.032-0.080 0.24-0.417c0.24-0.417 0.465-0.834 0.689-1.202 0.369-0.625 0.721-1.202 0.994-1.667l0.080-0.128 0.016-0.032c0.289-0.449 0.721-1.186 1.331-2.164l0.064-0.096 0.176-0.289c0.305-0.465 0.593-0.93 0.866-1.331 0.417-0.625 0.786-1.186 1.106-1.683 0.353-0.529 0.85-1.283 1.523-2.244l0.064-0.080v-0.016l0.032-0.048 0.064-0.080 0.016-0.016c0.321-0.465 0.641-0.914 0.978-1.363 0.449-0.625 0.882-1.202 1.266-1.715l-0.032 0.032c0.369-0.497 0.818-1.106 1.379-1.844l0.096-0.128 0.048-0.048 0.048-0.064-0.080 0.080c0.417-0.545 0.818-1.042 1.202-1.539 0.513-0.625 0.994-1.234 1.443-1.779l0.144-0.192c0.305-0.369 0.657-0.818 1.154-1.379l0.208-0.257 0.208-0.208c0.721-0.85 1.363-1.571 2.020-2.292l0.689-0.786v-0.016l0.064-0.064c0.321-0.353 0.721-0.802 1.202-1.331l0.144-0.176v-0.016l0.032-0.016 0.064-0.064c0.786-0.85 1.539-1.619 2.309-2.405 0.321-0.321 0.625-0.673 0.946-0.978l0.048-0.032c0.16-0.16 0.545-0.545 1.138-1.154l0.112-0.096 0.337-0.369c0.93-0.914 1.892-1.779 2.854-2.661l0.224-0.224 0.064-0.048 0.064-0.064c0.24-0.224 0.641-0.577 1.202-1.090l0.064-0.064c1.234-1.090 2.453-2.148 3.687-3.158l0.080-0.064 0.689-0.577 0.481-0.385-0.016 0.016 0.705-0.561c1.042-0.834 2.052-1.635 3.030-2.389l0.273-0.224 0.128-0.096c0.385-0.273 0.657-0.481 0.802-0.609l0.192-0.144 0.144-0.096c0.289-0.208 0.577-0.401 0.866-0.609 0.866-0.625 1.747-1.25 2.613-1.844l0.737-0.513 0.080-0.064 0.914-0.625 0.048-0.016 0.465-0.305c0.882-0.593 1.828-1.186 2.773-1.779 0.497-0.321 0.946-0.609 1.459-0.93l0.802-0.481 0.449-0.257 0.289-0.176c1.459-0.882 2.838-1.667 4.104-2.373l0.112-0.064 0.786-0.417 0.064-0.032c1.747-0.93 3.399-1.779 4.954-2.549l1.122-0.545v0.016c0.85-0.417 1.667-0.753 2.501-1.138 0.385-0.176 0.786-0.369 1.186-0.545 0.481-0.208 0.978-0.465 1.443-0.657l0.401-0.176 0.112-0.048 0.192-0.080c0.818-0.353 1.619-0.641 2.421-0.962l0.417-0.16c0.898-0.369 1.796-0.753 2.709-1.090l0.208-0.080 0.657-0.24c0.417-0.144 0.85-0.289 1.283-0.433l0.401-0.128c1.283-0.465 2.581-0.93 3.896-1.347l0.305-0.096 0.112-0.032 0.048-0.032c2.020-0.625 4.040-1.202 6.044-1.747l0.417-0.112-0.112 0.032c1.779-0.465 3.527-0.866 5.258-1.266h0.032l0.641-0.176 0.673-0.144c1.651-0.369 3.335-0.657 5.034-0.946l0.481-0.128 1.202-0.176c1.026-0.16 2.036-0.305 3.062-0.433 0.16-0.417 0.305-0.834 0.449-1.202l0.016-0.064c2.789-7.615 5.819-15.198 9.058-22.716 47.902-132.563 180.32-235.324 331.447-254.128 151.111-18.789 312.418 81.647 378.147 217.369 2.838 5.194 5.419 10.292 7.775 15.23 6.509 6.701 11.575 13.659 14.941 21.049 4.024 8.673 5.37 17.795 4.986 25.265zM311.017 297.424c-0.112-0.208-0.497-0.898-1.090-1.924-1.058-1.876-2.789-4.97-4.825-8.625-0.994-1.796-2.068-3.703-3.158-5.707-0.737-1.347-1.491-2.725-2.244-4.104l-0.353-0.641-0.144-0.257c-0.273-0.529-0.561-1.042-0.85-1.571l-6.926-12.456c-0.577 0.305-1.154 0.577-1.747 0.882l-0.337 0.16-0.609 0.305c-3.783 1.812-7.775 3.27-11.895 4.344l-0.657 0.16c-2.645 0.657-5.354 1.17-8.112 1.491-1.603 0.176-3.206 0.321-4.825 0.401-1.347 0.064-2.709 0.080-4.072 0.048-2.052-0.048-4.088-0.224-6.076-0.433-0.625-0.080-1.25-0.192-1.86-0.273-0.994-0.144-1.956-0.337-2.95-0.513-0.385-0.080-0.786-0.128-1.154-0.224-0.689-0.144-1.363-0.289-2.052-0.465-1.331-0.321-2.645-0.689-3.944-1.106-0.593-0.192-1.202-0.353-1.779-0.545-1.763-0.609-3.479-1.283-5.162-2.036-0.673-0.305-1.299-0.641-1.94-0.946-0.77-0.385-1.523-0.786-2.292-1.17l-0.786-0.401c-0.834-0.465-1.651-0.962-2.453-1.443-0.753-0.465-1.507-0.946-2.228-1.443-0.898-0.593-1.763-1.186-2.613-1.812-0.529-0.401-1.026-0.802-1.539-1.218-1.379-1.090-2.693-2.26-3.976-3.463-0.657-0.609-1.299-1.25-1.94-1.892-1.122-1.106-2.228-2.26-3.254-3.447l-0.529-0.593c-0.545-0.641-1.058-1.331-1.555-2.004l-0.080-0.096-0.064-0.096c-0.353-0.449-0.721-0.898-1.058-1.347l-0.257-0.353-0.032-0.032c-2.084-2.902-3.896-5.996-5.483-9.218-0.224-0.465-0.433-0.93-0.657-1.411-0.721-1.587-1.395-3.19-2.004-4.825-0.24-0.657-0.513-1.283-0.721-1.94l-0.016-0.016v-0.016l-0.016-0.016c-0.561-1.667-1.042-3.367-1.459-5.114l-0.16-0.641-0.16-0.818-0.016-0.080c-0.289-1.266-0.561-2.533-0.753-3.815-0.096-0.625-0.16-1.266-0.257-1.924l-0.032-0.176c-0.080-0.673-0.144-1.363-0.224-2.052-0.064-0.513-0.144-1.042-0.176-1.571-0.144-2.020-0.208-4.072-0.16-6.14 0.032-1.603 0.176-3.174 0.337-4.745l0.016-0.096 0.048-0.737c0.080-0.866 0.24-1.731 0.369-2.597 0.465-3.142 1.106-6.204 2.004-9.17 0.673-2.26 1.459-4.473 2.373-6.621 1.667-3.96 3.735-7.679 6.108-11.174 4.986-7.39 11.382-13.707 18.869-18.532 4.248-2.725 8.833-4.954 13.675-6.653 4.649-1.651 9.507-2.838 14.556-3.399 1.138-0.112 2.276-0.208 3.447-0.289 1.731-0.112 3.447-0.192 5.21-0.144 1.619 0.032 3.19 0.24 4.793 0.385 0.914 0.080 1.844 0.096 2.741 0.224 2.276 0.321 4.537 0.786 6.733 1.331l0.497 0.112c0.914 0.24 1.779 0.577 2.661 0.85 2.789 0.85 5.467 1.86 8.080 3.062l0.577 0.257c0.721 0.305 1.475 0.609 2.18 0.978 0.080-0.497 0.176-0.978 0.273-1.475 0.305-1.763 0.641-3.559 0.978-5.338 3.062-16.272 6.669-32.287 6.669-32.287-5.499-4.104-14.701-8.128-25.105-11.158-3.463-1.010-7.070-1.892-10.709-2.645-2.341-0.497-4.681-0.898-7.038-1.25-2.661-0.401-5.306-0.721-7.935-0.93-1.924-0.16-3.815-0.273-5.675-0.321-1.379-0.016-2.773 0-4.152 0.032-5.803 0.080-11.51 0.577-17.073 1.459l-0.080 0.032c-1.812 0.289-3.623 0.625-5.387 0.994-0.016 0-0.032 0-0.032 0.016l-0.144 0.048c-1.763 0.385-3.511 0.786-5.258 1.25l-0.24 0.064c-0.882 0.24-1.763 0.513-2.645 0.77-0.802 0.24-1.619 0.449-2.421 0.689l-0.337 0.112c-1.651 0.529-3.254 1.090-4.857 1.683l-0.433 0.16c-1.571 0.593-3.11 1.202-4.649 1.844l-0.529 0.24c-1.507 0.657-2.982 1.331-4.457 2.036l-0.609 0.289c-1.427 0.705-2.838 1.427-4.232 2.18l-0.689 0.401c-1.347 0.753-2.693 1.507-4.008 2.309l-0.818 0.481c-1.266 0.77-2.533 1.587-3.767 2.421l-0.898 0.609c-1.202 0.818-2.373 1.651-3.543 2.501-0.305 0.24-0.641 0.497-0.962 0.721-1.122 0.85-2.244 1.715-3.335 2.613-0.353 0.273-0.673 0.577-1.026 0.866-1.058 0.866-2.084 1.763-3.11 2.661-0.369 0.337-0.721 0.673-1.090 0.994-0.962 0.898-1.94 1.796-2.87 2.709-0.385 0.385-0.77 0.77-1.154 1.154-0.898 0.898-1.779 1.812-2.645 2.757-0.401 0.433-0.786 0.866-1.186 1.299-0.834 0.93-1.651 1.844-2.437 2.789-0.417 0.481-0.818 0.978-1.202 1.459-0.77 0.914-1.507 1.844-2.228 2.789-0.417 0.529-0.818 1.090-1.218 1.635-0.689 0.93-1.363 1.844-2.020 2.789-0.417 0.593-0.802 1.202-1.202 1.812-0.625 0.914-1.234 1.828-1.828 2.773-0.401 0.657-0.786 1.315-1.186 1.956-0.561 0.93-1.106 1.844-1.635 2.789-0.401 0.705-0.77 1.427-1.154 2.132-0.497 0.914-0.978 1.812-1.443 2.741-0.385 0.77-0.753 1.539-1.106 2.309-0.208 0.449-0.417 0.914-0.625 1.363s-0.433 0.898-0.641 1.363c-0.353 0.818-0.689 1.635-1.042 2.453-0.369 0.898-0.77 1.796-1.106 2.693-0.257 0.641-0.481 1.283-0.689 1.924l-0.257 0.705c-0.321 0.898-0.657 1.779-0.946 2.677-0.305 0.914-0.577 1.844-0.866 2.773-0.257 0.882-0.545 1.747-0.786 2.629l-0.208 0.818-0.176 0.673-0.224 0.882-0.144 0.593c-0.208 0.85-0.449 1.683-0.641 2.549-0.24 1.042-0.433 2.116-0.641 3.174-0.16 0.818-0.337 1.619-0.497 2.453-0.192 1.138-0.353 2.276-0.513 3.431-0.080 0.641-0.192 1.283-0.289 1.924v0.096l-0.048 0.289c-0.144 1.266-0.273 2.549-0.385 3.831-0.032 0.369-0.080 0.753-0.096 1.138l-0.096 0.866c-0.128 1.635-0.192 3.27-0.24 4.922 0 0.337-0.048 0.657-0.048 1.010-0.048 2.116-0.048 4.232 0.032 6.332 0.064 1.715 0.144 3.415 0.257 5.114l0.064 0.802c0.176 2.148 0.417 4.264 0.689 6.364 1.459 10.741 4.393 21.017 8.593 30.636 0.112 0.273 0.224 0.577 0.353 0.85 0.657 1.475 1.363 2.934 2.084 4.377 2.036 4.104 4.312 8.080 6.797 11.879 1.331 2.020 2.709 3.992 4.152 5.916 1.218 1.635 2.469 3.238 3.783 4.793 4.553 5.483 9.587 10.533 15.085 15.085l0.224 0.192c6.364 5.258 13.29 9.891 20.712 13.707 0.834 0.417 1.683 0.834 2.533 1.234 0.689 0.337 1.395 0.673 2.084 1.010 2.453 1.122 4.954 2.164 7.503 3.126 7.471 2.822 15.326 4.874 23.47 6.092l0.818 0.128c4.521 0.641 9.106 1.058 13.787 1.154 1.042 0.032 2.084 0 3.126-0.032 2.148-0.048 4.296-0.144 6.445-0.337 0.753-0.080 1.507-0.16 2.276-0.224 0.77-0.080 1.555-0.128 2.309-0.24 1.587-0.224 3.158-0.513 4.713-0.802 1.988-0.369 3.928-0.85 5.867-1.315l0.16-0.032c2.838-0.673 5.595-1.443 8.304-2.292 0.834-0.257 1.715-0.481 2.533-0.753 3.222-1.090 6.316-2.26 9.266-3.463 2.453-1.010 4.809-2.036 7.038-3.078 6.974-3.238 12.697-6.445 16.624-8.833 3.447-2.1 5.547-3.543 5.819-3.719l0.064-0.048 0.032-0.016h0.016l-0.064-0.096zM296.381 450.298c2.164 2.549 4.361 5.082 6.557 7.647-2.661-2.661-4.152-4.040-4.312-3.88-0.385 0.257 8.897 11.575 25.907 29.898 8.481 9.138 18.869 19.991 30.956 32.111 22.332 23.502 45.978 46.876 70.778 69.384 23.502 21.306 48.030 41.81 73.423 60.935 1.266 0.946 2.501 1.892 3.767 2.838 9.683 7.214 19.51 14.204 29.45 20.953 6.012 4.088 12.072 8.112 18.163 12.007l-70.746 80.637 23.855 7.118 46.571-23.694-1.315 16.095 8.128 17.971 21.738 4.922 51.060-59.316c0.609 0.289 1.234 0.593 1.844 0.866 4.264 1.988 8.432 3.88 12.553 5.691 2.453 1.074 4.874 2.116 7.278 3.158 1.603 0.673 3.174 1.331 4.745 1.988 28.584 11.35 78.569 27.333 122.479 21.69 8.849-1.138 17.458-3.174 25.586-6.284 0.882-0.529 1.763-1.058 2.613-1.619l-0.657 0.192-0.705 0.208-0.289 0.064-0.080 0.032c-0.385 0.096-0.786 0.16-1.186 0.257-7.246 1.812-14.893 2.773-23.037 2.934-2.87 0.064-5.787 0.032-8.769-0.096-19.43-0.834-41.569-5.338-67.219-13.562-13.338-4.296-27.702-9.699-42.98-16.111-2.709-1.138-5.387-2.244-8.16-3.447-3.030-1.315-6.124-2.693-9.218-4.104-0.753-0.337-1.507-0.673-2.26-1.010-0.385-0.176-0.753-0.337-1.138-0.513-0.721-0.321-1.459-0.689-2.196-1.010-2.645-1.218-5.322-2.485-8.016-3.751-0.753-0.353-1.491-0.689-2.244-1.058-0.417-0.192-0.85-0.417-1.266-0.609-2.309-1.106-4.633-2.244-6.99-3.383l-0.257-0.128c-0.16-0.080-0.321-0.144-0.481-0.224-0.753-0.369-1.491-0.721-2.26-1.090l-0.176-0.080c-0.417-0.208-0.834-0.433-1.25-0.641-1.122-0.561-2.212-1.138-3.335-1.699-0.834-0.417-1.683-0.85-2.517-1.283-0.449-0.224-0.898-0.449-1.347-0.673-5.354-2.741-10.709-5.547-16.031-8.449h-0.016c-1.683-0.914-3.383-1.86-5.050-2.789-2.822-1.571-5.643-3.126-8.432-4.729-1.154-0.657-2.309-1.331-3.463-1.988-2.212-1.283-4.409-2.581-6.605-3.88-2.244-1.331-4.489-2.661-6.733-4.008-1.202-0.721-2.373-1.443-3.559-2.18-2.1-1.283-4.2-2.533-6.284-3.831-4.184-2.613-8.352-5.258-12.504-7.935-12.969-8.368-25.778-17.121-38.411-26.195v0c-28.84-20.68-56.751-42.964-83.587-66.113-44.166-38.155-85.287-78.634-122.367-118.183zM942.571 65.515l-0.016-0.016c-0.080-5.579-1.683-11.783-6.541-18.805-0.289-0.417-0.625-0.85-0.946-1.266-2.196-2.982-4.922-6.092-8.432-9.362l-0.176-0.417c-0.93-1.988-1.892-4.008-2.918-6.044l-0.337-0.705c-0.369-0.753-0.753-1.507-1.122-2.26-0.802-1.619-1.667-3.254-2.533-4.906-0.433-0.834-0.866-1.651-1.315-2.485-1.138-2.116-2.325-4.264-3.543-6.413-0.689-1.186-1.395-2.373-2.116-3.575-0.641-1.090-1.315-2.196-1.972-3.302-0.866-1.411-1.747-2.838-2.645-4.264-0.417-0.641-0.85-1.299-1.266-1.94-1.747-2.693-3.607-5.403-5.483-8.096-0.433-0.641-0.818-1.25-1.266-1.892l-0.385-0.561c-1.347-1.876-2.741-3.767-4.168-5.675l-0.417-0.561c-5.819-7.711-12.248-15.406-19.414-22.941-5.419-5.707-11.254-11.302-17.49-16.753-0.385-0.321-0.753-0.625-1.106-0.946l-0.048-0.048c-6.284-5.258-12.745-10.084-19.254-14.685-3.896-2.709-7.823-5.322-11.799-7.823l-0.112-0.080c-5.29-3.318-10.613-6.477-15.967-9.41l-1.106-0.625c-7.679-4.12-15.422-7.855-23.261-11.238-12.953-5.643-26.115-10.292-39.277-14.059-109.093-31.293-219.821-3.254-246.658 18.58l11.863-21.241c-1.779 0.818-4.152 2.725-6.893 5.322-8.208 7.807-19.735 22.043-28.407 33.169-0.962 1.234-1.876 2.437-2.773 3.591l-0.048 0.064c-0.77 0.994-1.475 1.94-2.164 2.838l-0.705 0.914c-1.395 1.828-2.629 3.479-3.607 4.777-0.497 0.513-0.994 1.010-1.491 1.539-0.497 0.513-0.994 1.026-1.491 1.539-0.305-1.283-0.032-3.318 0.561-5.691 2.068-8.416 8.192-21.209 8.24-21.322-5.306 6.541-10.436 14.124-15.101 21.674-3.896 6.316-7.471 12.617-10.549 18.308-0.753 1.427-1.491 2.805-2.196 4.136-2.1 4.008-3.896 7.583-5.306 10.452-1.218 1.587-2.437 3.126-3.639 4.729-0.385-11.543 2.629-21.883 5.723-29.353 0.385-0.93 0.786-1.828 1.17-2.661l0.080-0.144c0.369-0.786 0.721-1.539 1.074-2.228l0.096-0.192c0.337-0.657 0.657-1.299 0.962-1.86l0.064-0.096c1.651-3.062 2.87-4.825 2.886-4.841v-0.016c-2.1 2.164-4.12 4.361-6.092 6.541-0.625 0.705-1.218 1.395-1.828 2.1-1.315 1.475-2.613 2.982-3.864 4.473-0.689 0.834-1.363 1.667-2.020 2.501-1.122 1.363-2.212 2.725-3.27 4.104-0.673 0.882-1.331 1.763-1.972 2.645-1.010 1.331-1.988 2.661-2.934 4.008-0.625 0.898-1.25 1.779-1.86 2.677-0.914 1.347-1.812 2.693-2.693 4.040-0.561 0.866-1.122 1.747-1.667 2.613-0.882 1.395-1.731 2.805-2.549 4.2-0.497 0.818-0.978 1.619-1.443 2.437-0.882 1.555-1.731 3.11-2.565 4.665-0.337 0.657-0.705 1.315-1.058 1.972-2.292 4.441-4.344 8.865-6.188 13.274-0.289 0.689-0.545 1.363-0.802 2.036-0.609 1.523-1.218 3.046-1.763 4.553-0.305 0.818-0.577 1.651-0.866 2.469-0.481 1.363-0.946 2.741-1.379 4.12-0.273 0.866-0.545 1.747-0.802 2.613-0.401 1.315-0.77 2.645-1.138 3.96-0.24 0.882-0.481 1.763-0.689 2.645-0.337 1.315-0.641 2.629-0.946 3.928-0.192 0.866-0.385 1.731-0.577 2.597-0.289 1.347-0.529 2.677-0.786 4.024-0.144 0.802-0.305 1.635-0.433 2.437-0.257 1.459-0.449 2.918-0.641 4.377-0.080 0.673-0.208 1.347-0.289 2.020-0.257 2.116-0.481 4.232-0.641 6.332l-0.032 0.433-0.048 0.689c-0.128 1.731-0.224 3.447-0.305 5.178-0.064 1.699-0.112 3.399-0.112 5.098v0.289c0 2.212 0.048 4.393 0.128 6.573 0.032 0.689 0.064 1.363 0.096 2.052 0.080 1.507 0.176 3.014 0.305 4.505 0.064 0.753 0.128 1.507 0.208 2.26 0.144 1.475 0.305 2.95 0.497 4.425 0.080 0.657 0.16 1.331 0.257 1.988 0.289 2.068 0.609 4.104 0.978 6.124l0.032 0.192c0.369 2.020 0.786 4.008 1.25 5.996 0.128 0.657 0.305 1.299 0.465 1.94 0.321 1.395 0.673 2.757 1.042 4.12 0.192 0.705 0.369 1.411 0.577 2.1 0.385 1.363 0.786 2.709 1.218 4.056 0.176 0.609 0.369 1.202 0.577 1.812 0.609 1.908 1.266 3.799 1.94 5.659 1.202 3.27 2.501 6.461 3.896 9.571 8.689 19.462 20.777 35.734 33.858 47.244-2.004 3.222-3.928 6.396-5.819 9.571-6.797 11.446-12.825 22.588-18.115 33.425-0.096-1.731-0.144-2.725-0.144-2.725l1.010-26.468 0.176-4.713c-0.882 1.154-1.779 3.014-2.709 5.338-7.070 17.971-14.669 65.584-14.669 65.584-4.344-2.918-4.906-28.616-4.906-28.616-2.966 14.14-4.152 30.732-4.569 44.487-0.096 3.286-0.16 6.364-0.192 9.25-0.032 2.87-0.032 5.499 0 7.839 0 1.090 0.032 2.1 0.032 3.046v0.705l-0.096 0.497c-0.305 1.539-0.593 3.062-0.882 4.585-1.218-2.148-2.212-4.312-3.11-6.477-0.208-0.513-0.433-1.010-0.625-1.523-0.449-1.17-0.866-2.325-1.234-3.495-1.507-4.713-2.405-9.298-2.918-13.45-0.224-1.924-0.385-3.719-0.497-5.387-0.417-7.31 0.257-12.28 0.257-12.28-0.753 3.88-1.395 7.679-2.004 11.462-0.192 1.202-0.353 2.405-0.529 3.607-0.657 4.312-1.218 8.577-1.683 12.761-0.096 0.882-0.208 1.779-0.289 2.661-0.048 0.401-0.064 0.77-0.096 1.17-0.16 1.587-0.289 3.158-0.417 4.745-0.321 3.783-0.577 7.535-0.737 11.206l-0.048 0.593c-0.16 3.703-0.224 7.326-0.24 10.917 0 0.433 0 0.866 0.016 1.283 0 1.844-0.016 3.687 0.032 5.483 0.032 1.587 0.112 3.126 0.176 4.697l0.032 0.737c0.144 3.19 0.337 6.332 0.593 9.442 0.273 3.399 0.593 6.749 1.010 10.036 0.176 1.315 0.385 2.597 0.561 3.896 0.946 6.573 2.132 12.969 3.607 19.125l0.208 0.786c0.369 1.523 0.77 3.030 1.17 4.537 1.523 5.659 3.254 11.158 5.178 16.464 3.864 10.613 8.513 20.52 13.835 29.77l0.321 0.529c2.581 4.441 5.29 8.721 8.176 12.857 3.864 5.563 8.032 10.805 12.376 15.855 0.962 1.106 1.86 2.276 2.854 3.367 0.786 0.882 1.619 1.683 2.421 2.533 1.94 2.1 3.896 4.216 5.932 6.236 0.818 0.818 1.699 1.571 2.533 2.373 23.261 22.348 50.964 39.004 79.050 51.541 3.912 1.747 7.823 3.415 11.719 5.002 5.451 2.212 10.901 4.328 16.304 6.268 6.942 2.485 13.819 4.761 20.584 6.829 18.308 5.611 35.702 9.811 50.948 13.066 1.523 0.321 3.014 0.641 4.473 0.946 5.483 4.505 11.975 9.090 19.302 13.13 10.629 5.867 23.021 10.597 36.952 12.104 0.417 0.048 0.882 0.048 1.299 0.096 0.721 0.064 1.459 0.096 2.18 0.16 0.497 0.048 0.978 0.080 1.475 0.112 0.593 0.032 1.154 0.112 1.747 0.128 0 0-0.866-0.176-2.18-0.561-0.593-0.176-1.283-0.401-2.084-0.673-0.289-0.112-0.545-0.192-0.866-0.305-0.85-0.321-1.779-0.737-2.757-1.186-5.595-2.613-12.937-7.567-17.907-16.769l-0.016-0.016c0.673 0.080 1.363 0.176 2.036 0.257l0.417 0.176c0.737 0.305 1.571 0.657 2.533 1.058 6.749 2.757 18.885 7.294 31.485 9.971 0.433 0.096 0.866 0.192 1.299 0.273l0.465 0.096c0.529 0.096 1.042 0.208 1.571 0.289 0.818 0.144 1.635 0.257 2.437 0.401 2.501 0.401 5.018 0.753 7.471 0.93 0 0-4.296-1.796-8.577-4.232-3.447-1.94-6.877-4.264-8.144-6.38 5.387 1.074 11.062 1.539 16.705 1.587h0.257c4.393 0.048 8.753-0.24 13.066-0.657 0.369-0.032 0.737-0.064 1.090-0.096 0.898-0.096 1.812-0.144 2.709-0.257 1.892-0.224 3.767-0.497 5.611-0.786 5.483-0.866 10.645-1.988 15.278-3.206 0.337-0.080 0.705-0.176 1.058-0.257 5.595-1.491 10.308-3.078 13.787-4.473 0.689-0.289 1.347-0.561 1.94-0.818 1.699-0.753 2.982-1.427 3.687-1.956l-0.144 0.112 0.353-0.257c0.673-0.449 1.347-0.93 1.988-1.411l0.273-0.192 0.080-0.064c0.753-0.561 1.491-1.154 2.212-1.763l0.289-0.257c1.619-1.379 3.126-2.886 4.569-4.441l0.625-0.609 0.128-0.144c1.122-1.234 2.132-2.533 3.142-3.831 0.417-0.545 0.898-1.042 1.299-1.587 0.465-0.625 0.882-1.283 1.331-1.908 0.882-1.266 1.763-2.549 2.581-3.848 0.465-0.786 0.914-1.555 1.379-2.325 0.705-1.218 1.395-2.421 2.036-3.639 0.433-0.818 0.834-1.635 1.25-2.453 0.593-1.202 1.154-2.405 1.715-3.607 0.353-0.802 0.721-1.603 1.058-2.405 0.529-1.218 1.010-2.405 1.459-3.607 0.289-0.753 0.593-1.475 0.85-2.212 0.465-1.283 0.898-2.501 1.299-3.735 0.208-0.593 0.417-1.186 0.593-1.747 0.561-1.747 1.074-3.447 1.507-5.002l0.032-0.048c0.192-0.673 0.369-1.315 0.529-1.956l0.064-0.224c0.16-0.609 0.305-1.202 0.465-1.763l0.032-0.176c0.577-2.325 1.010-4.296 1.315-5.819l0.064-0.289 0.16-0.802 0.064-0.337 0.112-0.577 0.128-0.705 0.048-0.257 0.032-0.176 0.032-0.144c0.866-0.914 1.715-1.908 2.581-2.918l0.882-1.090c0.641-0.802 1.283-1.651 1.924-2.517l0.449-0.593 0.353-0.529c0.882-1.266 1.763-2.581 2.597-3.976l0.593-1.058c0.753-1.427 1.443-2.95 2.116-4.521v-0.032l0.080-0.192 0.385-0.962 0.321-0.786 0.096-0.273c0.321-0.834 0.641-1.683 0.946-2.549l0.016-0.080 0.385-1.090 0.128-0.369c0.112-0.385 0.257-0.721 0.385-1.106 0.128-0.401 0.224-0.834 0.353-1.25 0.321-1.122 0.673-2.26 0.978-3.447v0c0.24-0.962 0.465-1.972 0.689-2.982 0.224-1.026 0.433-2.068 0.641-3.126 0.176-0.946 0.369-1.876 0.529-2.854 0.321-1.908 0.577-3.88 0.786-5.9 0.080-0.818 0.16-1.651 0.24-2.501 0.16-1.892 0.305-3.848 0.417-5.851l0.064-0.786 0.032-0.737c0.096-2.549 0.128-5.21 0.112-7.935 0-0.673-0.016-1.347-0.032-2.036-0.048-2.886-0.144-5.819-0.353-8.897-1.491-23.742-2.934-41.249-3.671-54.571-2.084-37 1.202-41.505 23.55-55.132 0 0 3.11-1.635 7.968-5.21 10.324-7.567 36.231-24.095 55.019-52.567 0.497-0.77 1.026-1.507 1.507-2.276l0.16-0.224c1.074-0.802 2.276-1.603 3.575-2.405 0.946-0.593 1.924-1.202 2.982-1.779 1.058-0.593 2.020-1.25 2.934-1.924 1.603-1.186 3.014-2.453 4.216-3.799 6.909-7.679 7.647-17.57 7.406-23.053v-0.032l-0.305-0.433c-72.445-65.279-152.201-84.341-212.816-88.028-33.329-2.036-60.887 0.561-78.201 2.709-0.609 0.080-1.154 0.144-1.731 0.224-5.194 0.673-9.426 1.266-12.456 1.651-1.507 0.192-2.725 0.321-3.639 0.385-4.537 0.305-8.865-0.257-12.905-1.523-8.24-2.581-15.294-8.144-20.584-15.534-6.525-9.106-10.388-20.937-10.565-33.313 0-0.016 0-0.016 0-0.016s0-0.016 0-0.016c0-0.24 0.016-0.481 0.016-0.721 0-3.575 0.289-7.198 0.93-10.805 1.138-6.429 3.351-12.793 6.765-18.837 0.208-0.385 0.417-0.786 0.657-1.186 0.625-1.058 1.315-2.1 2.020-3.126 0.962-1.395 1.972-2.789 3.078-4.136 12.697-15.647 39.998-27.301 76.437-31.822 24.656-3.062 53.513-2.822 84.806 1.603 92.212 16.673 136.058 46.475 156.305 67.396 1.475 1.523 2.838 3.014 4.072 4.441 7.262 8.368 10.533 14.797 11.719 17.586l0.16 0.385c0.305 0.721 0.417 1.106 0.417 1.122l-0.016-0.016c0 0 0.016 0.032 0.016 0.032l-0.497-0.481-0.273-0.273c-7.374-7.038-15.999-13.851-25.506-20.328-41.681-28.472-99.987-50.531-141.3-56.061l-0.321-0.048c-31.053-4.938-61.48-5.803-87.996-2.501-15.23 1.892-28.953 5.194-40.303 9.539-10.933 6.909-20.536 20.055-21.241 41.072 12.376-5.322 26.804-8.577 37.642-10.501 23.197-4.28 45.609-4.793 65.728-3.543 5.034 0.417 9.923 0.786 14.685 1.266 4.761 0.625 9.378 1.218 13.851 1.796 8.705 1.475 16.753 2.886 24.303 4.553 3.767 0.705 7.246 1.731 10.549 2.629 3.302 0.962 6.445 1.683 9.298 2.709 5.723 1.972 10.709 3.575 14.556 5.258 7.743 3.302 11.895 5.515 11.639 6.348s-4.938 0.208-13.162-1.651c-4.12-0.962-9.106-1.796-14.845-3.094-2.854-0.673-5.996-1.074-9.266-1.715-3.286-0.577-6.749-1.283-10.404-1.683-7.198-1.026-15.438-1.94-24.191-2.966-4.312-0.353-8.769-0.721-13.338-1.090-4.617-0.224-9.362-0.465-14.236-0.705-19.462-0.577-40.944 0.305-62.811 4.328-11.527 2.036-26.933 7.262-38.026 13.562l-0.417 0.24c6.541 23.133 30.652 26.42 30.652 26.42l-0.577 0.176c39.95-4.857 78.377-4.328 114.896 1.266 53.064 8.128 102.071 27.045 145.612 56.526 2.309 1.555 4.585 3.142 6.861 4.761v0.016c0.433-0.77 0.914-1.651 1.411-2.677 3.142-6.445 7.086-17.875 5.354-32.56-0.224-1.94-0.577-3.96-1.010-6.012-0.337-1.571-0.721-3.158-1.202-4.793 0 0 2.373-2.276 5.242-6.926 2.244-3.591 4.761-8.625 6.733-15.069-0.096 0.385-0.176 0.641-0.176 0.641l0.481 0.032c1.042 0.096 2.004 0.112 2.966 0.144 2.405 0.080 4.601-0.016 6.509-0.289 2.629-0.385 4.841-1.058 6.701-1.94 0.673-0.321 1.299-0.673 1.876-1.058 1.106-0.705 2.036-1.491 2.838-2.325 0.449-0.465 0.882-0.93 1.234-1.411l0.208-0.321c0.208-0.289 0.417-0.593 0.593-0.93l0.080-0.144c3.27-5.515 2.453-11.671 2.453-11.671zM833.959 457.32l-0.032 0.048 0.016-0.032zM167.136 86.243v0.016zM124.333 126.338v0zM124.365 126.304v0l-0.032 0.032zM104.294 168.805l-0.016 0.016 0.032-0.064v-0.016zM102.61 175.49h0.016v-0.032h-0.016v0.032zM128.228 121.015l-0.032 0.048-0.016 0.032 0.048-0.048 0.064-0.096zM765.088 529.235h0.016l-0.048 0.032zM124.429 126.193l-0.016 0.032-0.048 0.064zM554.261 196.058c-4.168-1.411-8.785-3.094-13.643-5.114-12.953-5.37-27.638-13.001-40.671-23.534-1.635-1.315-3.238-2.677-4.809-4.088-2.677-2.405-5.226-4.97-7.679-7.647-0.273-0.305-0.577-0.593-0.85-0.914-0.369-0.417-0.737-0.834-1.090-1.266-0.93-1.074-1.844-2.18-2.725-3.318-0.353-0.449-0.705-0.898-1.074-1.363-1.17-1.539-2.309-3.11-3.399-4.745-1.058-1.587-2.084-3.238-3.046-4.922-7.711-13.466-12.088-29.594-10.741-48.831l0.048 0.192 0.032 0.144c0.032 0.176 0.080 0.417 0.144 0.721l0.048 0.16c0.064 0.289 0.144 0.641 0.224 1.010l0.064 0.24c0.096 0.433 0.224 0.946 0.369 1.491l0.096 0.353c0.16 0.593 0.337 1.218 0.529 1.892v0.016c0.192 0.673 0.417 1.395 0.657 2.148l0.144 0.465c0.257 0.753 0.529 1.555 0.834 2.373l0.16 0.401c0.273 0.77 0.593 1.571 0.93 2.405l0.16 0.385c0.369 0.882 0.77 1.796 1.186 2.725l0.273 0.577c0.449 0.946 0.914 1.924 1.427 2.886v0c0.016 0.032 0.048 0.080 0.064 0.112 0.753 1.459 1.619 2.95 2.533 4.441 0.337 0.561 0.673 1.122 1.058 1.699l0.289 0.481v0.016c0.786 1.17 1.603 2.341 2.485 3.495 0.721 0.946 1.491 1.892 2.276 2.822 0.24 0.289 0.513 0.577 0.77 0.882 0.625 0.705 1.283 1.427 1.972 2.116 0.273 0.273 0.561 0.561 0.834 0.85 0.93 0.914 1.892 1.796 2.902 2.661l0.080 0.080c0 0-17.522-39.629-9.891-71.067 0 0 0 0.096 0 0.257 0 0.064 0 0.128 0 0.192 0 0.176 0 0.369 0 0.641 0 0.064 0 0.112 0 0.176 0 0.321 0 0.705 0.016 1.138 0 0.064 0 0.112 0 0.176 0 0.465 0.032 0.978 0.064 1.555 0 0.064 0 0.112 0 0.176 0.032 0.593 0.080 1.25 0.128 1.94 0 0.064 0 0.112 0.016 0.176 0.064 0.705 0.112 1.459 0.208 2.244 0 0.064 0.016 0.128 0.032 0.192 0.080 0.786 0.192 1.603 0.305 2.469 0 0.080 0.032 0.16 0.032 0.24 0.128 0.914 0.289 1.86 0.465 2.838l0.048 0.24 0.096 0.497v0.016c0.208 1.090 0.465 2.212 0.753 3.351 0.032 0.080 0.048 0.144 0.064 0.224 0.305 1.106 0.609 2.228 0.978 3.367 0.112 0.353 0.224 0.689 0.337 1.042l0.24 0.721v0.016c0.337 0.93 0.689 1.86 1.090 2.789l0.064 0.144v0.016c0.545 1.283 1.186 2.549 1.86 3.783 0.176 0.321 0.369 0.657 0.561 0.978 0.721 1.234 1.491 2.437 2.357 3.575l0.032 0.064c0 0-1.010-9.747-0.753-21.37 0.048-1.828 0.128-3.703 0.257-5.595 0.080-1.266 0.16-2.533 0.273-3.799 0.77 12.488 3.046 24.207 6.38 35.141 0.93 3.014 1.94 5.948 3.014 8.849 0.144 0.417 0.289 0.834 0.449 1.25 1.042 2.741 2.132 5.403 3.286 8.032 0.224 0.497 0.433 0.978 0.657 1.459 1.17 2.597 2.373 5.146 3.639 7.615 0.208 0.385 0.401 0.753 0.593 1.138 2.693 5.178 5.579 10.1 8.577 14.765 0.224 0.353 0.433 0.689 0.657 1.026 1.138 1.747 2.309 3.431 3.479 5.098 0.305 0.449 0.593 0.914 0.914 1.347 0.289 0.401 0.561 0.786 0.834 1.17 1.491 2.052 2.982 4.056 4.489 5.996 0.24 0.305 0.481 0.609 0.721 0.914 1.571 1.988 3.142 3.928 4.713 5.787l0.080 0.096c1.988 2.341 3.96 4.585 5.932 6.717 1.443 1.555 2.87 3.062 4.28 4.521 0.529 0.545 1.090 1.074 1.635 1.635 3.383 3.415 6.637 6.477 9.667 9.186 9.106 8.16 16.208 13.194 18.676 14.861-1.491-0.369-3.222-0.834-5.162-1.379-2.918-0.818-6.284-1.844-10.004-3.11zM723.487 263.005c1.283-2.1 3.222-4.12 5.691-5.691 5.242-3.318 11.046-3.607 13.995-0.93 0.016 0.016 0.016 0.032 0.032 0.032 0.321-0.112 1.122-0.401 2.276-0.721 6.541-1.94 24.72-5.739 34.547 6.958 0.481 0.609 0.962 1.186 1.395 1.86-1.94 0.994-3.014 3.831-3.014 7.198-0.016 1.619 0.208 3.351 0.721 5.082 1.619 5.322 5.258 8.481 8.128 7.022 0 0-0.096 1.010-0.465 2.533-1.427 5.803-7.15 19.462-29.706 17.298-23.566-2.276-31.485-21.29-33.521-27.782-0.417-1.347-0.593-2.196-0.593-2.196l0.641-0.545c2.982 2.533 8.689 2.244 13.867-1.042 0.032-0.032 0.064-0.064 0.096-0.080-5.162 3.27-10.837 3.559-13.819 1.026-0.497-0.417-0.93-0.898-1.266-1.459-1.363-2.373-0.866-5.563 0.978-8.561v0zM769.417 358.102c-7.807-0.481-13.258-15.278-12.216-33.089 0.144-2.597 0.449-5.098 0.85-7.503 12.12-0.289 20.36-4.136 25.842-9.731 1.331 5.403 1.988 11.863 1.571 18.885-0.465 7.663-2.068 14.588-4.361 20.007-0.818 3.094-5.627 11.927-11.687 11.43zM787.388 283.717c-2.87 1.459-6.509-1.699-8.128-7.022-0.529-1.731-0.753-3.463-0.737-5.082 0.016-3.367 1.090-6.204 3.014-7.198 2.902-1.443 6.509 1.715 8.128 7.054 0.144 0.465 0.24 0.93 0.353 1.395v0.016c1.026 4.841-0.032 9.539-2.629 10.853zM541.083 335.45c6.829 11.895 14.236 21.482 21.722 29.177 14.588 15.005 29.433 22.909 40.944 27.077 12.44 4.489 20.953 4.649 20.953 4.649-2.918 1.587-6.076 2.709-9.282 3.511-2.116 0.529-4.248 0.898-6.348 1.154-0.786 0.096-1.571 0.176-2.373 0.24-10.789 0.946-20.135-0.882-20.135-0.882-2.004-0.465-3.928-0.978-5.771-1.539-14.669-4.457-24.881-12.088-32.015-20.889-5.771-7.134-9.539-15.021-11.927-22.652-0.208-0.673-0.401-1.347-0.593-2.004-0.561-1.972-1.058-3.912-1.459-5.819-1.347-6.413-1.876-12.328-2.020-16.993-0.176-6.396 0.321-10.517 0.321-10.517 2.549 5.595 5.21 10.709 7.968 15.518zM794.826 408.713c2.132-1.507 4.264-3.254 6.396-5.226 2.18-2.020 4.344-4.248 6.493-6.781 0 0-0.93 10.164-6.717 18.917-0.353 0.545-0.737 1.090-1.138 1.619l-0.497 0.641c-1.651 2.084-3.623 4.008-5.98 5.627-5.563 3.831-13.258 5.819-23.903 3.639 0 0-12.649-2.982-20.039-11.254 0 0 22.043 9.41 45.369-7.166zM618.177 285.609c1.411-11.911 4.825-22.428 9.202-29.77 8.449 2.613 17.602 5.018 27.398 7.23 1.699 7.631 2.132 17.073 0.914 27.157-2.789 23.662-13.466 41.778-23.823 40.495-10.372-1.283-16.496-21.498-13.691-45.128zM562.116 740.449l-4.553 39.87-8.128-17.971 1.315-16.095 0.016-0.128zM571.655 694.886c0.385 0.224 0.753 0.465 1.154 0.689 0.417 0.24 0.834 0.481 1.25 0.737 0.497 0.289 0.978 0.561 1.475 0.85 4.681 2.741 9.394 5.419 14.124 8.016l-48.366 23.646 29.898-34.243 0.497 0.289zM594.499 707.858c1.972 1.058 3.944 2.116 5.916 3.158 2.822 1.491 5.659 2.982 8.497 4.425 0.337 0.176 0.657 0.353 1.010 0.529l0.24 0.112c0.449 0.224 0.882 0.433 1.347 0.657l0.176 0.096-21.947 25.394 4.457-34.531 0.305 0.176z" />
<glyph unicode="&#xe624;" glyph-name="feed" d="M57.001 300.161c61.845 0 120.726-12.312 174.363-34.485 55.747-23.085 105.963-56.943 148.085-99.067s75.98-92.34 99.065-148.087c22.173-53.637 34.483-112.518 34.483-174.363 0-31.465 25.536-56.999 57.001-56.999s57.001 25.536 57.001 56.999c0 77.123-15.332 150.764-43.204 217.968-28.898 69.768-71.249 132.525-123.746 185.079s-115.253 94.849-185.079 123.746c-67.203 27.874-140.847 43.204-217.968 43.204-31.463 0-57.001-25.538-57.001-57.001s25.536-57.001 57.001-57.001zM57.001 699.163c115.938 0 226.29-23.027 326.953-64.752 104.596-43.321 198.76-106.817 277.646-185.707s142.386-173.052 185.707-277.648c41.667-100.604 64.694-210.956 64.694-326.896 0-31.465 25.536-56.999 57.001-56.999s57.001 25.536 57.001 56.999c0 131.158-26.105 256.329-73.417 370.558-49.134 118.616-121.127 225.32-210.387 314.584s-195.967 161.253-314.582 210.387c-114.285 47.367-239.458 73.471-370.616 73.471-31.463 0-57.001-25.536-57.001-57.001s25.536-57.001 57.001-57.001zM228.001-98.84c0 15.332-3.078 30.097-8.663 43.605-5.813 14.023-14.252 26.504-24.736 36.994s-23.029 18.923-36.992 24.736c-13.51 5.587-28.271 8.665-43.605 8.665s-30.097-3.078-43.605-8.665c-14.021-5.813-26.506-14.25-36.992-24.736s-18.925-23.027-24.738-36.994c-5.587-13.508-8.665-28.271-8.665-43.605s3.078-30.097 8.665-43.605c5.815-14.023 14.25-26.504 24.738-36.994s23.027-18.923 36.992-24.736c13.51-5.587 28.271-8.665 43.605-8.665s30.097 3.078 43.605 8.665c14.023 5.813 26.506 14.25 36.992 24.736s18.925 23.027 24.736 36.994c5.585 13.508 8.663 28.271 8.663 43.605z" />
<glyph unicode="&#xe626;" glyph-name="email" d="M1026.004 607.962c0 56.43-46.17 102.6-102.6 102.6h-820.805c-56.43 0-102.6-46.17-102.6-102.6v-615.602c0-56.43 46.17-102.6 102.6-102.6h820.805c56.43 0 102.6 46.17 102.6 102.6v615.602zM923.404 607.962l-410.402-256.501-410.402 256.501h820.805zM923.404-7.64h-820.805v513.002l410.402-256.501 410.402 256.501v-513.002z" />
<glyph unicode="&#xe627;" glyph-name="aweber" d="M1020.441 298.093c0-101.446 3.399-203.053-0.994-304.306-4.136-95.659-101.206-194.764-196.672-199.654-115.217-5.916-230.835-4.296-346.276-4.537-8.4-0.016-20.793 9.587-24.656 17.843-43.589 93.046-72.462 190.676-89.872 291.962-17.747 103.21-19.831 207.253-14.524 311.12 6.685 130.751 34.435 257.575 85.030 378.98 7.086 17.025 16.689 23.71 35.365 23.582 102.392-0.77 204.784 0.433 307.16-0.577 119.321-1.186 213.265-72.83 241.111-184.392 6.477-25.955 7.775-53.657 8.096-80.589 0.994-83.122 0.369-166.277 0.369-249.415-1.379-0.016-2.757-0.016-4.136-0.016zM403.861 298.462c2.276-29.578 4.184-59.204 6.909-88.749 12.088-131.12 66.257-245.023 144.105-348.921 16.111-21.498 38.347-24.432 60.39-11.19 30.091 18.067 32.271 38.908 5.98 74.369-122.399 164.994-149.989 347.912-101.59 544.327 19.318 78.361 60.55 146.43 108.227 210.86 20.857 28.183 15.278 51.525-14.108 67.075-24.352 12.889-43.862 6.653-64.75-21.225-94.649-126.375-146.222-267.242-145.164-426.545zM623.971 309.684c2.565-29.514 3.511-59.284 8.016-88.509 12.408-80.269 46.459-151.512 95.338-215.749 16.897-22.203 41.553-21.338 57.071 0.032 12.12 16.721 2.292 29.466-7.294 42.339-82.69 110.969-102.456 234.73-73.407 367.774 12.713 58.226 42.884 108.356 77.223 156.289 16.657 23.261 8.945 48.334-17.442 50.739-12.408 1.122-30.556-8.080-38.443-18.436-65.953-86.681-102.264-184.023-101.045-294.495zM247.86 813.163c-111.562-345.94-108.644-683.735 15.406-1026.004-28.664 3.495-54.715 3.831-79.211 10.148-110.616 28.52-182.244 121.165-183.11 239.267-1.283 174.918-1.202 349.867-0.032 524.801 0.818 122.223 74.498 216.262 188.063 243.419 18.228 4.361 37.273 5.387 58.883 8.352z" />
<glyph unicode="&#xe628;" glyph-name="arrowdown3" d="M513.002 772.123c-260.669 0-471.962-211.293-471.962-471.962s211.293-471.962 471.962-471.962 471.962 211.293 471.962 471.962-211.293 471.962-471.962 471.962zM513.002-69.2c-204.014 0-369.361 165.379-369.361 369.361s165.347 369.361 369.361 369.361 369.361-165.379 369.361-369.361-165.347-369.361-369.361-369.361zM605.342 497.667h-184.681v-209.818h-115.425l207.766-195.454 207.766 195.454h-115.425v209.818z" />
<glyph unicode="&#xe629;" glyph-name="arrowdown4" horiz-adv-x="641" d="M62.723 428.412h515.607c35.67 0 53.505-43.084 28.255-68.333l-257.703-257.904c-15.631-15.631-41.080-15.631-56.711 0l-257.703 257.904c-25.249 25.249-7.414 68.333 28.255 68.333z" />
<glyph unicode="&#xe62a;" glyph-name="arrowdown6" d="M794.287 373.873c-20.873-21.45-240.854-231.011-240.854-231.011-11.19-11.446-25.81-17.121-40.431-17.121-14.685 0-29.305 5.707-40.431 17.121 0 0-219.982 209.561-240.919 231.011-20.873 21.45-22.316 59.957 0 82.914 22.38 22.893 53.513 24.688 80.862 0l200.488-192.28 200.423 192.215c27.381 24.688 58.578 22.893 80.862 0 22.38-22.893 20.969-61.464 0-82.85z" />
<glyph unicode="&#xe62b;" glyph-name="arrowup3" d="M513.072-212.841c283.337 0 512.932 229.665 512.932 513.002s-229.63 513.002-512.932 513.002c-283.371 0-513.072-229.665-513.072-513.002s229.667-513.002 513.072-513.002zM513.072 701.641c221.755 0 401.41-179.759 401.41-401.48s-179.725-401.48-401.41-401.48c-221.823 0-401.548 179.725-401.548 401.48s179.725 401.48 401.548 401.48zM412.632 85.482h200.81v228.061h125.461l-225.831 212.449-225.903-212.449h125.461v-228.061z" />
<glyph unicode="&#xe62c;" glyph-name="arrowup4" d="M770.83 131.171h-515.655c-35.706 0-53.587 43.17-28.339 68.418l257.828 257.828c15.651 15.651 41.028 15.651 56.679 0l257.828-257.828c25.249-25.247 7.366-68.418-28.339-68.418z" />
<glyph unicode="&#xe62d;" glyph-name="arrowup6" d="M794.287 226.449c-20.873 21.45-240.854 230.947-240.854 230.947-11.19 11.446-25.81 17.186-40.431 17.186-14.685 0-29.305-5.739-40.431-17.186 0 0-219.982-209.497-240.919-230.947-20.873-21.45-22.316-60.021 0-82.914 22.38-22.829 53.513-24.688 80.862 0l200.488 192.215 200.423-192.215c27.381-24.688 58.578-22.829 80.862 0 22.38 22.925 20.969 61.496 0 82.914z" />
<glyph unicode="&#xe62e;" glyph-name="minus" d="M779.699 351.461h-533.458c-28.375 0-30.78-22.989-30.78-51.3s2.405-51.3 30.78-51.3h533.458c28.375 0 30.844 22.989 30.844 51.3s-2.469 51.3-30.844 51.3z" />
<glyph unicode="&#xe62f;" glyph-name="plus" d="M779.699 351.461h-215.461v215.461c0 28.311-22.925 30.78-51.3 30.78-28.311 0-51.3-2.405-51.3-30.78v-215.461h-215.397c-28.375 0-30.78-22.989-30.78-51.3s2.405-51.3 30.78-51.3h215.397v-215.461c0-28.311 22.989-30.78 51.3-30.78 28.375 0 51.3 2.469 51.3 30.78v215.461h215.461c28.375 0 30.844 22.989 30.844 51.3s-2.469 51.3-30.844 51.3z" />
<glyph unicode="&#xe630;" glyph-name="arrowup2" d="M530.035 485.523l246.081-246.081c9.418-9.418 9.418-24.648 0-34.067l-45.288-45.288c-9.418-9.418-24.648-9.418-34.067 0l-183.759 183.759-183.759-183.759c-9.418-9.418-24.648-9.418-34.067 0l-45.288 45.288c-9.418 9.418-9.418 24.648 0 34.067l246.081 246.081c9.418 9.418 24.648 9.418 34.067 0zM961.879 652.85v-705.378c0-53.104-43.084-96.188-96.188-96.188h-705.378c-53.104 0-96.188 43.084-96.188 96.188v705.378c0 53.104 43.084 96.188 96.188 96.188h705.378c53.104 0 96.188-43.084 96.188-96.188zM865.691-40.504v681.331c0 6.613-5.411 12.023-12.023 12.023h-681.331c-6.613 0-12.023-5.411-12.023-12.023v-681.331c0-6.613 5.411-12.023 12.023-12.023h681.331c6.613 0 12.023 5.411 12.023 12.023z" />
<glyph unicode="&#xe631;" glyph-name="arrowdown2" d="M495.969 114.799l-246.081 246.081c-9.418 9.418-9.418 24.648 0 34.067l45.288 45.288c9.418 9.418 24.648 9.418 34.067 0l183.759-183.759 183.759 183.759c9.418 9.418 24.648 9.418 34.067 0l45.288-45.288c9.418-9.418 9.418-24.648 0-34.067l-246.081-246.081c-9.418-9.418-24.648-9.418-34.067 0zM961.879 652.85v-705.378c0-53.104-43.084-96.188-96.188-96.188h-705.378c-53.104 0-96.188 43.084-96.188 96.188v705.378c0 53.104 43.084 96.188 96.188 96.188h705.378c53.104 0 96.188-43.084 96.188-96.188zM865.691-40.504v681.331c0 6.613-5.411 12.023-12.023 12.023h-681.331c-6.613 0-12.023-5.411-12.023-12.023v-681.331c0-6.613 5.411-12.023 12.023-12.023h681.331c6.613 0 12.023 5.411 12.023 12.023z" />
<glyph unicode="&#xe632;" glyph-name="plus3" d="M798.007 813.163h-570.007c-125.357 0-227.997-102.642-227.997-227.997v-569.987c0-125.379 102.642-228.019 227.997-228.019h569.987c125.379 0 228.019 102.642 228.019 227.997v570.007c0 125.357-102.642 227.997-227.997 227.997zM798.007 243.176h-228.019v-227.997h-113.989v227.997h-227.997v113.989h227.997v227.997h113.989v-227.997h227.997v-113.989z" />
<glyph unicode="&#xe633;" glyph-name="minus3" d="M798.007 813.163h-570.007c-125.357 0-227.997-102.642-227.997-227.997v-569.987c0-125.379 102.642-228.019 227.997-228.019h569.987c125.379 0 228.019 102.642 228.019 227.997v570.007c0 125.357-102.642 227.997-227.997 227.997zM798.007 243.176h-570.007v113.989h569.987v-113.989z" />
<glyph unicode="&#xe634;" glyph-name="arrowdown5" d="M314.815 380.318h396.374c21.442 0 32.263-26.051 17.033-41.080l-198.187-196.985c-9.418-9.418-24.448-9.418-33.866 0l-198.187 196.985c-15.43 15.029-4.609 41.080 16.833 41.080zM1009.973 300.161c0-274.536-222.434-496.971-496.971-496.971s-496.971 222.434-496.971 496.971 222.434 496.971 496.971 496.971 496.971-222.434 496.971-496.971zM913.785 300.161c0 221.432-179.35 400.783-400.783 400.783s-400.783-179.35-400.783-400.783 179.35-400.783 400.783-400.783 400.783 179.35 400.783 400.783z" />
<glyph unicode="&#xe635;" glyph-name="arrowup5" d="M711.189 220.005h-396.374c-21.442 0-32.263 26.051-17.033 41.080l198.187 196.985c9.418 9.418 24.448 9.418 33.866 0l198.187-196.985c15.43-15.029 4.609-41.080-16.833-41.080zM16.031 300.161c0 274.536 222.434 496.971 496.971 496.971s496.971-222.434 496.971-496.971-222.434-496.971-496.971-496.971-496.971 222.434-496.971 496.971zM112.219 300.161c0-221.432 179.35-400.783 400.783-400.783s400.783 179.35 400.783 400.783-179.35 400.783-400.783 400.783-400.783-179.35-400.783-400.783z" />
<glyph unicode="&#xe636;" glyph-name="forbid" d="M513.002-212.841c-283.303 0-513.002 229.699-513.002 513.002 0 283.335 229.699 513.002 513.002 513.002s513.002-229.667 513.002-513.002c0-283.303-229.699-513.002-513.002-513.002zM128.25 300.161c0-82.786 26.676-158.934 71.201-221.745l535.295 535.326c-62.747 44.463-138.959 71.171-221.745 71.171-212.477 0-384.751-172.274-384.751-384.751zM826.552 521.906l-535.295-535.358c62.747-44.463 138.959-71.139 221.745-71.139 212.477 0 384.751 172.274 384.751 384.751 0 82.786-26.676 158.966-71.201 221.745z" />
<glyph unicode="&#xe637;" glyph-name="register" horiz-adv-x="1206" d="M853.938-151.928v100.464c0 33.906-6.731 66.408-19.037 96.044-12.759 30.792-31.395 58.418-54.5 81.527s-50.783 41.794-81.527 54.5c-29.688 12.356-62.187 19.089-96.094 19.089h-351.627c-33.906 0-66.406-6.731-96.044-19.037-30.794-12.759-58.42-31.395-81.527-54.5s-41.794-50.785-54.502-81.527c-12.358-29.688-19.087-62.187-19.087-96.094v-100.464c0-27.728 22.504-50.232 50.232-50.232s50.232 22.504 50.232 50.232v100.464c0 20.496 4.070 39.934 11.402 57.617 7.635 18.386 18.837 35.012 32.752 48.926s30.54 25.117 48.926 32.752c17.683 7.332 37.123 11.402 57.617 11.402h351.627c20.496 0 39.934-4.070 57.617-11.402 18.386-7.635 35.012-18.837 48.926-32.752s25.117-30.54 32.752-48.926c7.332-17.683 11.402-37.121 11.402-57.617v-100.464c0-27.728 22.504-50.232 50.232-50.232s50.232 22.504 50.232 50.232zM678.126 551.322c0 33.906-6.731 66.406-19.037 96.044-12.759 30.794-31.395 58.42-54.5 81.527s-50.785 41.794-81.527 54.5c-29.688 12.356-62.187 19.089-96.094 19.089s-66.406-6.731-96.046-19.039c-30.794-12.759-58.42-31.395-81.577-54.5s-41.744-50.783-54.502-81.577c-12.306-29.638-19.039-62.137-19.039-96.044s6.731-66.406 19.039-96.044c12.759-30.794 31.395-58.42 54.502-81.527s50.785-41.794 81.527-54.502c29.688-12.356 62.187-19.087 96.094-19.087s66.406 6.731 96.044 19.037c30.792 12.759 58.418 31.395 81.527 54.5s41.794 50.785 54.5 81.527c12.356 29.688 19.089 62.187 19.089 96.094zM577.662 551.322c0-20.496-4.070-39.934-11.402-57.617-7.635-18.384-18.837-35.012-32.752-48.926s-30.54-25.117-48.926-32.752c-17.683-7.334-37.121-11.402-57.617-11.402s-39.936 4.068-57.617 11.402c-18.384 7.635-35.012 18.787-48.926 32.752s-25.117 30.54-32.752 48.926c-7.334 17.683-11.402 37.121-11.402 57.617s4.068 39.934 11.402 57.617c7.635 18.384 18.837 35.012 32.752 48.926s30.54 25.117 48.926 32.752c17.683 7.332 37.121 11.402 57.617 11.402s39.936-4.068 57.617-11.402c18.384-7.635 35.012-18.837 48.926-32.752s25.117-30.54 32.752-48.926c7.332-17.683 11.402-37.121 11.402-57.617zM1155.331 400.625h-100.464v100.464c0 27.728-22.504 50.232-50.232 50.232s-50.232-22.504-50.232-50.232v-100.464h-100.464c-27.728 0-50.232-22.504-50.232-50.232s22.504-50.232 50.232-50.232h100.464v-100.464c0-27.728 22.504-50.232 50.232-50.232s50.232 22.504 50.232 50.232v100.464h100.464c27.728 0 50.232 22.504 50.232 50.232s-22.504 50.232-50.232 50.232z" />
<glyph unicode="&#xe7ff;" glyph-name="user" d="M974.704-161.541v102.6c0 34.628-6.873 67.818-19.442 98.086-13.029 31.447-32.063 59.661-55.661 83.261s-51.865 42.683-83.261 55.661c-30.319 12.621-63.508 19.494-98.138 19.494h-410.402c-34.628 0-67.818-6.873-98.086-19.442-31.447-13.029-59.663-32.063-83.261-55.661s-42.683-51.865-55.661-83.261c-12.619-30.319-19.494-63.508-19.494-98.136v-102.6c0-28.317 22.983-51.3 51.3-51.3s51.3 22.983 51.3 51.3v102.6c0 20.931 4.154 40.784 11.645 58.841 7.797 18.777 19.238 35.758 33.449 49.966s31.189 25.65 49.966 33.449c18.057 7.491 37.912 11.645 58.843 11.645h410.402c20.931 0 40.784-4.156 58.841-11.645 18.777-7.797 35.758-19.238 49.966-33.449s25.65-31.191 33.449-49.966c7.491-18.059 11.645-37.91 11.645-58.841v-102.6c0-28.317 22.983-51.3 51.3-51.3s51.3 22.983 51.3 51.3zM769.503 556.662c0 34.628-6.873 67.818-19.442 98.086-13.029 31.447-32.063 59.661-55.661 83.261s-51.865 42.683-83.261 55.661c-30.319 12.621-63.508 19.494-98.138 19.494s-67.818-6.873-98.086-19.442c-31.447-13.029-59.663-32.063-83.313-55.661s-42.631-51.865-55.661-83.313c-12.569-30.267-19.444-63.46-19.444-98.086s6.873-67.818 19.444-98.086c13.029-31.447 32.063-59.663 55.661-83.261s51.863-42.681 83.261-55.661c30.319-12.621 63.508-19.494 98.136-19.494s67.818 6.873 98.086 19.442c31.447 13.029 59.661 32.063 83.261 55.661s42.683 51.863 55.661 83.261c12.621 30.319 19.494 63.51 19.494 98.136zM666.903 556.662c0-20.931-4.156-40.784-11.645-58.841-7.797-18.775-19.238-35.758-33.449-49.966s-31.191-25.65-49.966-33.447c-18.059-7.491-37.91-11.645-58.841-11.645s-40.784 4.154-58.841 11.645c-18.775 7.797-35.758 19.238-49.966 33.447s-25.65 31.191-33.447 49.966c-7.491 18.059-11.645 37.91-11.645 58.841s4.154 40.784 11.645 58.843c7.797 18.775 19.238 35.756 33.447 49.966s31.191 25.65 49.966 33.449c18.059 7.489 37.91 11.645 58.841 11.645s40.784-4.156 58.841-11.645c18.777-7.797 35.758-19.238 49.966-33.449s25.65-31.191 33.449-49.966c7.491-18.059 11.645-37.91 11.645-58.843z" />
<glyph unicode="&#xe853;" glyph-name="account_circle_solid" d="M513.002-70.741c127.649 0 240.846 67.436 308.284 166.185-2.409 101.156-207.127 158.958-308.284 158.958-103.562 0-305.873-57.803-308.282-158.958 67.438-98.747 180.635-166.185 308.282-166.185zM513.002 659.022c-84.295 0-154.141-69.844-154.141-154.141s69.846-154.141 154.141-154.141 154.141 69.846 154.141 154.141-69.844 154.141-154.141 154.141zM513.002 813.163c284.199 0 513.002-228.803 513.002-513.002s-228.803-513.002-513.002-513.002-513.002 228.803-513.002 513.002 228.803 513.002 513.002 513.002z" />
<glyph unicode="&#xe8e9;" glyph-name="page_break" d="M25.65 813.163v-1026.004zM51.3 813.163v-1026.004zM76.95 813.163v-1026.004zM102.6 813.163v-1026.004zM128.25 813.163v-1026.004zM153.901 813.163v-1026.004zM179.551 813.163v-1026.004zM205.201 813.163v-1026.004zM230.851 813.163v-1026.004zM256.501 813.163v-1026.004zM282.151 813.163v-1026.004zM307.801 813.163v-1026.004zM333.451 813.163v-1026.004zM359.101 813.163v-1026.004zM384.751 813.163v-1026.004zM410.402 813.163v-1026.004zM436.052 813.163v-1026.004zM461.702 813.163v-1026.004zM487.352 813.163v-1026.004zM513.002 813.163v-1026.004zM538.652 813.163v-1026.004zM564.302 813.163v-1026.004zM589.952 813.163v-1026.004zM615.602 813.163v-1026.004zM641.252 813.163v-1026.004zM666.903 813.163v-1026.004zM692.553 813.163v-1026.004zM718.203 813.163v-1026.004zM743.853 813.163v-1026.004zM769.503 813.163v-1026.004zM795.153 813.163v-1026.004zM820.803 813.163v-1026.004zM846.453 813.163v-1026.004zM872.103 813.163v-1026.004zM897.753 813.163v-1026.004zM923.404 813.163v-1026.004zM949.054 813.163v-1026.004zM974.704 813.163v-1026.004zM1000.354 813.163v-1026.004zM0 787.513h1026.004zM0 761.863h1026.004zM0 736.213h1026.004zM0 710.563h1026.004zM0 684.913h1026.004zM0 659.263h1026.004zM0 633.613h1026.004zM0 607.962h1026.004zM0 582.312h1026.004zM0 556.662h1026.004zM0 531.012h1026.004zM0 505.362h1026.004zM0 479.712h1026.004zM0 454.062h1026.004zM0 428.412h1026.004zM0 402.762h1026.004zM0 377.112h1026.004zM0 351.461h1026.004zM0 325.811h1026.004zM0 300.161h1026.004zM0 274.511h1026.004zM0 248.861h1026.004zM0 223.211h1026.004zM0 197.561h1026.004zM0 171.911h1026.004zM0 146.261h1026.004zM0 120.611h1026.004zM0 94.96h1026.004zM0 69.31h1026.004zM0 43.66h1026.004zM0 18.010h1026.004zM0-7.64h1026.004zM0-33.29h1026.004zM0-58.94h1026.004zM0-84.59h1026.004zM0-110.24h1026.004zM0-135.89h1026.004zM0-161.541h1026.004zM0-187.191h1026.004zM921.8 760.26v-307.801c0-26.562-21.532-48.094-48.094-48.094s-48.094 21.532-48.094 48.094v307.801c0 26.562 21.532 48.094 48.094 48.094s48.094-21.532 48.094-48.094zM201.995 760.26v-307.801c0-26.562-21.532-48.094-48.094-48.094s-48.094 21.532-48.094 48.094v307.801c0 26.562 21.532 48.094 48.094 48.094s48.094-21.532 48.094-48.094zM153.901 500.553h719.806c26.562 0 48.094-21.532 48.094-48.094s-21.532-48.094-48.094-48.094h-719.806c-26.562 0-48.094 21.532-48.094 48.094s21.532 48.094 48.094 48.094zM201.995-161.541v307.801c0 26.562-21.532 48.094-48.094 48.094s-48.094-21.532-48.094-48.094v-307.801c0-26.562 21.532-48.094 48.094-48.094s48.094 21.532 48.094 48.094zM921.8-161.541v307.801c0 26.562-21.532 48.094-48.094 48.094s-48.094-21.532-48.094-48.094v-307.801c0-26.562 21.532-48.094 48.094-48.094s48.094 21.532 48.094 48.094zM153.901 98.167h719.806c26.562 0 48.094 21.532 48.094 48.094s-21.532 48.094-48.094 48.094h-719.806c-26.562 0-48.094-21.532-48.094-48.094s21.532-48.094 48.094-48.094zM48.094 251.266h51.3c26.562 0 48.094 21.532 48.094 48.094s-21.532 48.094-48.094 48.094h-51.3c-26.562 0-48.094-21.532-48.094-48.094s21.532-48.094 48.094-48.094zM487.352 251.266h51.3c26.562 0 48.094 21.532 48.094 48.094s-21.532 48.094-48.094 48.094h-51.3c-26.562 0-48.094-21.532-48.094-48.094s21.532-48.094 48.094-48.094zM926.61 251.266h51.3c26.562 0 48.094 21.532 48.094 48.094s-21.532 48.094-48.094 48.094h-51.3c-26.562 0-48.094-21.532-48.094-48.094s21.532-48.094 48.094-48.094zM232.881 252.067h122.814c26.562 0 48.094 21.532 48.094 48.094s-21.532 48.094-48.094 48.094h-122.812c-26.562 0-48.094-21.532-48.094-48.094s21.532-48.094 48.094-48.094zM672.139 252.067h122.812c26.562 0 48.094 21.532 48.094 48.094s-21.532 48.094-48.094 48.094h-122.812c-26.562 0-48.094-21.532-48.094-48.094s21.532-48.094 48.094-48.094z" />
<glyph unicode="&#xe8ed;" glyph-name="view_day" d="M107.209 684.913h811.585v-128.25h-811.585v128.25zM876.712 470.494c24.047 0 42.082-18.035 42.082-42.082v-256.501c0-24.047-18.035-42.082-42.082-42.082h-727.421c-24.047 0-42.082 18.035-42.082 42.082v256.501c0 24.047 18.035 42.082 42.082 42.082h727.421zM107.209-84.59v128.25h811.585v-128.25h-811.585z" />
<glyph unicode="&#xe900;" glyph-name="delete_solid" d="M957.404 640.771h-211.764l-47.721 112.742c-17.105 33.59-50.284 56.827-89.126 59.63l-0.351 0.020h-208.78c-40.006-0.25-74.289-24.476-89.234-59.017l-0.242-0.633-45.337-112.742h-196.253c-9.348-0.102-17.773-3.962-23.857-10.136l-0.004-0.004c-5.312-2.679-8.903-8.074-8.947-14.312v-41.762c0.892-12.803 11.058-22.969 23.78-23.857l0.080-0.004h65.616v-632.305c-0.417-3.737-0.651-8.074-0.651-12.466 0-61.919 47.17-112.82 107.536-118.73l0.491-0.038h554.758c61.326 7.841 108.245 59.709 108.245 122.537 0 5.168-0.317 10.26-0.934 15.262l0.060-0.599v626.339h65.616c6.613 0.333 12.49 3.244 16.691 7.741l0.014 0.014c7.767 5.753 12.827 14.783 13.122 25.007v24.504c0 18.119-14.689 32.808-32.808 32.808v0zM387.733 711.755c3.118 3.14 7.228 5.294 11.819 5.954l0.112 0.014h208.78c4.701-0.673 8.811-2.826 11.929-5.964v0l27.44-70.987h-292.89zM375.804 19.8c-0.894-12.803-11.058-22.969-23.78-23.855l-0.080-0.004h-41.756c-12.803 0.892-22.969 11.058-23.857 23.78l-0.004 0.080v381.77c0.894 12.803 11.058 22.969 23.78 23.857l0.080 0.004h41.756c12.803-0.894 22.969-11.058 23.857-23.78l0.004-0.080zM548.792 19.8c-0.892-12.803-11.058-22.969-23.78-23.855l-0.080-0.004h-41.756c-12.803 0.892-22.969 11.058-23.857 23.78l-0.004 0.080v381.77c0.894 12.803 11.058 22.969 23.78 23.857l0.080 0.004h41.756c12.803-0.894 22.969-11.058 23.855-23.78l0.004-0.080zM715.816 19.8c-0.892-12.803-11.058-22.969-23.78-23.855l-0.080-0.004h-41.756c-12.803 0.892-22.969 11.058-23.855 23.78l-0.004 0.080v381.77c0.892 12.803 11.058 22.969 23.78 23.857l0.080 0.004h41.756c12.803-0.894 22.969-11.058 23.855-23.78l0.004-0.080z" />
<glyph unicode="&#xe901;" glyph-name="pencil_solid" d="M85.148 125.446c-5.605-5.581-9.797-12.575-11.995-20.406l-0.078-0.329-70.175-257.186c-1.060-3.685-1.669-7.921-1.669-12.296s0.609-8.611 1.749-12.621l-0.078 0.323c5.579-20.025 23.656-34.471 45.106-34.471 4.381 0 8.619 0.603 12.639 1.727l-0.329-0.078 257.188 70.175c8.16 2.266 15.158 6.461 20.73 12.070l9.793 9.793-253.088 253.088zM114.75-97.946l0.158-0.158h-0.206zM1008.379 698.686c-9.519 22.568-22.63 41.834-38.818 58.021v0c-32.335 32.387-77.034 52.424-126.411 52.424-0.058 0-0.122 0-0.182 0h0.010c-0.046 0-0.1 0-0.154 0-49.378 0-94.078-20.035-126.409-52.42l-66.668-66.652 253.168-253.168 66.648 66.664c32.391 32.419 52.424 77.193 52.424 126.645 0 24.706-5 48.248-14.047 69.664l0.441-1.176zM150.215 190.501l444.294 444.294 253.152-253.154-444.294-444.294-253.152 253.152z" />
<glyph unicode="&#xe902;" glyph-name="stripe" horiz-adv-x="1283" d="M1282.515 117.020c0-88.697-71.902-160.602-160.602-160.602h-961.32c-88.699 0-160.602 71.904-160.602 160.602v366.283c0 88.697 71.904 160.602 160.602 160.602h961.32c88.701 0 160.602-71.904 160.602-160.602v-366.283zM805.796 180.744c55.482-10.809 95.11 14.33 108.746 69.317 8.645 34.87 8.348 69.901-1.453 104.372-10.871 38.267-40.188 58.572-76.554 51.146-15.548-3.17-29.732-13.041-45.359-20.254-1.192 4.819-2.631 10.661-4.014 16.252-20.392 0-39.665 0-59.015 0 0-100.372 0-199.448 0-300.92 23.203 3.737 45.090 7.268 68.001 10.957 0 12.342 0 23.253 0 34.163 0 11.444 0 22.883 0 35.968 5.13-0.521 7.433-0.567 9.653-1.002zM795.941 326.976c-1.505 17.618 9.913 23.58 23.31 26.762 13.657 3.244 22.294-5.080 26.061-17.109 9.022-28.866 8.953-58.017-2.381-86.24-2.775-6.928-8.951-13.883-15.412-17.689-17.466-10.274-31.295-1.719-31.363 18.21-0.036 12.685-0.004 25.368-0.004 38.044 0 12.685 0.872 25.434-0.206 38.024zM1007.744 270.782c18.558 0 37.449 0 56.344 0 18.841 0 37.676 0 57.633 0 1.864 29.702 1.864 56.544-8.168 82.485-8.996 23.259-24.171 40.689-48.256 48.817-54.244 18.292-107.49-8.947-122.307-64.294-5.132-19.171-7.014-40.004-6-59.855 1.938-37.78 12.905-72.746 51.368-89.455 39.152-17.011 78.942-13.546 117.68 2.755 4.034 1.693 8.729 8.342 8.505 12.438-0.683 12.46-3.629 24.798-5.906 38.425-66.422-25.402-105.286-10.322-100.889 28.682zM1006.366 313.559c-1.787 27.355 8.136 45.842 24.518 46.569 16.975 0.755 26.492-15.749 25.724-46.569-17.496 0-33.9 0-50.242 0zM159.844 206.755c-0.246-4.924 4.659-12.745 9.234-14.829 27.9-12.725 57.655-16.729 87.908-12.595 37.467 5.114 58.923 26.396 63.434 60.484 4.407 33.309-10.569 57.19-45.858 72.71-11.601 5.098-24.067 8.603-34.876 14.977-6.004 3.543-9.408 11.496-13.981 17.466 6.998 3.595 14.342 10.745 20.917 10.094 18.518-1.836 36.722-6.877 55.867-10.831 2.471 15.176 5.038 30.938 7.725 47.439-29.672 14.286-60.17 18.608-91.469 13.17-33.902-5.885-53.727-26.568-57.011-56.21-3.854-34.842 8.084-55.278 42.098-71.097 12.005-5.587 25.239-8.994 36.307-15.955 6.683-4.2 10.288-13.31 15.278-20.213-7.451-4.084-15.424-12.338-22.259-11.482-21.993 2.751-43.557 8.859-67.313 14.128-1.964-11.162-5.346-24.133-6-37.251zM460.487 352.668c2.509 16.889 4.843 32.586 7.525 50.631-15.833 0-29.379 0-45.16 0 0 21.809 0 41.583 0 62.911-21.083-3.519-39.661-6.619-58.46-9.751-1.653-9.645-2.93-18.182-4.605-26.636-2.645-13.318-0.188-30.265-21.734-30.574-1.866-0.024-4.783-4.661-5.294-7.495-2.298-12.775-3.904-25.676-5.865-39.271 10.218-0.645 18.584-1.172 28.732-1.816 0-8.216-0.038-15.041 0.002-21.863 0.19-31.169-0.13-62.356 0.79-93.507 0.631-21.392 8.571-40.018 29.213-49.398 25.145-11.424 51.13-9.719 76.83-3.102 0 18.895 0 35.864 0 53.296-6.918-0.8-13.667-3.683-18.071-1.603-7.368 3.475-18.572 9.825-18.875 15.458-1.781 33.183-0.872 66.508-0.872 100.803 12.512 0.667 23.708 1.264 35.848 1.92zM609.3 392.772c0.505 11.525-6.080 15.741-14.727 12.719-14.378-5.034-27.818-12.753-41.822-19.414-0.591 2.321-2.278 8.941-3.922 15.388-19.841 0-39.663 0-58.947 0 0-73.784 0-146.145 0-218.34 22.977 0 44.635 0 67.937 0 0 41.932-0.014 82.78 0.004 123.617 0.014 22.983 6.509 30.586 29.391 33.81 6.244 0.882 12.633 0.755 21.903 1.252-0.002 17.769-0.537 34.391 0.178 50.966zM628.508 182.974c22.991 0 45.080 0 67.538 0 0 73.652 0 146.368 0 219.487-22.911 0-44.18 0-67.538 0 0-73.886 0-146.2 0-219.487zM662.594 426.55c20.071-0.088 36.215 15.807 36.419 35.852 0.216 20.574-16.949 37.798-37.11 37.247-19.903-0.549-35.421-16.865-35.261-37.072 0.162-20.544 15.52-35.936 35.95-36.024z" />
<glyph unicode="&#xe903;" glyph-name="authorize" d="M1020.319-75.769c0-75.704-61.37-137.074-137.074-137.074h-740.49c-75.702 0.002-137.072 61.37-137.072 137.074v751.862c0 75.702 61.368 137.072 137.072 137.072h740.49c75.702 0 137.074-61.368 137.074-137.072v-751.862zM682.102 46.941c15.3-36.361 22.963-62.955 22.963-79.79 0-12.631-5.457-23.346-16.36-32.145-10.907-8.805-31.858-13.975-62.855-15.5v-21.237h307.096v21.237c-31.768 1.912-56.534 10.621-74.329 26.119-17.799 15.5-37.599 49.268-59.41 101.316l-270.939 647.491h-20.089l-273.809-640.601c-23.732-56.25-45.349-93.565-64.863-111.931-9.569-9.186-30.622-16.649-63.143-22.39v-21.237h245.107v21.237c-37.509 2.673-61.903 8.513-73.189 17.51-11.292 8.988-16.933 19.418-16.933 31.283 0 14.925 6.503 37.499 19.516 67.734l52.809 122.84h301.359l47.072-111.935zM351.468 201.35l135.469 314.56 132.026-314.56h-267.494z" />
<glyph unicode="&#xe904;" glyph-name="option" d="M513.002 750.463c248.688-0.010 450.285-201.614 450.285-450.301 0-124.343-50.398-236.915-131.884-318.402v0c-81.708-82.854-195.203-134.18-320.686-134.18-248.696 0-450.301 201.606-450.301 450.301 0 125.481 51.326 238.977 134.13 320.636l0.050 0.052c81.026 81.475 193.201 131.9 317.155 131.9 0.439 0 0.878 0 1.315-0.002h-0.068zM513.002 813.163c-283.323 0-513.002-229.679-513.002-513.002s229.679-513.002 513.002-513.002c283.323 0 513.002 229.679 513.002 513.002v0c0 283.323-229.679 513.002-513.002 513.002v0zM589.98 300.504c0-42.309-34.299-76.608-76.61-76.608s-76.61 34.299-76.61 76.61c0 42.309 34.299 76.608 76.61 76.608s76.61-34.299 76.61-76.608zM590.664 69.31c0-42.497-34.451-76.95-76.95-76.95s-76.95 34.451-76.95 76.95c0 42.497 34.451 76.95 76.95 76.95s76.95-34.451 76.95-76.95zM590.664 531.012c0-42.499-34.451-76.95-76.95-76.95s-76.95 34.451-76.95 76.95c0 42.497 34.451 76.95 76.95 76.95s76.95-34.451 76.95-76.95z" />
<glyph unicode="&#xe905;" glyph-name="arrowdown5_solid" d="M1009.973 300.161c0-274.536-222.434-496.971-496.971-496.971s-496.971 222.434-496.971 496.971 222.434 496.971 496.971 496.971 496.971-222.434 496.971-496.971zM249.487 355.269l246.481-246.481c9.418-9.418 24.648-9.418 34.067 0l246.481 246.481c15.23 15.23 4.409 41.080-17.033 41.080h-492.963c-21.442 0-32.263-25.85-17.033-41.080z" />
<glyph unicode="&#xe906;" glyph-name="option_solid" d="M513.002 813.163c-283.323 0-513.002-229.679-513.002-513.002s229.679-513.002 513.002-513.002c283.323 0 513.002 229.679 513.002 513.002v0c0 283.323-229.679 513.002-513.002 513.002v0zM513.715-7.64c-42.499 0-76.95 34.451-76.95 76.95s34.451 76.95 76.95 76.95c42.497 0 76.95-34.451 76.95-76.95v0c0-42.497-34.451-76.95-76.95-76.95v0zM436.765 300.504c0 0.008 0 0.018 0 0.028 0 42.309 34.299 76.61 76.61 76.61s76.608-34.299 76.608-76.61c0-42.309-34.299-76.608-76.61-76.608-0.010 0-0.020 0-0.030 0h0.002c-42.295 0-76.58 34.287-76.58 76.58v0zM513.715 454.062c-42.499 0-76.95 34.451-76.95 76.95s34.451 76.95 76.95 76.95c42.497 0 76.95-34.451 76.95-76.95v0c0-42.499-34.451-76.95-76.95-76.95v0z" />
</font>
</defs>
</svg>
