<?xml version="1.0" standalone="no"?>
<!DOCTYPE svg PUBLIC "-//W3C//DTD SVG 1.1//EN" "http://www.w3.org/Graphics/SVG/1.1/DTD/svg11.dtd" >
<svg xmlns="http://www.w3.org/2000/svg">
<metadata>Generated by IcoMoon</metadata>
<defs>
<font id="s11-fp" horiz-adv-x="512">
<font-face units-per-em="512" ascent="419.84000000000003" descent="-92.16" />
<missing-glyph horiz-adv-x="512" />
<glyph unicode="&#x20;" horiz-adv-x="0" d="" />
<glyph unicode="&#xe9d;" glyph-name="arrowup5_solid" d="M8 153.6c0 137 111 248 248 248s248-111 248-248-111-248-248-248-248 111-248 248zM387.5 126.1l-123 123c-4.7 4.7-12.3 4.7-17 0l-123-123c-7.6-7.6-2.2-20.5 8.5-20.5h246c10.7 0 16.1 12.9 8.5 20.5z" />
<glyph unicode="&#xe226;" glyph-name="attach_file" d="M360.579 293.038h34.859v-266.894c0-70.808-56.647-128.544-127.455-128.544s-128.544 57.736-128.544 128.544v289.77c0 51.2 42.485 93.685 93.685 93.685s92.595-42.485 92.595-93.685v-244.017c0-31.591-26.144-57.736-57.736-57.736s-58.826 26.144-58.826 57.736v221.14h34.859v-221.14c0-13.072 10.893-22.877 23.966-22.877s22.877 9.804 22.877 22.877v244.017c0 31.591-26.144 58.825-57.736 58.825s-58.826-27.234-58.826-58.825v-289.77c0-51.2 42.485-93.685 93.685-93.685s92.596 42.485 92.596 93.685v266.894z" />
<glyph unicode="&#xe260;" glyph-name="linear_scale" d="M448.3 217.3c34.854 0 63.7-28.845 63.7-63.7s-28.845-63.7-63.7-63.7c-26.442 0-49.277 15.625-58.892 38.46h-74.517c-9.615-22.836-32.45-38.46-58.892-38.46s-49.277 15.625-58.892 38.46h-74.516c-9.615-22.836-32.45-38.46-58.892-38.46-34.855 0-63.7 28.845-63.7 63.7s28.845 63.7 63.7 63.7c26.441 0 49.277-15.625 58.892-38.46h74.516c9.615 22.835 32.451 38.46 58.892 38.46s49.277-15.625 58.892-38.46h74.517c9.615 22.835 32.45 38.46 58.892 38.46z" />
<glyph unicode="&#xe292;" glyph-name="hashtag" d="M307.055 199.679l-10.229-92.158h-91.882l10.229 92.158zM325.257 363.49l-13.087-117.733h-91.882l12.511 112.663c1.406 12.649-7.718 24.030-20.345 25.436s-24.030-7.717-25.436-20.366l-13.087-117.733h-102.249c-12.718 0-23.040-10.322-23.040-23.040s10.322-23.040 23.040-23.040h97.135l-10.229-92.158h-86.906c-12.718 0-23.040-10.322-23.040-23.039s10.322-23.039 23.040-23.039h81.767l-12.511-112.663c-1.406-12.649 7.718-24.030 20.345-25.436s24.030 7.717 25.436 20.344l13.109 117.755h91.881l-12.51-112.663c-1.406-12.649 7.717-24.030 20.344-25.436s24.030 7.717 25.436 20.344l13.087 117.755h102.25c12.718 0 23.039 10.322 23.039 23.039s-10.322 23.039-23.039 23.039h-97.135l10.229 92.158h86.906c12.718 0 23.039 10.322 23.039 23.040s-10.322 23.040-23.039 23.040h-81.767l12.51 112.663c1.406 12.649-7.717 24.030-20.344 25.436s-24.030-7.717-25.436-20.344z" />
<glyph unicode="&#xe5d3;" glyph-name="more_horiz" d="M256 196.6c23 0 43-20 43-43s-20-43-43-43-43 20-43 43 20 43 43 43zM384 196.6c23 0 43-20 43-43s-20-43-43-43-43 20-43 43 20 43 43 43zM128 196.6c23 0 43-20 43-43s-20-43-43-43-43 20-43 43 20 43 43 43z" />
<glyph unicode="&#xe5d4;" glyph-name="more_vert" d="M256 68.6c23 0 43-20 43-43s-20-43-43-43-43 20-43 43 20 43 43 43zM256 196.6c23 0 43-20 43-43s-20-43-43-43-43 20-43 43 20 43 43 43zM256 238.6c-23 0-43 20-43 43s20 43 43 43 43-20 43-43-20-43-43-43z" />
<glyph unicode="&#xe600;" glyph-name="minus1" d="M128 179.2v-51.2h256v51.2h-256zM256 409.6c-141.312 0-256-114.688-256-256s114.688-256 256-256 256 114.688 256 256-114.688 256-256 256zM256-51.2c-112.896 0-204.799 91.904-204.799 204.8s91.903 204.799 204.799 204.799 204.799-91.903 204.799-204.799-91.904-204.799-204.799-204.799z" />
<glyph unicode="&#xe601;" glyph-name="logo" d="M246.413 81.7h121.432v-63.911h-121.431v63.911zM342.66 286.216h-171.315c-14.56 0-27.19-11.825-27.19-26.404v-37.507h223.69v63.911h-25.185zM340.654 183.958h-196.5v-166.169h63.911v102.258h132.588c11.675 0 22.103 7.809 25.779 18.385 0.921 2.416 1.411 5.021 1.411 7.545v37.981h-27.19zM256-102.4c-34.553 0-68.081 6.771-99.652 20.124-30.487 12.894-57.862 31.351-81.368 54.856s-41.962 50.881-54.856 81.368c-13.353 31.572-20.124 65.099-20.124 99.652s6.771 68.081 20.124 99.652c12.895 30.487 31.35 57.863 54.856 81.368s50.881 41.962 81.368 54.856c31.572 13.353 65.1 20.124 99.652 20.124s68.081-6.771 99.652-20.124c30.486-12.894 57.861-31.351 81.368-54.856s41.962-50.881 54.856-81.368c13.353-31.572 20.124-65.1 20.124-99.652s-6.771-68.081-20.124-99.652c-12.894-30.486-31.351-57.861-54.856-81.368s-50.881-41.962-81.368-54.856c-31.572-13.353-65.099-20.124-99.652-20.124zM256 376.935c-59.654 0-115.739-23.231-157.921-65.413s-65.413-98.267-65.413-157.921c0-59.654 23.231-115.739 65.413-157.921s98.267-65.413 157.921-65.413c59.654 0 115.739 23.231 157.921 65.413s65.413 98.267 65.413 157.921c0 59.654-23.231 115.739-65.413 157.921s-98.267 65.413-157.921 65.413z" />
<glyph unicode="&#xe602;" glyph-name="plus1" d="M281.6 281.6h-51.2v-102.4h-102.4v-51.2h102.4v-102.4h51.2v102.4h102.4v51.2h-102.4v102.4zM256 409.6c-141.312 0-256-114.688-256-256s114.688-256 256-256 256 114.688 256 256-114.688 256-256 256zM256-51.2c-112.896 0-204.799 91.904-204.799 204.8s91.903 204.799 204.799 204.799 204.799-91.903 204.799-204.799-91.904-204.799-204.799-204.799z" />
<glyph unicode="&#xe603;" glyph-name="plus2" d="M256 409.6c-141.312 0-256-114.688-256-256s114.688-256 256-256 256 114.688 256 256-114.688 256-256 256zM384 128h-102.4v-102.4h-51.2v102.4h-102.4v51.2h102.4v102.4h51.2v-102.4h102.4v-51.2z" />
<glyph unicode="&#xe604;" glyph-name="minus2" d="M256 409.6c-141.312 0-256-114.688-256-256s114.688-256 256-256 256 114.688 256 256-114.688 256-256 256zM384 128h-256v51.2h256v-51.2z" />
<glyph unicode="&#xe605;" glyph-name="check" d="M504 153.6c0-136.967-111.033-248-248-248s-248 111.033-248 248 111.033 248 248 248 248-111.033 248-248zM227.314 22.286l184 184c6.248 6.248 6.248 16.379 0 22.627l-22.627 22.627c-6.248 6.249-16.379 6.249-22.628 0l-150.059-150.058-70.059 70.059c-6.248 6.248-16.379 6.248-22.628 0l-22.627-22.627c-6.248-6.248-6.248-16.379 0-22.627l104-104c6.249-6.249 16.379-6.249 22.628-0.001z" />
<glyph unicode="&#xe606;" glyph-name="check1" d="M256 401.6c-136.967 0-248-111.033-248-248s111.033-248 248-248 248 111.033 248 248-111.033 248-248 248zM256 353.6c110.532 0 200-89.451 200-200 0-110.532-89.451-200-200-200-110.532 0-200 89.451-200 200 0 110.532 89.451 200 200 200zM396.204 223.333l-22.536 22.718c-4.667 4.705-12.265 4.736-16.97 0.068l-141.352-140.216-59.792 60.277c-4.667 4.705-12.265 4.736-16.97 0.069l-22.719-22.536c-4.705-4.667-4.736-12.265-0.068-16.971l90.781-91.516c4.667-4.705 12.265-4.736 16.97-0.068l172.589 171.204c4.704 4.668 4.734 12.266 0.067 16.971z" />
<glyph unicode="&#xe607;" glyph-name="cancel" d="M256 409.6c-141.568 0-256-114.432-256-256s114.432-256 256-256 256 114.432 256 256-114.432 256-256 256zM384 61.697l-36.096-36.096-91.904 91.904-91.904-91.904-36.096 36.096 91.904 91.904-91.904 91.904 36.096 36.096 91.904-91.904 91.904 91.904 36.096-36.096-91.904-91.904 91.904-91.904z" />
<glyph unicode="&#xe608;" glyph-name="cancel1" d="M256 409.6c-141.568 0-256-114.432-256-256s114.432-256 256-256 256 114.432 256 256-114.432 256-256 256zM256-51.2c-112.896 0-204.799 91.904-204.799 204.8s91.903 204.799 204.799 204.799 204.799-91.903 204.799-204.799-91.904-204.799-204.799-204.799zM347.904 281.6l-91.904-91.904-91.904 91.904-36.096-36.096 91.904-91.904-91.904-91.904 36.096-36.096 91.904 91.904 91.904-91.904 36.096 36.096-91.904 91.904 91.904 91.904z" />
<glyph unicode="&#xe609;" glyph-name="arrowdown" d="M256 401.6c-137 0-248-111-248-248s111-248 248-248 248 111 248 248-111 248-248 248zM256-46.4c-110.5 0-200 89.5-200 200s89.5 200 200 200 200-89.5 200-200-89.5-200-200-200zM385.9 159.7l-19.6 19.6c-4.8 4.8-12.5 4.7-17.2-0.2l-67.1-70.3v160.8c0 6.6-5.4 12-12 12h-28c-6.6 0-12-5.4-12-12v-160.8l-67.1 70.3c-4.7 4.9-12.4 5-17.2 0.2l-19.6-19.6c-4.7-4.7-4.7-12.3 0-17l121.4-121.4c4.7-4.7 12.3-4.7 17 0l121.4 121.4c4.7 4.7 4.7 12.3 0 17z" />
<glyph unicode="&#xe60a;" glyph-name="clear" d="M512-102.4h-512v512h512v-512zM34.133-68.266h443.733v443.733h-443.733v-443.733zM119.466 290.134h34.133v-273.067h-34.133v273.067z" />
<glyph unicode="&#xe60b;" glyph-name="noclear" d="M512-102.4h-512v512h512v-512zM34.133-68.266h443.733v443.733h-443.733v-443.733zM119.466 290.134h170.667v-273.067h-170.667v273.067zM358.4 290.134h34.134v-273.067h-34.134v273.067z" />
<glyph unicode="&#xe60c;" glyph-name="arrowdown1" d="M504 153.6c0-137-111-248-248-248s-248 111-248 248 111 248 248 248 248-111 248-248zM360.4 182.5l-72.4-75.5v182.6c0 13.3-10.7 24-24 24h-16c-13.3 0-24-10.7-24-24v-182.6l-72.4 75.5c-9.3 9.7-24.8 9.9-34.3 0.4l-10.9-11c-9.4-9.4-9.4-24.6 0-33.9l132.6-132.7c9.4-9.4 24.6-9.4 33.9 0l132.7 132.7c9.4 9.4 9.4 24.6 0 33.9l-10.9 11c-9.5 9.5-25 9.3-34.3-0.4z" />
<glyph unicode="&#xe60d;" glyph-name="arrowup" d="M256-94.4c137 0 248 111 248 248s-111 248-248 248-248-111-248-248 111-248 248-248zM256 353.6c110.5 0 200-89.5 200-200s-89.5-200-200-200-200 89.5-200 200 89.5 200 200 200zM126.1 164.5l121.4 121.4c4.7 4.7 12.3 4.7 17 0l121.4-121.4c4.7-4.7 4.7-12.3 0-17l-19.6-19.6c-4.8-4.8-12.5-4.7-17.2 0.2l-67.1 70.3v-160.8c0-6.6-5.4-12-12-12h-28c-6.6 0-12 5.4-12 12v160.8l-67.1-70.3c-4.7-4.9-12.4-5-17.2-0.2l-19.6 19.6c-4.7 4.7-4.7 12.3 0 17z" />
<glyph unicode="&#xe60e;" glyph-name="arrowup1" d="M8 153.6c0 137 111 248 248 248s248-111 248-248-111-248-248-248-248 111-248 248zM151.6 124.7l72.4 75.5v-182.6c0-13.3 10.7-24 24-24h16c13.3 0 24 10.7 24 24v182.6l72.4-75.5c9.3-9.7 24.8-9.9 34.3-0.4l10.9 11c9.4 9.4 9.4 24.6 0 33.9l-132.6 132.7c-9.4 9.4-24.6 9.4-33.9 0l-132.8-132.7c-9.4-9.4-9.4-24.6 0-33.9l10.9-11c9.6-9.5 25.1-9.3 34.4 0.4z" />
<glyph unicode="&#xe60f;" glyph-name="plus4" d="M496 217.6h-176v176c0 8.836-7.164 16-16 16h-96c-8.836 0-16-7.164-16-16v-176h-176c-8.836 0-16-7.164-16-16v-96c0-8.836 7.164-16 16-16h176v-176c0-8.836 7.164-16 16-16h96c8.836 0 16 7.164 16 16v176h176c8.836 0 16 7.164 16 16v96c0 8.836-7.164 16-16 16z" />
<glyph unicode="&#xe610;" glyph-name="delete" d="M192 206.935v-192.001c0-6-4.666-10.666-10.666-10.666h-21.334c-6 0-10.666 4.666-10.666 10.666v192.001c0 6 4.666 10.666 10.666 10.666h21.334c6 0 10.666-4.666 10.666-10.666zM277.334 206.935v-192.001c0-6-4.666-10.666-10.666-10.666h-21.334c-6 0-10.666 4.666-10.666 10.666v192.001c0 6 4.666 10.666 10.666 10.666h21.334c6 0 10.666-4.666 10.666-10.666zM362.668 206.935v-192.001c0-6-4.666-10.666-10.666-10.666h-21.334c-6 0-10.666 4.666-10.666 10.666v192.001c0 6 4.666 10.666 10.666 10.666h21.334c6 0 10.666-4.666 10.666-10.666zM405.336-34.4v316.001h-298.668v-316.001c0-16 9-25.334 10.666-25.334h277.335c1.666 0 10.666 9.334 10.666 25.334zM181.335 324.267h149.334l-16 39c-1 1.334-4 3.333-5.666 3.666h-105.667c-2-0.334-4.666-2.334-5.666-3.666zM490.668 313.601v-21.333c0-6-4.666-10.666-10.666-10.666h-32v-316.001c0-36.666-24-68-53.334-68h-277.335c-29.334 0-53.334 30-53.334 66.666v317.334h-32c-6 0-10.666 4.666-10.666 10.666v21.334c0 6 4.666 10.666 10.666 10.666h103l23.334 55.666c6.667 16.334 26.666 29.666 44.334 29.666h106.666c17.666 0 37.666-13.334 44.334-29.666l23.334-55.666h103c6 0 10.666-4.666 10.666-10.666z" />
<glyph unicode="&#xe611;" glyph-name="tooltip" d="M78.154-30.538c-48.218 46.617-78.154 111.881-78.154 184.138 0 141.385 114.615 256 256 256 72.257 0 137.522-29.936 184.068-78.082l0.069-0.072c44.462-45.989 71.862-108.718 71.862-177.846 0-141.385-114.615-256-256-256-69.128 0-131.857 27.399-177.918 71.932l0.072-0.069zM404.043 5.558c37.082 37.082 60.018 88.31 60.018 144.896 0 113.171-91.743 204.914-204.914 204.914-56.585 0-107.814-22.936-144.896-60.018v0c-37.082-37.082-60.018-88.31-60.018-144.896 0-113.171 91.743-204.914 204.914-204.914 56.586 0 107.814 22.936 144.896 60.018v0zM233.547 124.854v51.2h51.2v-153.6h-51.2v102.4zM233.547 278.454h51.2v-51.2h-51.2v51.2z" />
<glyph unicode="&#xe612;" glyph-name="required" d="M453.52 84.184l-126.409 69.416 126.409 69.416c10.485 5.757 14.188 19.008 8.207 29.367l-17.315 29.992c-5.981 10.359-19.306 13.777-29.535 7.576l-123.32-74.767 3.089 144.181c0.256 11.959-9.367 21.791-21.329 21.791h-34.631c-11.961 0-21.585-9.832-21.328-21.791l3.088-144.181-123.32 74.766c-10.227 6.201-23.555 2.782-29.535-7.576l-17.316-29.992c-5.98-10.358-2.278-23.609 8.207-29.367l126.408-69.415-126.409-69.416c-10.484-5.757-14.188-19.008-8.206-29.366l17.315-29.992c5.981-10.358 19.308-13.777 29.535-7.576l123.32 74.767-3.089-144.181c-0.256-11.959 9.368-21.791 21.329-21.791h34.632c11.961 0 21.585 9.832 21.329 21.791l-3.089 144.182 123.32-74.765c10.228-6.201 23.555-2.783 29.535 7.576l17.315 29.992c5.981 10.358 2.279 23.608-8.207 29.365z" />
<glyph unicode="&#xe613;" glyph-name="minus4" d="M0 201.6v-96c0-8.836 7.164-16 16-16h480c8.836 0 16 7.164 16 16v96c0 8.836-7.164 16-16 16h-480c-8.836 0-16-7.164-16-16z" />
<glyph unicode="&#xe615;" glyph-name="download" d="M460.8 76.8v-102.4c0-3.507-0.691-6.81-1.92-9.779-1.28-3.123-3.2-5.94-5.58-8.32s-5.197-4.275-8.32-5.58c-2.969-1.229-6.272-1.92-9.779-1.92h-358.4c-3.507 0-6.809 0.691-9.779 1.92-3.123 1.28-5.94 3.2-8.32 5.58s-4.275 5.197-5.581 8.32c-1.229 2.969-1.92 6.272-1.92 9.779v102.4c0 14.131-11.469 25.6-25.6 25.6s-25.6-11.469-25.6-25.6v-102.4c0-10.368 2.074-20.301 5.837-29.389 3.891-9.421 9.6-17.868 16.666-24.934s15.513-12.774 24.934-16.666c9.063-3.737 18.996-5.811 29.364-5.811h358.4c10.368 0 20.301 2.073 29.389 5.837 9.421 3.891 17.868 9.6 24.934 16.665s12.774 15.514 16.666 24.934c3.738 9.063 5.811 18.995 5.811 29.363v102.4c0 14.131-11.469 25.6-25.6 25.6s-25.6-11.469-25.6-25.6zM281.6 138.598v245.402c0 14.131-11.469 25.6-25.6 25.6s-25.6-11.469-25.6-25.6v-245.402l-84.3 84.3c-10.010 10.010-26.215 10.010-36.198 0s-10.010-26.214 0-36.198l128-128c0.051-0.051 0.102-0.103 0.154-0.154 2.432-2.381 5.197-4.173 8.141-5.402 3.072-1.28 6.375-1.92 9.651-1.946 0.102 0 0.205 0 0.282 0 3.276 0.026 6.579 0.666 9.651 1.946 3.021 1.255 5.837 3.098 8.295 5.555l128 128c10.010 10.010 10.010 26.214 0 36.198s-26.214 10.010-36.199 0z" />
<glyph unicode="&#xe616;" glyph-name="upload" d="M460.8 76.8v-102.401c0-3.507-0.691-6.81-1.92-9.779-1.28-3.123-3.2-5.94-5.58-8.32s-5.197-4.275-8.32-5.58c-2.969-1.229-6.272-1.92-9.779-1.92h-358.401c-3.507 0-6.809 0.691-9.779 1.92-3.123 1.28-5.94 3.2-8.32 5.58s-4.275 5.197-5.581 8.32c-1.229 2.969-1.92 6.272-1.92 9.779v102.4c0 14.131-11.469 25.6-25.6 25.6s-25.6-11.469-25.6-25.6v-102.4c0-10.368 2.074-20.301 5.837-29.389 3.891-9.421 9.6-17.868 16.666-24.934s15.513-12.775 24.934-16.666c9.063-3.738 18.996-5.811 29.364-5.811h358.401c10.368 0 20.301 2.074 29.389 5.837 9.421 3.891 17.868 9.6 24.934 16.666s12.774 15.514 16.666 24.934c3.738 9.063 5.811 18.995 5.811 29.363v102.4c0 14.131-11.469 25.6-25.6 25.6s-25.6-11.469-25.6-25.6zM230.4 322.202v-245.402c0-14.131 11.469-25.6 25.6-25.6s25.6 11.469 25.6 25.6v245.402l84.3-84.3c10.010-10.010 26.214-10.010 36.199 0s10.010 26.214 0 36.198l-128 128c-0.026 0.026-0.077 0.051-0.103 0.103-2.432 2.406-5.223 4.224-8.192 5.453-6.272 2.585-13.338 2.585-19.61 0-2.97-1.229-5.76-3.046-8.192-5.453-0.026-0.026-0.077-0.051-0.102-0.103l-128-128c-10.010-10.010-10.010-26.214 0-36.198s26.215-10.010 36.198 0z" />
<glyph unicode="&#xe617;" glyph-name="highrise" d="M437.601 71.971c0 26.36-19.183 51.058-54.013 69.533-0.66 0.353-1.325 0.688-1.991 1.034l-0.522 61.151-1.748-0.017-0.226 0.577 0.841 2.227-43.123 16.318-0.622-1.633-0.649 1.623-23.308-9.322 1.299-3.245 22.681 9.069 39.745-15.036-38.586-15.008-22.67 9.069-1.298-3.245 22.208-8.887v-133.803l-12.776 4.917-1.254-3.267 15.152-5.829 0.627 1.634 0.671-1.618 41.957 17.485-0.666 1.608 2.908 0.021-0.61 71.276c32.404-17.088 52.473-40.648 52.473-66.628h-0.396l0.231-1.959c0.104-0.902 0.159-1.815 0.159-2.706 0-16.801-18.44-32.752-51.934-44.923-34.044-12.368-79.345-19.178-127.555-19.178s-93.512 6.814-127.555 19.183c-33.488 12.164-51.934 28.119-51.934 44.921 0 0.897 0.055 1.81 0.159 2.706l0.237 1.959h-0.395c0 28.532 24.198 54.134 62.356 71.457v-77.288h1.749l-0.655-1.622 43.124-17.485 0.655 1.623 0.022-1.748v1.709l0.858-1.469 13.986 8.156-1.76 3.019-11.357-6.625v97.186l17.374 7.155-0.231 0.297 1.287 0.995-1.029 2.502-18.787-7.738-39.945 36.705 38.075 16.318 22.477-20.233 2.338 2.595-23.308 20.982-1.172-1.298-0.688 1.606-40.792-17.483 0.319-0.743-0.798-0.863h-1.749v-42.43c-4.075-1.815-8.030-3.729-11.841-5.748-34.83-18.479-54.013-43.173-54.013-69.533 0-0.605 0.011-1.204 0.028-1.81l0.033-1.014c-0.044-0.616-0.066-1.232-0.066-1.842 0-18.38 19.26-35.5 54.233-48.205 34.417-12.505 80.142-19.392 128.749-19.392s94.332 6.886 128.749 19.392c34.972 12.704 54.233 29.825 54.233 48.205 0 0.611-0.022 1.232-0.066 1.853l0.033 1.001c0.022 0.605 0.033 1.204 0.033 1.81l0.027-0.004zM378.655 68.918l-39.538-16.471v133.709l38.481 14.965 1.133-132.39-0.077 0.187zM140.984 185.705l39.626-36.413v-98.038l-39.625 16.065v118.387zM228.903 73.395l27.213 10.901-52.258 20.454 25.046-31.354zM200.084 59.343l55.459-23.022-27.378 34.269-28.082-11.247zM204.132 107.142l50.504-19.766-24.837 32.086-25.667-12.32zM233.166 218.198l-24.089-13.447 46.528-18.204-22.439 31.651zM256.375 134.805l-51.191 20.261 25.309-32.691 25.882 12.43zM231.163 169.662l-24.975-12.49 49.602-19.635-24.627 32.125zM255.109 184.242l-45.972 17.989 22.708-29.621 23.263 11.632zM201.162 108.302l27.174 13.046-26.861 34.691-1.43-0.588-2.607-45.692 3.724-1.457zM205.672 187.487l-2.338-2.601-1.524 1.375-1.534-26.938 1.238 0.506 1.029-2.503 0.478 0.369-0.198 0.39 26.905 13.453-24.98 32.581 0.94 0.754-0.006 1.122h0.011v-1.106l0.401 1.023 0.176-0.066 25.541 14.256-20.096 28.34 1.903 1.347 20.244-28.549 22.527 12.572 1.133-2.035-22.307-12.452 23.857-33.642-0.087-0.066 0.252-0.5 0.478-0.187-0.171-0.429 0.264-0.534-0.588-0.292-0.358-0.913-0.825 0.325-24.743-12.369 26.916-35.11-0.902-0.759 0.478-1-27.84-13.365 26.922-34.769 3.574-1.402-1.579-0.632 0.99-0.988-1.65-1.65-1.694 1.694-28.087-11.252 29.77-37.26-1.359-1.804-63.609 26.403 2.931 2.25 28.483 11.412-29.236 36.594-2.931-51.334 0.99 0.577 1.76-3.019-2.992-1.743-0.732-12.864 65.2-27.631v-0.165l0.197 0.077 1.825-0.776 0.017 1.512 63.28 25.479-0.825 14.2-1.601 0.616 1.254 3.262 0.121-0.048-7.952 137.173-1.606 0.643 1.298 3.245 0.088-0.033-0.704 12.16-0.545-0.22-1.298 3.245 1.634 0.655-2.189 37.784-51.522-18.534-48.233 18.358-6.264 2.25-3.607-63.225 3.602-3.234zM260.147 272.26l8.459-3.756v2.53l-8.398 3.734-11.417-4.366v-2.481l11.357 4.339zM260.168 233.355l51.523 18.534-37.256 16.56v-2.53l31.046-13.799-45.284-16.291-47.771 18.182 30.546 11.681v2.481l-37.041-14.167 54.238-20.651zM268.606 254.952h5.829v26.806h-1.166v27.972h-3.498v-27.972h-1.166v-26.806zM242.966 244.465h5.829v26.805h-1.166v27.972h-3.498v-27.972h-1.166v-26.805zM488.442 55.514c-14.065 171.172-114.314 300.255-233.19 300.255-57.308 0-112.472-30.257-155.34-85.193-42.167-54.038-69.611-128.155-77.287-208.723-0.628-3.080-0.948-6.226-0.948-9.339 0-27.666 24.678-53.361 69.49-72.353 43.72-18.534 101.765-28.733 163.446-28.733 61.682 0 119.728 10.207 163.446 28.733 44.094 18.686 68.692 43.866 69.471 71.024h1.262l-0.356 4.33 0.006-0.002zM479.792 54.906c0.050-0.779 0.079-1.583 0.079-2.392 0-24.201-22.981-47.272-64.712-64.958-42.82-18.145-99.84-28.144-160.547-28.144-60.708 0-117.727 10-160.546 28.144-41.733 17.688-64.713 40.757-64.713 64.958 0 2.618 0.278 5.266 0.82 7.87l0.067 0.458c7.501 79.12 34.359 151.817 75.626 204.707 41.382 53.034 94.433 82.243 149.38 82.243 113.862 0 210.136-123.774 225.161-288.625h-0.9l0.277-4.26h0.007v-0.001zM254.612-57.507c-62.862 0-122.147 10.456-166.934 29.441-48.325 20.481-74.939 49.099-74.939 80.582 0 3.546 0.347 7.122 1.031 10.64 7.896 82.062 35.977 157.661 79.094 212.919 44.6 57.155 102.27 88.633 162.387 88.633 60.313 0 118.188-31.747 162.957-89.394 44.091-56.772 72.197-134.571 79.139-219.067l0.795-9.668h-0.007l0.356-4.33h-2.969c-5.171-27.403-31.041-52.119-73.978-70.314-44.803-18.986-104.088-29.441-166.935-29.441zM255.246 338.855c-52.133 0-102.68-27.986-142.334-78.803-40.232-51.564-66.433-122.61-73.775-200.053l-0.215-1.44c-0.42-2.013-0.633-4.047-0.633-6.045 0-20.091 21.601-40.768 59.263-56.731 41.752-17.692 97.529-27.435 157.059-27.435s115.308 9.743 157.060 27.435c37.661 15.962 59.262 36.64 59.262 56.731 0 0.408-0.012 0.838-0.031 1.284l-0.931 14.305h0.546c-8.337 74.286-33.975 142.048-72.675 191.702-39.733 50.976-90.375 79.050-142.596 79.050zM254.612-54.516c-62.472 0-121.342 10.371-165.766 29.202-47.15 19.983-73.115 47.623-73.115 77.829 0 3.401 0.337 6.834 1.003 10.209 7.821 81.56 35.689 156.662 78.49 211.51 44.020 56.413 100.852 87.481 160.028 87.481 121.997 0 224.794-131.428 239.114-305.715l0.529-6.433h-0.005l0.356-4.329h-2.262c-3.846-27.343-29.349-52.222-72.607-70.552-44.442-18.833-103.313-29.204-165.768-29.204zM255.246 341.846c-53.074 0-104.46-28.395-144.692-79.955-40.578-52.007-66.999-123.606-74.394-201.61l-0.165-1.11c-0.462-2.215-0.696-4.454-0.696-6.657 0-21.663 21.695-42.789 61.087-59.484 42.11-17.844 98.303-27.671 158.226-27.671s116.114 9.827 158.228 27.671c39.392 16.695 61.084 37.822 61.084 59.484 0 0.466-0.013 0.964-0.038 1.488l-0.726 11.111h0.688c-7.993 76.129-34.033 145.707-73.647 196.531-40.313 51.719-91.792 80.202-144.955 80.202zM254.612-63.453c-63.643 0-123.753 10.623-169.255 29.913-50.662 21.471-78.564 52.033-78.564 86.056 0 3.829 0.365 7.691 1.086 11.489 8.038 83.060 36.547 159.66 80.299 215.728 45.752 58.631 105.086 90.921 167.074 90.921 61.812 0 121.112-32.293 166.976-90.932 45.196-57.784 73.979-136.976 81.046-222.988l1.325-16.103h-0.005l0.356-4.329h-4.693c-3.466-12.788-11.031-24.907-22.563-36.125-13.188-12.827-31.296-24.171-53.827-33.718-45.519-19.288-105.627-29.911-169.255-29.911zM255.252 352.779c-56.361 0-110.692-29.847-152.982-84.043-41.761-53.517-68.978-126.983-76.638-206.865l-0.043-0.443-0.086-0.436c-0.553-2.805-0.834-5.657-0.834-8.477 0-26.389 24.030-51.106 67.665-69.598 43.346-18.375 100.978-28.495 162.279-28.495 61.284 0 118.918 10.12 162.279 28.495 39.981 16.94 63.863 39.515 67.244 63.567l1.080 7.691h0.329l-0.264 3.202c-7.077 81.752-34.432 156.737-77.134 211.332-42.403 54.214-96.702 84.070-152.897 84.070zM254.612-43.577c-61.094 0-118.524 10.077-161.713 28.378-20.63 8.744-36.8 18.738-48.063 29.705-12.258 11.937-18.474 24.724-18.474 38.008 0 2.726 0.279 5.485 0.829 8.211l0.095 0.637c7.584 79.587 34.65 152.744 76.223 206.027 41.962 53.778 95.851 83.394 151.738 83.394 55.978 0 109.96-29.705 152.002-83.646 40.519-51.985 67.329-123.401 75.489-201.090l1.036-9.87h-1.074l0.113-1.748c0.033-0.673 0.047-1.313 0.047-1.913 0-13.283-6.215-26.072-18.473-38.008-11.262-10.967-27.433-20.962-48.062-29.705-43.19-18.301-100.621-28.38-161.714-28.38zM255.246 332.909c-50.261 0-99.144-27.173-137.646-76.515-39.544-50.681-65.306-120.629-72.543-196.955l-0.057-0.473-0.257-1.62c-0.337-1.615-0.508-3.239-0.508-4.83 0-17.589 20.279-36.27 55.637-51.256 41.032-17.387 95.987-26.962 154.738-26.962s113.705 9.575 154.741 26.962c35.356 14.986 55.635 33.668 55.635 51.256 0 0.311-0.009 0.642-0.024 0.988l-1.342 20.547h0.195c-8.959 70.555-33.881 134.905-70.664 182.099-38.582 49.499-87.558 76.759-137.906 76.759zM254.612-55.631c-62.552 0-121.509 10.39-166.012 29.257-47.538 20.146-73.718 48.163-73.718 78.889 0 3.468 0.342 6.969 1.017 10.409 7.855 81.776 35.809 157.089 78.736 212.099 44.185 56.624 101.226 87.807 160.617 87.807 122.43 0 225.589-131.858 239.959-306.716l0.63-7.662h-0.005l0.356-4.329h-2.507c-4.342-27.409-29.961-52.237-73.058-70.5-44.52-18.864-103.478-29.254-166.013-29.254zM255.246 340.732c-52.857 0-104.035-28.279-144.102-79.63-40.439-51.827-66.769-123.194-74.142-200.952l-0.188-1.262c-0.443-2.12-0.666-4.264-0.666-6.373 0-20.837 22.046-42.13 60.484-58.42 42.030-17.811 98.135-27.62 157.98-27.62s115.95 9.809 157.98 27.62c38.438 16.291 60.483 37.585 60.483 58.42 0 0.438-0.012 0.906-0.033 1.394l-0.806 12.32h0.639c-8.127 75.392-34.010 144.261-73.264 194.626-40.148 51.511-91.417 79.879-144.365 79.879zM254.612-64.568c-63.724 0-123.919 10.642-169.5 29.965-51.050 21.635-79.166 52.575-79.166 87.118 0 3.892 0.369 7.82 1.098 11.683 8.070 83.28 36.668 160.095 80.545 216.322 45.915 58.842 105.459 91.247 167.663 91.247 62.022 0 121.523-32.395 167.541-91.216 45.352-57.969 74.233-137.416 81.325-223.704l1.425-17.331h-0.007l0.356-4.329h-5.046c-3.647-12.82-11.342-24.959-22.949-36.171-13.25-12.801-31.349-24.113-53.785-33.62-45.597-19.324-105.793-29.965-169.498-29.965zM255.252 353.894c-56.578 0-111.117-29.962-153.571-84.368-41.886-53.678-69.192-127.353-76.885-207.456l-0.042-0.435-0.084-0.43c-0.564-2.877-0.849-5.8-0.849-8.69 0-26.911 24.245-52.004 68.268-70.661 43.425-18.409 101.144-28.547 162.524-28.547 61.364 0 119.083 10.138 162.524 28.546 39.838 16.882 63.889 39.493 67.719 63.67l1.193 7.539h0.441l-0.349 4.261c-7.076 82.096-34.537 157.396-77.424 212.215-42.559 54.399-97.060 84.357-153.464 84.357zM254.612-42.463c-61.016 0-118.36 10.060-161.467 28.327-20.144 8.538-36.084 18.399-47.379 29.308-12.139 11.726-18.556 24.639-18.556 37.342 0 2.631 0.269 5.297 0.8 7.928l0.117 0.788c7.562 79.342 34.537 152.265 75.97 205.367 41.8 53.571 95.478 83.072 151.149 83.072 55.762 0 109.536-29.59 151.414-83.32 40.137-51.496 66.808-122.226 75.1-199.162l1.067-9.896h-1.050l0.193-2.99c0.027-0.625 0.042-1.225 0.042-1.787 0-12.704-6.416-25.618-18.555-37.342-11.295-10.909-27.235-20.769-47.377-29.308-43.11-18.266-100.454-28.327-161.47-28.327zM255.246 331.795c-50.045 0-98.72-27.058-137.056-76.19-39.404-50.501-65.077-120.216-72.29-196.298l-0.057-0.473-0.279-1.772c-0.317-1.52-0.478-3.050-0.478-4.546 0-16.825 20.574-35.588 55.035-50.193 40.951-17.353 95.817-26.911 154.493-26.911s113.541 9.557 154.494 26.911c34.459 14.604 55.034 33.368 55.034 50.193 0 0.288-0.007 0.594-0.019 0.913l-1.421 21.737h0.118c-9.070 69.812-33.844 133.485-70.251 180.195-38.421 49.288-87.188 76.434-137.32 76.434zM254.612-61.577c-63.332 0-123.113 10.558-168.333 29.729-49.875 21.137-77.343 51.098-77.343 84.363 0 3.752 0.36 7.538 1.072 11.262 7.998 82.775 36.383 159.088 79.938 214.905 45.337 58.098 104.043 90.095 165.305 90.095 125.553 0 231.261-134.205 245.884-312.175l1.161-14.094h-0.007l0.356-4.33h-4.104c-3.222-13.108-10.848-25.536-22.726-37.010-12.986-12.544-30.775-23.653-52.874-33.019-45.236-19.169-105.017-29.726-168.331-29.726zM255.252 356.884c-57.519 0-112.895-30.371-155.929-85.519-42.232-54.12-69.757-128.348-77.504-209.010l-0.084-0.576c-0.602-3.064-0.906-6.182-0.906-9.265 0-28.187 24.893-54.26 70.092-73.416 43.785-18.563 101.918-28.785 163.692-28.785 61.755 0 119.889 10.222 163.691 28.784 40.826 17.301 65.508 40.722 69.505 65.956l0.794 5.015h1.131l-0.356 4.33h0.007l-0.101 1.227c-14.113 171.746-114.724 301.259-234.032 301.259zM254.612-39.471c-60.624 0-117.554 9.976-160.3 28.091-19.805 8.392-35.438 18.050-46.468 28.703-11.707 11.308-17.643 23.149-17.643 35.192 0 2.457 0.255 4.95 0.756 7.411l0.14 0.942c7.499 78.811 34.258 151.215 75.359 203.891 41.219 52.826 94.061 81.918 148.791 81.918 54.819 0 107.754-29.181 149.053-82.168 39.801-51.062 66.254-121.253 74.489-197.644l0.71-6.584h-0.913l0.396-6.099c0.027-0.584 0.041-1.142 0.041-1.668 0-12.044-5.935-23.884-17.642-35.19-11.029-10.654-26.663-20.311-46.466-28.704-42.75-18.115-99.678-28.091-160.302-28.091zM255.246 334.785c-50.986 0-100.499-27.467-139.415-77.341-39.75-50.945-65.644-121.21-72.909-197.855l-0.038-0.315-0.248-1.601c-0.359-1.721-0.542-3.457-0.542-5.159 0-18.064 21.255-37.857 56.858-52.946 41.312-17.507 96.594-27.148 155.661-27.148s114.348 9.64 155.661 27.148c35.603 15.089 56.857 34.881 56.857 52.946 0 0.336-0.009 0.693-0.024 1.065l-1.216 18.596h0.316c-8.772 71.652-33.969 137.147-71.286 185.024-38.997 50.031-88.6 77.584-139.674 77.584zM507.663 23.537c-0.825-0.995-1.736-2.089-2.714-3.256-6.611-7.892-16.257-19.101-22.922-25.541-13.776-13.308-32.481-25.024-55.596-34.819-46.316-19.627-107.335-30.435-171.819-30.435-64.503 0-125.523 10.81-171.821 30.438-53.388 22.625-82.791 55.509-82.791 92.591 0 4.17 0.387 8.379 1.151 12.519 8.214 84.287 37.239 162.102 81.749 219.144 47.068 60.317 108.276 93.535 172.351 93.535 63.519 0 124.448-32.942 171.561-92.756 39.773-50.495 67.16-117.013 78.745-190.207 1.947-12.298 3.447-24.786 4.485-37.418l1.957-23.763h-0.007zM255.246 325.848c-48.173 0-95.184-26.245-132.369-73.902-38.715-49.618-63.951-118.231-71.058-193.2l-0.103-0.842-0.331-2.055c-0.234-1.123-0.353-2.245-0.353-3.334 0-13.93 20.179-31.483 51.408-44.717 40.233-17.050 94.276-26.44 152.173-26.44s111.94 9.389 152.173 26.44c31.228 13.235 51.406 30.788 51.406 44.717 0 0.188-0.005 0.388-0.014 0.595l-1.517 23.22c-9.137 67.951-33.471 130.060-68.79 175.375-37.267 47.813-84.368 74.144-132.626 74.144z" />
<glyph unicode="&#xe61a;" glyph-name="move" d="M239.057 302.439h32.427v-329.812h-32.427v329.812zM255.27 396.8l81.067-97.28h-162.133zM498.471 153.6l-97.28-81.067v162.133zM174.203 7.68h162.133l-81.067-97.28-81.067 97.28zM13.53 147.504l97.28 81.067v-162.133zM109.35 169.813h291.84v-32.427h-291.84v32.427z" />
<glyph unicode="&#xe61b;" glyph-name="duplicate" d="M32 409.6h352v-32h-352v32zM352 409.6h32v-128h-32v128zM32 409.6h352v-32h-352v32zM128 313.6h352v-32h-352v32zM448 313.6h32v-320h-32v320zM32 409.6h32v-416h-32v416zM32 25.6h128v-32h-128v32zM128 313.6h32v-416h-32v416zM128-70.4h256v-32h-256v32zM352 25.6h32v-128h-32v128zM352 25.6h128v-32h-128v32zM224 217.6h160v-32h-160v32zM224 153.6h160v-32h-160v32zM224 89.6h96v-32h-96v32zM382.496-102.4l-23.84 20.448 97.504 96.064 23.84-20.448z" />
<glyph unicode="&#xe61c;" glyph-name="sms" d="M216.964 343.903c38.712 0 77.248 0.024 115.776-0.008 36.96-0.032 56.568-19.664 56.576-56.736 0.032-111.504 0.040-223 0.008-334.504-0.008-34.528-20.28-54.848-55.104-54.952-52.16-0.144-104.32-0.144-156.48-0.008-34.784 0.088-55.048 20.424-55.064 55.008-0.032 109.616-0.016 219.224-0.008 328.832 0.008 38.992 9.616 52.080 47.368 63.464 0 13.176-0.024 26.728 0.008 40.272 0.040 19.816 4.16 24.296 22.32 24.336 18.552 0.040 22.704-4.312 22.784-23.76 0.056-12.84 0.176-25.688 0.32-38.536 0.008-0.664 0.56-1.328 1.496-3.408zM255.603 147.031c20.408 0 40.816-0.256 61.224 0.064 23.696 0.368 38.76 15.736 38.912 39.424 0.152 23.056 0.136 46.104-0.016 69.16-0.16 25.144-15.128 40.104-40.376 40.192-39.304 0.144-78.608 0.112-117.912 0.008-25.92-0.064-41.088-14.88-41.376-40.568-0.256-22.672-0.248-45.352-0.008-68.024 0.264-25.016 15.456-40.008 40.6-40.232 19.648-0.176 39.304-0.040 58.952-0.024zM206.052 14.759c-17.28 0.056-17.488-0.152-17.536-17.632-0.040-14.776 0.736-15.576 14.936-15.648 17.368-0.088 18.032 0.408 18.112 13.584 0.112 19.112-0.304 19.648-15.504 19.696zM306.404-18.522c16.52-0.024 17.208 0.552 17.2 14.544-0.008 18.432-0.264 18.728-16.496 18.744-16.32 0.008-16.472-0.144-16.544-17.456-0.064-15.288 0.456-15.8 15.848-15.824zM306.587 28.879c16.632-0.016 17.016 0.312 17.008 14.504-0.016 18.192-0.264 18.472-16.672 18.472-16.12-0.008-16.328-0.224-16.368-17.576-0.032-15.128 0.24-15.392 16.032-15.4zM306.683-32.657c-16.072-0.008-16.072-0.008-16.128-17.616-0.048-14.76 0.416-15.192 16.28-15.192 16.224-0.008 16.8 0.504 16.768 14.768-0.048 18.056-0.048 18.056-16.92 18.040zM204.956 28.879c16.168 0 16.544 0.312 16.592 13.752 0.064 18.776-0.28 19.192-15.88 19.224-16.968 0.040-17.144-0.136-17.16-17.96-0.016-14.792 0.224-15.008 16.456-15.016zM205.347-32.657c-16.728 0.008-16.84-0.112-16.848-18.072-0.008-14.136 0.592-14.696 15.656-14.736 16.912-0.040 17.384 0.336 17.392 14.080 0.016 18.608-0.080 18.72-16.2 18.728zM272.324-2.865c-0.104 17.688-0.104 17.688-17.352 17.624-15.288-0.056-15.368-0.16-15.272-19.704 0.064-13.184 0.72-13.68 17.92-13.576 14.224 0.088 14.792 0.688 14.712 15.664zM205.675 108.567c-17.072 0.032-17.072 0.032-17.168-16.76-0.088-15.344 0.272-15.696 15.896-15.712 16.96-0.024 17.16 0.144 17.136 14.44-0.024 18.008-0.024 18.008-15.864 18.040zM323.579 93.239c-0.192 15.56-0.216 15.584-19.736 15.328-13.144-0.176-13.536-0.752-13.296-19.448 0.168-12.928 0.632-13.24 19.712-13.024 13.136 0.144 13.528 0.64 13.32 17.144zM256.515 61.855c-16.784 0.040-16.784 0.040-16.816-18.36-0.024-14.304 0.232-14.56 14.648-14.608 17.632-0.064 17.912 0.144 17.984 13.544 0.096 19.16-0.096 19.392-15.816 19.424zM272.315-49.673c-0.144 17.208-0.144 17.208-19.144 17.016-13.384-0.136-13.528-0.344-13.472-19.272 0.040-13.368 0.416-13.648 17.976-13.536 14.328 0.088 14.76 0.552 14.632 15.792zM256.356 76.095c15.648 0.016 15.984 0.312 15.968 14.304-0.016 18.184-0.016 18.184-16.744 18.168-15.944-0.008-15.944-0.008-15.888-18.912 0.040-13.544 0.080-13.584 16.656-13.568z" />
<glyph unicode="&#xe61d;" glyph-name="pencil" d="M503.203 352.455c-4.752 11.265-11.296 20.882-19.377 28.962v0c-16.141 16.167-38.454 26.169-63.103 26.169-0.031 0-0.061 0-0.091 0h0.005c-0.023 0-0.050 0-0.077 0-24.649 0-46.961-10.001-63.101-26.167l-315.113-315.113c-2.797-2.786-4.889-6.277-5.987-10.185l-0.039-0.164-35.029-128.382c-0.529-1.84-0.834-3.954-0.834-6.137s0.304-4.298 0.873-6.301l-0.039 0.163c2.785-9.995 11.808-17.207 22.515-17.207 2.186 0 4.302 0.301 6.309 0.863l-0.165-0.039 128.381 35.029c4.073 1.132 7.566 3.225 10.349 6.026l315.145 315.081c16.169 16.183 26.169 38.533 26.169 63.219 0 12.334-2.497 24.085-7.011 34.774l0.221-0.587zM329.601 287.555l60.353-60.353-221.775-221.791-60.346 60.353zM57.097-45.31l22.618 82.979 0.51 0.51 60.355-60.353-0.501-0.493zM460.069 301.869c-2.274-5.376-5.403-9.965-9.267-13.82l-33.262-33.262-60.353 60.353 33.279 33.277c7.723 7.703 18.38 12.465 30.151 12.465 23.581 0 42.696-19.115 42.696-42.696 0-5.887-1.191-11.496-3.346-16.599l0.105 0.281z" />
<glyph unicode="&#xe61f;" glyph-name="paypal" d="M440.32 344.216c12.848-6.288 24.048-15.24 32.248-26.24 17.272-23.152 22.12-54.688 14.416-93.736-7.776-39.512-25.208-72.864-50.584-97.024-4.64-4.848-9.608-9.376-14.904-13.544-27.176-21.4-61.496-32.712-99.256-32.712h-120.032l-32.28-151.36h-66.216l5.040 23.152h23.064l32.28 151.36h94.136c90.128 0 165.472 55.536 185.632 149.968 22.864 106.92-53.8 155.52-119.704 155.52h-224.64l-99.528-456.848h76.016l-12.016-55.152h131.832l32.28 151.36h94.136c90.128 0 165.472 55.536 185.632 149.968 16.856 78.84-20.4 125.968-67.56 145.28zM211.168 316.56h64.568c32.296 0 53.8-27.768 44.392-62.48-8.064-34.72-41.696-62.488-75.32-62.488h-61.88l28.24 124.968z" />
<glyph unicode="&#xe620;" glyph-name="twilio" d="M512 153.6c0 70.4-24.96 130.88-74.88 181.12-49.92 49.92-110.4 74.88-181.12 74.88-70.4 0-130.88-24.96-181.12-74.88-49.92-50.24-74.88-110.72-74.88-181.12 0-70.72 24.96-131.2 74.88-181.12 50.24-49.92 110.72-74.88 181.12-74.88 70.72 0 131.2 24.96 181.12 74.88s74.88 110.4 74.88 181.12zM443.84 153.6c0-51.84-18.56-96-55.040-132.8-36.8-36.8-80.96-55.040-132.8-55.040s-96 18.24-132.8 55.040c-36.48 36.8-55.040 80.96-55.040 132.8s18.56 96 55.040 132.8c36.8 36.48 80.96 55.040 132.8 55.040s96-18.56 132.8-55.040c36.48-36.8 55.040-80.96 55.040-132.8zM191.36 264.64c-14.080 0-26.24-5.12-36.16-15.040-9.92-10.24-15.040-22.080-15.040-36.16s5.12-26.24 15.040-36.16c9.92-10.24 22.080-15.040 36.16-15.040s26.24 4.8 36.16 15.040c9.92 9.92 15.040 22.080 15.040 36.16s-5.12 25.92-15.040 36.16c-9.92 9.92-22.080 15.040-36.16 15.040zM320.96 264.64c-14.080 0-26.24-5.12-36.16-15.040-9.92-10.24-15.040-22.080-15.040-36.16s5.12-26.24 15.040-36.16c9.92-10.24 22.080-15.040 36.16-15.040s26.24 4.8 36.16 15.040c10.24 9.92 15.040 22.080 15.040 36.16s-4.8 25.92-15.040 36.16c-9.92 9.92-22.080 15.040-36.16 15.040zM191.36 144.96c-14.080 0-26.24-5.12-36.16-15.040s-15.040-22.080-15.040-36.16c0-14.080 5.12-26.24 15.040-36.16s22.080-15.040 36.16-15.040 26.24 5.12 36.16 15.040 15.040 22.080 15.040 36.16c0 14.080-5.12 26.24-15.040 36.16s-22.080 15.040-36.16 15.040zM320.96 144.96c-13.76 0-25.92-4.8-36.16-15.040-10.24-10.248-15.040-22.080-15.040-36.48 0-13.76 4.8-25.92 15.040-35.84s22.4-15.040 36.16-15.040c14.4 0 26.24 5.12 36.16 15.040 10.24 9.92 15.040 22.080 15.040 35.84 0 14.4-4.8 26.24-15.040 36.48-9.92 10.24-21.76 15.040-36.16 15.040z" />
<glyph unicode="&#xe622;" glyph-name="mailchimp" d="M305.157 361.49c0.032 0.016 0.056 0.032 0.080 0.040l-0.080-0.040c0 0 0 0 0 0zM482.469 37.906c-0.032 0.856-0.104 1.672-0.2 2.44-0.064 0.512-0.16 1.016-0.288 1.504-0.208 1.136-0.472 2.264-0.856 3.344l-0.008 0.016c-0.784 2.232-2 4.368-3.568 6.176-1.552 1.8-3.416 3.224-5.288 4.216l-0.056 0.040c-1.992 1.040-3.944 1.624-5.712 1.96-0.52 0.096-1.008 0.144-1.488 0.2 2.264 9.712-0.568 17.12-2.4 20.584 0.144 0.136 0.296 0.272 0.424 0.4 2.416 2.336 4.472 4.576 6.208 6.816l0.328 0.448c1.392 2 2.312 4.040 2.896 5.92 0.496 1.616 0.744 3.072 0.888 4.4h0.016l0.016 0.080 0.008 0.192 0.056 0.408h-0.032l0.024 0.464h0.016l0.008 0.272c0.008 0.272 0.016 0.552 0.016 0.856 0.016 0.552 0.016 1.12-0.016 1.744-0.128 3.008-0.68 6.912-2.648 11.144-0.984 2.104-2.352 4.272-4.168 6.28-1.808 2.008-4.056 3.832-6.648 5.28l0.016-0.008c-0.192 0.104-0.336 0.208-0.512 0.304-5.376 7.912-11.52 14.048-16.96 18.704-2.824 2.416-5.456 4.424-7.704 6.072-2.224 1.632-4.104 2.92-5.144 3.696l0.016-0.008c-2.4 1.76-4.176 2.816-5.024 3.296-1.96 1.192-3.424 2.144-4.304 2.808-0.688 0.52-1.024 0.856-1.152 0.992l-0.064 0.088c-0.016 0.016-0.088 0.168-0.192 0.696-0.112 0.528-0.232 1.432-0.28 2.736-0.088 2.056-0.016 5.064 0.208 9.040 0.36 6.384 1.088 15.208 1.832 27.152 0.248 3.8 0.288 7.376 0.144 10.752-0.224 5.408-0.92 10.312-2.056 14.752l-0.008 0.024c-0.248 1.008-0.536 2-0.84 2.984l-0.008 0.008-0.008 0.016c-0.224 0.728-0.432 1.28-0.552 1.632l0.008-0.024c-0.232 0.648-0.464 1.296-0.728 1.944l-0.008 0.032c-0.128 0.32-0.296 0.728-0.512 1.24l-0.008 0.016-0.008 0.008-0.008 0.016c-0.408 0.96-0.872 1.984-1.456 3.096l-0.16 0.296-0.296 0.528-0.208 0.352c-1.088 1.792-2.24 3.424-3.448 4.952-0.608 2.744-1.664 6.816-3.416 11.432-1.552 4.064-3.64 8.576-6.608 13.024-1.032 1.536-2.2 3.056-3.48 4.536l0.424 0.44c0.6 0.632 14.84 15.544 25.992 34.896 20.784 36.080 13.864 58.136 4.408 70.28l-0.272 0.336-0.288 0.32c-9.12 10.136-21.528 16.248-36.872 18.152-31.784 3.952-67.72-11.64-77.144-16.080l-17.192 18.992c-1.512 1.664-3.2 3.152-5 4.456-1.816 1.304-3.76 2.44-5.8 3.384-4.096 1.896-8.584 3.088-13.36 3.68-9.584 1.176-20.352 0.032-32.056-2.968-17.544-4.528-37.248-13.288-57.848-25.64-20.584-12.36-42.040-28.328-62.864-47.32-25.448-23.216-46.472-47.76-61.792-71.056-7.656-11.648-13.888-22.992-18.512-33.744-4.624-10.76-7.664-20.928-8.832-30.344-0.848-6.84-0.712-13.304 0.656-19.264 0.6-2.608 1.464-5.112 2.568-7.48 1.416-3.048 3.248-5.88 5.528-8.376l0.056-0.064 19.928-20.872-0.112-0.2c-0.216-0.376-0.416-0.76-0.632-1.136-0.304-0.568-0.616-1.136-0.912-1.704-0.2-0.392-0.392-0.784-0.576-1.176-0.288-0.584-0.56-1.16-0.832-1.752-0.184-0.392-0.352-0.792-0.528-1.2-0.264-0.6-0.512-1.2-0.76-1.808-0.16-0.4-0.312-0.8-0.472-1.208-0.232-0.616-0.456-1.248-0.672-1.872-0.136-0.408-0.28-0.808-0.408-1.224-0.208-0.64-0.4-1.28-0.592-1.928-0.056-0.184-0.112-0.352-0.168-0.536-0.064-0.224-0.128-0.464-0.192-0.688-0.184-0.664-0.344-1.336-0.512-2-0.096-0.4-0.2-0.8-0.296-1.216-0.064-0.296-0.128-0.584-0.184-0.88-0.088-0.416-0.16-0.832-0.248-1.248-0.072-0.376-0.152-0.752-0.216-1.136-0.144-0.84-0.272-1.696-0.392-2.552-0.032-0.256-0.080-0.496-0.112-0.752l-0.008-0.072-0.016-0.224c-0.064-0.552-0.112-1.12-0.176-1.68-0.080-0.88-0.152-1.76-0.2-2.656-0.032-0.384-0.048-0.784-0.064-1.184-0.016-0.304-0.040-0.608-0.048-0.912-0.016-0.624-0.008-1.248-0.016-1.88 0-0.376-0.008-0.752 0-1.136 0.008-0.224-0.008-0.448 0-0.672v-0.128c0.016-0.4 0.032-0.808 0.040-1.216 0.016-0.448 0.056-0.88 0.088-1.312 0.016-0.328 0.032-0.656 0.048-0.976 0.032-0.288 0.040-0.504 0.064-0.696 0.040-0.408 0.072-0.832 0.12-1.24 0.040-0.472 0.096-0.976 0.168-1.56l0.008-0.048v0.008c0.032-0.224 0.056-0.376 0.080-0.552 0.064-0.464 0.136-0.936 0.208-1.4 0.056-0.416 0.128-0.888 0.224-1.472 0.048-0.232 0.080-0.432 0.12-0.6 0.048-0.28 0.112-0.56 0.168-0.84l0.008-0.024 0.080-0.4c0.072-0.384 0.168-0.872 0.312-1.536l0.008-0.016v0.008c0.040-0.176 0.072-0.288 0.104-0.44 0.104-0.424 0.184-0.736 0.248-0.96l0.104-0.432c0.040-0.136 0.072-0.272 0.12-0.472l0.104-0.392 0.088-0.328 0.072-0.296 0.008-0.032v0.008c0.040-0.136 0.072-0.24 0.112-0.36l0.112-0.408c0.096-0.312 0.2-0.632 0.296-0.944 0.112-0.368 0.264-0.856 0.472-1.512l-0.040 0.104 0.040-0.12c0.048-0.16 0.088-0.264 0.136-0.392 0.192-0.544 0.344-0.96 0.416-1.184l0.016-0.024v-0.008c0.128-0.36 0.312-0.88 0.568-1.56l0.008-0.008 0.024-0.064-0.008 0.032 0.112-0.28c0.168-0.424 0.296-0.744 0.408-0.992l0.128-0.32 0.016-0.048c0.064-0.16 0.16-0.376 0.264-0.632 0.096-0.232 0.216-0.504 0.344-0.816v0c0 0 0 0 0-0.008l0.128-0.28c0.128-0.296 0.256-0.568 0.36-0.792 0.104-0.208 0.192-0.4 0.264-0.552l0.008-0.024c0.168-0.352 0.368-0.8 0.648-1.352l0.040-0.080 0.12-0.232c0.12-0.232 0.24-0.456 0.336-0.648 0.144-0.28 0.28-0.512 0.384-0.712l0.016-0.040c0.152-0.28 0.368-0.688 0.656-1.216l0.016-0.032 0.016-0.040 0.12-0.208c0.12-0.208 0.232-0.416 0.344-0.6 0.184-0.312 0.36-0.6 0.496-0.832l0.040-0.064 0.008-0.016c0.144-0.224 0.36-0.592 0.664-1.080l0.032-0.048 0.088-0.144c0.152-0.232 0.296-0.464 0.432-0.664 0.208-0.312 0.392-0.592 0.552-0.84 0.176-0.264 0.424-0.64 0.76-1.12l0.032-0.040v-0.008l0.016-0.024 0.032-0.040 0.008-0.008c0.16-0.232 0.32-0.456 0.488-0.68 0.224-0.312 0.44-0.6 0.632-0.856l-0.016 0.016c0.184-0.248 0.408-0.552 0.688-0.92l0.048-0.064 0.024-0.024 0.024-0.032-0.040 0.040c0.208-0.272 0.408-0.52 0.6-0.768 0.256-0.312 0.496-0.616 0.72-0.888l0.072-0.096c0.152-0.184 0.328-0.408 0.576-0.688l0.104-0.128 0.104-0.104c0.36-0.424 0.68-0.784 1.008-1.144l0.344-0.392v-0.008l0.032-0.032c0.16-0.176 0.36-0.4 0.6-0.664l0.072-0.088v-0.008l0.016-0.008 0.032-0.032c0.392-0.424 0.768-0.808 1.152-1.2 0.16-0.16 0.312-0.336 0.472-0.488l0.024-0.016c0.080-0.080 0.272-0.272 0.568-0.576l0.056-0.048 0.168-0.184c0.464-0.456 0.944-0.888 1.424-1.328l0.112-0.112 0.032-0.024 0.032-0.032c0.12-0.112 0.32-0.288 0.6-0.544l0.032-0.032c0.616-0.544 1.224-1.072 1.84-1.576l0.040-0.032 0.344-0.288 0.24-0.192-0.008 0.008 0.352-0.28c0.52-0.416 1.024-0.816 1.512-1.192l0.136-0.112 0.064-0.048c0.192-0.136 0.328-0.24 0.4-0.304l0.096-0.072 0.072-0.048c0.144-0.104 0.288-0.2 0.432-0.304 0.432-0.312 0.872-0.624 1.304-0.92l0.368-0.256 0.040-0.032 0.456-0.312 0.024-0.008 0.232-0.152c0.44-0.296 0.912-0.592 1.384-0.888 0.248-0.16 0.472-0.304 0.728-0.464l0.4-0.24 0.224-0.128 0.144-0.088c0.728-0.44 1.416-0.832 2.048-1.184l0.056-0.032 0.392-0.208 0.032-0.016c0.872-0.464 1.696-0.888 2.472-1.272l0.56-0.272v0.008c0.424-0.208 0.832-0.376 1.248-0.568 0.192-0.088 0.392-0.184 0.592-0.272 0.24-0.104 0.488-0.232 0.72-0.328l0.2-0.088 0.056-0.024 0.096-0.040c0.408-0.176 0.808-0.32 1.208-0.48l0.208-0.080c0.448-0.184 0.896-0.376 1.352-0.544l0.104-0.040 0.328-0.12c0.208-0.072 0.424-0.144 0.64-0.216l0.2-0.064c0.64-0.232 1.288-0.464 1.944-0.672l0.152-0.048 0.056-0.016 0.024-0.016c1.008-0.312 2.016-0.6 3.016-0.872l0.208-0.056-0.056 0.016c0.888-0.232 1.76-0.432 2.624-0.632h0.016l0.32-0.088 0.336-0.072c0.824-0.184 1.664-0.328 2.512-0.472l0.24-0.064 0.6-0.088c0.512-0.080 1.016-0.152 1.528-0.216 0.080-0.208 0.152-0.416 0.224-0.6l0.008-0.032c1.392-3.8 2.904-7.584 4.52-11.336 23.904-66.152 89.984-117.432 165.4-126.816 75.408-9.376 155.904 40.744 188.704 108.472 1.416 2.592 2.704 5.136 3.88 7.6 3.248 3.344 5.776 6.816 7.456 10.504 2.008 4.328 2.68 8.88 2.488 12.608zM155.205 152.234c-0.056-0.104-0.248-0.448-0.544-0.96-0.528-0.936-1.392-2.48-2.408-4.304-0.496-0.896-1.032-1.848-1.576-2.848-0.368-0.672-0.744-1.36-1.12-2.048l-0.176-0.32-0.072-0.128c-0.136-0.264-0.28-0.52-0.424-0.784l-3.456-6.216c-0.288 0.152-0.576 0.288-0.872 0.44l-0.168 0.080-0.304 0.152c-1.888 0.904-3.88 1.632-5.936 2.168l-0.328 0.080c-1.32 0.328-2.672 0.584-4.048 0.744-0.8 0.088-1.6 0.16-2.408 0.2-0.672 0.032-1.352 0.040-2.032 0.024-1.024-0.024-2.040-0.112-3.032-0.216-0.312-0.040-0.624-0.096-0.928-0.136-0.496-0.072-0.976-0.168-1.472-0.256-0.192-0.040-0.392-0.064-0.576-0.112-0.344-0.072-0.68-0.144-1.024-0.232-0.664-0.16-1.32-0.344-1.968-0.552-0.296-0.096-0.6-0.176-0.888-0.272-0.88-0.304-1.736-0.64-2.576-1.016-0.336-0.152-0.648-0.32-0.968-0.472-0.384-0.192-0.76-0.392-1.144-0.584l-0.392-0.2c-0.416-0.232-0.824-0.48-1.224-0.72-0.376-0.232-0.752-0.472-1.112-0.72-0.448-0.296-0.88-0.592-1.304-0.904-0.264-0.2-0.512-0.4-0.768-0.608-0.688-0.544-1.344-1.128-1.984-1.728-0.328-0.304-0.648-0.624-0.968-0.944-0.56-0.552-1.112-1.128-1.624-1.72l-0.264-0.296c-0.272-0.32-0.528-0.664-0.776-1l-0.040-0.048-0.032-0.048c-0.176-0.224-0.36-0.448-0.528-0.672l-0.128-0.176-0.016-0.016c-1.040-1.448-1.944-2.992-2.736-4.6-0.112-0.232-0.216-0.464-0.328-0.704-0.36-0.792-0.696-1.592-1-2.408-0.12-0.328-0.256-0.64-0.36-0.968l-0.008-0.008v-0.008l-0.008-0.008c-0.28-0.832-0.52-1.68-0.728-2.552l-0.080-0.32-0.080-0.408-0.008-0.040c-0.144-0.632-0.28-1.264-0.376-1.904-0.048-0.312-0.080-0.632-0.128-0.96l-0.016-0.088c-0.040-0.336-0.072-0.68-0.112-1.024-0.032-0.256-0.072-0.52-0.088-0.784-0.072-1.008-0.104-2.032-0.080-3.064 0.016-0.8 0.088-1.584 0.168-2.368l0.008-0.048 0.024-0.368c0.040-0.432 0.12-0.864 0.184-1.296 0.232-1.568 0.552-3.096 1-4.576 0.336-1.128 0.728-2.232 1.184-3.304 0.832-1.976 1.864-3.832 3.048-5.576 2.488-3.688 5.68-6.84 9.416-9.248 2.12-1.36 4.408-2.472 6.824-3.32 2.32-0.824 4.744-1.416 7.264-1.696 0.568-0.056 1.136-0.104 1.72-0.144 0.864-0.056 1.72-0.096 2.6-0.072 0.808 0.016 1.592 0.12 2.392 0.192 0.456 0.040 0.92 0.048 1.368 0.112 1.136 0.16 2.264 0.392 3.36 0.664l0.248 0.056c0.456 0.12 0.888 0.288 1.328 0.424 1.392 0.424 2.728 0.928 4.032 1.528l0.288 0.128c0.36 0.152 0.736 0.304 1.088 0.488 0.040-0.248 0.088-0.488 0.136-0.736 0.152-0.88 0.32-1.776 0.488-2.664 1.528-8.12 3.328-16.112 3.328-16.112-2.744-2.048-7.336-4.056-12.528-5.568-1.728-0.504-3.528-0.944-5.344-1.32-1.168-0.248-2.336-0.448-3.512-0.624-1.328-0.2-2.648-0.36-3.96-0.464-0.96-0.080-1.904-0.136-2.832-0.16-0.688-0.008-1.384 0-2.072 0.016-2.896 0.040-5.744 0.288-8.52 0.728l-0.040 0.016c-0.904 0.144-1.808 0.312-2.688 0.496-0.008 0-0.016 0-0.016 0.008l-0.072 0.024c-0.88 0.192-1.752 0.392-2.624 0.624l-0.12 0.032c-0.44 0.12-0.88 0.256-1.32 0.384-0.4 0.12-0.808 0.224-1.208 0.344l-0.168 0.056c-0.824 0.264-1.624 0.544-2.424 0.84l-0.216 0.080c-0.784 0.296-1.552 0.6-2.32 0.92l-0.264 0.12c-0.752 0.328-1.488 0.664-2.224 1.016l-0.304 0.144c-0.712 0.352-1.416 0.712-2.112 1.088l-0.344 0.2c-0.672 0.376-1.344 0.752-2 1.152l-0.408 0.24c-0.632 0.384-1.264 0.792-1.88 1.208l-0.448 0.304c-0.6 0.408-1.184 0.824-1.768 1.248-0.152 0.12-0.32 0.248-0.48 0.36-0.56 0.424-1.12 0.856-1.664 1.304-0.176 0.136-0.336 0.288-0.512 0.432-0.528 0.432-1.040 0.88-1.552 1.328-0.184 0.168-0.36 0.336-0.544 0.496-0.48 0.448-0.968 0.896-1.432 1.352-0.192 0.192-0.384 0.384-0.576 0.576-0.448 0.448-0.888 0.904-1.32 1.376-0.2 0.216-0.392 0.432-0.592 0.648-0.416 0.464-0.824 0.92-1.216 1.392-0.208 0.24-0.408 0.488-0.6 0.728-0.384 0.456-0.752 0.92-1.112 1.392-0.208 0.264-0.408 0.544-0.608 0.816-0.344 0.464-0.68 0.92-1.008 1.392-0.208 0.296-0.4 0.6-0.6 0.904-0.312 0.456-0.616 0.912-0.912 1.384-0.2 0.328-0.392 0.656-0.592 0.976-0.28 0.464-0.552 0.92-0.816 1.392-0.2 0.352-0.384 0.712-0.576 1.064-0.248 0.456-0.488 0.904-0.72 1.368-0.192 0.384-0.376 0.768-0.552 1.152-0.104 0.224-0.208 0.456-0.312 0.68s-0.216 0.448-0.32 0.68c-0.176 0.408-0.344 0.816-0.52 1.224-0.184 0.448-0.384 0.896-0.552 1.344-0.128 0.32-0.24 0.64-0.344 0.96l-0.128 0.352c-0.16 0.448-0.328 0.888-0.472 1.336-0.152 0.456-0.288 0.92-0.432 1.384-0.128 0.44-0.272 0.872-0.392 1.312l-0.104 0.408-0.088 0.336-0.112 0.44-0.072 0.296c-0.104 0.424-0.224 0.84-0.32 1.272-0.12 0.52-0.216 1.056-0.32 1.584-0.080 0.408-0.168 0.808-0.248 1.224-0.096 0.568-0.176 1.136-0.256 1.712-0.040 0.32-0.096 0.64-0.144 0.96v0.048l-0.024 0.144c-0.072 0.632-0.136 1.272-0.192 1.912-0.016 0.184-0.040 0.376-0.048 0.568l-0.048 0.432c-0.064 0.816-0.096 1.632-0.12 2.456 0 0.168-0.024 0.328-0.024 0.504-0.024 1.056-0.024 2.112 0.016 3.16 0.032 0.856 0.072 1.704 0.128 2.552l0.032 0.4c0.088 1.072 0.208 2.128 0.344 3.176 0.728 5.36 2.192 10.488 4.288 15.288 0.056 0.136 0.112 0.288 0.176 0.424 0.328 0.736 0.68 1.464 1.040 2.184 1.016 2.048 2.152 4.032 3.392 5.928 0.664 1.008 1.352 1.992 2.072 2.952 0.608 0.816 1.232 1.616 1.888 2.392 2.272 2.736 4.784 5.256 7.528 7.528l0.112 0.096c3.176 2.624 6.632 4.936 10.336 6.84 0.416 0.208 0.84 0.416 1.264 0.616 0.344 0.168 0.696 0.336 1.040 0.504 1.224 0.56 2.472 1.080 3.744 1.56 3.728 1.408 7.648 2.432 11.712 3.040l0.408 0.064c2.256 0.32 4.544 0.528 6.88 0.576 0.52 0.016 1.040 0 1.56-0.016 1.072-0.024 2.144-0.072 3.216-0.168 0.376-0.040 0.752-0.080 1.136-0.112 0.384-0.040 0.776-0.064 1.152-0.12 0.792-0.112 1.576-0.256 2.352-0.4 0.992-0.184 1.96-0.424 2.928-0.656l0.080-0.016c1.416-0.336 2.792-0.72 4.144-1.144 0.416-0.128 0.856-0.24 1.264-0.376 1.608-0.544 3.152-1.128 4.624-1.728 1.224-0.504 2.4-1.016 3.512-1.536 3.48-1.616 6.336-3.216 8.296-4.408 1.72-1.048 2.768-1.768 2.904-1.856l0.032-0.024 0.016-0.008h0.008l-0.032-0.048zM147.901 228.522c1.080 1.272 2.176 2.536 3.272 3.816-1.328-1.328-2.072-2.016-2.152-1.936-0.192 0.128 4.44 5.776 12.928 14.92 4.232 4.56 9.416 9.976 15.448 16.024 11.144 11.728 22.944 23.392 35.32 34.624 11.728 10.632 23.968 20.864 36.64 30.408 0.632 0.472 1.248 0.944 1.88 1.416 4.832 3.6 9.736 7.088 14.696 10.456 3 2.040 6.024 4.048 9.064 5.992l-35.304 40.24 11.904 3.552 23.24-11.824-0.656 8.032 4.056 8.968 10.848 2.456 25.48-29.6c0.304 0.144 0.616 0.296 0.92 0.432 2.128 0.992 4.208 1.936 6.264 2.84 1.224 0.536 2.432 1.056 3.632 1.576 0.8 0.336 1.584 0.664 2.368 0.992 14.264 5.664 39.208 13.64 61.12 10.824 4.416-0.568 8.712-1.584 12.768-3.136 0.44-0.264 0.88-0.528 1.304-0.808l-0.328 0.096-0.352 0.104-0.144 0.032-0.040 0.016c-0.192 0.048-0.392 0.080-0.592 0.128-3.616 0.904-7.432 1.384-11.496 1.464-1.432 0.032-2.888 0.016-4.376-0.048-9.696-0.416-20.744-2.664-33.544-6.768-6.656-2.144-13.824-4.84-21.448-8.040-1.352-0.568-2.688-1.12-4.072-1.72-1.512-0.656-3.056-1.344-4.6-2.048-0.376-0.168-0.752-0.336-1.128-0.504-0.192-0.088-0.376-0.168-0.568-0.256-0.36-0.16-0.728-0.344-1.096-0.504-1.32-0.608-2.656-1.24-4-1.872-0.376-0.176-0.744-0.344-1.12-0.528-0.208-0.096-0.424-0.208-0.632-0.304-1.152-0.552-2.312-1.12-3.488-1.688l-0.128-0.064c-0.080-0.040-0.16-0.072-0.24-0.112-0.376-0.184-0.744-0.36-1.128-0.544l-0.088-0.040c-0.208-0.104-0.416-0.216-0.624-0.32-0.56-0.28-1.104-0.568-1.664-0.848-0.416-0.208-0.84-0.424-1.256-0.64-0.224-0.112-0.448-0.224-0.672-0.336-2.672-1.368-5.344-2.768-8-4.216h-0.008c-0.84-0.456-1.688-0.928-2.52-1.392-1.408-0.784-2.816-1.56-4.208-2.36-0.576-0.328-1.152-0.664-1.728-0.992-1.104-0.64-2.2-1.288-3.296-1.936-1.12-0.664-2.24-1.328-3.36-2-0.6-0.36-1.184-0.72-1.776-1.088-1.048-0.64-2.096-1.264-3.136-1.912-2.088-1.304-4.168-2.624-6.24-3.96-6.472-4.176-12.864-8.544-19.168-13.072v0c-14.392-10.32-28.32-21.44-41.712-32.992-22.040-19.040-42.56-39.24-61.064-58.976zM470.365 36.506l-0.008-0.008c-0.040-2.784-0.84-5.88-3.264-9.384-0.144-0.208-0.312-0.424-0.472-0.632-1.096-1.488-2.456-3.040-4.208-4.672l-0.088-0.208c-0.464-0.992-0.944-2-1.456-3.016l-0.168-0.352c-0.184-0.376-0.376-0.752-0.56-1.128-0.4-0.808-0.832-1.624-1.264-2.448-0.216-0.416-0.432-0.824-0.656-1.24-0.568-1.056-1.16-2.128-1.768-3.2-0.344-0.592-0.696-1.184-1.056-1.784-0.32-0.544-0.656-1.096-0.984-1.648-0.432-0.704-0.872-1.416-1.32-2.128-0.208-0.32-0.424-0.648-0.632-0.968-0.872-1.344-1.8-2.696-2.736-4.040-0.216-0.32-0.408-0.624-0.632-0.944l-0.192-0.28c-0.672-0.936-1.368-1.88-2.080-2.832l-0.208-0.28c-2.904-3.848-6.112-7.688-9.688-11.448-2.704-2.848-5.616-5.64-8.728-8.36-0.192-0.16-0.376-0.312-0.552-0.472l-0.024-0.024c-3.136-2.624-6.36-5.032-9.608-7.328-1.944-1.352-3.904-2.656-5.888-3.904l-0.056-0.040c-2.64-1.656-5.296-3.232-7.968-4.696l-0.552-0.312c-3.832-2.056-7.696-3.92-11.608-5.608-6.464-2.816-13.032-5.136-19.6-7.016-54.44-15.616-109.696-1.624-123.088 9.272l5.92-10.6c-0.888 0.408-2.072 1.36-3.44 2.656-4.096 3.896-9.848 11-14.176 16.552-0.48 0.616-0.936 1.216-1.384 1.792l-0.024 0.032c-0.384 0.496-0.736 0.968-1.080 1.416l-0.352 0.456c-0.696 0.912-1.312 1.736-1.8 2.384-0.248 0.256-0.496 0.504-0.744 0.768-0.248 0.256-0.496 0.512-0.744 0.768-0.152-0.64-0.016-1.656 0.28-2.84 1.032-4.2 4.088-10.584 4.112-10.64-2.648 3.264-5.208 7.048-7.536 10.816-1.944 3.152-3.728 6.296-5.264 9.136-0.376 0.712-0.744 1.4-1.096 2.064-1.048 2-1.944 3.784-2.648 5.216-0.608 0.792-1.216 1.56-1.816 2.36-0.192-5.76 1.312-10.92 2.856-14.648 0.192-0.464 0.392-0.912 0.584-1.328l0.040-0.072c0.184-0.392 0.36-0.768 0.536-1.112l0.048-0.096c0.168-0.328 0.328-0.648 0.48-0.928l0.032-0.048c0.824-1.528 1.432-2.408 1.44-2.416v-0.008c-1.048 1.080-2.056 2.176-3.040 3.264-0.312 0.352-0.608 0.696-0.912 1.048-0.656 0.736-1.304 1.488-1.928 2.232-0.344 0.416-0.68 0.832-1.008 1.248-0.56 0.68-1.104 1.36-1.632 2.048-0.336 0.44-0.664 0.88-0.984 1.32-0.504 0.664-0.992 1.328-1.464 2-0.312 0.448-0.624 0.888-0.928 1.336-0.456 0.672-0.904 1.344-1.344 2.016-0.28 0.432-0.56 0.872-0.832 1.304-0.44 0.696-0.864 1.4-1.272 2.096-0.248 0.408-0.488 0.808-0.72 1.216-0.44 0.776-0.864 1.552-1.28 2.328-0.168 0.328-0.352 0.656-0.528 0.984-1.144 2.216-2.168 4.424-3.088 6.624-0.144 0.344-0.272 0.68-0.4 1.016-0.304 0.76-0.608 1.52-0.88 2.272-0.152 0.408-0.288 0.824-0.432 1.232-0.24 0.68-0.472 1.368-0.688 2.056-0.136 0.432-0.272 0.872-0.4 1.304-0.2 0.656-0.384 1.32-0.568 1.976-0.12 0.44-0.24 0.88-0.344 1.32-0.168 0.656-0.32 1.312-0.472 1.96-0.096 0.432-0.192 0.864-0.288 1.296-0.144 0.672-0.264 1.336-0.392 2.008-0.072 0.4-0.152 0.816-0.216 1.216-0.128 0.728-0.224 1.456-0.32 2.184-0.040 0.336-0.104 0.672-0.144 1.008-0.128 1.056-0.24 2.112-0.32 3.16l-0.016 0.216-0.024 0.344c-0.064 0.864-0.112 1.72-0.152 2.584-0.032 0.848-0.056 1.696-0.056 2.544v0.144c0 1.104 0.024 2.192 0.064 3.28 0.016 0.344 0.032 0.68 0.048 1.024 0.040 0.752 0.088 1.504 0.152 2.248 0.032 0.376 0.064 0.752 0.104 1.128 0.072 0.736 0.152 1.472 0.248 2.208 0.040 0.328 0.080 0.664 0.128 0.992 0.144 1.032 0.304 2.048 0.488 3.056l0.016 0.096c0.184 1.008 0.392 2 0.624 2.992 0.064 0.328 0.152 0.648 0.232 0.968 0.16 0.696 0.336 1.376 0.52 2.056 0.096 0.352 0.184 0.704 0.288 1.048 0.192 0.68 0.392 1.352 0.608 2.024 0.088 0.304 0.184 0.6 0.288 0.904 0.304 0.952 0.632 1.896 0.968 2.824 0.6 1.632 1.248 3.224 1.944 4.776 4.336 9.712 10.368 17.832 16.896 23.576-1 1.608-1.96 3.192-2.904 4.776-3.392 5.712-6.4 11.272-9.040 16.68-0.048-0.864-0.072-1.36-0.072-1.36l0.504-13.208 0.088-2.352c-0.44 0.576-0.888 1.504-1.352 2.664-3.528 8.968-7.32 32.728-7.32 32.728-2.168-1.456-2.448-14.28-2.448-14.28-1.48 7.056-2.072 15.336-2.28 22.2-0.048 1.64-0.080 3.176-0.096 4.616-0.016 1.432-0.016 2.744 0 3.912 0 0.544 0.016 1.048 0.016 1.52v0.352l-0.048 0.248c-0.152 0.768-0.296 1.528-0.44 2.288-0.608-1.072-1.104-2.152-1.552-3.232-0.104-0.256-0.216-0.504-0.312-0.76-0.224-0.584-0.432-1.16-0.616-1.744-0.752-2.352-1.2-4.64-1.456-6.712-0.112-0.96-0.192-1.856-0.248-2.688-0.208-3.648 0.128-6.128 0.128-6.128-0.376 1.936-0.696 3.832-1 5.72-0.096 0.6-0.176 1.2-0.264 1.8-0.328 2.152-0.608 4.28-0.84 6.368-0.048 0.44-0.104 0.888-0.144 1.328-0.024 0.2-0.032 0.384-0.048 0.584-0.080 0.792-0.144 1.576-0.208 2.368-0.16 1.888-0.288 3.76-0.368 5.592l-0.024 0.296c-0.080 1.848-0.112 3.656-0.12 5.448 0 0.216 0 0.432 0.008 0.64 0 0.92-0.008 1.84 0.016 2.736 0.016 0.792 0.056 1.56 0.088 2.344l0.016 0.368c0.072 1.592 0.168 3.16 0.296 4.712 0.136 1.696 0.296 3.368 0.504 5.008 0.088 0.656 0.192 1.296 0.28 1.944 0.472 3.28 1.064 6.472 1.8 9.544l0.104 0.392c0.184 0.76 0.384 1.512 0.584 2.264 0.76 2.824 1.624 5.568 2.584 8.216 1.928 5.296 4.248 10.24 6.904 14.856l0.16 0.264c1.288 2.216 2.64 4.352 4.080 6.416 1.928 2.776 4.008 5.392 6.176 7.912 0.48 0.552 0.928 1.136 1.424 1.68 0.392 0.44 0.808 0.84 1.208 1.264 0.968 1.048 1.944 2.104 2.96 3.112 0.408 0.408 0.848 0.784 1.264 1.184 11.608 11.152 25.432 19.464 39.448 25.72 1.952 0.872 3.904 1.704 5.848 2.496 2.72 1.104 5.44 2.16 8.136 3.128 3.464 1.24 6.896 2.376 10.272 3.408 9.136 2.8 17.816 4.896 25.424 6.52 0.76 0.16 1.504 0.32 2.232 0.472 2.736 2.248 5.976 4.536 9.632 6.552 5.304 2.928 11.488 5.288 18.44 6.040 0.208 0.024 0.44 0.024 0.648 0.048 0.36 0.032 0.728 0.048 1.088 0.080 0.248 0.024 0.488 0.040 0.736 0.056 0.296 0.016 0.576 0.056 0.872 0.064 0 0-0.432-0.088-1.088-0.28-0.296-0.088-0.64-0.2-1.040-0.336-0.144-0.056-0.272-0.096-0.432-0.152-0.424-0.16-0.888-0.368-1.376-0.592-2.792-1.304-6.456-3.776-8.936-8.368l-0.008-0.008c0.336 0.040 0.68 0.088 1.016 0.128l0.208 0.088c0.368 0.152 0.784 0.328 1.264 0.528 3.368 1.376 9.424 3.64 15.712 4.976 0.216 0.048 0.432 0.096 0.648 0.136l0.232 0.048c0.264 0.048 0.52 0.104 0.784 0.144 0.408 0.072 0.816 0.128 1.216 0.2 1.248 0.2 2.504 0.376 3.728 0.464 0 0-2.144-0.896-4.28-2.112-1.72-0.968-3.432-2.128-4.064-3.184 2.688 0.536 5.52 0.768 8.336 0.792h0.128c2.192 0.024 4.368-0.12 6.52-0.328 0.184-0.016 0.368-0.032 0.544-0.048 0.448-0.048 0.904-0.072 1.352-0.128 0.944-0.112 1.88-0.248 2.8-0.392 2.736-0.432 5.312-0.992 7.624-1.6 0.168-0.040 0.352-0.088 0.528-0.128 2.792-0.744 5.144-1.536 6.88-2.232 0.344-0.144 0.672-0.28 0.968-0.408 0.848-0.376 1.488-0.712 1.84-0.976l-0.072 0.056 0.176-0.128c0.336-0.224 0.672-0.464 0.992-0.704l0.136-0.096 0.040-0.032c0.376-0.28 0.744-0.576 1.104-0.88l0.144-0.128c0.808-0.688 1.56-1.44 2.28-2.216l0.312-0.304 0.064-0.072c0.56-0.616 1.064-1.264 1.568-1.912 0.208-0.272 0.448-0.52 0.648-0.792 0.232-0.312 0.44-0.64 0.664-0.952 0.44-0.632 0.88-1.272 1.288-1.92 0.232-0.392 0.456-0.776 0.688-1.16 0.352-0.608 0.696-1.208 1.016-1.816 0.216-0.408 0.416-0.816 0.624-1.224 0.296-0.6 0.576-1.2 0.856-1.8 0.176-0.4 0.36-0.8 0.528-1.2 0.264-0.608 0.504-1.2 0.728-1.8 0.144-0.376 0.296-0.736 0.424-1.104 0.232-0.64 0.448-1.248 0.648-1.864 0.104-0.296 0.208-0.592 0.296-0.872 0.28-0.872 0.536-1.72 0.752-2.496l0.016-0.024c0.096-0.336 0.184-0.656 0.264-0.976l0.032-0.112c0.080-0.304 0.152-0.6 0.232-0.88l0.016-0.088c0.288-1.16 0.504-2.144 0.656-2.904l0.032-0.144 0.080-0.4 0.032-0.168 0.056-0.288 0.064-0.352 0.024-0.128 0.016-0.088 0.016-0.072c0.432-0.456 0.856-0.952 1.288-1.456l0.44-0.544c0.32-0.4 0.64-0.824 0.96-1.256l0.224-0.296 0.176-0.264c0.44-0.632 0.88-1.288 1.296-1.984l0.296-0.528c0.376-0.712 0.72-1.472 1.056-2.256v-0.016l0.040-0.096 0.192-0.48 0.16-0.392 0.048-0.136c0.16-0.416 0.32-0.84 0.472-1.272l0.008-0.040 0.192-0.544 0.064-0.184c0.056-0.192 0.128-0.36 0.192-0.552 0.064-0.2 0.112-0.416 0.176-0.624 0.16-0.56 0.336-1.128 0.488-1.72v0c0.12-0.48 0.232-0.984 0.344-1.488 0.112-0.512 0.216-1.032 0.32-1.56 0.088-0.472 0.184-0.936 0.264-1.424 0.16-0.952 0.288-1.936 0.392-2.944 0.040-0.408 0.080-0.824 0.12-1.248 0.080-0.944 0.152-1.92 0.208-2.92l0.032-0.392 0.016-0.368c0.048-1.272 0.064-2.6 0.056-3.96 0-0.336-0.008-0.672-0.016-1.016-0.024-1.44-0.072-2.904-0.176-4.44-0.744-11.848-1.464-20.584-1.832-27.232-1.040-18.464 0.6-20.712 11.752-27.512 0 0 1.552-0.816 3.976-2.6 5.152-3.776 18.080-12.024 27.456-26.232 0.248-0.384 0.512-0.752 0.752-1.136l0.080-0.112c0.536-0.4 1.136-0.8 1.784-1.2 0.472-0.296 0.96-0.6 1.488-0.888 0.528-0.296 1.008-0.624 1.464-0.96 0.8-0.592 1.504-1.224 2.104-1.896 3.448-3.832 3.816-8.768 3.696-11.504v-0.016l-0.152-0.216c-36.152-32.576-75.952-42.088-106.2-43.928-16.632-1.016-30.384 0.28-39.024 1.352-0.304 0.040-0.576 0.072-0.864 0.112-2.592 0.336-4.704 0.632-6.216 0.824-0.752 0.096-1.36 0.16-1.816 0.192-2.264 0.152-4.424-0.128-6.44-0.76-4.112-1.288-7.632-4.064-10.272-7.752-3.256-4.544-5.184-10.448-5.272-16.624 0-0.008 0-0.008 0-0.008s0-0.008 0-0.008c0-0.12 0.008-0.24 0.008-0.36 0-1.784 0.144-3.592 0.464-5.392 0.568-3.208 1.672-6.384 3.376-9.4 0.104-0.192 0.208-0.392 0.328-0.592 0.312-0.528 0.656-1.048 1.008-1.56 0.48-0.696 0.984-1.392 1.536-2.064 6.336-7.808 19.96-13.624 38.144-15.88 12.304-1.528 26.704-1.408 42.32 0.8 46.016 8.32 67.896 23.192 78 33.632 0.736 0.76 1.416 1.504 2.032 2.216 3.624 4.176 5.256 7.384 5.848 8.776l0.080 0.192c0.152 0.36 0.208 0.552 0.208 0.56l-0.008-0.008c0 0 0.008 0.016 0.008 0.016l-0.248-0.24-0.136-0.136c-3.68-3.512-7.984-6.912-12.728-10.144-20.8-14.208-49.896-25.216-70.512-27.976l-0.16-0.024c-15.496-2.464-30.68-2.896-43.912-1.248-7.6 0.944-14.448 2.592-20.112 4.76-5.456 3.448-10.248 10.008-10.6 20.496 6.176-2.656 13.376-4.28 18.784-5.24 11.576-2.136 22.76-2.392 32.8-1.768 2.512 0.208 4.952 0.392 7.328 0.632 2.376 0.312 4.68 0.608 6.912 0.896 4.344 0.736 8.36 1.44 12.128 2.272 1.88 0.352 3.616 0.864 5.264 1.312 1.648 0.48 3.216 0.84 4.64 1.352 2.856 0.984 5.344 1.784 7.264 2.624 3.864 1.648 5.936 2.752 5.808 3.168s-2.464 0.104-6.568-0.824c-2.056-0.48-4.544-0.896-7.408-1.544-1.424-0.336-2.992-0.536-4.624-0.856-1.64-0.288-3.368-0.64-5.192-0.84-3.592-0.512-7.704-0.968-12.072-1.48-2.152-0.176-4.376-0.36-6.656-0.544-2.304-0.112-4.672-0.232-7.104-0.352-9.712-0.288-20.432 0.152-31.344 2.16-5.752 1.016-13.44 3.624-18.976 6.768l-0.208 0.12c3.264 11.544 15.296 13.184 15.296 13.184l-0.288 0.088c19.936-2.424 39.112-2.16 57.336 0.632 26.48 4.056 50.936 13.496 72.664 28.208 1.152 0.776 2.288 1.568 3.424 2.376v0.008c0.216-0.384 0.456-0.824 0.704-1.336 1.568-3.216 3.536-8.92 2.672-16.248-0.112-0.968-0.288-1.976-0.504-3-0.168-0.784-0.36-1.576-0.6-2.392 0 0 1.184-1.136 2.616-3.456 1.12-1.792 2.376-4.304 3.36-7.52-0.048 0.192-0.088 0.32-0.088 0.32l0.24 0.016c0.52 0.048 1 0.056 1.48 0.072 1.2 0.040 2.296-0.008 3.248-0.144 1.312-0.192 2.416-0.528 3.344-0.968 0.336-0.16 0.648-0.336 0.936-0.528 0.552-0.352 1.016-0.744 1.416-1.16 0.224-0.232 0.44-0.464 0.616-0.704l0.104-0.16c0.104-0.144 0.208-0.296 0.296-0.464l0.040-0.072c1.632-2.752 1.224-5.824 1.224-5.824zM416.165 232.026l-0.016 0.024 0.008-0.016zM83.405 46.85v0.008zM62.045 66.858v0zM62.061 66.841v0l-0.016 0.016zM52.045 88.050l-0.008 0.008 0.016-0.032v-0.008zM51.205 91.386h0.008v-0.016h-0.008v0.016zM63.989 64.202l-0.016 0.024-0.008 0.016 0.024-0.024 0.032-0.048zM381.797 267.913h0.008l-0.024 0.016zM62.093 66.786l-0.008 0.016-0.024 0.032zM276.589 101.65c-2.080-0.704-4.384-1.544-6.808-2.552-6.464-2.68-13.792-6.488-20.296-11.744-0.816-0.656-1.616-1.336-2.4-2.040-1.336-1.2-2.608-2.48-3.832-3.816-0.136-0.152-0.288-0.296-0.424-0.456-0.184-0.208-0.368-0.416-0.544-0.632-0.464-0.536-0.92-1.088-1.36-1.656-0.176-0.224-0.352-0.448-0.536-0.68-0.584-0.768-1.152-1.552-1.696-2.368-0.528-0.792-1.040-1.616-1.52-2.456-3.848-6.72-6.032-14.768-5.36-24.368l0.024 0.096 0.016 0.072c0.016 0.088 0.040 0.208 0.072 0.36l0.024 0.080c0.032 0.144 0.072 0.32 0.112 0.504l0.032 0.12c0.048 0.216 0.112 0.472 0.184 0.744l0.048 0.176c0.080 0.296 0.168 0.608 0.264 0.944v0.008c0.096 0.336 0.208 0.696 0.328 1.072l0.072 0.232c0.128 0.376 0.264 0.776 0.416 1.184l0.080 0.2c0.136 0.384 0.296 0.784 0.464 1.2l0.080 0.192c0.184 0.44 0.384 0.896 0.592 1.36l0.136 0.288c0.224 0.472 0.456 0.96 0.712 1.44v0c0.008 0.016 0.024 0.040 0.032 0.056 0.376 0.728 0.808 1.472 1.264 2.216 0.168 0.28 0.336 0.56 0.528 0.848l0.144 0.24v0.008c0.392 0.584 0.8 1.168 1.24 1.744 0.36 0.472 0.744 0.944 1.136 1.408 0.12 0.144 0.256 0.288 0.384 0.44 0.312 0.352 0.64 0.712 0.984 1.056 0.136 0.136 0.28 0.28 0.416 0.424 0.464 0.456 0.944 0.896 1.448 1.328l0.040 0.040c0 0-8.744-19.776-4.936-35.464 0 0 0 0.048 0 0.128 0 0.032 0 0.064 0 0.096 0 0.088 0 0.184 0 0.32 0 0.032 0 0.056 0 0.088 0 0.16 0 0.352 0.008 0.568 0 0.032 0 0.056 0 0.088 0 0.232 0.016 0.488 0.032 0.776 0 0.032 0 0.056 0 0.088 0.016 0.296 0.040 0.624 0.064 0.968 0 0.032 0 0.056 0.008 0.088 0.032 0.352 0.056 0.728 0.104 1.12 0 0.032 0.008 0.064 0.016 0.096 0.040 0.392 0.096 0.8 0.152 1.232 0 0.040 0.016 0.080 0.016 0.12 0.064 0.456 0.144 0.928 0.232 1.416l0.024 0.12 0.048 0.248v0.008c0.104 0.544 0.232 1.104 0.376 1.672 0.016 0.040 0.024 0.072 0.032 0.112 0.152 0.552 0.304 1.112 0.488 1.68 0.056 0.176 0.112 0.344 0.168 0.52l0.12 0.36v0.008c0.168 0.464 0.344 0.928 0.544 1.392l0.032 0.072v0.008c0.272 0.64 0.592 1.272 0.928 1.888 0.088 0.16 0.184 0.328 0.28 0.488 0.36 0.616 0.744 1.216 1.176 1.784l0.016 0.032c0 0-0.504-4.864-0.376-10.664 0.024-0.912 0.064-1.848 0.128-2.792 0.040-0.632 0.080-1.264 0.136-1.896 0.384 6.232 1.52 12.080 3.184 17.536 0.464 1.504 0.968 2.968 1.504 4.416 0.072 0.208 0.144 0.416 0.224 0.624 0.52 1.368 1.064 2.696 1.64 4.008 0.112 0.248 0.216 0.488 0.328 0.728 0.584 1.296 1.184 2.568 1.816 3.8 0.104 0.192 0.2 0.376 0.296 0.568 1.344 2.584 2.784 5.040 4.28 7.368 0.112 0.176 0.216 0.344 0.328 0.512 0.568 0.872 1.152 1.712 1.736 2.544 0.152 0.224 0.296 0.456 0.456 0.672 0.144 0.2 0.28 0.392 0.416 0.584 0.744 1.024 1.488 2.024 2.24 2.992 0.12 0.152 0.24 0.304 0.36 0.456 0.784 0.992 1.568 1.96 2.352 2.888l0.040 0.048c0.992 1.168 1.976 2.288 2.96 3.352 0.72 0.776 1.432 1.528 2.136 2.256 0.264 0.272 0.544 0.536 0.816 0.816 1.688 1.704 3.312 3.232 4.824 4.584 4.544 4.072 8.088 6.584 9.32 7.416-0.744-0.184-1.608-0.416-2.576-0.688-1.456-0.408-3.136-0.92-4.992-1.552zM361.037 135.058c0.64-1.048 1.608-2.056 2.84-2.84 2.616-1.656 5.512-1.8 6.984-0.464 0.008 0.008 0.008 0.016 0.016 0.016 0.16-0.056 0.56-0.2 1.136-0.36 3.264-0.968 12.336-2.864 17.24 3.472 0.24 0.304 0.48 0.592 0.696 0.928-0.968 0.496-1.504 1.912-1.504 3.592-0.008 0.808 0.104 1.672 0.36 2.536 0.808 2.656 2.624 4.232 4.056 3.504 0 0-0.048 0.504-0.232 1.264-0.712 2.896-3.568 9.712-14.824 8.632-11.76-1.136-15.712-10.624-16.728-13.864-0.208-0.672-0.296-1.096-0.296-1.096l0.32-0.272c1.488 1.264 4.336 1.12 6.92-0.52 0.016-0.016 0.032-0.032 0.048-0.040-2.576 1.632-5.408 1.776-6.896 0.512-0.248-0.208-0.464-0.448-0.632-0.728-0.68-1.184-0.432-2.776 0.488-4.272v0zM383.957 182.514c-3.896-0.24-6.616-7.624-6.096-16.512 0.072-1.296 0.224-2.544 0.424-3.744 6.048-0.144 10.16-2.064 12.896-4.856 0.664 2.696 0.992 5.92 0.784 9.424-0.232 3.824-1.032 7.28-2.176 9.984-0.408 1.544-2.808 5.952-5.832 5.704zM392.925 145.394c-1.432 0.728-3.248-0.848-4.056-3.504-0.264-0.864-0.376-1.728-0.368-2.536 0.008-1.68 0.544-3.096 1.504-3.592 1.448-0.72 3.248 0.856 4.056 3.52 0.072 0.232 0.12 0.464 0.176 0.696v0.008c0.512 2.416-0.016 4.76-1.312 5.416zM270.013 171.21c3.408 5.936 7.104 10.72 10.84 14.56 7.28 7.488 14.688 11.432 20.432 13.512 6.208 2.24 10.456 2.32 10.456 2.32-1.456 0.792-3.032 1.352-4.632 1.752-1.056 0.264-2.12 0.448-3.168 0.576-0.392 0.048-0.784 0.088-1.184 0.12-5.384 0.472-10.048-0.44-10.048-0.44-1-0.232-1.96-0.488-2.88-0.768-7.32-2.224-12.416-6.032-15.976-10.424-2.88-3.56-4.76-7.496-5.952-11.304-0.104-0.336-0.2-0.672-0.296-1-0.28-0.984-0.528-1.952-0.728-2.904-0.672-3.2-0.936-6.152-1.008-8.48-0.088-3.192 0.16-5.248 0.16-5.248 1.272 2.792 2.6 5.344 3.976 7.744zM396.637 207.77c1.064-0.752 2.128-1.624 3.192-2.608 1.088-1.008 2.168-2.12 3.24-3.384 0 0-0.464 5.072-3.352 9.44-0.176 0.272-0.368 0.544-0.568 0.808l-0.248 0.32c-0.824 1.040-1.808 2-2.984 2.808-2.776 1.912-6.616 2.904-11.928 1.816 0 0-6.312-1.488-10-5.616 0 0 11 4.696 22.64-3.576zM308.485 146.338c0.704-5.944 2.408-11.192 4.592-14.856 4.216 1.304 8.784 2.504 13.672 3.608 0.848 3.808 1.064 8.52 0.456 13.552-1.392 11.808-6.72 20.848-11.888 20.208-5.176-0.64-8.232-10.728-6.832-22.52zM280.509 373.314l-2.272 19.896-4.056-8.968 0.656-8.032 0.008-0.064zM285.269 350.577c0.192 0.112 0.376 0.232 0.576 0.344 0.208 0.12 0.416 0.24 0.624 0.368 0.248 0.144 0.488 0.28 0.736 0.424 2.336 1.368 4.688 2.704 7.048 4l-24.136 11.8 14.92-17.088 0.248 0.144zM296.669 357.050c0.984 0.528 1.968 1.056 2.952 1.576 1.408 0.744 2.824 1.488 4.24 2.208 0.168 0.088 0.328 0.176 0.504 0.264l0.12 0.056c0.224 0.112 0.44 0.216 0.672 0.328l0.088 0.048-10.952 12.672 2.224-17.232 0.152 0.088z" />
<glyph unicode="&#xe624;" glyph-name="feed" d="M28.445 153.6c30.862 0 60.245-6.144 87.011-17.209 27.819-11.52 52.878-28.416 73.898-49.437s37.916-46.080 49.436-73.899c11.065-26.766 17.208-56.149 17.208-87.011 0-15.702 12.743-28.444 28.445-28.444s28.445 12.743 28.445 28.444c0 38.486-7.651 75.235-21.56 108.771-14.421 34.816-35.555 66.133-61.752 92.359s-57.514 47.332-92.359 61.752c-33.536 13.91-70.286 21.56-108.771 21.56-15.701 0-28.445-12.744-28.445-28.445s12.743-28.445 28.445-28.445zM28.445 352.711c57.856 0 112.924-11.491 163.157-32.313 52.196-21.618 99.186-53.304 138.552-92.672s71.054-86.357 92.672-138.553c20.793-50.204 32.284-105.272 32.284-163.129 0-15.702 12.743-28.444 28.445-28.444s28.445 12.743 28.445 28.444c0 65.451-13.027 127.914-36.637 184.917-24.519 59.192-60.445 112.44-104.988 156.985s-97.792 80.469-156.984 104.988c-57.031 23.637-119.495 36.664-184.946 36.664-15.701 0-28.445-12.743-28.445-28.445s12.743-28.445 28.445-28.445zM113.778-45.511c0 7.651-1.536 15.019-4.323 21.76-2.901 6.998-7.112 13.226-12.344 18.461s-11.492 9.443-18.46 12.344c-6.742 2.788-14.108 4.324-21.76 4.324s-15.019-1.536-21.76-4.324c-6.997-2.901-13.227-7.111-18.46-12.344s-9.444-11.491-12.345-18.461c-2.788-6.741-4.324-14.108-4.324-21.76s1.536-15.019 4.324-21.76c2.902-6.998 7.111-13.226 12.345-18.461s11.491-9.443 18.46-12.344c6.742-2.788 14.108-4.324 21.76-4.324s15.019 1.536 21.76 4.324c6.998 2.901 13.227 7.111 18.46 12.344s9.444 11.491 12.344 18.461c2.787 6.741 4.323 14.108 4.323 21.76z" />
<glyph unicode="&#xe626;" glyph-name="email" d="M512 307.2c0 28.16-23.040 51.2-51.2 51.2h-409.601c-28.16 0-51.2-23.040-51.2-51.2v-307.2c0-28.16 23.040-51.2 51.2-51.2h409.601c28.16 0 51.2 23.040 51.2 51.2v307.2zM460.8 307.2l-204.8-128-204.8 128h409.601zM460.8 0h-409.601v256l204.8-128 204.8 128v-256z" />
<glyph unicode="&#xe627;" glyph-name="aweber" d="M509.224 152.568c0-50.624 1.696-101.328-0.496-151.856-2.064-47.736-50.504-97.192-98.144-99.632-57.496-2.952-115.192-2.144-172.8-2.264-4.192-0.008-10.376 4.784-12.304 8.904-21.752 46.432-36.16 95.152-44.848 145.696-8.856 51.504-9.896 103.424-7.248 155.256 3.336 65.248 17.184 128.536 42.432 189.12 3.536 8.496 8.328 11.832 17.648 11.768 51.096-0.384 102.192 0.216 153.28-0.288 59.544-0.592 106.424-36.344 120.32-92.016 3.232-12.952 3.88-26.776 4.040-40.216 0.496-41.48 0.184-82.976 0.184-124.464-0.688-0.008-1.376-0.008-2.064-0.008zM201.536 152.752c1.136-14.76 2.088-29.544 3.448-44.288 6.032-65.432 33.064-122.272 71.912-174.12 8.040-10.728 19.136-12.192 30.136-5.584 15.016 9.016 16.104 19.416 2.984 37.112-61.080 82.336-74.848 173.616-50.696 271.632 9.64 39.104 30.216 73.072 54.008 105.224 10.408 14.064 7.624 25.712-7.040 33.472-12.152 6.432-21.888 3.32-32.312-10.592-47.232-63.064-72.968-133.36-72.44-212.856zM311.376 158.352c1.28-14.728 1.752-29.584 4-44.168 6.192-40.056 23.184-75.608 47.576-107.664 8.432-11.080 20.736-10.648 28.48 0.016 6.048 8.344 1.144 14.704-3.64 21.128-41.264 55.376-51.128 117.136-36.632 183.528 6.344 29.056 21.4 54.072 38.536 77.992 8.312 11.608 4.464 24.12-8.704 25.32-6.192 0.56-15.248-4.032-19.184-9.2-32.912-43.256-51.032-91.832-50.424-146.96zM123.688 409.6c-55.672-172.632-54.216-341.2 7.688-512-14.304 1.744-27.304 1.912-39.528 5.064-55.2 14.232-90.944 60.464-91.376 119.4-0.64 87.288-0.6 174.592-0.016 261.888 0.408 60.992 37.176 107.92 93.848 121.472 9.096 2.176 18.6 2.688 29.384 4.168z" />
<glyph unicode="&#xe628;" glyph-name="arrowdown3" d="M256 389.12c-130.080 0-235.52-105.44-235.52-235.52s105.44-235.52 235.52-235.52 235.52 105.44 235.52 235.52-105.44 235.52-235.52 235.52zM256-30.72c-101.808 0-184.32 82.528-184.32 184.32s82.512 184.32 184.32 184.32 184.32-82.528 184.32-184.32-82.512-184.32-184.32-184.32zM302.080 252.16h-92.16v-104.704h-57.6l103.68-97.536 103.68 97.536h-57.6v104.704z" />
<glyph unicode="&#xe629;" glyph-name="arrowdown4" horiz-adv-x="320" d="M31.3 217.6h257.3c17.8 0 26.7-21.5 14.1-34.1l-128.6-128.7c-7.8-7.8-20.5-7.8-28.3 0l-128.6 128.7c-12.6 12.6-3.7 34.1 14.1 34.1z" />
<glyph unicode="&#xe62a;" glyph-name="arrowdown6" d="M396.368 190.384c-10.416-10.704-120.192-115.28-120.192-115.28-5.584-5.712-12.88-8.544-20.176-8.544-7.328 0-14.624 2.848-20.176 8.544 0 0-109.776 104.576-120.224 115.28-10.416 10.704-11.136 29.92 0 41.376 11.168 11.424 26.704 12.32 40.352 0l100.048-95.952 100.016 95.92c13.664 12.32 29.232 11.424 40.352 0 11.168-11.424 10.464-30.672 0-41.344z" />
<glyph unicode="&#xe62b;" glyph-name="arrowup3" d="M256.035-102.4c141.392 0 255.965 114.608 255.965 256s-114.591 256-255.965 256c-141.409 0-256.035-114.608-256.035-256s114.609-256 256.035-256zM256.035 353.948c110.661 0 200.313-89.704 200.313-200.348s-89.687-200.348-200.313-200.348c-110.695 0-200.382 89.687-200.382 200.348s89.687 200.348 200.382 200.348zM205.913 46.47h100.209v113.808h62.608l-112.695 106.017-112.731-106.017h62.608v-113.808z" />
<glyph unicode="&#xe62c;" glyph-name="arrowup4" d="M384.662 69.27h-257.324c-17.818 0-26.741 21.543-14.142 34.142l128.662 128.662c7.81 7.81 20.474 7.81 28.284 0l128.662-128.662c12.6-12.599 3.676-34.142-14.142-34.142z" />
<glyph unicode="&#xe62d;" glyph-name="arrowup6" d="M396.368 116.816c-10.416 10.704-120.192 115.248-120.192 115.248-5.584 5.712-12.88 8.576-20.176 8.576-7.328 0-14.624-2.864-20.176-8.576 0 0-109.776-104.544-120.224-115.248-10.416-10.704-11.136-29.952 0-41.376 11.168-11.392 26.704-12.32 40.352 0l100.048 95.92 100.016-95.92c13.664-12.32 29.232-11.392 40.352 0 11.168 11.44 10.464 30.688 0 41.376z" />
<glyph unicode="&#xe62e;" glyph-name="minus" d="M389.088 179.2h-266.208c-14.16 0-15.36-11.472-15.36-25.6s1.2-25.6 15.36-25.6h266.208c14.16 0 15.392 11.472 15.392 25.6s-1.232 25.6-15.392 25.6z" />
<glyph unicode="&#xe62f;" glyph-name="plus" d="M389.088 179.2h-107.52v107.52c0 14.128-11.44 15.36-25.6 15.36-14.128 0-25.6-1.2-25.6-15.36v-107.52h-107.488c-14.16 0-15.36-11.472-15.36-25.6s1.2-25.6 15.36-25.6h107.488v-107.52c0-14.128 11.472-15.36 25.6-15.36 14.16 0 25.6 1.232 25.6 15.36v107.52h107.52c14.16 0 15.392 11.472 15.392 25.6s-1.232 25.6-15.392 25.6z" />
<glyph unicode="&#xe630;" glyph-name="arrowup2" d="M264.5 246.1l122.8-122.8c4.7-4.7 4.7-12.3 0-17l-22.6-22.6c-4.7-4.7-12.3-4.7-17 0l-91.7 91.7-91.7-91.7c-4.7-4.7-12.3-4.7-17 0l-22.6 22.6c-4.7 4.7-4.7 12.3 0 17l122.8 122.8c4.7 4.7 12.3 4.7 17 0zM480 329.6v-352c0-26.5-21.5-48-48-48h-352c-26.5 0-48 21.5-48 48v352c0 26.5 21.5 48 48 48h352c26.5 0 48-21.5 48-48zM432-16.4v340c0 3.3-2.7 6-6 6h-340c-3.3 0-6-2.7-6-6v-340c0-3.3 2.7-6 6-6h340c3.3 0 6 2.7 6 6z" />
<glyph unicode="&#xe631;" glyph-name="arrowdown2" d="M247.5 61.1l-122.8 122.8c-4.7 4.7-4.7 12.3 0 17l22.6 22.6c4.7 4.7 12.3 4.7 17 0l91.7-91.7 91.7 91.7c4.7 4.7 12.3 4.7 17 0l22.6-22.6c4.7-4.7 4.7-12.3 0-17l-122.8-122.8c-4.7-4.7-12.3-4.7-17 0zM480 329.6v-352c0-26.5-21.5-48-48-48h-352c-26.5 0-48 21.5-48 48v352c0 26.5 21.5 48 48 48h352c26.5 0 48-21.5 48-48zM432-16.4v340c0 3.3-2.7 6-6 6h-340c-3.3 0-6-2.7-6-6v-340c0-3.3 2.7-6 6-6h340c3.3 0 6 2.7 6 6z" />
<glyph unicode="&#xe632;" glyph-name="plus3" d="M398.224 409.6h-284.447c-62.556 0-113.776-51.221-113.776-113.776v-284.437c0-62.567 51.221-113.787 113.776-113.787h284.437c62.567 0 113.787 51.221 113.787 113.776v284.447c0 62.556-51.221 113.776-113.776 113.776zM398.224 125.163h-113.787v-113.776h-56.883v113.776h-113.776v56.883h113.776v113.776h56.883v-113.776h113.776v-56.883z" />
<glyph unicode="&#xe633;" glyph-name="minus3" d="M398.224 409.6h-284.447c-62.556 0-113.776-51.221-113.776-113.776v-284.437c0-62.567 51.221-113.787 113.776-113.787h284.437c62.567 0 113.787 51.221 113.787 113.776v284.447c0 62.556-51.221 113.776-113.776 113.776zM398.224 125.163h-284.447v56.883h284.437v-56.883z" />
<glyph unicode="&#xe634;" glyph-name="arrowdown5" d="M157.1 193.6h197.8c10.7 0 16.1-13 8.5-20.5l-98.9-98.3c-4.7-4.7-12.2-4.7-16.9 0l-98.9 98.3c-7.7 7.5-2.3 20.5 8.4 20.5zM504 153.6c0-137-111-248-248-248s-248 111-248 248 111 248 248 248 248-111 248-248zM456 153.6c0 110.5-89.5 200-200 200s-200-89.5-200-200 89.5-200 200-200 200 89.5 200 200z" />
<glyph unicode="&#xe635;" glyph-name="arrowup5" d="M354.9 113.6h-197.8c-10.7 0-16.1 13-8.5 20.5l98.9 98.3c4.7 4.7 12.2 4.7 16.9 0l98.9-98.3c7.7-7.5 2.3-20.5-8.4-20.5zM8 153.6c0 137 111 248 248 248s248-111 248-248-111-248-248-248-248 111-248 248zM56 153.6c0-110.5 89.5-200 200-200s200 89.5 200 200-89.5 200-200 200-200-89.5-200-200z" />
<glyph unicode="&#xe636;" glyph-name="forbid" d="M256-102.4c-141.375 0-256 114.625-256 256 0 141.391 114.625 256 256 256s256-114.609 256-256c0-141.375-114.625-256-256-256zM64 153.6c0-41.312 13.312-79.312 35.531-110.656l267.125 267.14c-31.312 22.188-69.344 35.516-110.656 35.516-106.031 0-192-85.969-192-192zM412.469 264.256l-267.125-267.156c31.312-22.188 69.344-35.5 110.656-35.5 106.031 0 192 85.969 192 192 0 41.312-13.312 79.328-35.531 110.656z" />
<glyph unicode="&#xe637;" glyph-name="register" horiz-adv-x="602" d="M426.135-72.003v50.134c0 16.92-3.359 33.139-9.5 47.928-6.367 15.366-15.667 29.152-27.197 40.684s-25.342 20.856-40.684 27.197c-14.815 6.166-31.033 9.526-47.953 9.526h-175.47c-16.92 0-33.138-3.359-47.928-9.5-15.367-6.367-29.153-15.667-40.684-27.197s-20.856-25.343-27.198-40.684c-6.167-14.815-9.525-31.033-9.525-47.953v-50.134c0-13.837 11.23-25.067 25.067-25.067s25.067 11.23 25.067 25.067v50.134c0 10.228 2.031 19.928 5.69 28.752 3.81 9.175 9.4 17.472 16.344 24.415s15.24 12.534 24.415 16.344c8.824 3.659 18.525 5.69 28.752 5.69h175.47c10.228 0 19.928-2.031 28.752-5.69 9.175-3.81 17.472-9.4 24.415-16.344s12.534-15.24 16.344-24.415c3.659-8.824 5.69-18.524 5.69-28.752v-50.134c0-13.837 11.23-25.067 25.067-25.067s25.067 11.23 25.067 25.067zM338.401 278.935c0 16.92-3.359 33.138-9.5 47.928-6.367 15.367-15.667 29.153-27.197 40.684s-25.343 20.856-40.684 27.197c-14.815 6.166-31.033 9.526-47.953 9.526s-33.138-3.359-47.929-9.501c-15.367-6.367-29.153-15.667-40.709-27.197s-20.831-25.342-27.198-40.709c-6.141-14.79-9.501-31.008-9.501-47.928s3.359-33.138 9.501-47.928c6.367-15.367 15.667-29.153 27.198-40.684s25.343-20.856 40.684-27.198c14.815-6.166 31.033-9.525 47.953-9.525s33.138 3.359 47.928 9.5c15.366 6.367 29.152 15.667 40.684 27.197s20.856 25.343 27.197 40.684c6.166 14.815 9.526 31.033 9.526 47.953zM288.267 278.935c0-10.228-2.031-19.928-5.69-28.752-3.81-9.174-9.4-17.472-16.344-24.415s-15.24-12.534-24.415-16.344c-8.824-3.66-18.524-5.69-28.752-5.69s-19.929 2.030-28.752 5.69c-9.174 3.81-17.472 9.375-24.415 16.344s-12.534 15.24-16.344 24.415c-3.66 8.824-5.69 18.524-5.69 28.752s2.030 19.928 5.69 28.752c3.81 9.174 9.4 17.472 16.344 24.415s15.24 12.534 24.415 16.344c8.824 3.659 18.524 5.69 28.752 5.69s19.929-2.030 28.752-5.69c9.174-3.81 17.472-9.4 24.415-16.344s12.534-15.24 16.344-24.415c3.659-8.824 5.69-18.524 5.69-28.752zM576.537 203.734h-50.134v50.134c0 13.837-11.23 25.067-25.067 25.067s-25.067-11.23-25.067-25.067v-50.134h-50.134c-13.837 0-25.067-11.23-25.067-25.067s11.23-25.067 25.067-25.067h50.134v-50.134c0-13.837 11.23-25.067 25.067-25.067s25.067 11.23 25.067 25.067v50.134h50.134c13.837 0 25.067 11.23 25.067 25.067s-11.23 25.067-25.067 25.067z" />
<glyph unicode="&#xe7ff;" glyph-name="user" d="M486.4-76.8v51.2c0 17.28-3.43 33.843-9.702 48.947-6.502 15.693-16 29.772-27.776 41.549s-25.882 21.3-41.549 27.776c-15.13 6.298-31.692 9.728-48.973 9.728h-204.8c-17.28 0-33.843-3.43-48.947-9.702-15.693-6.502-29.773-16-41.549-27.776s-21.3-25.882-27.776-41.549c-6.297-15.13-9.728-31.692-9.728-48.972v-51.2c0-14.131 11.469-25.6 25.6-25.6s25.6 11.469 25.6 25.6v51.2c0 10.445 2.073 20.352 5.811 29.363 3.891 9.37 9.6 17.844 16.692 24.934s15.564 12.8 24.934 16.692c9.011 3.738 18.919 5.811 29.364 5.811h204.8c10.445 0 20.352-2.074 29.363-5.811 9.37-3.891 17.844-9.6 24.934-16.692s12.8-15.565 16.692-24.934c3.738-9.012 5.811-18.918 5.811-29.363v-51.2c0-14.131 11.469-25.6 25.6-25.6s25.6 11.469 25.6 25.6zM384 281.6c0 17.28-3.43 33.843-9.702 48.947-6.502 15.693-16 29.772-27.776 41.549s-25.882 21.3-41.549 27.776c-15.13 6.298-31.692 9.728-48.973 9.728s-33.843-3.43-48.947-9.702c-15.693-6.502-29.773-16-41.575-27.776s-21.274-25.882-27.776-41.575c-6.272-15.104-9.703-31.668-9.703-48.947s3.43-33.843 9.703-48.947c6.502-15.693 16-29.773 27.776-41.549s25.881-21.299 41.549-27.776c15.13-6.298 31.692-9.728 48.972-9.728s33.843 3.43 48.947 9.702c15.693 6.502 29.772 16 41.549 27.776s21.3 25.881 27.776 41.549c6.298 15.13 9.728 31.693 9.728 48.972zM332.8 281.6c0-10.445-2.074-20.352-5.811-29.363-3.891-9.369-9.6-17.844-16.692-24.934s-15.565-12.8-24.934-16.691c-9.012-3.738-18.918-5.811-29.363-5.811s-20.352 2.073-29.363 5.811c-9.369 3.891-17.844 9.6-24.934 16.691s-12.8 15.565-16.691 24.934c-3.738 9.012-5.811 18.918-5.811 29.363s2.073 20.352 5.811 29.364c3.891 9.369 9.6 17.843 16.691 24.934s15.565 12.8 24.934 16.692c9.012 3.737 18.918 5.811 29.363 5.811s20.352-2.074 29.363-5.811c9.37-3.891 17.844-9.6 24.934-16.692s12.8-15.565 16.692-24.934c3.738-9.012 5.811-18.918 5.811-29.364z" />
<glyph unicode="&#xe853;" glyph-name="account_circle_solid" d="M256-31.489c63.7 0 120.188 33.652 153.841 82.93-1.202 50.479-103.361 79.324-153.841 79.324-51.68 0-152.638-28.845-153.84-79.324 33.653-49.277 90.141-82.93 153.84-82.93zM256 332.68c-42.065 0-76.92-34.854-76.92-76.92s34.855-76.92 76.92-76.92 76.92 34.855 76.92 76.92-34.854 76.92-76.92 76.92zM256 409.6c141.822 0 256-114.178 256-256s-114.178-256-256-256-256 114.178-256 256 114.178 256 256 256z" />
<glyph unicode="&#xe8e9;" glyph-name="page_break" d="M12.8 409.6v-512zM25.6 409.6v-512zM38.4 409.6v-512zM51.2 409.6v-512zM64 409.6v-512zM76.8 409.6v-512zM89.6 409.6v-512zM102.4 409.6v-512zM115.2 409.6v-512zM128 409.6v-512zM140.8 409.6v-512zM153.6 409.6v-512zM166.4 409.6v-512zM179.2 409.6v-512zM192 409.6v-512zM204.8 409.6v-512zM217.6 409.6v-512zM230.4 409.6v-512zM243.2 409.6v-512zM256 409.6v-512zM268.8 409.6v-512zM281.6 409.6v-512zM294.4 409.6v-512zM307.2 409.6v-512zM320 409.6v-512zM332.8 409.6v-512zM345.6 409.6v-512zM358.4 409.6v-512zM371.2 409.6v-512zM384 409.6v-512zM396.8 409.6v-512zM409.6 409.6v-512zM422.4 409.6v-512zM435.2 409.6v-512zM448 409.6v-512zM460.8 409.6v-512zM473.6 409.6v-512zM486.4 409.6v-512zM499.2 409.6v-512zM0 396.8h512zM0 384h512zM0 371.2h512zM0 358.4h512zM0 345.6h512zM0 332.8h512zM0 320h512zM0 307.2h512zM0 294.4h512zM0 281.6h512zM0 268.8h512zM0 256h512zM0 243.2h512zM0 230.4h512zM0 217.6h512zM0 204.8h512zM0 192h512zM0 179.2h512zM0 166.4h512zM0 153.6h512zM0 140.8h512zM0 128h512zM0 115.2h512zM0 102.4h512zM0 89.6h512zM0 76.8h512zM0 64h512zM0 51.2h512zM0 38.4h512zM0 25.6h512zM0 12.8h512zM0 0h512zM0-12.8h512zM0-25.6h512zM0-38.4h512zM0-51.2h512zM0-64h512zM0-76.8h512zM0-89.6h512zM460 383.2v-153.6c0-13.255-10.745-24-24-24s-24 10.745-24 24v153.6c0 13.255 10.745 24 24 24s24-10.745 24-24zM100.8 383.2v-153.6c0-13.255-10.745-24-24-24s-24 10.745-24 24v153.6c0 13.255 10.745 24 24 24s24-10.745 24-24zM76.8 253.6h359.2c13.255 0 24-10.745 24-24s-10.745-24-24-24h-359.2c-13.255 0-24 10.745-24 24s10.745 24 24 24zM100.8-76.8v153.6c0 13.255-10.745 24-24 24s-24-10.745-24-24v-153.6c0-13.255 10.745-24 24-24s24 10.745 24 24zM460-76.8v153.6c0 13.255-10.745 24-24 24s-24-10.745-24-24v-153.6c0-13.255 10.745-24 24-24s24 10.745 24 24zM76.8 52.8h359.2c13.255 0 24 10.745 24 24s-10.745 24-24 24h-359.2c-13.255 0-24-10.745-24-24s10.745-24 24-24zM24 129.2h25.6c13.255 0 24 10.745 24 24s-10.745 24-24 24h-25.6c-13.255 0-24-10.745-24-24s10.745-24 24-24zM243.2 129.2h25.6c13.255 0 24 10.745 24 24s-10.745 24-24 24h-25.6c-13.255 0-24-10.745-24-24s10.745-24 24-24zM462.4 129.2h25.6c13.255 0 24 10.745 24 24s-10.745 24-24 24h-25.6c-13.255 0-24-10.745-24-24s10.745-24 24-24zM116.213 129.6h61.287c13.255 0 24 10.745 24 24s-10.745 24-24 24h-61.286c-13.255 0-24-10.745-24-24s10.745-24 24-24zM335.413 129.6h61.286c13.255 0 24 10.745 24 24s-10.745 24-24 24h-61.286c-13.255 0-24-10.745-24-24s10.745-24 24-24z" />
<glyph unicode="&#xe8ed;" glyph-name="view_day" d="M53.5 345.6h405v-64h-405v64zM437.5 238.6c12 0 21-9 21-21v-128c0-12-9-21-21-21h-363c-12 0-21 9-21 21v128c0 12 9 21 21 21h363zM53.5-38.4v64h405v-64h-405z" />
<glyph unicode="&#xe900;" glyph-name="delete_solid" d="M477.767 323.572h-105.675l-23.814 56.261c-8.536 16.762-25.093 28.358-44.476 29.757l-0.175 0.010h-104.186c-19.964-0.125-37.072-12.214-44.53-29.451l-0.121-0.316-22.624-56.261h-97.935c-4.665-0.051-8.869-1.977-11.905-5.058l-0.002-0.002c-2.651-1.337-4.443-4.029-4.465-7.142v-20.84c0.445-6.389 5.518-11.462 11.867-11.905l0.040-0.002h32.744v-315.535c-0.208-1.865-0.325-4.029-0.325-6.221 0-30.899 23.539-56.3 53.663-59.249l0.245-0.019h276.837c30.603 3.913 54.017 29.796 54.017 61.149 0 2.579-0.158 5.12-0.466 7.616l0.030-0.299v312.558h32.744c3.3 0.166 6.233 1.619 8.329 3.863l0.007 0.007c3.876 2.871 6.401 7.377 6.548 12.479l0 0.024v12.204c0 9.042-7.33 16.372-16.372 16.372v0zM193.488 358.995c1.556 1.567 3.607 2.642 5.898 2.971l0.056 0.007h104.186c2.346-0.336 4.397-1.41 5.953-2.976l0-0 13.693-35.424h-146.159zM187.535 13.693c-0.446-6.389-5.518-11.462-11.867-11.904l-0.040-0.002h-20.837c-6.389 0.445-11.462 5.518-11.905 11.867l-0.002 0.040v190.512c0.446 6.389 5.518 11.462 11.867 11.905l0.040 0.002h20.837c6.389-0.446 11.462-5.518 11.905-11.867l0.002-0.040zM273.86 13.693c-0.445-6.389-5.518-11.462-11.867-11.904l-0.040-0.002h-20.837c-6.389 0.445-11.462 5.518-11.905 11.867l-0.002 0.040v190.512c0.446 6.389 5.518 11.462 11.867 11.905l0.040 0.002h20.837c6.389-0.446 11.462-5.518 11.904-11.867l0.002-0.040zM357.209 13.693c-0.445-6.389-5.518-11.462-11.867-11.904l-0.040-0.002h-20.837c-6.389 0.445-11.462 5.518-11.904 11.867l-0.002 0.040v190.512c0.445 6.389 5.518 11.462 11.867 11.905l0.040 0.002h20.837c6.389-0.446 11.462-5.518 11.904-11.867l0.002-0.040z" />
<glyph unicode="&#xe901;" glyph-name="pencil_solid" d="M42.491 66.413c-2.797-2.785-4.889-6.275-5.986-10.183l-0.039-0.164-35.019-128.342c-0.529-1.839-0.833-3.953-0.833-6.136s0.304-4.297 0.873-6.298l-0.039 0.161c2.784-9.993 11.805-17.202 22.509-17.202 2.186 0 4.301 0.301 6.307 0.862l-0.164-0.039 128.343 35.019c4.072 1.131 7.564 3.224 10.345 6.023l4.887 4.887-126.297 126.297zM57.263-45.065l0.079-0.079h-0.103zM503.205 352.473c-4.75 11.262-11.293 20.876-19.371 28.954v0c-16.136 16.162-38.442 26.161-63.082 26.161-0.029 0-0.061 0-0.091 0h0.005c-0.023 0-0.050 0-0.077 0-24.641 0-46.947-9.998-63.081-26.159l-33.269-33.261 126.337-126.337 33.259 33.267c16.164 16.178 26.161 38.521 26.161 63.199 0 12.329-2.495 24.077-7.010 34.764l0.22-0.587zM74.961 98.877l221.713 221.713 126.329-126.33-221.713-221.713-126.329 126.329z" />
<glyph unicode="&#xe902;" glyph-name="stripe" horiz-adv-x="640" d="M640.005 62.208c0-44.262-35.881-80.144-80.144-80.144h-479.721c-44.263 0-80.144 35.882-80.144 80.144v182.784c0 44.262 35.882 80.144 80.144 80.144h479.721c44.264 0 80.144-35.882 80.144-80.144v-182.784zM402.111 94.008c27.687-5.394 47.462 7.151 54.267 34.591 4.314 17.401 4.166 34.882-0.725 52.084-5.425 19.096-20.055 29.229-38.202 25.523-7.759-1.582-14.837-6.508-22.635-10.107-0.595 2.405-1.313 5.32-2.003 8.11-10.176 0-19.794 0-29.45 0 0-50.088 0-99.529 0-150.166 11.579 1.865 22.501 3.627 33.934 5.468 0 6.159 0 11.604 0 17.048 0 5.711 0 11.419 0 17.949 2.56-0.26 3.709-0.283 4.817-0.5zM397.193 166.981c-0.751 8.792 4.947 11.767 11.632 13.355 6.815 1.619 11.125-2.535 13.005-8.538 4.502-14.405 4.468-28.952-1.188-43.036-1.385-3.457-4.467-6.928-7.691-8.827-8.716-5.127-15.617-0.858-15.651 9.087-0.018 6.33-0.002 12.659-0.002 18.985 0 6.33 0.435 12.692-0.103 18.975zM502.888 138.939c9.261 0 18.688 0 28.117 0 9.402 0 18.801 0 28.76 0 0.93 14.822 0.93 28.217-4.076 41.162-4.489 11.607-12.062 20.305-24.081 24.361-27.069 9.128-53.64-4.465-61.034-32.084-2.561-9.567-3.5-19.963-2.994-29.869 0.967-18.853 6.44-36.302 25.634-44.64 19.538-8.489 39.394-6.76 58.725 1.375 2.013 0.845 4.356 4.163 4.244 6.207-0.341 6.218-1.811 12.375-2.947 19.175-33.146-12.676-52.54-5.151-50.346 14.313zM502.2 160.286c-0.892 13.651 4.060 22.876 12.235 23.239 8.471 0.377 13.22-7.859 12.837-23.239-8.731 0-16.917 0-25.072 0zM79.766 106.988c-0.123-2.457 2.325-6.36 4.608-7.4 13.923-6.35 28.771-8.348 43.868-6.285 18.697 2.552 29.404 13.172 31.655 30.183 2.199 16.622-5.274 28.539-22.884 36.284-5.789 2.544-12.010 4.293-17.404 7.474-2.996 1.768-4.695 5.737-6.977 8.716 3.492 1.794 7.157 5.362 10.438 5.037 9.241-0.916 18.325-3.432 27.879-5.405 1.233 7.573 2.514 15.439 3.855 23.673-14.807 7.129-30.026 9.286-45.645 6.572-16.918-2.937-26.811-13.258-28.45-28.050-1.923-17.387 4.034-27.585 21.008-35.479 5.991-2.788 12.595-4.488 18.118-7.962 3.335-2.096 5.134-6.642 7.624-10.087-3.718-2.038-7.697-6.157-11.108-5.73-10.975 1.373-21.736 4.421-33.591 7.050-0.98-5.57-2.668-12.043-2.994-18.589zM229.794 179.802c1.252 8.428 2.417 16.261 3.755 25.266-7.901 0-14.661 0-22.536 0 0 10.883 0 20.751 0 31.394-10.521-1.756-19.792-3.303-29.173-4.866-0.825-4.813-1.462-9.073-2.298-13.292-1.32-6.646-0.094-15.103-10.846-15.257-0.931-0.012-2.387-2.326-2.642-3.74-1.147-6.375-1.948-12.813-2.927-19.597 5.099-0.322 9.274-0.585 14.338-0.906 0-4.1-0.019-7.506 0.001-10.91 0.095-15.554-0.065-31.117 0.394-46.662 0.315-10.675 4.277-19.97 14.578-24.651 12.548-5.701 25.515-4.85 38.34-1.548 0 9.429 0 17.897 0 26.596-3.452-0.399-6.82-1.838-9.018-0.8-3.677 1.734-9.268 4.903-9.419 7.714-0.889 16.559-0.435 33.189-0.435 50.303 6.244 0.333 11.831 0.631 17.889 0.958zM304.055 199.815c0.252 5.751-3.034 7.855-7.349 6.347-7.175-2.512-13.882-6.364-20.87-9.688-0.295 1.158-1.137 4.462-1.957 7.679-9.901 0-19.793 0-29.416 0 0-36.82 0-72.93 0-108.957 11.466 0 22.274 0 33.902 0 0 20.925-0.007 41.309 0.002 61.688 0.007 11.469 3.248 15.263 14.667 16.872 3.116 0.44 6.304 0.377 10.93 0.625-0.001 8.867-0.268 17.162 0.089 25.433zM313.64 95.121c11.473 0 22.496 0 33.703 0 0 36.754 0 73.041 0 109.529-11.433 0-22.047 0-33.703 0 0-36.871 0-72.957 0-109.529zM330.65 216.671c10.016-0.044 18.072 7.888 18.174 17.891 0.108 10.267-8.458 18.862-18.519 18.587-9.932-0.274-17.676-8.416-17.596-18.5 0.081-10.252 7.745-17.933 17.94-17.977z" />
<glyph unicode="&#xe903;" glyph-name="authorize" d="M509.163-33.998c0-37.778-30.625-68.403-68.403-68.403h-369.522c-37.777 0.001-68.402 30.625-68.402 68.403v375.197c0 37.777 30.624 68.402 68.402 68.402h369.522c37.777 0 68.403-30.624 68.403-68.402v-375.197zM340.385 27.237c7.635-18.145 11.459-31.416 11.459-39.817 0-6.303-2.723-11.65-8.164-16.041-5.443-4.394-15.898-6.974-31.366-7.735v-10.598h153.248v10.598c-15.853 0.954-28.212 5.3-37.092 13.034-8.882 7.735-18.763 24.586-29.647 50.559l-135.205 323.113h-10.025l-136.637-319.675c-11.843-28.070-22.63-46.691-32.368-55.856-4.775-4.584-15.281-8.308-31.51-11.173v-10.598h122.314v10.598c-18.718 1.334-30.891 4.248-36.523 8.738-5.635 4.485-8.45 9.69-8.45 15.611 0 7.448 3.245 18.713 9.739 33.801l26.353 61.3h150.385l23.49-55.858zM175.391 104.291l67.602 156.973 65.884-156.973h-133.486z" />
<glyph unicode="&#xe904;" glyph-name="option" d="M256 378.311c124.101-0.005 224.703-100.61 224.703-224.711 0-62.050-25.15-118.226-65.813-158.89v0c-40.774-41.346-97.411-66.959-160.030-66.959-124.105 0-224.711 100.606-224.711 224.711 0 62.618 25.613 119.255 66.934 160.005l0.025 0.026c40.434 40.658 96.412 65.821 158.268 65.821 0.219 0 0.438-0 0.656-0.001h-0.034zM256 409.6c-141.385 0-256-114.615-256-256s114.615-256 256-256c141.385 0 256 114.615 256 256v0c0 141.385-114.615 256-256 256v0zM294.414 153.771c0-21.113-17.116-38.229-38.23-38.229s-38.23 17.116-38.23 38.23c0 21.113 17.116 38.229 38.23 38.229s38.23-17.116 38.23-38.229zM294.755 38.4c0-21.207-17.192-38.4-38.4-38.4s-38.4 17.192-38.4 38.4c0 21.207 17.192 38.4 38.4 38.4s38.4-17.192 38.4-38.4zM294.755 268.8c0-21.208-17.192-38.4-38.4-38.4s-38.4 17.192-38.4 38.4c0 21.207 17.192 38.4 38.4 38.4s38.4-17.192 38.4-38.4z" />
<glyph unicode="&#xe905;" glyph-name="arrowdown5_solid" d="M504 153.6c0-137-111-248-248-248s-248 111-248 248 111 248 248 248 248-111 248-248zM124.5 181.1l123-123c4.7-4.7 12.3-4.7 17 0l123 123c7.6 7.6 2.2 20.5-8.5 20.5h-246c-10.7 0-16.1-12.9-8.5-20.5z" />
<glyph unicode="&#xe906;" glyph-name="option_solid" d="M256 409.6c-141.385 0-256-114.615-256-256s114.615-256 256-256c141.385 0 256 114.615 256 256v0c0 141.385-114.615 256-256 256v0zM256.356 0c-21.208 0-38.4 17.192-38.4 38.4s17.192 38.4 38.4 38.4c21.207 0 38.4-17.192 38.4-38.4v0c0-21.207-17.192-38.4-38.4-38.4v0zM217.956 153.771c0 0.004 0 0.009 0 0.014 0 21.113 17.116 38.23 38.23 38.23s38.229-17.116 38.229-38.23c0-21.113-17.116-38.229-38.23-38.229-0.005 0-0.010 0-0.015 0h0.001c-21.106 0-38.215 17.11-38.215 38.215v0zM256.356 230.4c-21.208 0-38.4 17.192-38.4 38.4s17.192 38.4 38.4 38.4c21.207 0 38.4-17.192 38.4-38.4v0c0-21.208-17.192-38.4-38.4-38.4v0z" />
<glyph unicode="&#xe907;" glyph-name="tooltip_solid" d="M78.154-30.538c-48.218 46.617-78.154 111.881-78.154 184.138 0 141.385 114.615 256 256 256 72.257 0 137.522-29.936 184.068-78.082l0.069-0.072c44.462-45.989 71.862-108.718 71.862-177.846 0-141.385-114.615-256-256-256-69.128 0-131.857 27.399-177.918 71.932l0.072-0.069zM233.547 124.854v-102.4h51.2v153.6h-51.2v-51.2zM233.547 278.454v-51.2h51.2v51.2h-51.2z" />
<glyph unicode="&#xe908;" glyph-name="arrowup7" d="M0 153.6c0 141.385 114.615 256 256 256s256-114.615 256-256v0c0-141.385-114.615-256-256-256s-256 114.615-256 256v0zM256-51.2c113.108 0 204.8 91.692 204.8 204.8s-91.692 204.8-204.8 204.8v0c-113.108 0-204.8-91.692-204.8-204.8s91.692-204.8 204.8-204.8v0zM273.92 218.624l90.88-90.624-36.096-36.096-72.704 71.936-72.448-71.68-36.096 35.84 108.544 108.544 17.92-17.92z" />
<glyph unicode="&#xe909;" glyph-name="dropdown" d="M142.971 208.458h226.057c12.228 0 18.4-14.857 9.714-23.429l-113.029-112.342c-5.372-5.372-13.942-5.372-19.314 0l-113.028 112.343c-8.8 8.571-2.629 23.429 9.6 23.429zM512 354.743v-402.286c0-30.286-24.571-54.857-54.857-54.857h-402.286c-30.286 0-54.857 24.571-54.857 54.857v402.286c0 30.286 24.571 54.857 54.857 54.857h402.286c30.286 0 54.857-24.571 54.857-54.857zM457.142-40.685v388.571c0 3.772-3.087 6.858-6.858 6.858h-388.571c-3.772 0-6.858-3.087-6.858-6.858v-388.571c0-3.772 3.087-6.858 6.858-6.858h388.571c3.772 0 6.858 3.087 6.858 6.858z" />
<glyph unicode="&#xe90a;" glyph-name="checkmark" d="M435.848 326.134l-263.044-263.044-96.652 96.652c-4.686 4.686-12.284 4.686-16.971 0l-28.284-28.284c-4.686-4.686-4.686-12.284 0-16.971l133.421-133.421c4.686-4.686 12.284-4.686 16.971 0l299.813 299.813c4.686 4.686 4.686 12.284 0 16.971l-28.284 28.284c-4.686 4.686-12.284 4.686-16.97 0z" />
<glyph unicode="&#xe90b;" glyph-name="arrowdown7" d="M512 153.6c0-141.385-114.615-256-256-256s-256 114.615-256 256v0c0 141.385 114.615 256 256 256s256-114.615 256-256v0zM256 358.4c-113.108 0-204.8-91.692-204.8-204.8s91.692-204.8 204.8-204.8v0c113.108 0 204.8 91.692 204.8 204.8s-91.692 204.8-204.8 204.8v0zM238.080 88.576l-90.88 90.624 36.096 36.096 72.704-71.936 72.448 72.192 36.096-36.352-108.544-108.544-17.92 17.92z" />
<glyph unicode="&#xe90c;" glyph-name="filter" d="M423.36 324.267l-140.992-166.698c-3.136-3.69-5.034-8.512-5.034-13.781v-147.669l-42.666 21.334v126.336c0.022 4.842-1.643 9.75-5.035 13.781l-140.992 166.698zM469.334 366.934h-426.666c-11.776 0-21.334-9.558-21.334-21.334 0-5.269 1.898-10.091 5.035-13.781l165.632-195.84v-131.712c0-8.298 4.736-15.51 11.797-19.072l85.334-42.666c10.538-5.269 23.36-1.002 28.63 9.536 1.536 3.115 2.262 6.421 2.24 9.536v174.378l165.632 195.84c7.616 9.002 6.486 22.464-2.517 30.058-4.032 3.413-8.938 5.077-13.781 5.056z" />
<glyph unicode="&#xe90d;" glyph-name="code" horiz-adv-x="576" d="M234.8-50.96l-38.8 9.040c-4.16 0.96-6.72 4.56-5.52 7.92l140.8 387.76c1.2 3.36 5.68 5.36 9.92 4.4l38.8-9.040c4.16-0.96 6.72-4.56 5.52-7.92l-140.8-387.76c-1.2-3.44-5.6-5.36-9.92-4.4zM151.6 19.040l27.2 28.96c3.12 3.28 2.8 8.48-0.48 11.52l-106.16 94.080 106.080 94.080c3.36 3.040 3.6 8.16 0.48 11.52l-27.2 28.96c-3.040 3.2-8.080 3.36-11.28 0.4l-137.76-129.2c-3.36-3.2-3.36-8.48 0-11.68l137.76-129.12c3.28-2.96 8.24-2.72 11.36 0.48zM435.68 18.56l137.68 129.12c3.36 3.2 3.36 8.48 0 11.68l-137.68 129.28c-3.2 3.040-8.32 2.88-11.28-0.4l-27.2-28.96c-3.12-3.28-2.8-8.48 0.48-11.52l106.16-94.16-106.16-94.080c-3.36-3.040-3.6-8.16-0.48-11.52l27.2-28.96c3.12-3.2 8.080-3.44 11.28-0.48z" />
<glyph unicode="&#xe90e;" glyph-name="woocommerce" horiz-adv-x="640" d="M59.396 344.086h520.951c32.967 0 59.658-26.687 59.658-59.657v-198.858c0-32.971-26.69-59.658-59.658-59.658h-186.821l25.64-62.797-112.771 62.797h-246.74c-32.967 0-59.657 26.69-59.657 59.658v198.858c-0.264 32.707 26.426 59.657 59.397 59.657zM595.538 248.864c-9.364 16.39-23.155 26.277-41.626 30.18-4.944 1.040-9.628 1.563-14.051 1.563-24.975 0-45.266-13.010-61.137-39.025-13.528-22.116-20.293-46.571-20.293-73.369 0-20.033 4.164-37.203 12.49-51.513 9.364-16.389 23.155-26.276 41.626-30.178 4.943-1.039 9.625-1.559 14.048-1.559 25.236 0 45.528 13.008 61.138 39.023 13.531 22.372 20.293 46.83 20.293 73.625 0.257 20.293-4.163 37.203-12.489 51.254zM432.675 248.864c-9.368 16.39-23.415 26.277-41.626 30.18-4.945 1.040-9.627 1.563-14.051 1.563-24.975 0-45.267-13.010-61.137-39.025-13.531-22.116-20.293-46.571-20.293-73.369 0-20.033 4.163-37.203 12.488-51.513 9.364-16.389 23.155-26.276 41.627-30.178 4.944-1.039 9.625-1.559 14.048-1.559 25.236 0 45.527 13.008 61.137 39.023 13.531 22.372 20.293 46.83 20.293 73.625 0 20.293-4.163 37.203-12.488 51.254zM562.76 176.797c-3.642-17.169-10.147-29.918-19.77-38.502-7.548-6.765-14.571-9.627-21.076-8.325-6.246 1.303-11.447 6.765-15.353 16.913-3.121 8.065-4.683 16.13-4.683 23.675 0 6.506 0.523 13.008 1.822 18.993 2.346 10.666 6.765 21.073 13.791 30.96 8.588 12.749 17.691 17.951 27.058 16.13 6.242-1.299 11.447-6.766 15.35-16.909 3.121-8.065 4.683-16.13 4.683-23.675-0.004-6.769-0.523-13.275-1.822-19.258zM399.637 176.797c-3.642-17.169-10.147-29.918-19.774-38.502-7.545-6.765-14.567-9.627-21.073-8.325-6.243 1.303-11.447 6.765-15.35 16.913-3.122 8.065-4.683 16.13-4.683 23.675 0 6.506 0.519 13.008 1.822 18.993 2.342 10.666 6.762 21.073 13.791 30.96 8.584 12.749 17.69 17.951 27.055 16.13 6.246-1.299 11.447-6.766 15.353-16.909 3.121-8.065 4.683-16.13 4.683-23.675 0.257-6.769-0.524-13.275-1.822-19.258zM32.28 272.279c15.35-97.56 29.657-163.385 42.928-197.465 5.203-12.49 11.188-18.471 18.212-17.952 10.927 0.779 23.934 15.87 39.284 45.267 8.065 16.649 20.553 41.626 37.463 74.928 14.051-49.173 33.303-86.116 57.499-110.832 6.766-7.026 13.791-10.147 20.553-9.627 5.986 0.523 10.666 3.642 13.791 9.364 2.602 4.945 3.642 10.67 3.122 17.173-1.563 23.675 0.779 56.716 7.286 99.123 6.765 43.708 15.091 75.188 25.236 93.919 2.082 3.902 2.861 7.805 2.602 12.488-0.519 5.986-3.122 10.927-8.065 14.831s-10.407 5.726-16.389 5.204c-7.545-0.519-13.268-4.163-17.17-11.448-16.13-29.4-27.578-77.010-34.34-143.091-9.887 24.975-18.212 54.376-24.715 88.976-2.862 15.35-9.887 22.636-21.336 21.856-7.805-0.519-14.308-5.726-19.513-15.61l-56.976-108.491c-9.368 37.726-18.212 83.776-26.277 138.15-1.823 13.528-9.367 19.773-22.636 18.732-7.285-0.519-12.748-3.121-16.39-8.065-3.645-4.68-5.204-10.662-4.165-17.428z" />
<glyph unicode="&#xe90f;" glyph-name="align_right" horiz-adv-x="448" d="M159.999 329.601v32c0 6.627 5.374 12 12 12h264.002c6.627 0 12-5.373 12-12v-32c0-6.627-5.373-12-12-12h-264.002c-6.627 0-12 5.374-12 12zM11.998 189.601h424.003c6.627 0 12 5.374 12 12v32c0 6.627-5.373 12-12 12h-424.003c-6.628 0-12.001-5.374-12.001-12v-32c0-6.627 5.373-12 12.001-12zM11.998-66.401h424.003c6.627 0 12 5.373 12 12v32c0 6.627-5.373 12-12 12h-424.003c-6.628 0-12.001-5.373-12.001-12v-32c0-6.627 5.373-12 12.001-12zM172 61.599h264.002c6.627 0 12 5.373 12 12v32c0 6.627-5.373 12-12 12h-264.002c-6.627 0-12-5.373-12-12v-32c0-6.627 5.374-12 12-12z" />
<glyph unicode="&#xe910;" glyph-name="align_left" horiz-adv-x="448" d="M288.001 361.601v-32c0-6.627-5.373-12-12-12h-264.002c-6.628 0-12.001 5.374-12.001 12v32c0 6.627 5.373 12 12.001 12h264.002c6.627 0 12-5.373 12-12zM11.998 189.601h424.003c6.627 0 12 5.374 12 12v32c0 6.627-5.373 12-12 12h-424.003c-6.628 0-12.001-5.374-12.001-12v-32c0-6.627 5.373-12 12.001-12zM11.998-66.401h424.003c6.627 0 12 5.373 12 12v32c0 6.627-5.373 12-12 12h-424.003c-6.628 0-12.001-5.373-12.001-12v-32c0-6.627 5.373-12 12.001-12zM276 117.6h-264.002c-6.628 0-12.001-5.373-12.001-12v-32c0-6.627 5.373-12 12.001-12h264.002c6.627 0 12 5.373 12 12v32c0 6.627-5.373 12-12 12z" />
<glyph unicode="&#xe911;" glyph-name="button" d="M455.111 295.822h-398.223c-31.288 0-56.889-25.6-56.889-56.888v-170.667c0-31.288 25.6-56.889 56.889-56.889h398.223c31.288 0 56.889 25.6 56.889 56.889v170.667c0 31.288-25.6 56.888-56.889 56.888zM455.111 68.267h-398.223v170.667h398.223v-170.667z" />
<glyph unicode="&#xe912;" glyph-name="arrow_left" d="M292.784 13.232c-10.704 10.416-115.28 120.192-115.28 120.192-5.712 5.584-8.544 12.88-8.544 20.176 0 7.328 2.848 14.624 8.544 20.176 0 0 104.576 109.776 115.28 120.224 10.704 10.416 29.92 11.136 41.376 0 11.424-11.168 12.32-26.704 0-40.352l-95.952-100.048 95.92-100.016c12.32-13.664 11.424-29.232 0-40.352-11.424-11.168-30.672-10.464-41.344 0z" />
<glyph unicode="&#xe913;" glyph-name="arrow_right" d="M219.216 293.968c10.704-10.416 115.28-120.192 115.28-120.192 5.712-5.584 8.544-12.88 8.544-20.176 0-7.328-2.848-14.624-8.544-20.176 0 0-104.576-109.776-115.28-120.224-10.704-10.416-29.92-11.136-41.376 0-11.424 11.168-12.32 26.704 0 40.352l95.952 100.048-95.92 100.016c-12.32 13.664-11.424 29.232 0 40.352 11.424 11.168 30.672 10.464 41.344 0z" />
<glyph unicode="&#xe914;" glyph-name="report_problem_solid" d="M506.238-9.967c16.407-28.439-4.188-63.988-36.957-63.988h-426.565c-32.833 0-53.333 35.604-36.958 63.988l213.286 369.803c16.415 28.452 57.529 28.401 73.915 0l213.28-369.803zM256 66.489c-22.582 0-40.889-18.307-40.889-40.889s18.306-40.889 40.889-40.889 40.889 18.307 40.889 40.889-18.307 40.889-40.889 40.889zM217.179 213.463l6.594-120.889c0.309-5.657 4.986-10.086 10.65-10.086h43.152c5.665 0 10.342 4.428 10.651 10.086l6.594 120.889c0.334 6.11-4.531 11.248-10.651 11.248h-56.34c-6.119 0-10.983-5.138-10.65-11.248z" />
</font>
</defs>
</svg>
