<?xml version="1.0" standalone="no"?>
<!DOCTYPE svg PUBLIC "-//W3C//DTD SVG 1.1//EN" "http://www.w3.org/Graphics/SVG/1.1/DTD/svg11.dtd" >
<svg xmlns="http://www.w3.org/2000/svg">
<metadata>Generated by IcoMoon</metadata>
<defs>
<font id="icomoon" horiz-adv-x="1024">
<font-face units-per-em="1024" ascent="960" descent="-64" />
<missing-glyph horiz-adv-x="1024" />
<glyph unicode="&#x20;" d="" horiz-adv-x="512" />
<glyph unicode="&#xe600;" d="M512-64c-282.351 0-512 229.581-512 512 0 282.351 229.649 512 512 512 282.419 0 512-229.649 512-512s-229.581-512-512-512zM512 891.733c-244.668 0-443.733-199.066-443.733-443.733s199.066-443.733 443.733-443.733 443.733 199.066 443.733 443.733-199.066 443.733-443.733 443.733zM236.544 482.133h550.98v-68.267h-550.98v68.267z" />
<glyph unicode="&#xe601;" d="M138.119 681.567c3.385-3.595 7.445-6.623 11.967-8.867 4.515-2.241 9.494-3.699 14.73-4.162l679.313-60.11 50.87 15.642-3.923 124.74c-0.14 4.433-1.094 8.757-2.701 12.782s-3.865 7.752-6.615 10.99c-2.752 3.242-5.997 5.995-9.572 8.069-3.578 2.077-7.49 3.47-11.572 3.987l-700.681 88.955-28.99-27.679-3.438-137.695c-0.125-4.991 0.834-9.856 2.67-14.375s4.554-8.683 7.942-12.28zM132.878 394.292c3.442-3.564 7.569-6.511 12.167-8.633 4.592-2.117 9.654-3.407 14.977-3.661l4.217-0.202-4.13-1.595 686.092-33.239 51.699 9.119-6.454 0.329 9.717 1.684-4.036 128.333c-0.143 4.564-1.113 8.978-2.743 13.054-1.628 4.075-3.919 7.817-6.706 11.032-2.787 3.218-6.075 5.912-9.697 7.891-3.624 1.981-7.589 3.245-11.724 3.595l-711.368 60.725-29.247-19.265-3.548-142.133c-0.128-5.154 0.843-10.129 2.708-14.708 1.869-4.579 4.63-8.76 8.076-12.325zM903.352 220.422c-0.149 4.693-1.133 9.195-2.786 13.319s-3.973 7.875-6.798 11.061c-2.827 3.188-6.16 5.817-9.828 7.691-3.677 1.877-7.689 3.001-11.879 3.18l-722.387 30.664-29.509-10.279-3.663-146.749c-0.134-5.322 0.854-10.412 2.75-15.057 1.898-4.643 4.703-8.837 8.209-12.367 3.501-3.527 7.694-6.391 12.374-8.378 4.671-1.986 9.819-3.097 15.234-3.129l699.688-3.976 52.745 1.936-4.155 132.082z" />
<glyph unicode="&#xe602;" d="M512-64c-282.351 0-512 229.581-512 512 0 282.351 229.649 512 512 512 282.419 0 512-229.649 512-512s-229.581-512-512-512zM512 891.733c-244.668 0-443.733-199.066-443.733-443.733s199.066-443.733 443.733-443.733 443.733 199.066 443.733 443.733-199.066 443.733-443.733 443.733zM545.734 723.515l0.771-550.98-68.267-0.096-0.771 550.98 68.267 0.096zM236.544 482.133h550.98v-68.267h-550.98v68.267z" />
<glyph unicode="&#xe603;" d="M512 960c-282.351 0-512-229.649-512-512 0-282.419 229.649-512 512-512 282.419 0 512 229.581 512 512 0 282.351-229.581 512-512 512zM546.543 172.612l-68.267-0.137-0.341 241.323-241.391-0.341-0.068 68.267 241.391 0.341-0.341 241.391 68.267 0.068 0.341-241.391 241.391 0.341 0.068-68.267-241.391-0.273 0.341-241.323z" />
<glyph unicode="&#xe604;" d="M512 960c-282.351 0-512-229.649-512-512 0-282.419 229.649-512 512-512 282.419 0 512 229.581 512 512 0 282.351-229.581 512-512 512zM236.544 413.457l-0.068 68.267 550.98 0.751 0.068-68.267-550.98-0.751z" />
<glyph unicode="&#xe605;" d="M512 960c-282.351 0-512-229.649-512-512s229.649-512 512-512c282.419 0 512 229.649 512 512s-229.581 512-512 512zM467.968 161.075l-242.278 164.181 38.298 56.525 183.979-124.723 258.321 408.713 57.617-36.454-295.936-468.241z" />
<glyph unicode="&#xe606;" d="M512-64c-282.351 0-512 229.649-512 512s229.649 512 512 512 512-229.649 512-512-229.649-512-512-512zM512 891.733c-244.668 0-443.733-199.066-443.733-443.733s199.066-443.733 443.733-443.733 443.733 199.066 443.733 443.733-199.066 443.733-443.733 443.733zM467.968 161.075l-242.278 164.181 38.298 56.525 183.979-124.723 258.253 408.713 57.617-36.454z" />
<glyph unicode="&#xe607;" d="M512 960c-282.351 0-512-229.649-512-512 0-282.419 229.649-512 512-512 282.419 0 512 229.581 512 512 0 282.351-229.581 512-512 512zM730.931 277.333l-48.265-48.265-170.667 170.667-170.667-170.667-48.265 48.265 170.667 170.667-170.667 170.667 48.265 48.265 170.667-170.667 170.667 170.667 48.265-48.265-170.667-170.667 170.667-170.667z" />
<glyph unicode="&#xe608;" d="M512-64c-282.351 0-512 229.649-512 512s229.649 512 512 512 512-229.649 512-512-229.649-512-512-512zM512 891.733c-244.668 0-443.733-199.066-443.733-443.733s199.066-443.733 443.733-443.733 443.733 199.066 443.733 443.733-199.066 443.733-443.733 443.733zM341.349 666.92l389.598-389.598-48.271-48.271-389.598 389.598 48.271 48.271zM682.676 666.968l48.271-48.271-389.598-389.598-48.271 48.271 389.598 389.598z" />
<glyph unicode="&#xe609;" d="M512-64c-282.419 0-512 229.581-512 512 0 282.351 229.581 512 512 512s512-229.649 512-512c0-282.419-229.581-512-512-512zM512 891.733c-244.668 0-443.733-199.066-443.733-443.733s199.066-443.733 443.733-443.733 443.733 199.066 443.733 443.733-199.066 443.733-443.733 443.733zM478.549 760.661h68.267v-608.734h-68.267v608.734zM761.261 448.436l48.271-48.271-280.65-280.65-48.271 48.271 280.65 280.65zM264.89 448.385l295.958-296.042-48.278-48.265-295.958 296.042 48.278 48.265z" />
<glyph unicode="&#xe60a;" d="M1024-64h-1024v1024h1024v-1024zM68.267 4.267h887.467v887.467h-887.467v-887.467zM238.933 721.067h68.267v-546.133h-68.267v546.133z" />
<glyph unicode="&#xe60b;" d="M1024-64h-1024v1024h1024v-1024zM68.267 4.267h887.467v887.467h-887.467v-887.467zM238.933 721.067h341.333v-546.133h-341.333v546.133zM716.8 721.067h68.267v-546.133h-68.267v546.133z" />
<glyph unicode="&#xe60c;" d="M512 960c-282.419 0-512-229.649-512-512 0-282.419 229.581-512 512-512s512 229.581 512 512c0 282.351-229.581 512-512 512zM528.862 119.501l-0.478 0.478-15.838-15.838-295.936 296.004 48.265 48.265 213.675-213.743v525.995h68.267v-526.746l214.494 214.494 48.265-48.265-280.713-280.644z" />
<glyph unicode="&#xe60d;" d="M512-64c-282.419 0-512 229.581-512 512 0 282.351 229.581 512 512 512s512-229.649 512-512c0-282.419-229.581-512-512-512zM512 891.733c-244.668 0-443.733-199.066-443.733-443.733s199.066-443.733 443.733-443.733 443.733 199.066 443.733 443.733-199.066 443.733-443.733 443.733zM479.369 712.738h68.267v-608.734h-68.267v608.734zM264.868 416.235l-48.271 48.271 280.65 280.65 48.271-48.271-280.65-280.65zM761.286 416.307l-295.916 296.084 48.285 48.258 295.916-296.084-48.285-48.258z" />
<glyph unicode="&#xe60e;" d="M512 960c-282.419 0-512-229.649-512-512 0-282.419 229.581-512 512-512s512 229.581 512 512c0 282.351-229.581 512-512 512zM761.242 416.256l-213.675 213.743v-526.063h-68.267v526.814l-214.426-214.494-48.265 48.265 280.644 280.644 0.478-0.478 15.838 15.838 295.936-296.073-48.265-48.196z" />
<glyph unicode="&#xe60f;" d="M992 576h-352v352c0 17.672-14.328 32-32 32h-192c-17.672 0-32-14.328-32-32v-352h-352c-17.672 0-32-14.328-32-32v-192c0-17.672 14.328-32 32-32h352v-352c0-17.672 14.328-32 32-32h192c17.672 0 32 14.328 32 32v352h352c17.672 0 32 14.328 32 32v192c0 17.672-14.328 32-32 32z" />
<glyph unicode="&#xe610;" d="M896-64h-768v832h-128v64h256v128h512v-128h256v-64h-128v-832zM192 0h640v768h-640v-768zM320 832h384v64h-384v-64zM704 64h-64v640h64v-640zM384 64h-64v640h64v-640zM475.008 700.032h64v-640h-64v640z" />
<glyph unicode="&#xe611;" d="M512-64c-282.351 0-512 229.649-512 512s229.649 512 512 512 512.068-229.649 512.068-512-229.717-512-512.068-512zM512 891.733c-244.668 0-443.733-199.066-443.733-443.733s199.066-443.733 443.733-443.733c244.736 0 443.802 199.066 443.802 443.733s-199.066 443.733-443.802 443.733zM557.261 242.449c0-16.043 0.273-29.696 0.956-40.619 0.546-10.923 2.526-19.934 6.144-27.034s9.079-12.629 16.384-16.384c7.441-3.891 18.022-6.758 31.607-8.67 3.482-0.751 6.144-2.458 7.987-5.393 1.707-2.867 2.662-6.281 2.662-10.035 0-3.209-0.956-6.281-2.662-9.148-1.843-2.935-4.506-4.369-7.987-4.369-10.65 0-24.644 1.161-41.711 3.413-17.203 2.253-34.679 3.413-52.429 3.413-18.91 0-37.41-1.161-55.433-3.413-18.022-2.253-35.362-3.413-51.883-3.413-2.935 0-5.325 1.434-7.1 4.369-1.775 2.867-2.662 5.939-2.662 9.148 0 3.823 0.887 7.168 2.662 10.035 1.775 2.935 4.437 4.642 7.987 5.393 15.36 1.911 27.375 4.779 35.908 8.67 8.533 3.823 14.814 9.148 18.637 15.838 3.823 6.827 6.076 15.155 6.622 25.122 0.614 9.967 0.887 22.391 0.887 37.205v155.443c0 27.716-0.614 49.903-1.775 66.628s-3.823 29.423-7.987 38.161c-4.096 8.67-10.308 14.609-18.637 17.818-8.26 3.209-19.524 5.803-33.655 7.714-3.55 0-6.212 1.57-7.987 4.847-1.843 3.209-2.731 6.417-2.731 9.626s0.887 6.417 2.662 9.694c1.775 3.209 4.437 4.847 8.055 4.847 5.871 0.614 13.107 1.297 21.709 1.911 8.533 0.614 17.545 1.434 27.034 2.458 9.489 0.956 19.115 2.253 28.809 3.891 9.762 1.57 18.5 3.345 26.214 5.325 6.554 1.161 11.674 2.594 15.633 4.233 3.755 1.57 6.963 2.458 9.284 2.458 7.1 0 11.674-2.253 13.79-6.758 1.98-4.506 3.072-8.67 3.072-12.561v-309.862zM510.225 670.003c-14.814 0-27.511 4.983-38.161 14.95s-15.974 22.391-15.974 37.205 4.983 27.307 15.087 37.615c10.035 10.24 22.528 15.497 37.274 15.497 14.199 0 25.873-5.325 35.089-15.906s13.722-23.347 13.722-38.161c0-14.131-4.369-26.214-13.312-36.181-8.806-10.035-20.070-15.019-33.724-15.019z" />
<glyph unicode="&#xe612;" d="M934.298 124.279l-360.175 224.734 29.628-413.013h-183.501l28.262 413.013-367.821-224.734-80.691 141.312 393.489 182.409-393.489 185.822 88.337 141.312 362.769-228.284-30.857 413.15h183.364l-32.085-413.013 362.633 230.605 89.702-148.548-394.581-183.501 392.124-177.63-87.108-143.633z" />
<glyph unicode="&#xe613;" d="M0 544v-192c0-17.672 14.328-32 32-32h960c17.672 0 32 14.328 32 32v192c0 17.672-14.328 32-32 32h-960c-17.672 0-32-14.328-32-32z" />
<glyph unicode="&#xe614;" d="M889.129 760.57l-142.863 142.862c-31.113 31.112-92.569 56.568-136.569 56.568h-480c-44 0-80-36-80-80v-864c0-44 36-80 80-80h736c44 0 80 36 80 80v608c0 44-25.456 105.458-56.568 136.57zM843.875 715.314c3.13-3.13 6.25-6.974 9.28-11.314h-163.458v163.456c4.34-3.030 8.184-6.15 11.314-9.28l142.864-142.862zM881.697 16c0-8.672-7.328-16-16-16h-736c-8.672 0-16 7.328-16 16v864c0 8.672 7.328 16 16 16h480c4.832 0 10.254-0.61 16-1.704v-254.296h254.296c1.094-5.746 1.704-11.166 1.704-16v-608zM468.698 558.101h58v-460h-58v460zM267.697 357.102h460.001v-58h-460.001v58z" />
<glyph unicode="&#xe615;" d="M0 474.66h68.271v-529.102h-68.271v529.102zM955.797 475.001h68.271v-529.785h-68.271v529.785zM0.072 5.282l1024.068-1.024-0.068-68.271-1024.068 1.024 0.068 68.271zM477.557 871.589h68.271v-608.774h-68.271v608.774zM760.267 559.33l48.275-48.275-280.668-280.668-48.275 48.275 280.668 280.668zM263.847 559.349l295.936-296.103-48.288-48.261-295.936 296.103 48.288 48.261z" />
<glyph unicode="&#xe616;" d="M0 474.66h68.271v-529.102h-68.271v529.102zM955.797 475.001h68.271v-529.785h-68.271v529.785zM0.072 5.282l1024.068-1.024-0.068-68.271-1024.068 1.024 0.068 68.271zM478.308 823.662h68.271v-608.774h-68.271v608.774zM263.856 527.173l-48.275 48.275 280.668 280.668 48.275-48.275-280.668-280.668zM760.295 527.192l-295.936 296.103 48.288 48.261 295.936-296.103-48.288-48.261z" />
<glyph unicode="&#xe617;" d="M999.722 261.514c0 60.221-43.825 116.646-123.395 158.852-1.508 0.806-3.028 1.571-4.548 2.362l-1.194 139.704-3.995-0.038-0.515 1.319 1.922 5.089-98.518 37.279-1.42-3.732-1.483 3.707-53.248-21.297 2.968-7.413 51.816 20.719 90.8-34.351-88.152-34.288-51.791 20.719-2.965-7.413 50.735-20.304v-305.68l-29.187 11.233-2.865-7.463 34.615-13.317 1.432 3.732 1.533-3.697 95.854 39.944-1.52 3.672 6.643 0.047-1.393 162.835c74.030-39.038 119.877-92.862 119.877-152.216h-0.905l0.528-4.476c0.239-2.061 0.364-4.146 0.364-6.182 0-38.384-42.128-74.824-118.646-102.629-77.775-28.254-181.268-43.812-291.407-43.812s-213.633 15.567-291.407 43.825c-76.505 27.789-118.646 64.239-118.646 102.626 0 2.048 0.126 4.134 0.364 6.182l0.54 4.476h-0.903c0 65.184 55.283 123.672 142.455 163.248v-176.568h3.995l-1.495-3.705 98.518-39.944 1.495 3.707 0.050-3.995v3.904l1.96-3.355 31.951 18.633-4.021 6.898-25.946-15.134v222.026l39.691 16.346-0.528 0.678 2.94 2.274-2.35 5.717-42.92-17.678-91.255 83.855 86.983 37.279 51.351-46.224 5.34 5.93-53.248 47.933-2.676-2.965-1.571 3.669-93.19-39.942 0.729-1.696-1.822-1.973h-3.995v-96.934c-9.31-4.148-18.344-8.519-27.051-13.13-79.57-42.216-123.395-98.631-123.395-158.852 0-1.382 0.025-2.752 0.063-4.134l0.075-2.315c-0.101-1.407-0.151-2.814-0.151-4.209 0-41.99 44.001-81.103 123.898-110.127 78.628-28.57 183.089-44.302 294.133-44.302s215.505 15.731 294.133 44.302c79.897 29.024 123.898 68.137 123.898 110.127 0 1.395-0.050 2.814-0.151 4.234l0.075 2.287c0.050 1.382 0.075 2.752 0.075 4.134l0.063-0.009zM865.057 254.541l-90.326-37.63v305.466l87.913 34.188 2.588-302.451-0.176 0.427zM322.086 521.346l90.527-83.189v-223.973l-90.527 36.701v270.462zM522.94 264.768l62.169 24.903-119.387 46.727 57.218-71.63zM457.103 232.666l126.7-52.595-62.546 78.289-64.154-25.694zM466.35 341.864l115.379-45.157-56.741 73.301-58.638-28.144zM532.678 595.577l-55.032-30.72 106.295-41.588-51.263 72.308zM585.7 405.063l-116.95 46.287 57.821-74.683 59.128 28.396zM528.104 484.696l-57.055-28.534 113.318-44.857-56.263 73.39zM582.81 518.004l-105.026 41.098 51.878-67.672 53.147 26.574zM459.566 344.515l62.081 29.804-61.365 79.255-3.267-1.344-5.956-104.385 8.506-3.33zM469.868 525.417l-5.34-5.943-3.48 3.141-3.505-61.541 2.827 1.156 2.35-5.717 1.093 0.842-0.452 0.892 61.465 30.733-57.068 74.432 2.149 1.721-0.013 2.563h0.025v-2.525l0.917 2.337 0.402-0.151 58.349 32.567-45.91 64.744 4.347 3.078 46.25-65.222 51.464 28.722 2.588-4.649-50.961-28.446 54.504-76.857-0.199-0.151 0.576-1.143 1.093-0.427-0.389-0.98 0.603-1.219-1.343-0.666-0.817-2.086-1.886 0.741-56.527-28.257 61.49-80.211-2.061-1.734 1.093-2.285-63.603-30.532 61.504-79.432 8.165-3.204-3.606-1.445 2.262-2.258-3.769-3.769-3.87 3.87-64.166-25.707 68.011-85.121-3.105-4.121-145.318 60.319 6.697 5.139 65.071 26.071-66.791 83.6-6.697-117.276 2.262 1.319 4.021-6.898-6.835-3.983-1.671-29.388 148.951-63.124v-0.377l0.451 0.176 4.171-1.772 0.038 3.455 144.566 58.208-1.885 32.441-3.656 1.407 2.865 7.451 0.276-0.11-18.167 313.38-3.669 1.47 2.965 7.413 0.201-0.075-1.607 27.78-1.245-0.503-2.965 7.413 3.732 1.495-5.001 86.318-117.703-42.342-110.19 41.94-14.311 5.139-8.242-144.441 8.23-7.388zM594.319 719.085l19.324-8.581v5.78l-19.186 8.531-26.084-9.976v-5.667l25.946 9.913zM594.368 630.204l117.707 42.342-85.113 37.831v-5.78l70.925-31.524-103.455-37.216-109.135 41.538 69.783 26.687v5.667l-84.621-32.366 123.91-47.179zM613.643 679.545h13.318v61.239h-2.664v63.903h-7.991v-63.903h-2.664v-61.239zM555.068 655.585h13.318v61.239h-2.664v63.903h-7.991v-63.903h-2.664v-61.239zM1115.869 223.92c-32.133 391.050-261.156 685.948-532.733 685.948-130.923 0-256.949-69.125-354.882-194.629-96.333-123.452-159.029-292.776-176.566-476.837-1.435-7.038-2.166-14.224-2.166-21.334 0-63.205 56.377-121.905 158.753-165.294 99.879-42.341 232.487-65.641 373.399-65.641 140.916 0 273.523 23.318 373.402 65.641 100.735 42.689 156.93 100.214 158.711 162.257h2.882l-0.814 9.893 0.014-0.003zM1096.109 222.53c0.113-1.779 0.182-3.617 0.182-5.464 0-55.288-52.5-107.994-147.839-148.4-97.825-41.453-228.090-64.295-366.777-64.295-138.692 0-268.954 22.844-366.776 64.295-95.34 40.409-147.839 93.112-147.839 148.4 0 5.981 0.635 12.030 1.875 17.978l0.152 1.046c17.136 180.753 78.495 346.834 172.772 467.663 94.539 121.159 215.736 187.888 341.265 187.888 260.123 0 480.066-282.767 514.392-659.377h-2.056l0.633-9.733h0.016v-0.002zM581.674-34.285c-143.611 0-279.051 23.887-381.368 67.26-110.4 46.79-171.201 112.169-171.201 184.092 0 8.101 0.792 16.271 2.356 24.309 18.038 187.474 82.19 360.186 180.695 486.424 101.891 130.574 233.642 202.485 370.98 202.485 137.789 0 270.005-72.528 372.284-204.224 100.727-129.698 164.936-307.434 180.797-500.469l1.816-22.088h-0.016l0.815-9.893h-6.782c-11.812-62.604-70.915-119.068-169.006-160.636-102.354-43.374-237.794-67.26-381.371-67.26zM583.124 871.226c-119.1 0-234.579-63.936-325.169-180.031-91.912-117.799-151.769-280.108-168.542-457.031l-0.49-3.29c-0.96-4.599-1.445-9.246-1.445-13.81 0-45.898 49.347-93.137 135.389-129.604 95.383-40.417 222.811-62.676 358.808-62.676s263.426 22.259 358.811 62.676c86.040 36.467 135.388 83.706 135.388 129.604 0 0.931-0.027 1.915-0.072 2.935l-2.127 32.68h1.247c-19.046 169.709-77.618 324.515-166.031 437.952-90.773 116.458-206.465 180.595-325.769 180.595zM581.674-27.452c-142.721 0-277.212 23.693-378.701 66.715-107.715 45.653-167.035 108.797-167.035 177.804 0 7.77 0.771 15.613 2.293 23.324 17.868 186.329 81.535 357.902 179.313 483.204 100.567 128.88 230.403 199.856 365.592 199.856 278.707 0 513.553-300.255 546.269-698.421l1.209-14.696h-0.011l0.814-9.89h-5.166c-8.787-62.467-67.048-119.304-165.874-161.178-101.53-43.025-236.024-66.719-378.704-66.719zM583.124 878.058c-121.25 0-238.644-64.87-330.556-182.661-92.703-118.812-153.063-282.385-169.957-460.588l-0.377-2.535c-1.055-5.060-1.589-10.174-1.589-15.208 0-49.491 49.562-97.754 139.555-135.894 96.203-40.764 224.578-63.215 361.475-63.215s265.269 22.451 361.48 63.215c89.993 38.139 139.551 86.405 139.551 135.894 0 1.066-0.030 2.202-0.086 3.399l-1.66 25.383h1.572c-18.262 173.921-77.75 332.875-168.25 448.985-92.097 118.156-209.703 183.225-331.157 183.225zM581.674-47.869c-145.397 0-282.72 24.27-386.672 68.338-115.74 49.051-179.483 118.872-179.483 196.599 0 8.746 0.834 17.571 2.481 26.247 18.363 189.756 83.494 364.75 183.447 492.841 104.522 133.946 240.075 207.713 381.688 207.713 141.213 0 276.686-73.775 381.464-207.739 103.253-132.010 169.009-312.928 185.154-509.429l3.026-36.787h-0.013l0.814-9.89h-10.721c-7.919-29.214-25.201-56.903-51.546-82.531-30.128-29.303-71.499-55.219-122.971-77.029-103.989-44.065-241.311-68.333-386.67-68.333zM583.137 903.035c-128.76 0-252.881-68.187-349.495-192-95.405-122.263-157.584-290.1-175.085-472.595l-0.097-1.013-0.196-0.996c-1.264-6.408-1.907-12.924-1.907-19.366 0-60.287 54.899-116.755 154.585-159 99.026-41.979 230.689-65.099 370.735-65.099 140.008 0 271.673 23.12 370.735 65.099 91.337 38.702 145.898 90.274 153.622 145.223l2.469 17.571h0.752l-0.602 7.314c-16.167 186.768-78.661 358.072-176.216 482.799-96.872 123.855-220.922 192.063-349.3 192.063zM581.674-2.461c-139.572 0-270.774 23.023-369.441 64.831-47.129 19.976-84.072 42.807-109.804 67.864-28.005 27.269-42.204 56.483-42.204 86.831 0 6.226 0.636 12.531 1.894 18.757l0.217 1.456c17.326 181.82 79.159 348.952 174.135 470.679 95.865 122.858 218.976 190.519 346.652 190.519 127.884 0 251.21-67.864 347.257-191.092 92.568-118.764 153.817-281.916 172.459-459.402l2.368-22.548h-2.452l0.258-3.995c0.074-1.538 0.107-3.001 0.107-4.369 0-30.345-14.199-59.562-42.202-86.831-25.73-25.055-62.671-47.888-109.8-67.864-98.67-41.81-229.875-64.834-369.444-64.834zM583.124 857.641c-114.825 0-226.5-62.079-314.459-174.804-90.34-115.784-149.196-275.582-165.728-449.954l-0.13-1.081-0.586-3.7c-0.77-3.688-1.159-7.4-1.159-11.035 0-40.183 46.328-82.862 127.105-117.097 93.74-39.721 219.287-61.597 353.508-61.597 134.218 0 259.765 21.876 353.514 61.597 80.773 34.235 127.102 76.915 127.102 117.097 0 0.71-0.020 1.468-0.055 2.258l-3.066 46.941h0.446c-20.469 161.187-77.403 308.199-161.437 416.014-88.143 113.083-200.032 175.36-315.054 175.36zM581.674-29.998c-142.903 0-277.594 23.736-379.262 66.838-108.602 46.023-168.412 110.030-168.412 180.227 0 7.923 0.782 15.922 2.323 23.781 17.945 186.822 81.808 358.877 179.875 484.55 100.943 129.359 231.256 200.6 366.938 200.6 279.698 0 515.37-301.238 548.198-700.708l1.439-17.504h-0.013l0.812-9.891h-5.728c-9.92-62.618-68.446-119.338-166.906-161.062-101.709-43.096-236.4-66.832-379.265-66.832zM583.124 875.512c-120.755 0-237.672-64.605-329.21-181.919-92.385-118.402-152.538-281.443-169.381-459.085l-0.429-2.884c-1.011-4.844-1.523-9.742-1.523-14.561 0-47.602 50.364-96.247 138.18-133.464 96.020-40.69 224.196-63.099 360.913-63.099s264.894 22.409 360.914 63.099c87.814 37.217 138.176 85.865 138.176 133.464 0 1.002-0.027 2.070-0.075 3.184l-1.841 28.144h1.461c-18.565 172.236-77.697 329.571-167.375 444.634-91.72 117.68-208.847 182.486-329.81 182.486zM581.674-50.415c-145.579 0-283.1 24.311-387.232 68.457-116.628 49.427-180.859 120.11-180.859 199.025 0 8.891 0.843 17.865 2.51 26.692 18.438 190.257 83.77 365.744 184.009 494.199 104.896 134.427 240.927 208.458 383.034 208.458 141.692 0 277.625-74.008 382.756-208.389 103.609-132.434 169.59-313.933 185.79-511.062l3.254-39.592h-0.016l0.812-9.891h-11.529c-8.333-29.289-25.911-57.019-52.427-82.633-30.272-29.245-71.617-55.087-122.875-76.808-104.17-44.145-241.691-68.456-387.227-68.456zM583.137 905.582c-129.255 0-253.851-68.451-350.841-192.744-95.691-122.629-158.071-290.945-175.649-473.944l-0.096-0.994-0.192-0.982c-1.288-6.573-1.941-13.252-1.941-19.853 0-61.478 55.389-118.806 155.962-161.428 99.207-42.056 231.067-65.217 371.296-65.217 140.189 0 272.051 23.161 371.294 65.214 91.012 38.568 145.958 90.224 154.707 145.457l2.726 17.223h1.008l-0.799 9.734c-16.166 187.554-78.901 359.579-176.88 484.817-97.228 124.276-221.737 192.718-350.596 192.718zM581.674 0.085c-139.394 0-270.399 22.983-368.88 64.715-46.020 19.506-82.437 42.033-108.239 66.954-27.733 26.789-42.392 56.289-42.392 85.311 0 6.011 0.614 12.101 1.828 18.112l0.267 1.801c17.276 181.262 78.901 347.857 173.557 469.171 95.494 122.384 218.126 189.781 345.309 189.781 127.391 0 250.239-67.6 345.914-190.348 91.694-117.645 152.625-279.233 171.57-454.997l2.437-22.608h-2.398l0.441-6.83c0.063-1.428 0.096-2.799 0.096-4.083 0-29.022-14.656-58.525-42.389-85.311-25.804-24.922-62.219-47.448-108.236-66.954-98.486-41.73-229.491-64.713-368.885-64.713zM583.124 855.095c-114.33 0-225.53-61.815-313.113-174.061-90.019-115.373-148.672-274.638-165.151-448.452l-0.13-1.081-0.638-4.047c-0.724-3.472-1.092-6.969-1.092-10.386 0-38.436 47.002-81.303 125.731-114.668 93.555-39.645 218.9-61.481 352.947-61.481 134.045 0 259.391 21.832 352.949 61.481 78.725 33.365 125.727 76.231 125.727 114.668 0 0.658-0.017 1.357-0.044 2.086l-3.248 49.659h0.269c-20.72 159.488-77.318 304.953-160.492 411.665-87.775 112.602-199.184 174.617-313.715 174.617zM581.674-43.583c-144.684 0-281.258 24.119-384.564 67.917-113.942 48.288-176.693 116.736-176.693 192.733 0 8.571 0.823 17.221 2.448 25.727 18.273 189.104 83.12 363.445 182.622 490.961 103.575 132.729 237.692 205.827 377.649 205.827 286.832 0 528.327-306.598 561.735-713.178l2.651-32.199h-0.016l0.815-9.893h-9.376c-7.361-29.947-24.783-58.34-51.918-84.552-29.666-28.659-70.307-54.036-120.793-75.432-103.344-43.792-239.918-67.911-384.561-67.911zM583.137 912.414c-131.405 0-257.916-69.385-356.228-195.372-96.481-123.64-159.362-293.217-177.062-477.493l-0.192-1.316c-1.374-7-2.070-14.122-2.070-21.168 0-64.393 56.868-123.961 160.129-167.721 100.030-42.408 232.837-65.761 373.961-65.761 141.084 0 273.893 23.353 373.961 65.757 93.269 39.525 149.656 93.033 158.789 150.68l1.814 11.457h2.584l-0.812 9.893h0.016l-0.231 2.803c-32.242 392.363-262.094 688.24-534.658 688.24zM581.674 6.92c-138.499 0-268.557 22.792-366.213 64.174-45.244 19.172-80.96 41.236-106.158 65.574-26.745 25.832-40.307 52.884-40.307 80.397 0 5.613 0.581 11.31 1.728 16.932l0.32 2.153c17.132 180.048 78.265 345.46 172.161 465.799 94.167 120.684 214.886 187.147 339.919 187.147 125.237 0 246.17-66.665 340.519-187.716 90.927-116.654 151.36-277.009 170.174-451.529l1.622-15.040h-2.086l0.905-13.934c0.063-1.333 0.093-2.61 0.093-3.812 0-27.516-13.56-54.563-40.305-80.393-25.195-24.34-60.912-46.402-106.154-65.577-97.666-41.384-227.719-64.176-366.218-64.176zM583.124 861.927c-116.48 0-229.594-62.75-318.5-176.69-90.811-116.386-149.966-276.912-166.566-452.010l-0.088-0.718-0.567-3.656c-0.82-3.933-1.238-7.897-1.238-11.785 0-41.268 48.558-86.486 129.896-120.958 94.381-39.997 220.674-62.021 355.614-62.021s261.233 22.024 355.615 62.021c81.337 34.472 129.893 79.687 129.893 120.958 0 0.766-0.020 1.583-0.055 2.433l-2.777 42.483h0.722c-20.040 163.694-77.603 313.319-162.855 422.698-89.091 114.297-202.411 177.245-319.094 177.245zM1159.782 150.864c-1.886-2.274-3.967-4.773-6.201-7.438-15.104-18.028-37.139-43.636-52.367-58.349-31.471-30.403-74.205-57.167-127.012-79.545-105.811-44.838-245.213-69.53-392.528-69.53-147.36 0-286.764 24.697-392.534 69.536-121.968 51.688-189.14 126.813-189.14 211.53 0 9.525 0.884 19.142 2.631 28.601 18.765 192.559 85.074 370.331 186.761 500.646 107.528 137.797 247.362 213.685 393.745 213.685 145.113 0 284.308-75.256 391.941-211.905 90.863-115.36 153.43-267.322 179.896-434.536 4.448-28.097 7.876-56.625 10.246-85.482l4.47-54.288h-0.017zM583.124 841.51c-110.055 0-217.451-59.959-302.404-168.834-88.446-113.355-146.099-270.105-162.337-441.375l-0.237-1.924-0.755-4.694c-0.536-2.566-0.807-5.129-0.807-7.617 0-31.824 46.1-71.923 117.444-102.158 91.913-38.953 215.378-60.403 347.648-60.403s255.731 21.451 347.648 60.403c71.342 30.236 117.441 70.336 117.441 102.158 0 0.43-0.011 0.886-0.031 1.359l-3.465 53.047c-20.874 155.237-76.467 297.13-157.154 400.654-85.138 109.232-192.744 169.386-302.991 169.386z" horiz-adv-x="1170" />
<glyph unicode="&#xe618;" d="M102.4 857.6h819.2v-204.8h-819.2v204.8zM102.4 550.4h819.2v-204.8h-819.2v204.8zM102.4 243.2h819.2v-204.8h-819.2v204.8z" />
<glyph unicode="&#xe619;" d="M1024 765.584c-37.68-16.704-78.16-28-120.656-33.072 43.376 26 76.688 67.168 92.368 116.224-40.592-24.080-85.552-41.552-133.408-50.976-38.32 40.832-92.928 66.336-153.344 66.336-116.016 0-210.080-94.064-210.080-210.080 0-16.464 1.856-32.496 5.44-47.872-174.592 8.768-329.408 92.4-433.024 219.504-18.080-31.024-28.448-67.12-28.448-105.616 0-72.896 37.088-137.2 93.456-174.864-34.432 1.088-66.832 10.544-95.152 26.272-0.016-0.88-0.016-1.76-0.016-2.64 0-101.792 72.416-186.688 168.528-206-17.632-4.8-36.192-7.376-55.344-7.376-13.536 0-26.704 1.328-39.52 3.776 26.736-83.456 104.32-144.208 196.256-145.888-71.904-56.352-162.48-89.936-260.912-89.936-16.96 0-33.68 0.992-50.112 2.944 92.976-59.616 203.408-94.4 322.048-94.4 386.416 0 597.728 320.128 597.728 597.744 0 9.104-0.208 18.176-0.608 27.184 41.056 29.616 76.672 66.624 104.832 108.752z" />
<glyph unicode="&#xe61a;" d="M474.795 761.344h68.267v-694.34h-68.267v694.34zM508.928 960l170.667-204.8h-341.333zM1020.928 448l-204.8-170.667v341.333zM338.261 140.8h341.333l-170.667-204.8-170.667 204.8zM0 435.166l204.8 170.667v-341.333zM201.728 482.133h614.4v-68.267h-614.4v68.267z" horiz-adv-x="1021" />
<glyph unicode="&#xe61b;" d="M0 960h704v-64h-704v64zM640 960h64v-256h-64v256zM192 768h704v-64h-704v64zM832 768h64v-640h-64v640zM0 960h64v-832h-64v832zM0 192h256v-64h-256v64zM192 768h64v-832h-64v832zM192 0h512v-64h-512v64zM640 192h64v-256h-64v256zM640 192h256v-64h-256v64zM384 576h320v-64h-320v64zM384 448h320v-64h-320v64zM384 320h192v-64h-192v64zM700.992-64l-47.68 40.896 195.008 192.128 47.68-40.896z" horiz-adv-x="896" />
<glyph unicode="&#xe61c;" d="M188.608 828.608c77.424 0 154.496 0.048 231.552-0.016 73.92-0.064 113.136-39.328 113.152-113.472 0.064-223.008 0.080-446 0.016-669.008-0.016-69.056-40.56-109.696-110.208-109.904-104.32-0.288-208.64-0.288-312.96-0.016-69.568 0.176-110.096 40.848-110.128 110.016-0.064 219.232-0.032 438.448-0.016 657.664 0.016 77.984 19.232 104.16 94.736 126.928 0 26.352-0.048 53.456 0.016 80.544 0.080 39.632 8.32 48.592 44.64 48.672 37.104 0.080 45.408-8.624 45.568-47.52 0.112-25.68 0.352-51.376 0.64-77.072 0.016-1.328 1.12-2.656 2.992-6.816zM265.888 434.864c40.816 0 81.632-0.512 122.448 0.128 47.392 0.736 77.52 31.472 77.824 78.848 0.304 46.112 0.272 92.208-0.032 138.32-0.32 50.288-30.256 80.208-80.752 80.384-78.608 0.288-157.216 0.224-235.824 0.016-51.84-0.128-82.176-29.76-82.752-81.136-0.512-45.344-0.496-90.704-0.016-136.048 0.528-50.032 30.912-80.016 81.2-80.464 39.296-0.352 78.608-0.080 117.904-0.048zM166.784 170.32c-34.56 0.112-34.976-0.304-35.072-35.264-0.080-29.552 1.472-31.152 29.872-31.296 34.736-0.176 36.064 0.816 36.224 27.168 0.224 38.224-0.608 39.296-31.008 39.392zM367.488 103.76c33.040-0.048 34.416 1.104 34.4 29.088-0.016 36.864-0.528 37.456-32.992 37.488-32.64 0.016-32.944-0.288-33.088-34.912-0.128-30.576 0.912-31.6 31.696-31.648zM367.856 198.56c33.264-0.032 34.032 0.624 34.016 29.008-0.032 36.384-0.528 36.944-33.344 36.944-32.24-0.016-32.656-0.448-32.736-35.152-0.064-30.256 0.48-30.784 32.064-30.8zM368.048 75.488c-32.144-0.016-32.144-0.016-32.256-35.232-0.096-29.52 0.832-30.384 32.56-30.384 32.448-0.016 33.6 1.008 33.536 29.536-0.096 36.112-0.096 36.112-33.84 36.080zM164.592 198.56c32.336 0 33.088 0.624 33.184 27.504 0.128 37.552-0.56 38.384-31.76 38.448-33.936 0.080-34.288-0.272-34.32-35.92-0.032-29.584 0.448-30.016 32.912-30.032zM165.376 75.488c-33.456 0.016-33.68-0.224-33.696-36.144-0.016-28.272 1.184-29.392 31.312-29.472 33.824-0.080 34.768 0.672 34.784 28.16 0.032 37.216-0.16 37.44-32.4 37.456zM299.328 135.072c-0.208 35.376-0.208 35.376-34.704 35.248-30.576-0.112-30.736-0.32-30.544-39.408 0.128-26.368 1.44-27.36 35.84-27.152 28.448 0.176 29.584 1.376 29.424 31.328zM166.032 357.936c-34.144 0.064-34.144 0.064-34.336-33.52-0.176-30.688 0.544-31.392 31.792-31.424 33.92-0.048 34.32 0.288 34.272 28.88-0.048 36.016-0.048 36.016-31.728 36.080zM401.84 327.28c-0.384 31.12-0.432 31.168-39.472 30.656-26.288-0.352-27.072-1.504-26.592-38.896 0.336-25.856 1.264-26.48 39.424-26.048 26.272 0.288 27.056 1.28 26.64 34.288zM267.712 264.512c-33.568 0.080-33.568 0.080-33.632-36.72-0.048-28.608 0.464-29.12 29.296-29.216 35.264-0.128 35.824 0.288 35.968 27.088 0.192 38.32-0.192 38.784-31.632 38.848zM299.312 41.456c-0.288 34.416-0.288 34.416-38.288 34.032-26.768-0.272-27.056-0.688-26.944-38.544 0.080-26.736 0.832-27.296 35.952-27.072 28.656 0.176 29.52 1.104 29.264 31.584zM267.392 292.992c31.296 0.032 31.968 0.624 31.936 28.608-0.032 36.368-0.032 36.368-33.488 36.336-31.888-0.016-31.888-0.016-31.776-37.824 0.080-27.088 0.16-27.168 33.312-27.136z" horiz-adv-x="528" />
<glyph unicode="&#xe61d;" d="M847.92 783.968c-73.824 73.888-129.28 62.816-129.28 62.816l-554.288-554.288-51.712-243.872 243.872 51.712 554.24 554.24c0 0 11.104 55.456-62.816 129.376zM341.968 129.696l-83.104-17.92c-8.032 15.008-17.712 30-35.376 47.712-17.664 17.664-32.72 27.296-47.712 35.328l17.968 83.152 24.016 24.016c0 0 45.264-0.928 96.304-51.968 51.104-51.104 52.016-96.352 52.016-96.352l-24.112-23.968z" />
<glyph unicode="&#xe61e;" d="M864 960c88.368 0 160-71.632 160-160 0-36.016-11.904-69.264-32-96l-64-64-224 224 64 64c26.736 20.096 59.984 32 96 32zM64 224l-64-288 288 64 592 592-224 224-592-592zM715.584 596.416l-448-448-55.152 55.152 448 448 55.152-55.152z" />
<glyph unicode="&#xe61f;" d="M880.64 829.232c25.696-12.576 48.096-30.48 64.496-52.48 34.544-46.304 44.24-109.376 28.832-187.472-15.552-79.024-50.416-145.728-101.168-194.048-9.28-9.696-19.216-18.752-29.808-27.088-54.352-42.8-122.992-65.424-198.512-65.424h-240.064l-64.56-302.72h-132.432l10.080 46.304h46.128l64.56 302.72h188.272c180.256 0 330.944 111.072 371.264 299.936 45.728 213.84-107.6 311.040-239.408 311.040h-449.28l-199.056-913.696h152.032l-24.032-110.304h263.664l64.56 302.72h188.272c180.256 0 330.944 111.072 371.264 299.936 33.712 157.68-40.8 251.936-135.12 290.56zM422.336 773.92h129.136c64.592 0 107.6-55.536 88.784-124.96-16.128-69.44-83.392-124.976-150.64-124.976h-123.76l56.48 249.936z" />
<glyph unicode="&#xe620;" d="M1024 448c0 140.8-49.92 261.76-149.76 362.24-99.84 99.84-220.8 149.76-362.24 149.76-140.8 0-261.76-49.92-362.24-149.76-99.84-100.48-149.76-221.44-149.76-362.24 0-141.44 49.92-262.4 149.76-362.24 100.48-99.84 221.44-149.76 362.24-149.76 141.44 0 262.4 49.92 362.24 149.76s149.76 220.8 149.76 362.24zM887.68 448c0-103.68-37.12-192-110.080-265.6-73.6-73.6-161.92-110.080-265.6-110.080s-192 36.48-265.6 110.080c-72.96 73.6-110.080 161.92-110.080 265.6s37.12 192 110.080 265.6c73.6 72.96 161.92 110.080 265.6 110.080s192-37.12 265.6-110.080c72.96-73.6 110.080-161.92 110.080-265.6zM382.72 670.080c-28.16 0-52.48-10.24-72.32-30.080-19.84-20.48-30.080-44.16-30.080-72.32s10.24-52.48 30.080-72.32c19.84-20.48 44.16-30.080 72.32-30.080s52.48 9.6 72.32 30.080c19.84 19.84 30.080 44.16 30.080 72.32s-10.24 51.84-30.080 72.32c-19.84 19.84-44.16 30.080-72.32 30.080zM641.92 670.080c-28.16 0-52.48-10.24-72.32-30.080-19.84-20.48-30.080-44.16-30.080-72.32s10.24-52.48 30.080-72.32c19.84-20.48 44.16-30.080 72.32-30.080s52.48 9.6 72.32 30.080c20.48 19.84 30.080 44.16 30.080 72.32s-9.6 51.84-30.080 72.32c-19.84 19.84-44.16 30.080-72.32 30.080zM382.72 430.72c-28.16 0-52.48-10.24-72.32-30.080s-30.080-44.16-30.080-72.32c0-28.16 10.24-52.48 30.080-72.32s44.16-30.080 72.32-30.080 52.48 10.24 72.32 30.080 30.080 44.16 30.080 72.32c0 28.16-10.24 52.48-30.080 72.32s-44.16 30.080-72.32 30.080zM641.92 430.72c-27.52 0-51.84-9.6-72.32-30.080-20.48-20.496-30.080-44.16-30.080-72.96 0-27.52 9.6-51.84 30.080-71.68s44.8-30.080 72.32-30.080c28.8 0 52.48 10.24 72.32 30.080 20.48 19.84 30.080 44.16 30.080 71.68 0 28.8-9.6 52.48-30.080 72.96-19.84 20.48-43.52 30.080-72.32 30.080z" />
<glyph unicode="&#xe621;" d="M559.072 896c0 0-200.96 0-267.936 0-120.128 0-233.168-91.008-233.168-196.416 0-107.728 81.888-194.672 204.080-194.672 8.496 0 16.752 0.176 24.848 0.752-7.936-15.184-13.6-32.288-13.6-50.048 0-29.936 16.096-54.208 36.464-74.032-15.392 0-30.24-0.448-46.448-0.448-148.784 0-263.296-94.752-263.296-193.024 0-96.784 125.536-157.312 274.336-157.312 169.632 0 263.312 96.24 263.312 193.024 0 77.6-22.896 124.080-93.68 174.128-24.224 17.152-70.528 58.832-70.528 83.344 0 28.72 8.192 42.864 51.424 76.64 44.32 34.624 75.68 83.296 75.68 139.92 0 67.408-30.016 133.104-86.368 154.768h84.96l59.968 43.344zM465.488 240.544c2.128-8.976 3.28-18.208 3.28-27.632 0-78.208-50.384-139.312-194.976-139.312-102.848 0-177.12 65.104-177.12 143.296 0 76.64 92.128 140.448 194.96 139.328 24-0.256 46.368-4.112 66.672-10.688 55.824-38.832 95.872-60.768 107.168-105.008zM300.816 532.224c-69.040 2.064-134.64 77.232-146.544 167.856-11.92 90.672 34.368 160.048 103.392 157.984 69.008-2.080 134.64-74.816 146.56-165.456 11.904-90.656-34.384-162.464-103.392-160.384zM832 704v192h-64v-192h-192v-64h192v-192h64v192h192v64z" />
<glyph unicode="&#xe622;" d="M551.216 863.792c0.064 0.032 0.112 0.064 0.16 0.080l-0.16-0.080c0 0 0 0 0 0zM905.84 216.624c-0.064 1.712-0.208 3.344-0.4 4.88-0.128 1.024-0.32 2.032-0.576 3.008-0.416 2.272-0.944 4.528-1.712 6.688l-0.016 0.032c-1.568 4.464-4 8.736-7.136 12.352-3.104 3.6-6.832 6.448-10.576 8.432l-0.112 0.080c-3.984 2.080-7.888 3.248-11.424 3.92-1.040 0.192-2.016 0.288-2.976 0.4 4.528 19.424-1.136 34.24-4.8 41.168 0.288 0.272 0.592 0.544 0.848 0.8 4.832 4.672 8.944 9.152 12.416 13.632l0.656 0.896c2.784 4 4.624 8.080 5.792 11.84 0.992 3.232 1.488 6.144 1.776 8.8h0.032l0.032 0.16 0.016 0.384 0.112 0.816h-0.064l0.048 0.928h0.032l0.016 0.544c0.016 0.544 0.032 1.104 0.032 1.712 0.032 1.104 0.032 2.24-0.032 3.488-0.256 6.016-1.36 13.824-5.296 22.288-1.968 4.208-4.704 8.544-8.336 12.56-3.616 4.016-8.112 7.664-13.296 10.56l0.032-0.016c-0.384 0.208-0.672 0.416-1.024 0.608-10.752 15.824-23.040 28.096-33.92 37.408-5.648 4.832-10.912 8.848-15.408 12.144-4.448 3.264-8.208 5.84-10.288 7.392l0.032-0.016c-4.8 3.52-8.352 5.632-10.048 6.592-3.92 2.384-6.848 4.288-8.608 5.616-1.376 1.040-2.048 1.712-2.304 1.984l-0.128 0.176c-0.032 0.032-0.176 0.336-0.384 1.392-0.224 1.056-0.464 2.864-0.56 5.472-0.176 4.112-0.032 10.128 0.416 18.080 0.72 12.768 2.176 30.416 3.664 54.304 0.496 7.6 0.576 14.752 0.288 21.504-0.448 10.816-1.84 20.624-4.112 29.504l-0.016 0.048c-0.496 2.016-1.072 4-1.68 5.968l-0.016 0.016-0.016 0.032c-0.448 1.456-0.864 2.56-1.104 3.264l0.016-0.048c-0.464 1.296-0.928 2.592-1.456 3.888l-0.016 0.064c-0.256 0.64-0.592 1.456-1.024 2.48l-0.016 0.032-0.016 0.016-0.016 0.032c-0.816 1.92-1.744 3.968-2.912 6.192l-0.32 0.592-0.592 1.056-0.416 0.704c-2.176 3.584-4.48 6.848-6.896 9.904-1.216 5.488-3.328 13.632-6.832 22.864-3.104 8.128-7.28 17.152-13.216 26.048-2.064 3.072-4.4 6.112-6.96 9.072l0.848 0.88c1.2 1.264 29.68 31.088 51.984 69.792 41.568 72.16 27.728 116.272 8.816 140.56l-0.544 0.672-0.576 0.64c-18.24 20.272-43.056 32.496-73.744 36.304-63.568 7.904-135.44-23.28-154.288-32.16l-34.384 37.984c-3.024 3.328-6.4 6.304-10 8.912-3.632 2.608-7.52 4.88-11.6 6.768-8.192 3.792-17.168 6.176-26.72 7.36-19.168 2.352-40.704 0.064-64.112-5.936-35.088-9.056-74.496-26.576-115.696-51.28-41.168-24.72-84.080-56.656-125.728-94.64-50.896-46.432-92.944-95.52-123.584-142.112-15.312-23.296-27.776-45.984-37.024-67.488-9.248-21.52-15.328-41.856-17.664-60.688-1.696-13.68-1.424-26.608 1.312-38.528 1.2-5.216 2.928-10.224 5.136-14.96 2.832-6.096 6.496-11.76 11.056-16.752l0.112-0.128 39.856-41.744-0.224-0.4c-0.432-0.752-0.832-1.52-1.264-2.272-0.608-1.136-1.232-2.272-1.824-3.408-0.4-0.784-0.784-1.568-1.152-2.352-0.576-1.168-1.12-2.32-1.664-3.504-0.368-0.784-0.704-1.584-1.056-2.4-0.528-1.2-1.024-2.4-1.52-3.616-0.32-0.8-0.624-1.6-0.944-2.416-0.464-1.232-0.912-2.496-1.344-3.744-0.272-0.816-0.56-1.616-0.816-2.448-0.416-1.28-0.8-2.56-1.184-3.856-0.112-0.368-0.224-0.704-0.336-1.072-0.128-0.448-0.256-0.928-0.384-1.376-0.368-1.328-0.688-2.672-1.024-4-0.192-0.8-0.4-1.6-0.592-2.432-0.128-0.592-0.256-1.168-0.368-1.76-0.176-0.832-0.32-1.664-0.496-2.496-0.144-0.752-0.304-1.504-0.432-2.272-0.288-1.68-0.544-3.392-0.784-5.104-0.064-0.512-0.16-0.992-0.224-1.504l-0.016-0.144-0.032-0.448c-0.128-1.104-0.224-2.24-0.352-3.36-0.16-1.76-0.304-3.52-0.4-5.312-0.064-0.768-0.096-1.568-0.128-2.368-0.032-0.608-0.080-1.216-0.096-1.824-0.032-1.248-0.016-2.496-0.032-3.76 0-0.752-0.016-1.504 0-2.272 0.016-0.448-0.016-0.896 0-1.344v-0.256c0.032-0.8 0.064-1.616 0.080-2.432 0.032-0.896 0.112-1.76 0.176-2.624 0.032-0.656 0.064-1.312 0.096-1.952 0.064-0.576 0.080-1.008 0.128-1.392 0.080-0.816 0.144-1.664 0.24-2.48 0.080-0.944 0.192-1.952 0.336-3.12l0.016-0.096v0.016c0.064-0.448 0.112-0.752 0.16-1.104 0.128-0.928 0.272-1.872 0.416-2.8 0.112-0.832 0.256-1.776 0.448-2.944 0.096-0.464 0.16-0.864 0.24-1.2 0.096-0.56 0.224-1.12 0.336-1.68l0.016-0.048 0.16-0.8c0.144-0.768 0.336-1.744 0.624-3.072l0.016-0.032v0.016c0.080-0.352 0.144-0.576 0.208-0.88 0.208-0.848 0.368-1.472 0.496-1.92l0.208-0.864c0.080-0.272 0.144-0.544 0.24-0.944l0.208-0.784 0.176-0.656 0.144-0.592 0.016-0.064v0.016c0.080-0.272 0.144-0.48 0.224-0.72l0.224-0.816c0.192-0.624 0.4-1.264 0.592-1.888 0.224-0.736 0.528-1.712 0.944-3.024l-0.080 0.208 0.080-0.24c0.096-0.32 0.176-0.528 0.272-0.784 0.384-1.088 0.688-1.92 0.832-2.368l0.032-0.048v-0.016c0.256-0.72 0.624-1.76 1.136-3.12l0.016-0.016 0.048-0.128-0.016 0.064 0.224-0.56c0.336-0.848 0.592-1.488 0.816-1.984l0.256-0.64 0.032-0.096c0.128-0.32 0.32-0.752 0.528-1.264 0.192-0.464 0.432-1.008 0.688-1.632v0c0 0 0 0 0-0.016l0.256-0.56c0.256-0.592 0.512-1.136 0.72-1.584 0.208-0.416 0.384-0.8 0.528-1.104l0.016-0.048c0.336-0.704 0.736-1.6 1.296-2.704l0.080-0.16 0.24-0.464c0.24-0.464 0.48-0.912 0.672-1.296 0.288-0.56 0.56-1.024 0.768-1.424l0.032-0.080c0.304-0.56 0.736-1.376 1.312-2.432l0.032-0.064 0.032-0.080 0.24-0.416c0.24-0.416 0.464-0.832 0.688-1.2 0.368-0.624 0.72-1.2 0.992-1.664l0.080-0.128 0.016-0.032c0.288-0.448 0.72-1.184 1.328-2.16l0.064-0.096 0.176-0.288c0.304-0.464 0.592-0.928 0.864-1.328 0.416-0.624 0.784-1.184 1.104-1.68 0.352-0.528 0.848-1.28 1.52-2.24l0.064-0.080v-0.016l0.032-0.048 0.064-0.080 0.016-0.016c0.32-0.464 0.64-0.912 0.976-1.36 0.448-0.624 0.88-1.2 1.264-1.712l-0.032 0.032c0.368-0.496 0.816-1.104 1.376-1.84l0.096-0.128 0.048-0.048 0.048-0.064-0.080 0.080c0.416-0.544 0.816-1.040 1.2-1.536 0.512-0.624 0.992-1.232 1.44-1.776l0.144-0.192c0.304-0.368 0.656-0.816 1.152-1.376l0.208-0.256 0.208-0.208c0.72-0.848 1.36-1.568 2.016-2.288l0.688-0.784v-0.016l0.064-0.064c0.32-0.352 0.72-0.8 1.2-1.328l0.144-0.176v-0.016l0.032-0.016 0.064-0.064c0.784-0.848 1.536-1.616 2.304-2.4 0.32-0.32 0.624-0.672 0.944-0.976l0.048-0.032c0.16-0.16 0.544-0.544 1.136-1.152l0.112-0.096 0.336-0.368c0.928-0.912 1.888-1.776 2.848-2.656l0.224-0.224 0.064-0.048 0.064-0.064c0.24-0.224 0.64-0.576 1.2-1.088l0.064-0.064c1.232-1.088 2.448-2.144 3.68-3.152l0.080-0.064 0.688-0.576 0.48-0.384-0.016 0.016 0.704-0.56c1.040-0.832 2.048-1.632 3.024-2.384l0.272-0.224 0.128-0.096c0.384-0.272 0.656-0.48 0.8-0.608l0.192-0.144 0.144-0.096c0.288-0.208 0.576-0.4 0.864-0.608 0.864-0.624 1.744-1.248 2.608-1.84l0.736-0.512 0.080-0.064 0.912-0.624 0.048-0.016 0.464-0.304c0.88-0.592 1.824-1.184 2.768-1.776 0.496-0.32 0.944-0.608 1.456-0.928l0.8-0.48 0.448-0.256 0.288-0.176c1.456-0.88 2.832-1.664 4.096-2.368l0.112-0.064 0.784-0.416 0.064-0.032c1.744-0.928 3.392-1.776 4.944-2.544l1.12-0.544v0.016c0.848-0.416 1.664-0.752 2.496-1.136 0.384-0.176 0.784-0.368 1.184-0.544 0.48-0.208 0.976-0.464 1.44-0.656l0.4-0.176 0.112-0.048 0.192-0.080c0.816-0.352 1.616-0.64 2.416-0.96l0.416-0.16c0.896-0.368 1.792-0.752 2.704-1.088l0.208-0.080 0.656-0.24c0.416-0.144 0.848-0.288 1.28-0.432l0.4-0.128c1.28-0.464 2.576-0.928 3.888-1.344l0.304-0.096 0.112-0.032 0.048-0.032c2.016-0.624 4.032-1.2 6.032-1.744l0.416-0.112-0.112 0.032c1.776-0.464 3.52-0.864 5.248-1.264h0.032l0.64-0.176 0.672-0.144c1.648-0.368 3.328-0.656 5.024-0.944l0.48-0.128 1.2-0.176c1.024-0.16 2.032-0.304 3.056-0.432 0.16-0.416 0.304-0.832 0.448-1.2l0.016-0.064c2.784-7.6 5.808-15.168 9.040-22.672 47.808-132.304 179.968-234.864 330.8-253.632 150.816-18.752 311.808 81.488 377.408 216.944 2.832 5.184 5.408 10.272 7.76 15.2 6.496 6.688 11.552 13.632 14.912 21.008 4.016 8.656 5.36 17.76 4.976 25.216zM251.312 445.28c-0.112-0.208-0.496-0.896-1.088-1.92-1.056-1.872-2.784-4.96-4.816-8.608-0.992-1.792-2.064-3.696-3.152-5.696-0.736-1.344-1.488-2.72-2.24-4.096l-0.352-0.64-0.144-0.256c-0.272-0.528-0.56-1.040-0.848-1.568l-6.912-12.432c-0.576 0.304-1.152 0.576-1.744 0.88l-0.336 0.16-0.608 0.304c-3.776 1.808-7.76 3.264-11.872 4.336l-0.656 0.16c-2.64 0.656-5.344 1.168-8.096 1.488-1.6 0.176-3.2 0.32-4.816 0.4-1.344 0.064-2.704 0.080-4.064 0.048-2.048-0.048-4.080-0.224-6.064-0.432-0.624-0.080-1.248-0.192-1.856-0.272-0.992-0.144-1.952-0.336-2.944-0.512-0.384-0.080-0.784-0.128-1.152-0.224-0.688-0.144-1.36-0.288-2.048-0.464-1.328-0.32-2.64-0.688-3.936-1.104-0.592-0.192-1.2-0.352-1.776-0.544-1.76-0.608-3.472-1.28-5.152-2.032-0.672-0.304-1.296-0.64-1.936-0.944-0.768-0.384-1.52-0.784-2.288-1.168l-0.784-0.4c-0.832-0.464-1.648-0.96-2.448-1.44-0.752-0.464-1.504-0.944-2.224-1.44-0.896-0.592-1.76-1.184-2.608-1.808-0.528-0.4-1.024-0.8-1.536-1.216-1.376-1.088-2.688-2.256-3.968-3.456-0.656-0.608-1.296-1.248-1.936-1.888-1.12-1.104-2.224-2.256-3.248-3.44l-0.528-0.592c-0.544-0.64-1.056-1.328-1.552-2l-0.080-0.096-0.064-0.096c-0.352-0.448-0.72-0.896-1.056-1.344l-0.256-0.352-0.032-0.032c-2.080-2.896-3.888-5.984-5.472-9.2-0.224-0.464-0.432-0.928-0.656-1.408-0.72-1.584-1.392-3.184-2-4.816-0.24-0.656-0.512-1.28-0.72-1.936l-0.016-0.016v-0.016l-0.016-0.016c-0.56-1.664-1.040-3.36-1.456-5.104l-0.16-0.64-0.16-0.816-0.016-0.080c-0.288-1.264-0.56-2.528-0.752-3.808-0.096-0.624-0.16-1.264-0.256-1.92l-0.032-0.176c-0.080-0.672-0.144-1.36-0.224-2.048-0.064-0.512-0.144-1.040-0.176-1.568-0.144-2.016-0.208-4.064-0.16-6.128 0.032-1.6 0.176-3.168 0.336-4.736l0.016-0.096 0.048-0.736c0.080-0.864 0.24-1.728 0.368-2.592 0.464-3.136 1.104-6.192 2-9.152 0.672-2.256 1.456-4.464 2.368-6.608 1.664-3.952 3.728-7.664 6.096-11.152 4.976-7.376 11.36-13.68 18.832-18.496 4.24-2.72 8.816-4.944 13.648-6.64 4.64-1.648 9.488-2.832 14.528-3.392 1.136-0.112 2.272-0.208 3.44-0.288 1.728-0.112 3.44-0.192 5.2-0.144 1.616 0.032 3.184 0.24 4.784 0.384 0.912 0.080 1.84 0.096 2.736 0.224 2.272 0.32 4.528 0.784 6.72 1.328l0.496 0.112c0.912 0.24 1.776 0.576 2.656 0.848 2.784 0.848 5.456 1.856 8.064 3.056l0.576 0.256c0.72 0.304 1.472 0.608 2.176 0.976 0.080-0.496 0.176-0.976 0.272-1.472 0.304-1.76 0.64-3.552 0.976-5.328 3.056-16.24 6.656-32.224 6.656-32.224-5.488-4.096-14.672-8.112-25.056-11.136-3.456-1.008-7.056-1.888-10.688-2.64-2.336-0.496-4.672-0.896-7.024-1.248-2.656-0.4-5.296-0.72-7.92-0.928-1.92-0.16-3.808-0.272-5.664-0.32-1.376-0.016-2.768 0-4.144 0.032-5.792 0.080-11.488 0.576-17.040 1.456l-0.080 0.032c-1.808 0.288-3.616 0.624-5.376 0.992-0.016 0-0.032 0-0.032 0.016l-0.144 0.048c-1.76 0.384-3.504 0.784-5.248 1.248l-0.24 0.064c-0.88 0.24-1.76 0.512-2.64 0.768-0.8 0.24-1.616 0.448-2.416 0.688l-0.336 0.112c-1.648 0.528-3.248 1.088-4.848 1.68l-0.432 0.16c-1.568 0.592-3.104 1.2-4.64 1.84l-0.528 0.24c-1.504 0.656-2.976 1.328-4.448 2.032l-0.608 0.288c-1.424 0.704-2.832 1.424-4.224 2.176l-0.688 0.4c-1.344 0.752-2.688 1.504-4 2.304l-0.816 0.48c-1.264 0.768-2.528 1.584-3.76 2.416l-0.896 0.608c-1.2 0.816-2.368 1.648-3.536 2.496-0.304 0.24-0.64 0.496-0.96 0.72-1.12 0.848-2.24 1.712-3.328 2.608-0.352 0.272-0.672 0.576-1.024 0.864-1.056 0.864-2.080 1.76-3.104 2.656-0.368 0.336-0.72 0.672-1.088 0.992-0.96 0.896-1.936 1.792-2.864 2.704-0.384 0.384-0.768 0.768-1.152 1.152-0.896 0.896-1.776 1.808-2.64 2.752-0.4 0.432-0.784 0.864-1.184 1.296-0.832 0.928-1.648 1.84-2.432 2.784-0.416 0.48-0.816 0.976-1.2 1.456-0.768 0.912-1.504 1.84-2.224 2.784-0.416 0.528-0.816 1.088-1.216 1.632-0.688 0.928-1.36 1.84-2.016 2.784-0.416 0.592-0.8 1.2-1.2 1.808-0.624 0.912-1.232 1.824-1.824 2.768-0.4 0.656-0.784 1.312-1.184 1.952-0.56 0.928-1.104 1.84-1.632 2.784-0.4 0.704-0.768 1.424-1.152 2.128-0.496 0.912-0.976 1.808-1.44 2.736-0.384 0.768-0.752 1.536-1.104 2.304-0.208 0.448-0.416 0.912-0.624 1.36s-0.432 0.896-0.64 1.36c-0.352 0.816-0.688 1.632-1.040 2.448-0.368 0.896-0.768 1.792-1.104 2.688-0.256 0.64-0.48 1.28-0.688 1.92l-0.256 0.704c-0.32 0.896-0.656 1.776-0.944 2.672-0.304 0.912-0.576 1.84-0.864 2.768-0.256 0.88-0.544 1.744-0.784 2.624l-0.208 0.816-0.176 0.672-0.224 0.88-0.144 0.592c-0.208 0.848-0.448 1.68-0.64 2.544-0.24 1.040-0.432 2.112-0.64 3.168-0.16 0.816-0.336 1.616-0.496 2.448-0.192 1.136-0.352 2.272-0.512 3.424-0.080 0.64-0.192 1.28-0.288 1.92v0.096l-0.048 0.288c-0.144 1.264-0.272 2.544-0.384 3.824-0.032 0.368-0.080 0.752-0.096 1.136l-0.096 0.864c-0.128 1.632-0.192 3.264-0.24 4.912 0 0.336-0.048 0.656-0.048 1.008-0.048 2.112-0.048 4.224 0.032 6.32 0.064 1.712 0.144 3.408 0.256 5.104l0.064 0.8c0.176 2.144 0.416 4.256 0.688 6.352 1.456 10.72 4.384 20.976 8.576 30.576 0.112 0.272 0.224 0.576 0.352 0.848 0.656 1.472 1.36 2.928 2.080 4.368 2.032 4.096 4.304 8.064 6.784 11.856 1.328 2.016 2.704 3.984 4.144 5.904 1.216 1.632 2.464 3.232 3.776 4.784 4.544 5.472 9.568 10.512 15.056 15.056l0.224 0.192c6.352 5.248 13.264 9.872 20.672 13.68 0.832 0.416 1.68 0.832 2.528 1.232 0.688 0.336 1.392 0.672 2.080 1.008 2.448 1.12 4.944 2.16 7.488 3.12 7.456 2.816 15.296 4.864 23.424 6.080l0.816 0.128c4.512 0.64 9.088 1.056 13.76 1.152 1.040 0.032 2.080 0 3.12-0.032 2.144-0.048 4.288-0.144 6.432-0.336 0.752-0.080 1.504-0.16 2.272-0.224 0.768-0.080 1.552-0.128 2.304-0.24 1.584-0.224 3.152-0.512 4.704-0.8 1.984-0.368 3.92-0.848 5.856-1.312l0.16-0.032c2.832-0.672 5.584-1.44 8.288-2.288 0.832-0.256 1.712-0.48 2.528-0.752 3.216-1.088 6.304-2.256 9.248-3.456 2.448-1.008 4.8-2.032 7.024-3.072 6.96-3.232 12.672-6.432 16.592-8.816 3.44-2.096 5.536-3.536 5.808-3.712l0.064-0.048 0.032-0.016h0.016l-0.064-0.096zM236.704 597.856c2.16 2.544 4.352 5.072 6.544 7.632-2.656-2.656-4.144-4.032-4.304-3.872-0.384 0.256 8.88 11.552 25.856 29.84 8.464 9.12 18.832 19.952 30.896 32.048 22.288 23.456 45.888 46.784 70.64 69.248 23.456 21.264 47.936 41.728 73.28 60.816 1.264 0.944 2.496 1.888 3.76 2.832 9.664 7.2 19.472 14.176 29.392 20.912 6 4.080 12.048 8.096 18.128 11.984l-70.608 80.48 23.808 7.104 46.48-23.648-1.312 16.064 8.112 17.936 21.696 4.912 50.96-59.2c0.608 0.288 1.232 0.592 1.84 0.864 4.256 1.984 8.416 3.872 12.528 5.68 2.448 1.072 4.864 2.112 7.264 3.152 1.6 0.672 3.168 1.328 4.736 1.984 28.528 11.328 78.416 27.28 122.24 21.648 8.832-1.136 17.424-3.168 25.536-6.272 0.88-0.528 1.76-1.056 2.608-1.616l-0.656 0.192-0.704 0.208-0.288 0.064-0.080 0.032c-0.384 0.096-0.784 0.16-1.184 0.256-7.232 1.808-14.864 2.768-22.992 2.928-2.864 0.064-5.776 0.032-8.752-0.096-19.392-0.832-41.488-5.328-67.088-13.536-13.312-4.288-27.648-9.68-42.896-16.080-2.704-1.136-5.376-2.24-8.144-3.44-3.024-1.312-6.112-2.688-9.2-4.096-0.752-0.336-1.504-0.672-2.256-1.008-0.384-0.176-0.752-0.336-1.136-0.512-0.72-0.32-1.456-0.688-2.192-1.008-2.64-1.216-5.312-2.48-8-3.744-0.752-0.352-1.488-0.688-2.24-1.056-0.416-0.192-0.848-0.416-1.264-0.608-2.304-1.104-4.624-2.24-6.976-3.376l-0.256-0.128c-0.16-0.080-0.32-0.144-0.48-0.224-0.752-0.368-1.488-0.72-2.256-1.088l-0.176-0.080c-0.416-0.208-0.832-0.432-1.248-0.64-1.12-0.56-2.208-1.136-3.328-1.696-0.832-0.416-1.68-0.848-2.512-1.28-0.448-0.224-0.896-0.448-1.344-0.672-5.344-2.736-10.688-5.536-16-8.432h-0.016c-1.68-0.912-3.376-1.856-5.040-2.784-2.816-1.568-5.632-3.12-8.416-4.72-1.152-0.656-2.304-1.328-3.456-1.984-2.208-1.28-4.4-2.576-6.592-3.872-2.24-1.328-4.48-2.656-6.72-4-1.2-0.72-2.368-1.44-3.552-2.176-2.096-1.28-4.192-2.528-6.272-3.824-4.176-2.608-8.336-5.248-12.48-7.92-12.944-8.352-25.728-17.088-38.336-26.144v0c-28.784-20.64-56.64-42.88-83.424-65.984-44.080-38.080-85.12-78.48-122.128-117.952zM881.632 213.824l-0.016-0.016c-0.080-5.568-1.68-11.76-6.528-18.768-0.288-0.416-0.624-0.848-0.944-1.264-2.192-2.976-4.912-6.080-8.416-9.344l-0.176-0.416c-0.928-1.984-1.888-4-2.912-6.032l-0.336-0.704c-0.368-0.752-0.752-1.504-1.12-2.256-0.8-1.616-1.664-3.248-2.528-4.896-0.432-0.832-0.864-1.648-1.312-2.48-1.136-2.112-2.32-4.256-3.536-6.4-0.688-1.184-1.392-2.368-2.112-3.568-0.64-1.088-1.312-2.192-1.968-3.296-0.864-1.408-1.744-2.832-2.64-4.256-0.416-0.64-0.848-1.296-1.264-1.936-1.744-2.688-3.6-5.392-5.472-8.080-0.432-0.64-0.816-1.248-1.264-1.888l-0.384-0.56c-1.344-1.872-2.736-3.76-4.16-5.664l-0.416-0.56c-5.808-7.696-12.224-15.376-19.376-22.896-5.408-5.696-11.232-11.28-17.456-16.72-0.384-0.32-0.752-0.624-1.104-0.944l-0.048-0.048c-6.272-5.248-12.72-10.064-19.216-14.656-3.888-2.704-7.808-5.312-11.776-7.808l-0.112-0.080c-5.28-3.312-10.592-6.464-15.936-9.392l-1.104-0.624c-7.664-4.112-15.392-7.84-23.216-11.216-12.928-5.632-26.064-10.272-39.2-14.032-108.88-31.232-219.392-3.248-246.176 18.544l11.84-21.2c-1.776 0.816-4.144 2.72-6.88 5.312-8.192 7.792-19.696 22-28.352 33.104-0.96 1.232-1.872 2.432-2.768 3.584l-0.048 0.064c-0.768 0.992-1.472 1.936-2.16 2.832l-0.704 0.912c-1.392 1.824-2.624 3.472-3.6 4.768-0.496 0.512-0.992 1.008-1.488 1.536-0.496 0.512-0.992 1.024-1.488 1.536-0.304-1.28-0.032-3.312 0.56-5.68 2.064-8.4 8.176-21.168 8.224-21.28-5.296 6.528-10.416 14.096-15.072 21.632-3.888 6.304-7.456 12.592-10.528 18.272-0.752 1.424-1.488 2.8-2.192 4.128-2.096 4-3.888 7.568-5.296 10.432-1.216 1.584-2.432 3.12-3.632 4.72-0.384-11.52 2.624-21.84 5.712-29.296 0.384-0.928 0.784-1.824 1.168-2.656l0.080-0.144c0.368-0.784 0.72-1.536 1.072-2.224l0.096-0.192c0.336-0.656 0.656-1.296 0.96-1.856l0.064-0.096c1.648-3.056 2.864-4.816 2.88-4.832v-0.016c-2.096 2.16-4.112 4.352-6.080 6.528-0.624 0.704-1.216 1.392-1.824 2.096-1.312 1.472-2.608 2.976-3.856 4.464-0.688 0.832-1.36 1.664-2.016 2.496-1.12 1.36-2.208 2.72-3.264 4.096-0.672 0.88-1.328 1.76-1.968 2.64-1.008 1.328-1.984 2.656-2.928 4-0.624 0.896-1.248 1.776-1.856 2.672-0.912 1.344-1.808 2.688-2.688 4.032-0.56 0.864-1.12 1.744-1.664 2.608-0.88 1.392-1.728 2.8-2.544 4.192-0.496 0.816-0.976 1.616-1.44 2.432-0.88 1.552-1.728 3.104-2.56 4.656-0.336 0.656-0.704 1.312-1.056 1.968-2.288 4.432-4.336 8.848-6.176 13.248-0.288 0.688-0.544 1.36-0.8 2.032-0.608 1.52-1.216 3.040-1.76 4.544-0.304 0.816-0.576 1.648-0.864 2.464-0.48 1.36-0.944 2.736-1.376 4.112-0.272 0.864-0.544 1.744-0.8 2.608-0.4 1.312-0.768 2.64-1.136 3.952-0.24 0.88-0.48 1.76-0.688 2.64-0.336 1.312-0.64 2.624-0.944 3.92-0.192 0.864-0.384 1.728-0.576 2.592-0.288 1.344-0.528 2.672-0.784 4.016-0.144 0.8-0.304 1.632-0.432 2.432-0.256 1.456-0.448 2.912-0.64 4.368-0.080 0.672-0.208 1.344-0.288 2.016-0.256 2.112-0.48 4.224-0.64 6.32l-0.032 0.432-0.048 0.688c-0.128 1.728-0.224 3.44-0.304 5.168-0.064 1.696-0.112 3.392-0.112 5.088v0.288c0 2.208 0.048 4.384 0.128 6.56 0.032 0.688 0.064 1.36 0.096 2.048 0.080 1.504 0.176 3.008 0.304 4.496 0.064 0.752 0.128 1.504 0.208 2.256 0.144 1.472 0.304 2.944 0.496 4.416 0.080 0.656 0.16 1.328 0.256 1.984 0.288 2.064 0.608 4.096 0.976 6.112l0.032 0.192c0.368 2.016 0.784 4 1.248 5.984 0.128 0.656 0.304 1.296 0.464 1.936 0.32 1.392 0.672 2.752 1.040 4.112 0.192 0.704 0.368 1.408 0.576 2.096 0.384 1.36 0.784 2.704 1.216 4.048 0.176 0.608 0.368 1.2 0.576 1.808 0.608 1.904 1.264 3.792 1.936 5.648 1.2 3.264 2.496 6.448 3.888 9.552 8.672 19.424 20.736 35.664 33.792 47.152-2 3.216-3.92 6.384-5.808 9.552-6.784 11.424-12.8 22.544-18.080 33.36-0.096-1.728-0.144-2.72-0.144-2.72l1.008-26.416 0.176-4.704c-0.88 1.152-1.776 3.008-2.704 5.328-7.056 17.936-14.64 65.456-14.64 65.456-4.336-2.912-4.896-28.56-4.896-28.56-2.96 14.112-4.144 30.672-4.56 44.4-0.096 3.28-0.16 6.352-0.192 9.232-0.032 2.864-0.032 5.488 0 7.824 0 1.088 0.032 2.096 0.032 3.040v0.704l-0.096 0.496c-0.304 1.536-0.592 3.056-0.88 4.576-1.216-2.144-2.208-4.304-3.104-6.464-0.208-0.512-0.432-1.008-0.624-1.52-0.448-1.168-0.864-2.32-1.232-3.488-1.504-4.704-2.4-9.28-2.912-13.424-0.224-1.92-0.384-3.712-0.496-5.376-0.416-7.296 0.256-12.256 0.256-12.256-0.752 3.872-1.392 7.664-2 11.44-0.192 1.2-0.352 2.4-0.528 3.6-0.656 4.304-1.216 8.56-1.68 12.736-0.096 0.88-0.208 1.776-0.288 2.656-0.048 0.4-0.064 0.768-0.096 1.168-0.16 1.584-0.288 3.152-0.416 4.736-0.32 3.776-0.576 7.52-0.736 11.184l-0.048 0.592c-0.16 3.696-0.224 7.312-0.24 10.896 0 0.432 0 0.864 0.016 1.28 0 1.84-0.016 3.68 0.032 5.472 0.032 1.584 0.112 3.12 0.176 4.688l0.032 0.736c0.144 3.184 0.336 6.32 0.592 9.424 0.272 3.392 0.592 6.736 1.008 10.016 0.176 1.312 0.384 2.592 0.56 3.888 0.944 6.56 2.128 12.944 3.6 19.088l0.208 0.784c0.368 1.52 0.768 3.024 1.168 4.528 1.52 5.648 3.248 11.136 5.168 16.432 3.856 10.592 8.496 20.48 13.808 29.712l0.32 0.528c2.576 4.432 5.28 8.704 8.16 12.832 3.856 5.552 8.016 10.784 12.352 15.824 0.96 1.104 1.856 2.272 2.848 3.36 0.784 0.88 1.616 1.68 2.416 2.528 1.936 2.096 3.888 4.208 5.92 6.224 0.816 0.816 1.696 1.568 2.528 2.368 23.216 22.304 50.864 38.928 78.896 51.44 3.904 1.744 7.808 3.408 11.696 4.992 5.44 2.208 10.88 4.32 16.272 6.256 6.928 2.48 13.792 4.752 20.544 6.816 18.272 5.6 35.632 9.792 50.848 13.040 1.52 0.32 3.008 0.64 4.464 0.944 5.472 4.496 11.952 9.072 19.264 13.104 10.608 5.856 22.976 10.576 36.88 12.080 0.416 0.048 0.88 0.048 1.296 0.096 0.72 0.064 1.456 0.096 2.176 0.16 0.496 0.048 0.976 0.080 1.472 0.112 0.592 0.032 1.152 0.112 1.744 0.128 0 0-0.864-0.176-2.176-0.56-0.592-0.176-1.28-0.4-2.080-0.672-0.288-0.112-0.544-0.192-0.864-0.304-0.848-0.32-1.776-0.736-2.752-1.184-5.584-2.608-12.912-7.552-17.872-16.736l-0.016-0.016c0.672 0.080 1.36 0.176 2.032 0.256l0.416 0.176c0.736 0.304 1.568 0.656 2.528 1.056 6.736 2.752 18.848 7.28 31.424 9.952 0.432 0.096 0.864 0.192 1.296 0.272l0.464 0.096c0.528 0.096 1.040 0.208 1.568 0.288 0.816 0.144 1.632 0.256 2.432 0.4 2.496 0.4 5.008 0.752 7.456 0.928 0 0-4.288-1.792-8.56-4.224-3.44-1.936-6.864-4.256-8.128-6.368 5.376 1.072 11.040 1.536 16.672 1.584h0.256c4.384 0.048 8.736-0.24 13.040-0.656 0.368-0.032 0.736-0.064 1.088-0.096 0.896-0.096 1.808-0.144 2.704-0.256 1.888-0.224 3.76-0.496 5.6-0.784 5.472-0.864 10.624-1.984 15.248-3.2 0.336-0.080 0.704-0.176 1.056-0.256 5.584-1.488 10.288-3.072 13.76-4.464 0.688-0.288 1.344-0.56 1.936-0.816 1.696-0.752 2.976-1.424 3.68-1.952l-0.144 0.112v0l0.352-0.256c0.672-0.448 1.344-0.928 1.984-1.408l0.272-0.192 0.080-0.064c0.752-0.56 1.488-1.152 2.208-1.76l0.288-0.256c1.616-1.376 3.12-2.88 4.56-4.432l0.624-0.608 0.128-0.144c1.12-1.232 2.128-2.528 3.136-3.824 0.416-0.544 0.896-1.040 1.296-1.584 0.464-0.624 0.88-1.28 1.328-1.904 0.88-1.264 1.76-2.544 2.576-3.84 0.464-0.784 0.912-1.552 1.376-2.32 0.704-1.216 1.392-2.416 2.032-3.632 0.432-0.816 0.832-1.632 1.248-2.448 0.592-1.2 1.152-2.4 1.712-3.6 0.352-0.8 0.72-1.6 1.056-2.4 0.528-1.216 1.008-2.4 1.456-3.6 0.288-0.752 0.592-1.472 0.848-2.208 0.464-1.28 0.896-2.496 1.296-3.728 0.208-0.592 0.416-1.184 0.592-1.744 0.56-1.744 1.072-3.44 1.504-4.992l0.032-0.048c0.192-0.672 0.368-1.312 0.528-1.952l0.064-0.224c0.16-0.608 0.304-1.2 0.464-1.76l0.032-0.176c0.576-2.32 1.008-4.288 1.312-5.808l0.064-0.288 0.16-0.8 0.064-0.336 0.112-0.576 0.128-0.704 0.048-0.256 0.032-0.176 0.032-0.144c0.864-0.912 1.712-1.904 2.576-2.912l0.88-1.088c0.64-0.8 1.28-1.648 1.92-2.512l0.448-0.592 0.352-0.528c0.88-1.264 1.76-2.576 2.592-3.968l0.592-1.056c0.752-1.424 1.44-2.944 2.112-4.512v-0.032l0.080-0.192 0.384-0.96 0.32-0.784 0.096-0.272c0.32-0.832 0.64-1.68 0.944-2.544l0.016-0.080 0.384-1.088 0.128-0.368c0.112-0.384 0.256-0.72 0.384-1.104 0.128-0.4 0.224-0.832 0.352-1.248 0.32-1.12 0.672-2.256 0.976-3.44v0c0.24-0.96 0.464-1.968 0.688-2.976 0.224-1.024 0.432-2.064 0.64-3.12 0.176-0.944 0.368-1.872 0.528-2.848 0.32-1.904 0.576-3.872 0.784-5.888 0.080-0.816 0.16-1.648 0.24-2.496 0.16-1.888 0.304-3.84 0.416-5.84l0.064-0.784 0.032-0.736c0.096-2.544 0.128-5.2 0.112-7.92 0-0.672-0.016-1.344-0.032-2.032-0.048-2.88-0.144-5.808-0.352-8.88-1.488-23.696-2.928-41.168-3.664-54.464-2.080-36.928 1.2-41.424 23.504-55.024 0 0 3.104-1.632 7.952-5.2 10.304-7.552 36.16-24.048 54.912-52.464 0.496-0.768 1.024-1.504 1.504-2.272l0.16-0.224c1.072-0.8 2.272-1.6 3.568-2.4 0.944-0.592 1.92-1.2 2.976-1.776 1.056-0.592 2.016-1.248 2.928-1.92 1.6-1.184 3.008-2.448 4.208-3.792 6.896-7.664 7.632-17.536 7.392-23.008v-0.032l-0.304-0.432c-72.304-65.152-151.904-84.176-212.4-87.856-33.264-2.032-60.768 0.56-78.048 2.704-0.608 0.080-1.152 0.144-1.728 0.224-5.184 0.672-9.408 1.264-12.432 1.648-1.504 0.192-2.72 0.32-3.632 0.384-4.528 0.304-8.848-0.256-12.88-1.52-8.224-2.576-15.264-8.128-20.544-15.504-6.512-9.088-10.368-20.896-10.544-33.248 0-0.016 0-0.016 0-0.016s0-0.016 0-0.016c0-0.24 0.016-0.48 0.016-0.72 0-3.568 0.288-7.184 0.928-10.784 1.136-6.416 3.344-12.768 6.752-18.8 0.208-0.384 0.416-0.784 0.656-1.184 0.624-1.056 1.312-2.096 2.016-3.12 0.96-1.392 1.968-2.784 3.072-4.128 12.672-15.616 39.92-27.248 76.288-31.76 24.608-3.056 53.408-2.816 84.64 1.6 92.032 16.64 135.792 46.384 156 67.264 1.472 1.52 2.832 3.008 4.064 4.432 7.248 8.352 10.512 14.768 11.696 17.552l0.16 0.384c0.304 0.72 0.416 1.104 0.416 1.12l-0.016-0.016c0 0 0.016 0.032 0.016 0.032l-0.496-0.48-0.272-0.272c-7.36-7.024-15.968-13.824-25.456-20.288-41.6-28.416-99.792-50.432-141.024-55.952l-0.32-0.048c-30.992-4.928-61.36-5.792-87.824-2.496-15.2 1.888-28.896 5.184-40.224 9.52-10.912 6.896-20.496 20.016-21.2 40.992 12.352-5.312 26.752-8.56 37.568-10.48 23.152-4.272 45.52-4.784 65.6-3.536 5.024 0.416 9.904 0.784 14.656 1.264 4.752 0.624 9.36 1.216 13.824 1.792 8.688 1.472 16.72 2.88 24.256 4.544 3.76 0.704 7.232 1.728 10.528 2.624 3.296 0.96 6.432 1.68 9.28 2.704 5.712 1.968 10.688 3.568 14.528 5.248 7.728 3.296 11.872 5.504 11.616 6.336s-4.928 0.208-13.136-1.648c-4.112-0.96-9.088-1.792-14.816-3.088-2.848-0.672-5.984-1.072-9.248-1.712-3.28-0.576-6.736-1.28-10.384-1.68-7.184-1.024-15.408-1.936-24.144-2.96-4.304-0.352-8.752-0.72-13.312-1.088-4.608-0.224-9.344-0.464-14.208-0.704-19.424-0.576-40.864 0.304-62.688 4.32-11.504 2.032-26.88 7.248-37.952 13.536l-0.416 0.24c6.528 23.088 30.592 26.368 30.592 26.368l-0.576 0.176c39.872-4.848 78.224-4.32 114.672 1.264 52.96 8.112 101.872 26.992 145.328 56.416 2.304 1.552 4.576 3.136 6.848 4.752v0.016c0.432-0.768 0.912-1.648 1.408-2.672 3.136-6.432 7.072-17.84 5.344-32.496-0.224-1.936-0.576-3.952-1.008-6-0.336-1.568-0.72-3.152-1.2-4.784 0 0 2.368-2.272 5.232-6.912 2.24-3.584 4.752-8.608 6.72-15.040-0.096 0.384-0.176 0.64-0.176 0.64l0.48 0.032c1.040 0.096 2 0.112 2.96 0.144 2.4 0.080 4.592-0.016 6.496-0.288 2.624-0.384 4.832-1.056 6.688-1.936 0.672-0.32 1.296-0.672 1.872-1.056 1.104-0.704 2.032-1.488 2.832-2.32 0.448-0.464 0.88-0.928 1.232-1.408l0.208-0.32c0.208-0.288 0.416-0.592 0.592-0.928l0.080-0.144c3.264-5.504 2.448-11.648 2.448-11.648zM773.232 604.864l-0.032 0.048 0.016-0.032zM107.712 234.512v0.016zM64.992 274.528v0zM65.024 274.496v0l-0.032 0.032zM44.992 316.912l-0.016 0.016 0.032-0.064v-0.016zM43.312 323.584h0.016v-0.032h-0.016v0.032zM68.88 269.216l-0.032 0.048-0.016 0.032 0.048-0.048 0.064-0.096zM704.496 676.64h0.016l-0.048 0.032zM65.088 274.384l-0.016 0.032-0.048 0.064zM494.080 344.112c-4.16-1.408-8.768-3.088-13.616-5.104-12.928-5.36-27.584-12.976-40.592-23.488-1.632-1.312-3.232-2.672-4.8-4.080-2.672-2.4-5.216-4.96-7.664-7.632-0.272-0.304-0.576-0.592-0.848-0.912-0.368-0.416-0.736-0.832-1.088-1.264-0.928-1.072-1.84-2.176-2.72-3.312-0.352-0.448-0.704-0.896-1.072-1.36-1.168-1.536-2.304-3.104-3.392-4.736-1.056-1.584-2.080-3.232-3.040-4.912-7.696-13.44-12.064-29.536-10.72-48.736l0.048 0.192 0.032 0.144c0.032 0.176 0.080 0.416 0.144 0.72l0.048 0.16c0.064 0.288 0.144 0.64 0.224 1.008l0.064 0.24c0.096 0.432 0.224 0.944 0.368 1.488l0.096 0.352c0.16 0.592 0.336 1.216 0.528 1.888v0.016c0.192 0.672 0.416 1.392 0.656 2.144l0.144 0.464c0.256 0.752 0.528 1.552 0.832 2.368l0.16 0.4c0.272 0.768 0.592 1.568 0.928 2.4l0.16 0.384c0.368 0.88 0.768 1.792 1.184 2.72l0.272 0.576c0.448 0.944 0.912 1.92 1.424 2.88v0c0.016 0.032 0.048 0.080 0.064 0.112 0.752 1.456 1.616 2.944 2.528 4.432 0.336 0.56 0.672 1.12 1.056 1.696l0.288 0.48v0.016c0.784 1.168 1.6 2.336 2.48 3.488 0.72 0.944 1.488 1.888 2.272 2.816 0.24 0.288 0.512 0.576 0.768 0.88 0.624 0.704 1.28 1.424 1.968 2.112 0.272 0.272 0.56 0.56 0.832 0.848 0.928 0.912 1.888 1.792 2.896 2.656l0.080 0.080c0 0-17.488-39.552-9.872-70.928 0 0 0 0.096 0 0.256 0 0.064 0 0.128 0 0.192 0 0.176 0 0.368 0 0.64 0 0.064 0 0.112 0 0.176 0 0.32 0 0.704 0.016 1.136 0 0.064 0 0.112 0 0.176 0 0.464 0.032 0.976 0.064 1.552 0 0.064 0 0.112 0 0.176 0.032 0.592 0.080 1.248 0.128 1.936 0 0.064 0 0.112 0.016 0.176 0.064 0.704 0.112 1.456 0.208 2.24 0 0.064 0.016 0.128 0.032 0.192 0.080 0.784 0.192 1.6 0.304 2.464 0 0.080 0.032 0.16 0.032 0.24 0.128 0.912 0.288 1.856 0.464 2.832l0.048 0.24 0.096 0.496v0.016c0.208 1.088 0.464 2.208 0.752 3.344 0.032 0.080 0.048 0.144 0.064 0.224 0.304 1.104 0.608 2.224 0.976 3.36 0.112 0.352 0.224 0.688 0.336 1.040l0.24 0.72v0.016c0.336 0.928 0.688 1.856 1.088 2.784l0.064 0.144v0.016c0.544 1.28 1.184 2.544 1.856 3.776 0.176 0.32 0.368 0.656 0.56 0.976 0.72 1.232 1.488 2.432 2.352 3.568l0.032 0.064c0 0-1.008-9.728-0.752-21.328 0.048-1.824 0.128-3.696 0.256-5.584 0.080-1.264 0.16-2.528 0.272-3.792 0.768 12.464 3.040 24.16 6.368 35.072 0.928 3.008 1.936 5.936 3.008 8.832 0.144 0.416 0.288 0.832 0.448 1.248 1.040 2.736 2.128 5.392 3.28 8.016 0.224 0.496 0.432 0.976 0.656 1.456 1.168 2.592 2.368 5.136 3.632 7.6 0.208 0.384 0.4 0.752 0.592 1.136 2.688 5.168 5.568 10.080 8.56 14.736 0.224 0.352 0.432 0.688 0.656 1.024 1.136 1.744 2.304 3.424 3.472 5.088 0.304 0.448 0.592 0.912 0.912 1.344 0.288 0.4 0.56 0.784 0.832 1.168 1.488 2.048 2.976 4.048 4.48 5.984 0.24 0.304 0.48 0.608 0.72 0.912 1.568 1.984 3.136 3.92 4.704 5.776l0.080 0.096c1.984 2.336 3.952 4.576 5.92 6.704 1.44 1.552 2.864 3.056 4.272 4.512 0.528 0.544 1.088 1.072 1.632 1.632 3.376 3.408 6.624 6.464 9.648 9.168 9.088 8.144 16.176 13.168 18.64 14.832-1.488-0.368-3.216-0.832-5.152-1.376-2.912-0.816-6.272-1.84-9.984-3.104zM662.976 410.928c1.28-2.096 3.216-4.112 5.68-5.68 5.232-3.312 11.024-3.6 13.968-0.928 0.016 0.016 0.016 0.032 0.032 0.032 0.32-0.112 1.12-0.4 2.272-0.72 6.528-1.936 24.672-5.728 34.48 6.944 0.48 0.608 0.96 1.184 1.392 1.856-1.936 0.992-3.008 3.824-3.008 7.184-0.016 1.616 0.208 3.344 0.72 5.072 1.616 5.312 5.248 8.464 8.112 7.008 0 0-0.096 1.008-0.464 2.528-1.424 5.792-7.136 19.424-29.648 17.264-23.52-2.272-31.424-21.248-33.456-27.728-0.416-1.344-0.592-2.192-0.592-2.192l0.64-0.544c2.976 2.528 8.672 2.24 13.84-1.040 0.032-0.032 0.064-0.064 0.096-0.080-5.152 3.264-10.816 3.552-13.792 1.024-0.496-0.416-0.928-0.896-1.264-1.456-1.36-2.368-0.864-5.552 0.976-8.544v0zM708.816 505.84c-7.792-0.48-13.232-15.248-12.192-33.024 0.144-2.592 0.448-5.088 0.848-7.488 12.096-0.288 20.32-4.128 25.792-9.712 1.328 5.392 1.984 11.84 1.568 18.848-0.464 7.648-2.064 14.56-4.352 19.968-0.816 3.088-5.616 11.904-11.664 11.408zM726.752 431.6c-2.864 1.456-6.496-1.696-8.112-7.008-0.528-1.728-0.752-3.456-0.736-5.072 0.016-3.36 1.088-6.192 3.008-7.184 2.896-1.44 6.496 1.712 8.112 7.040 0.144 0.464 0.24 0.928 0.352 1.392v0.016c1.024 4.832-0.032 9.52-2.624 10.832zM480.928 483.232c6.816 11.872 14.208 21.44 21.68 29.12 14.56 14.976 29.376 22.864 40.864 27.024 12.416 4.48 20.912 4.64 20.912 4.64-2.912 1.584-6.064 2.704-9.264 3.504-2.112 0.528-4.24 0.896-6.336 1.152-0.784 0.096-1.568 0.176-2.368 0.24-10.768 0.944-20.096-0.88-20.096-0.88-2-0.464-3.92-0.976-5.76-1.536-14.64-4.448-24.832-12.064-31.952-20.848-5.76-7.12-9.52-14.992-11.904-22.608-0.208-0.672-0.4-1.344-0.592-2-0.56-1.968-1.056-3.904-1.456-5.808-1.344-6.4-1.872-12.304-2.016-16.96-0.176-6.384 0.32-10.496 0.32-10.496 2.544 5.584 5.2 10.688 7.952 15.488zM734.176 556.352c2.128-1.504 4.256-3.248 6.384-5.216 2.176-2.016 4.336-4.24 6.48-6.768 0 0-0.928 10.144-6.704 18.88-0.352 0.544-0.736 1.088-1.136 1.616l-0.496 0.64c-1.648 2.080-3.616 4-5.968 5.616-5.552 3.824-13.232 5.808-23.856 3.632 0 0-12.624-2.976-20-11.232 0 0 22 9.392 45.28-7.152zM557.872 433.488c1.408-11.888 4.816-22.384 9.184-29.712 8.432 2.608 17.568 5.008 27.344 7.216 1.696 7.616 2.128 17.040 0.912 27.104-2.784 23.616-13.44 41.696-23.776 40.416-10.352-1.28-16.464-21.456-13.664-45.040zM501.92 887.44l-4.544 39.792-8.112-17.936 1.312-16.064 0.016-0.128zM511.44 841.968c0.384 0.224 0.752 0.464 1.152 0.688 0.416 0.24 0.832 0.48 1.248 0.736 0.496 0.288 0.976 0.56 1.472 0.848 4.672 2.736 9.376 5.408 14.096 8l-48.272 23.6 29.84-34.176 0.496 0.288zM534.24 854.912c1.968 1.056 3.936 2.112 5.904 3.152 2.816 1.488 5.648 2.976 8.48 4.416 0.336 0.176 0.656 0.352 1.008 0.528l0.24 0.112c0.448 0.224 0.88 0.432 1.344 0.656l0.176 0.096-21.904 25.344 4.448-34.464 0.304 0.176z" horiz-adv-x="912" />
<glyph unicode="&#xe623;" d="M892.118 771.882l-120.234 120.236c-37.338 37.336-111.084 67.882-163.884 67.882h-448c-52.8 0-96-43.2-96-96v-832c0-52.8 43.2-96 96-96h704c52.8 0 96 43.2 96 96v576c0 52.8-30.546 126.546-67.882 163.882zM640 824.438c2.196-0.804 4.454-1.68 6.758-2.636 18.060-7.482 30.598-16.176 34.618-20.194l120.234-120.238c4.020-4.018 12.712-16.554 20.196-34.614 0.956-2.306 1.832-4.562 2.634-6.756h-184.44v184.438zM832 64h-640v768h384v-256h256v-512zM523.12 638.704c-6.010-31.020-12.534-61.954-17.686-93.114-1.374-8.534-1.774-20.146 2.804-26.276 25.928-34.85 52.942-69.024 81.156-102.042 5.152-6.016 17.8-8.014 26.9-7.848 38.576 0.866 77.208 5.672 115.612 4.184 31.422-1.26 50.366-23.642 50.194-50.022-0.172-28.96-17.858-45.734-52.254-50.022-45.5-5.61-85.506 8.636-124.138 31.364-10.13 5.954-25.812 9.324-36.628 6.12-49.28-14.652-98.042-31.188-146.258-49.042-11.394-4.236-21.238-15.058-29.418-24.84-25.818-30.854-49.080-63.936-76.182-93.582-15.962-17.452-38.716-24.89-63.238-15.962-32.368 11.728-44.846 45.724-21.094 69.99 25.038 25.59 53.914 50.772 86.048 65.080 43.612 19.458 68.972 49.274 84.222 92.198 12.992 36.578 29.246 71.95 41.296 108.744 3.918 11.904 1.114 27.128-2.060 40.012-9.59 38.856-24.84 76.744-30.366 116.068-5.266 37.712 16.542 61.666 47.588 64.184 34.028 2.778 53.658-15.598 59.438-56.172 1.376-9.386 1.316-18.95 1.89-28.45 0.742-0.166 1.43-0.37 2.174-0.572zM483.114 470.384c-15.14-37.264-29.502-72.458-45.672-112.176 38.346 12.362 72.286 23.35 108.114 34.912-21.12 26.098-40.808 50.48-62.442 77.264zM469.090 609.374c3.638 23.236 10.646 46.842-4.462 68.248-15.398-23.95-5.21-46.156 4.462-68.248zM663.112 372.746c26.272-17.806 52.942-19.408 76.636-3.548-27.644 1.258-49.22 2.288-76.636 3.548z" />
<glyph unicode="&#xe624;" d="M136.288 209.072c-75.2 0-136.288-61.328-136.288-136.080 0-75.152 61.104-135.808 136.288-135.808 75.472 0 136.496 60.656 136.496 135.808 0 74.736-61.024 136.080-136.496 136.080zM0.16 612.064v-196.256c127.792 0 247.952-49.968 338.464-140.512 90.384-90.32 140.288-211.040 140.288-339.296h197.12c0 372.816-303.28 676.064-675.856 676.064zM0.384 960v-196.352c455.776 0 826.752-371.328 826.752-827.648h196.848c0 564.464-459.248 1024-1023.616 1024z" />
<glyph unicode="&#xe625;" d="M575.872-64h-191.872v512h-128v176.448l128 0.064-0.208 103.952c0 143.952 39.040 231.536 208.592 231.536h141.184v-176.48h-88.224c-66.032 0-69.2-24.656-69.2-70.688l-0.256-88.32h158.688l-18.704-176.448-139.856-0.064-0.128-512z" />
<glyph unicode="&#xe626;" d="M960 832h-896c-35.344 0-64-28.624-64-64v-640c0-35.376 28.656-64 64-64h896c35.344 0 64 28.624 64 64v640c0 35.376-28.656 64-64 64zM832 704l-320-256-320 256h640zM896 192h-768v448l384-320 384 320v-448z" />
<glyph unicode="&#xe627;" d="M1018.448 445.936c0-101.248 3.392-202.656-0.992-303.712-4.128-95.472-101.008-194.384-196.288-199.264-114.992-5.904-230.384-4.288-345.6-4.528-8.384-0.016-20.752 9.568-24.608 17.808-43.504 92.864-72.32 190.304-89.696 291.392-17.712 103.008-19.792 206.848-14.496 310.512 6.672 130.496 34.368 257.072 84.864 378.24 7.072 16.992 16.656 23.664 35.296 23.536 102.192-0.768 204.384 0.432 306.56-0.576 119.088-1.184 212.848-72.688 240.64-184.032 6.464-25.904 7.76-53.552 8.080-80.432 0.992-82.96 0.368-165.952 0.368-248.928-1.376-0.016-2.752-0.016-4.128-0.016zM403.072 446.304c2.272-29.52 4.176-59.088 6.896-88.576 12.064-130.864 66.128-244.544 143.824-348.24 16.080-21.456 38.272-24.384 60.272-11.168 30.032 18.032 32.208 38.832 5.968 74.224-122.16 164.672-149.696 347.232-101.392 543.264 19.28 78.208 60.432 146.144 108.016 210.448 20.816 28.128 15.248 51.424-14.080 66.944-24.304 12.864-43.776 6.64-64.624-21.184-94.464-126.128-145.936-266.72-144.88-425.712zM622.752 457.504c2.56-29.456 3.504-59.168 8-88.336 12.384-80.112 46.368-151.216 95.152-215.328 16.864-22.16 41.472-21.296 56.96 0.032 12.096 16.688 2.288 29.408-7.28 42.256-82.528 110.752-102.256 234.272-73.264 367.056 12.688 58.112 42.8 108.144 77.072 155.984 16.624 23.216 8.928 48.24-17.408 50.64-12.384 1.12-30.496-8.064-38.368-18.4-65.824-86.512-102.064-183.664-100.848-293.92zM247.376 960c-111.344-345.264-108.432-682.4 15.376-1024-28.608 3.488-54.608 3.824-79.056 10.128-110.4 28.464-181.888 120.928-182.752 238.8-1.28 174.576-1.2 349.184-0.032 523.776 0.816 121.984 74.352 215.84 187.696 242.944 18.192 4.352 37.2 5.376 58.768 8.336z" />
<glyph unicode="&#xe628;" d="M512 919.040c-260.16 0-471.040-210.88-471.040-471.040s210.88-471.040 471.040-471.040 471.040 210.88 471.040 471.040-210.88 471.040-471.040 471.040zM512 79.36c-203.616 0-368.64 165.056-368.64 368.64s165.024 368.64 368.64 368.64 368.64-165.056 368.64-368.64-165.024-368.64-368.64-368.64zM604.16 645.12h-184.32v-209.408h-115.2l207.36-195.072 207.36 195.072h-115.2v209.408z" />
<glyph unicode="&#xe629;" d="M747.52 652.736l-471.040 0.064 235.52-409.6z" />
<glyph unicode="&#xe62a;" d="M792.736 521.568c-20.832-21.408-240.384-230.56-240.384-230.56-11.168-11.424-25.76-17.088-40.352-17.088-14.656 0-29.248 5.696-40.352 17.088 0 0-219.552 209.152-240.448 230.56-20.832 21.408-22.272 59.84 0 82.752 22.336 22.848 53.408 24.64 80.704 0l200.096-191.904 200.032 191.84c27.328 24.64 58.464 22.848 80.704 0 22.336-22.848 20.928-61.344 0-82.688z" />
<glyph unicode="&#xe62b;" d="M512.064-23.040c260.16 0 470.976 210.88 470.976 471.040s-210.848 471.040-470.976 471.040c-260.192 0-471.104-210.88-471.104-471.040s210.88-471.040 471.104-471.040zM512.064 816.64c203.616 0 368.576-165.056 368.576-368.64s-165.024-368.64-368.576-368.64c-203.68 0-368.704 165.024-368.704 368.64s165.024 368.64 368.704 368.64zM419.84 250.88h184.384v209.408h115.2l-207.36 195.072-207.424-195.072h115.2v-209.408z" />
<glyph unicode="&#xe62c;" d="M276.48 243.2h471.040l-235.584 409.6z" />
<glyph unicode="&#xe62d;" d="M792.736 374.432c-20.832 21.408-240.384 230.496-240.384 230.496-11.168 11.424-25.76 17.152-40.352 17.152-14.656 0-29.248-5.728-40.352-17.152 0 0-219.552-209.088-240.448-230.496-20.832-21.408-22.272-59.904 0-82.752 22.336-22.784 53.408-24.64 80.704 0l200.096 191.84 200.032-191.84c27.328-24.64 58.464-22.784 80.704 0 22.336 22.88 20.928 61.376 0 82.752z" />
<glyph unicode="&#xe62e;" d="M778.176 499.2h-532.416c-28.32 0-30.72-22.944-30.72-51.2s2.4-51.2 30.72-51.2h532.416c28.32 0 30.784 22.944 30.784 51.2s-2.464 51.2-30.784 51.2z" />
<glyph unicode="&#xe62f;" d="M778.176 499.2h-215.040v215.040c0 28.256-22.88 30.72-51.2 30.72-28.256 0-51.2-2.4-51.2-30.72v-215.040h-214.976c-28.32 0-30.72-22.944-30.72-51.2s2.4-51.2 30.72-51.2h214.976v-215.040c0-28.256 22.944-30.72 51.2-30.72 28.32 0 51.2 2.464 51.2 30.72v215.040h215.040c28.32 0 30.784 22.944 30.784 51.2s-2.464 51.2-30.784 51.2z" />
<glyph unicode="&#xe630;" d="M0 960v-1024h1024v1024h-1024zM950.866 9.134h-877.732v877.732h877.711v-877.732zM804.557 301.711v73.134l-292.557 292.577-292.577-292.557v-73.134l292.577 292.557 292.557-292.577z" />
<glyph unicode="&#xe631;" d="M1024-64v1024h-1024v-1024h1024zM73.134 886.866h877.732v-877.732h-877.711v877.732zM219.443 594.289v-73.134l292.557-292.577 292.577 292.557v73.134l-292.577-292.557-292.557 292.577z" />
<glyph unicode="&#xe632;" d="M796.447 960h-568.893c-125.112 0-227.553-102.441-227.553-227.553v-568.873c0-125.133 102.441-227.574 227.553-227.574h568.873c125.133 0 227.574 102.441 227.574 227.553v568.893c0 125.112-102.441 227.553-227.553 227.553zM796.447 391.127h-227.574v-227.553h-113.766v227.553h-227.553v113.766h227.553v227.553h113.766v-227.553h227.553v-113.766z" />
<glyph unicode="&#xe633;" d="M796.447 960h-568.893c-125.112 0-227.553-102.441-227.553-227.553v-568.873c0-125.133 102.441-227.574 227.553-227.574h568.873c125.133 0 227.574 102.441 227.574 227.553v568.893c0 125.112-102.441 227.553-227.553 227.553zM796.447 391.127h-568.893v113.766h568.873v-113.766z" />
<glyph unicode="&#xe634;" d="M768 618.68h-512l256-426.68 256 426.68zM512-64c282.337 0 512 229.663 512 512 0 282.317-229.663 512-512 512s-512-229.683-512-512c0-282.337 229.663-512 512-512zM512 874.68c235.663 0 426.66-191.017 426.66-426.68 0-235.581-190.996-426.66-426.66-426.66-235.5 0-426.66 191.099-426.66 426.66 0 235.663 191.16 426.68 426.66 426.68z" />
<glyph unicode="&#xe635;" d="M256 277.32h512l-256 426.68-256-426.68zM512 960c-282.337 0-512-229.663-512-512 0-282.317 229.663-512 512-512s512 229.683 512 512c0 282.337-229.663 512-512 512zM512 21.32c-235.663 0-426.66 191.017-426.66 426.68 0 235.581 190.996 426.66 426.66 426.66 235.5 0 426.66-191.099 426.66-426.66 0-235.663-191.16-426.68-426.66-426.68z" />
<glyph unicode="&#xe636;" d="M512-64c-282.75 0-512 229.25-512 512 0 282.782 229.25 512 512 512s512-229.218 512-512c0-282.75-229.25-512-512-512zM128 448c0-82.624 26.624-158.624 71.062-221.312l534.25 534.28c-62.624 44.376-138.688 71.032-221.312 71.032-212.062 0-384-171.938-384-384zM824.938 669.312l-534.25-534.312c62.624-44.376 138.688-71 221.312-71 212.062 0 384 171.938 384 384 0 82.624-26.624 158.656-71.062 221.312z" />
<glyph unicode="&#xe637;" d="M1021.642 187.328c-0.154-139.343-113.083-251.954-252.033-251.326-139.197 0.632-250.86 112.607-250.821 251.525 0.041 139.171 113.134 251.971 252.033 251.372 139.072-0.598 250.973-112.836 250.821-251.571zM734.612 223.718c-5.723 0-9.396 0-13.069 0-27.351-0.002-54.701 0.15-82.045-0.219-3.067-0.043-8.697-2.972-8.741-4.683-0.596-22.149-0.395-44.318-0.395-67.76 35.153 0 69.051 0 104.508 0 0-35.104 0-68.942 0-102.836 24.075 0 46.564 0 70.428 0 0 34.435 0 68.297 0 102.895 5.060 0 8.741 0 12.418 0 27.348 0 54.703 0.314 82.045-0.189 8.271-0.152 10.365 2.676 10.152 10.448-0.478 17.543-0.466 35.119-0.004 52.664 0.199 7.521-2.177 9.957-9.779 9.832-24.979-0.414-49.968-0.154-74.954-0.152-6.307 0-12.615 0-20.395 0 0 35.094 0 68.918 0 102.8-23.957 0-46.42 0-70.166 0-0.002-34.204-0.002-67.799-0.002-102.8zM545.721-25.391c-20.112-1.119-38.922-3.256-57.703-3.014-72.899 0.939-145.897 0.691-218.654 4.636-63.349 3.434-126.165 13.264-185.702 37.342-21.719 8.784-41.972 19.968-58.818 36.734-15.532 15.459-25.076 33.669-24.839 55.731 0.203 18.794-0.57 38.198 3.744 56.215 7.448 31.099 29.921 53.091 53.286 73.391 46.611 40.497 100.736 68.69 156.611 93.767 18.441 8.275 37.415 15.368 56.126 23.047 40.259 16.519 52.97 69.329 24.415 102.449-52.041 60.357-80.56 130.935-91.577 209.207-7.095 50.399-5.891 100.266 9.522 149.24 29.372 93.325 109.737 149.96 207.928 146.493 54.859-1.936 104.081-18.253 144.304-57.044 33.734-32.532 52.666-72.968 61.583-118.384 12.23-62.317 6.144-123.677-11.63-184.056-16.209-55.062-42.615-104.612-80.474-148.234-11.632-13.402-11.224-31.954-11.545-49.203-0.075-4.036-0.687-8.701 1.016-12.011 5.502-10.701 0.235-18.036-5.652-26.329-73.807-103.985-73.669-249.282 0.237-353.511 8.522-12.017 17.865-23.456 27.823-36.465z" horiz-adv-x="1022" />
<glyph unicode="&#xe638;" d="M492.827 304.2h242.863v-127.822h-242.863v127.822zM685.32 713.232h-342.63c-29.121 0-54.38-23.65-54.38-52.808v-75.015h447.379v127.822h-50.369zM681.309 508.716h-392.999v-332.338h127.822v204.516h265.176c23.35 0 44.205 15.618 51.558 36.769 1.842 4.833 2.822 10.041 2.822 15.090v75.963h-54.38zM512-64c-69.105 0-136.161 13.542-199.304 40.248-60.973 25.789-115.725 62.701-162.735 109.713s-83.923 101.762-109.713 162.735c-26.706 63.143-40.248 130.199-40.248 199.304s13.542 136.161 40.248 199.304c25.789 60.973 62.701 115.725 109.713 162.735s101.762 83.923 162.735 109.713c63.143 26.706 130.199 40.248 199.304 40.248s136.161-13.542 199.304-40.248c60.973-25.789 115.723-62.701 162.735-109.713s83.924-101.762 109.713-162.735c26.706-63.143 40.248-130.199 40.248-199.304s-13.542-136.161-40.248-199.304c-25.789-60.973-62.701-115.723-109.713-162.735s-101.762-83.924-162.735-109.713c-63.143-26.706-130.199-40.248-199.304-40.248zM512 894.669c-119.309 0-231.478-46.462-315.842-130.826s-130.826-196.533-130.826-315.842c0-119.309 46.462-231.478 130.826-315.842s196.533-130.826 315.842-130.826c119.309 0 231.478 46.462 315.842 130.826s130.826 196.533 130.826 315.842c0 119.309-46.462 231.478-130.826 315.842s-196.533 130.826-315.842 130.826z" />
<glyph unicode="&#xe639;" d="M492.827 304.2h242.863v-127.822h-242.863v127.822z" />
<glyph unicode="&#xe63a;" d="M685.32 713.232h-342.63c-29.121 0-54.38-23.65-54.38-52.808v-75.015h447.379v127.822h-50.369z" />
<glyph unicode="&#xe63b;" d="M681.309 508.716h-392.999v-332.338h127.822v204.516h265.176c23.35 0 44.205 15.618 51.558 36.769 1.842 4.833 2.822 10.041 2.822 15.090v75.963h-54.38z" />
<glyph unicode="&#xe63c;" d="M512-64c-69.105 0-136.161 13.542-199.304 40.248-60.973 25.789-115.725 62.701-162.735 109.713s-83.923 101.762-109.713 162.735c-26.706 63.143-40.248 130.199-40.248 199.304s13.542 136.161 40.248 199.304c25.789 60.973 62.701 115.725 109.713 162.735s101.762 83.923 162.735 109.713c63.143 26.706 130.199 40.248 199.304 40.248s136.161-13.542 199.304-40.248c60.973-25.789 115.723-62.701 162.735-109.713s83.924-101.762 109.713-162.735c26.706-63.143 40.248-130.199 40.248-199.304s-13.542-136.161-40.248-199.304c-25.789-60.973-62.701-115.723-109.713-162.735s-101.762-83.924-162.735-109.713c-63.143-26.706-130.199-40.248-199.304-40.248zM512 894.669c-119.309 0-231.478-46.462-315.842-130.826s-130.826-196.533-130.826-315.842c0-119.309 46.462-231.478 130.826-315.842s196.533-130.826 315.842-130.826c119.309 0 231.478 46.462 315.842 130.826s130.826 196.533 130.826 315.842c0 119.309-46.462 231.478-130.826 315.842s-196.533 130.826-315.842 130.826z" />
</font>
</defs>
</svg>
