<svg width="24" height="24" viewBox="0 0 24 24" fill="none" xmlns="http://www.w3.org/2000/svg">
<path d="M14.9981 6.49951C14.4461 6.49951 13.9976 6.05101 13.9976 5.49901V3.99901H9.99709V5.49901C9.99709 6.05101 9.54859 6.49951 8.99659 6.49951C8.44459 6.49951 7.99609 6.05101 7.99609 5.49901V3.99901C7.99609 2.89651 8.89309 1.99951 9.99559 1.99951H13.9961C15.0986 1.99951 15.9956 2.89651 15.9956 3.99901V5.49901C15.9986 6.05251 15.5501 6.49951 14.9981 6.49951Z" fill="white" fill-opacity="0.6"/>
<path d="M18 12.4995V13.419C18 13.8285 17.6595 14.169 17.25 14.169C16.8405 14.169 16.5 13.8285 16.5 13.419V12.4995H7.5V13.419C7.5 13.8285 7.1595 14.169 6.75 14.169C6.3405 14.169 6 13.8285 6 13.419V12.4995H0V19.2495C0 20.769 1.23 21.999 2.7495 21.999H21.249C22.7685 21.999 23.9985 20.769 23.9985 19.2495V12.4995H18ZM21.2505 4.99951H2.7495C1.23 4.99951 0 6.22951 0 7.75051V11.001H6V9.75001C6 9.34051 6.3405 9.00001 6.75 9.00001C7.1595 9.00001 7.5 9.34051 7.5 9.75001V10.9995H16.5V9.75001C16.5 9.34051 16.8405 9.00001 17.25 9.00001C17.6595 9.00001 18 9.34051 18 9.75001V10.9995H24V7.74901C24 6.22951 22.77 4.99951 21.2505 4.99951Z" fill="white"/>
</svg>
