<svg width="30" height="30" viewBox="0 0 30 30" fill="none" xmlns="http://www.w3.org/2000/svg">
<path fill-rule="evenodd" clip-rule="evenodd" d="M4.45312 2.8125C4.45312 1.38864 5.60739 0.234375 7.03125 0.234375H22.9688C24.3926 0.234375 25.5469 1.38864 25.5469 2.8125V19.2188C25.5469 19.6071 25.2321 19.9219 24.8438 19.9219C24.4554 19.9219 24.1406 19.6071 24.1406 19.2188V2.8125C24.1406 2.16529 23.616 1.64062 22.9688 1.64062H7.03125C6.38404 1.64062 5.85938 2.16529 5.85938 2.8125V27.1875C5.85938 27.8347 6.38404 28.3594 7.03125 28.3594H22.9688C23.616 28.3594 24.1406 27.8347 24.1406 27.1875V25.0763C24.1406 24.688 24.4554 24.3732 24.8438 24.3732C25.2321 24.3732 25.5469 24.688 25.5469 25.0763V27.1875C25.5469 28.6114 24.3926 29.7656 22.9688 29.7656H7.03125C5.60739 29.7656 4.45312 28.6114 4.45312 27.1875V2.8125Z" fill="#3F4B5B"/>
<path fill-rule="evenodd" clip-rule="evenodd" d="M8.67188 13.125C8.67188 12.7367 8.98667 12.4219 9.375 12.4219H10.7812C11.1696 12.4219 11.4844 12.7367 11.4844 13.125C11.4844 13.5133 11.1696 13.8281 10.7812 13.8281H9.375C8.98667 13.8281 8.67188 13.5133 8.67188 13.125Z" fill="#3F4B5B"/>
<path fill-rule="evenodd" clip-rule="evenodd" d="M8.67188 16.4062C8.67188 16.0179 8.98667 15.7031 9.375 15.7031H10.7812C11.1696 15.7031 11.4844 16.0179 11.4844 16.4062C11.4844 16.7946 11.1696 17.1094 10.7812 17.1094H9.375C8.98667 17.1094 8.67188 16.7946 8.67188 16.4062Z" fill="#3F4B5B"/>
<path fill-rule="evenodd" clip-rule="evenodd" d="M8.67188 20.1562C8.67188 19.7679 8.98667 19.4531 9.375 19.4531H10.7812C11.1696 19.4531 11.4844 19.7679 11.4844 20.1562C11.4844 20.5446 11.1696 20.8594 10.7812 20.8594H9.375C8.98667 20.8594 8.67188 20.5446 8.67188 20.1562Z" fill="#3F4B5B"/>
<path fill-rule="evenodd" clip-rule="evenodd" d="M8.67188 23.9062C8.67188 23.5179 8.98667 23.2031 9.375 23.2031H10.7812C11.1696 23.2031 11.4844 23.5179 11.4844 23.9062C11.4844 24.2946 11.1696 24.6094 10.7812 24.6094H9.375C8.98667 24.6094 8.67188 24.2946 8.67188 23.9062Z" fill="#3F4B5B"/>
<path fill-rule="evenodd" clip-rule="evenodd" d="M12.4219 13.125C12.4219 12.7367 12.7367 12.4219 13.125 12.4219H14.5312C14.9196 12.4219 15.2344 12.7367 15.2344 13.125C15.2344 13.5133 14.9196 13.8281 14.5312 13.8281H13.125C12.7367 13.8281 12.4219 13.5133 12.4219 13.125Z" fill="#3F4B5B"/>
<path fill-rule="evenodd" clip-rule="evenodd" d="M12.4219 16.4062C12.4219 16.0179 12.7367 15.7031 13.125 15.7031H14.5312C14.9196 15.7031 15.2344 16.0179 15.2344 16.4062C15.2344 16.7946 14.9196 17.1094 14.5312 17.1094H13.125C12.7367 17.1094 12.4219 16.7946 12.4219 16.4062Z" fill="#3F4B5B"/>
<path fill-rule="evenodd" clip-rule="evenodd" d="M12.4219 20.1562C12.4219 19.7679 12.7367 19.4531 13.125 19.4531H14.5312C14.9196 19.4531 15.2344 19.7679 15.2344 20.1562C15.2344 20.5446 14.9196 20.8594 14.5312 20.8594H13.125C12.7367 20.8594 12.4219 20.5446 12.4219 20.1562Z" fill="#3F4B5B"/>
<path fill-rule="evenodd" clip-rule="evenodd" d="M12.4219 23.9062C12.4219 23.5179 12.7367 23.2031 13.125 23.2031H14.5312C14.9196 23.2031 15.2344 23.5179 15.2344 23.9062C15.2344 24.2946 14.9196 24.6094 14.5312 24.6094H13.125C12.7367 24.6094 12.4219 24.2946 12.4219 23.9062Z" fill="#3F4B5B"/>
<path fill-rule="evenodd" clip-rule="evenodd" d="M16.1719 13.125C16.1719 12.7367 16.4867 12.4219 16.875 12.4219H18.2812C18.6696 12.4219 18.9844 12.7367 18.9844 13.125C18.9844 13.5133 18.6696 13.8281 18.2812 13.8281H16.875C16.4867 13.8281 16.1719 13.5133 16.1719 13.125Z" fill="#3F4B5B"/>
<path fill-rule="evenodd" clip-rule="evenodd" d="M19.9219 13.125C19.9219 12.7367 20.2367 12.4219 20.625 12.4219H21.5625C21.9508 12.4219 22.2656 12.7367 22.2656 13.125C22.2656 13.5133 21.9508 13.8281 21.5625 13.8281H20.625C20.2367 13.8281 19.9219 13.5133 19.9219 13.125Z" fill="#7388A6"/>
<path fill-rule="evenodd" clip-rule="evenodd" d="M16.1719 16.4062C16.1719 16.0179 16.4867 15.7031 16.875 15.7031H18.2812C18.6696 15.7031 18.9844 16.0179 18.9844 16.4062C18.9844 16.7946 18.6696 17.1094 18.2812 17.1094H16.875C16.4867 17.1094 16.1719 16.7946 16.1719 16.4062Z" fill="#3F4B5B"/>
<path fill-rule="evenodd" clip-rule="evenodd" d="M19.9219 16.4062C19.9219 16.0179 20.2367 15.7031 20.625 15.7031H21.5625C21.9508 15.7031 22.2656 16.0179 22.2656 16.4062C22.2656 16.7946 21.9508 17.1094 21.5625 17.1094H20.625C20.2367 17.1094 19.9219 16.7946 19.9219 16.4062Z" fill="#7388A6"/>
<path fill-rule="evenodd" clip-rule="evenodd" d="M16.1719 20.1562C16.1719 19.7679 16.4867 19.4531 16.875 19.4531H18.2812C18.6696 19.4531 18.9844 19.7679 18.9844 20.1562C18.9844 20.5446 18.6696 20.8594 18.2812 20.8594H16.875C16.4867 20.8594 16.1719 20.5446 16.1719 20.1562Z" fill="#3F4B5B"/>
<path fill-rule="evenodd" clip-rule="evenodd" d="M16.1719 23.9062C16.1719 23.5179 16.4867 23.2031 16.875 23.2031H18.2812C18.6696 23.2031 18.9844 23.5179 18.9844 23.9062C18.9844 24.2946 18.6696 24.6094 18.2812 24.6094H16.875C16.4867 24.6094 16.1719 24.2946 16.1719 23.9062Z" fill="#3F4B5B"/>
<path fill-rule="evenodd" clip-rule="evenodd" d="M19.9219 20.1562C19.9219 19.7679 20.2367 19.4531 20.625 19.4531H21.5625C21.9508 19.4531 22.2656 19.7679 22.2656 20.1562C22.2656 20.5446 21.9508 20.8594 21.5625 20.8594H20.625C20.2367 20.8594 19.9219 20.5446 19.9219 20.1562Z" fill="#7388A6"/>
<path fill-rule="evenodd" clip-rule="evenodd" d="M19.9219 23.9062C19.9219 23.5179 20.2367 23.2031 20.625 23.2031H21.5625C21.9508 23.2031 22.2656 23.5179 22.2656 23.9062C22.2656 24.2946 21.9508 24.6094 21.5625 24.6094H20.625C20.2367 24.6094 19.9219 24.2946 19.9219 23.9062Z" fill="#7388A6"/>
<path fill-rule="evenodd" clip-rule="evenodd" d="M20.625 6.09375H9.84375V9.375H20.625V6.09375ZM8.4375 4.6875V10.7812H22.0312V4.6875H8.4375Z" fill="#7388A6"/>
</svg>
