<svg width="30" height="30" viewBox="0 0 30 30" fill="none" xmlns="http://www.w3.org/2000/svg">
<path fill-rule="evenodd" clip-rule="evenodd" d="M22.6011 21.476C22.7845 21.2888 22.8926 21.0287 22.8926 20.7516V8.67089C22.8926 8.39375 22.7845 8.13369 22.6011 7.94643C22.4187 7.76017 22.1775 7.66101 21.9323 7.66101H5.36654C5.12138 7.66101 4.88021 7.76017 4.69777 7.94643C4.51436 8.13369 4.40625 8.39375 4.40625 8.67089V24.5545L6.17702 22.7467C6.79421 22.1165 7.63911 21.7614 8.52115 21.7614H21.9323C22.1775 21.7614 22.4187 21.6623 22.6011 21.476ZM7.18165 23.7307C7.53433 23.3706 8.01712 23.1677 8.52115 23.1677H21.9323C22.56 23.1677 23.1619 22.9131 23.6057 22.46C24.0495 22.0069 24.2989 21.3924 24.2989 20.7516V8.67089C24.2989 8.03009 24.0495 7.41554 23.6057 6.96243C23.1619 6.50932 22.56 6.25476 21.9323 6.25476H5.36654C4.7389 6.25476 4.13696 6.50932 3.69314 6.96243C3.24933 7.41554 3 8.03009 3 8.67089V26.8515C3 27.2714 3.50976 27.4795 3.80362 27.1795L7.18165 23.7307Z" fill="#3F4B5B"/>
<path fill-rule="evenodd" clip-rule="evenodd" d="M9.23828 2C9.23828 1.61167 9.55308 1.29688 9.94141 1.29688H26.0761C27.5265 1.29688 28.7023 2.47267 28.7023 3.92308V16.6544C28.7023 17.0427 28.3875 17.3575 27.9991 17.3575C27.6108 17.3575 27.296 17.0427 27.296 16.6544V3.92308C27.296 3.24932 26.7498 2.70312 26.0761 2.70312H9.94141C9.55308 2.70312 9.23828 2.38833 9.23828 2Z" fill="#7388A6"/>
</svg>
