<svg xmlns="http://www.w3.org/2000/svg" fill="none" viewBox="0 0 470 281">
  <path fill="#000" d="M6.5 267c-.4 0-.8 0-1-.3-.4-.2-.6-.5-.8-1l-.2-1.6c0-.6 0-1.2.2-1.6.2-.5.4-.8.7-1 .3-.3.7-.4 1.1-.4.4 0 .8.1 1 .4.4.2.6.5.8 1l.2 1.6c0 .6 0 1.2-.2 1.6-.2.5-.4.8-.7 1-.3.3-.7.4-1.1.4Zm0-.5c.4 0 .8-.3 1-.7.2-.4.3-1 .3-1.7l-.1-1.3c-.1-.4-.3-.6-.5-.8a1 1 0 0 0-.7-.3c-.4 0-.7.2-1 .6-.2.5-.3 1-.3 1.8l.1 1.3.5.8c.2.2.4.3.7.3ZM4.8 238v-.5l1.9-2.1a13.2 13.2 0 0 0 .9-1.2v-.5a1 1 0 0 0-.5-.9H6a1 1 0 0 0-.4.4l-.1.6h-.7c0-.3 0-.6.2-.9l.7-.6a2 2 0 0 1 .9-.2c.3 0 .6 0 .9.2l.6.6c.2.2.2.5.2.8v.6l-.5.7-.8 1-1.3 1.3h2.7v.7H4.8Zm-.5-30.2v-.6l2.6-4h.4v.9H7l-2 3h3.5v.7H4.3Zm2.8 1.2v-5.8h.6v5.8h-.6Zm-.6-29h-.7l-.6-.5-.5-.8-.2-1.4c0-.5 0-1 .2-1.4 0-.4.2-.7.4-1l.6-.6 1-.2c.3 0 .5 0 .8.2.3.1.5.3.6.5.2.3.3.5.3.8h-.7l-.3-.6a1 1 0 0 0-.8-.3c-.4 0-.8.2-1 .6a3 3 0 0 0-.4 1.7 1.7 1.7 0 0 1 2.4-.6c.2.2.5.4.6.7.2.3.3.7.3 1 0 .4-.1.7-.3 1a1.8 1.8 0 0 1-1.7 1Zm0-.5.7-.2.4-.5.2-.7a1.3 1.3 0 0 0-.6-1.1l-.6-.2-.5.1a1.3 1.3 0 0 0-.7.7l-.1.5a1.3 1.3 0 0 0 .6 1.2l.6.2Zm0-28.5-1-.1-.7-.6c-.2-.3-.2-.5-.2-.8a1.5 1.5 0 0 1 .5-1.3l.6-.2-.7-.5-.2-.9c0-.2 0-.5.2-.7l.6-.6a2 2 0 0 1 1-.2c.3 0 .6 0 .8.2.3.1.5.3.7.6l.2.7c0 .4 0 .6-.3.9-.1.2-.3.4-.6.4l.6.3.4.6.1.7c0 .3 0 .5-.2.8l-.7.6-1 .2Zm0-.5c.3 0 .5 0 .7-.2.2 0 .4-.2.5-.3l.1-.6c0-.2 0-.4-.2-.6l-.4-.4-.7-.1-.6.1-.5.4a1 1 0 0 0-.1.6l.1.6.4.3.7.2Zm0-2.8.6-.1a1 1 0 0 0 .5-1l-.1-.4-.4-.4H6l-.4.4-.1.5v.5l.5.4h.5ZM3 116.2v5.8h-.8v-5l-1.4.9v-.8l1.4-1H3Zm3.5 5.9c-.4 0-.8-.1-1-.4-.4-.2-.6-.5-.8-1l-.2-1.6c0-.6 0-1.2.2-1.6.2-.5.4-.8.7-1 .3-.3.7-.4 1.1-.4.4 0 .8.1 1 .4.4.2.6.5.8 1l.2 1.6c0 .6 0 1.2-.2 1.6-.2.5-.4.8-.7 1-.3.3-.7.4-1.1.4Zm0-.6c.4 0 .8-.3 1-.7.2-.4.3-1 .3-1.7l-.1-1.3-.5-.8a1 1 0 0 0-.7-.3c-.4 0-.7.2-1 .6-.2.5-.3 1-.3 1.8l.1 1.3.5.8c.2.2.4.3.7.3ZM3 87.2V93h-.6v-5l-1.5.9V88l1.5-1H3ZM4.9 93v-.5l1.9-2.1a13.3 13.3 0 0 0 .9-1.2v-.5a1 1 0 0 0-.5-.9H6a1 1 0 0 0-.4.4l-.1.6h-.7c0-.3 0-.6.2-.9l.7-.6a2 2 0 0 1 .9-.2c.3 0 .6 0 .9.2l.6.6c.2.2.2.5.2.8v.6l-.5.7-.8 1-1.3 1.3h2.7v.7H4.8ZM2.8 58.2V64h-.7v-5l-1.5.9V59l1.5-1h.7Zm1.5 4.6v-.6l2.6-4h.4v.9H7l-2 3h3.5v.7H4.3ZM7.1 64v-5.8h.6V64h-.6ZM3 29.2V35h-.8v-5l-1.4.9V30l1.4-1H3ZM6.4 35c-.2 0-.4 0-.7-.2-.2 0-.4-.2-.6-.4l-.5-.8-.2-1.4c0-.5 0-1 .2-1.4 0-.4.2-.7.4-1l.6-.6 1-.2c.3 0 .5 0 .8.2.3.1.5.3.6.5.2.3.3.5.3.8h-.7l-.3-.6a1 1 0 0 0-.8-.3c-.4 0-.8.2-1 .6a3 3 0 0 0-.4 1.7 1.7 1.7 0 0 1 1.5-.8c.3 0 .6 0 .9.2.2.2.5.4.6.7.2.3.3.6.3 1s-.1.7-.3 1a1.8 1.8 0 0 1-1.7 1Zm0-.6.7-.2.4-.5.2-.7a1.3 1.3 0 0 0-.6-1.1l-.6-.2-.5.1a1.3 1.3 0 0 0-.7.7l-.1.5a1.3 1.3 0 0 0 .6 1.2l.6.2ZM3 .2V6h-.7V1l-1.5.9V1l1.5-1H3ZM6.5 6c-.4 0-.7 0-1-.2l-.7-.6c-.2-.3-.2-.5-.2-.8A1.5 1.5 0 0 1 5 3.2l.6-.2-.7-.5-.2-.9c0-.2 0-.5.2-.7l.6-.6a2 2 0 0 1 1-.2c.3 0 .6 0 .8.2.3.1.5.3.7.6l.2.7c0 .4 0 .6-.3.9-.1.2-.3.4-.6.4l.6.3.4.6.1.7c0 .3 0 .5-.2.8l-.7.6-1 .2Zm0-.6c.3 0 .5 0 .7-.2.2 0 .4-.2.5-.3l.1-.6c0-.2 0-.4-.2-.6l-.4-.4-.7-.1-.6.1-.5.4a1 1 0 0 0-.1.6l.1.6.4.3.7.2Zm0-2.8.6-.1a1 1 0 0 0 .5-1l-.1-.4L7 .8H6l-.4.4-.1.5v.5l.5.4h.5Z"/>
  <path fill="#F2F4F7" d="M15 2h1v262h-1zm75 0h1v267h-1zm75 0h1v267h-1zm75 0h1v267h-1zm75 0h1v267h-1zm75 0h1v267h-1zm75 0h1v267h-1z"/>
  <path fill="#F2F4F7" d="M470 2v1H11V2zm0 30v1H11v-1zm0 29v1H11v-1zm0 29v1H11v-1zm0 29v1H11v-1zm0 29v1H11v-1zm0 29v1H11v-1zm0 29v1H11v-1zm0 29v1H11v-1zm0 29v1H11v-1z"/>
  <path fill="#000" d="M40.8 273.2h.7v4.1c0 .4 0 .7-.2 1l-.6.6-.8.2a2 2 0 0 1-.9-.2l-.6-.5-.2-.8h.7l.1.5.4.3h1l.3-.4.1-.7v-4.1Zm3.3 5.9c-.3 0-.5 0-.7-.2-.3 0-.4-.2-.6-.4l-.2-.7c0-.3 0-.5.2-.6 0-.2.2-.3.4-.4l.5-.2a7 7 0 0 1 1.3-.2h.3l.1-.3c0-.3 0-.5-.2-.7-.1-.2-.4-.2-.7-.2-.3 0-.5 0-.7.2l-.4.4-.6-.2a1.5 1.5 0 0 1 1-1 2.6 2.6 0 0 1 1.2 0l.5.2.4.5c.2.2.2.5.2.8v2.9h-.7v-.6l-.2.3-.4.3-.7.1Zm.1-.6c.3 0 .5 0 .7-.2a1 1 0 0 0 .5-.9v-.6l-.1.1a3.3 3.3 0 0 1-.7.1 11.8 11.8 0 0 0-.8.2c-.2 0-.3 0-.4.2l-.1.4c0 .2 0 .4.3.5l.6.2Zm3.8-2.1v2.6h-.7v-4.4h.7v.7l.5-.5c.2-.2.5-.2.8-.2.3 0 .6 0 .8.2.2 0 .4.3.5.5l.2 1v2.7H50v-2.7c0-.4 0-.6-.2-.8a1 1 0 0 0-.8-.3l-.5.1a1 1 0 0 0-.4.4l-.2.7Zm6.8.8v-2.6h.6v4.4h-.6v-.7c-.2.2-.3.4-.6.5-.2.2-.4.3-.8.3l-.7-.2a1 1 0 0 1-.5-.6 2 2 0 0 1-.2-.9v-2.8h.7v2.8c0 .3 0 .5.3.7.1.2.4.3.6.3a1.1 1.1 0 0 0 1.2-1.2Zm3.2 1.9c-.3 0-.6 0-.8-.2-.2 0-.4-.2-.5-.4-.2-.2-.2-.5-.2-.7l.1-.6.4-.4.6-.2a7 7 0 0 1 1.2-.2h.4v-.3l-.1-.7c-.2-.2-.4-.2-.7-.2-.4 0-.6 0-.8.2l-.4.4-.6-.2a1.5 1.5 0 0 1 1-1 2.6 2.6 0 0 1 1.2 0l.6.2.4.5.2.8v2.9h-.7v-.6l-.3.3-.4.3-.6.1Zm0-.6c.3 0 .5 0 .7-.2a1 1 0 0 0 .6-.9v-.6l-.2.1a3.4 3.4 0 0 1-.7.1 11.7 11.7 0 0 0-.8.2c-.1 0-.2 0-.3.2l-.2.4c0 .2.1.4.3.5l.7.2Zm3.2.5v-4.4h.6v.7l.5-.5c.2-.2.4-.2.7-.2a7 7 0 0 1 .4 0v.7a2.3 2.3 0 0 0-.5 0h-.5a1 1 0 0 0-.5.9v2.8h-.7Zm3.5 1.6a1.5 1.5 0 0 1-.5 0l.2-.6h.4c.2 0 .3 0 .4-.2l.2-.4.2-.4-1.7-4.4h.8l1.2 3.5 1.2-3.5h.8l-1.9 5c0 .3-.2.4-.3.6l-.4.3-.6.1Zm47.2-1.6v-5.8h3.4v.6h-2.7v2h2.5v.6h-2.5v2.6h-.7Zm6 0a1.9 1.9 0 0 1-1.8-1l-.2-1.1c0-.5.1-.9.3-1.2.1-.4.4-.6.7-.8.3-.2.6-.3 1-.3h.7a1.7 1.7 0 0 1 1 1.1l.2 1v.3h-3.4v-.5h2.7c0-.3 0-.5-.2-.7a1.1 1.1 0 0 0-1-.6c-.3 0-.5 0-.7.2l-.4.5-.2.7v.4c0 .3 0 .6.2.8 0 .2.3.4.5.5l.7.2h.4l.4-.3.3-.4.6.2-.3.6-.6.4h-.8Zm3 0v-5.8h.7v2.1l.2-.3.4-.3.7-.1a1.7 1.7 0 0 1 1.6 1c.2.4.2.8.2 1.2 0 .5 0 .9-.2 1.2l-.6.8c-.3.2-.6.3-1 .3l-.7-.1-.4-.4a5 5 0 0 1-.2-.3v.7h-.7Zm.6-2.2.2.9c0 .2.2.4.4.6l.7.2c.3 0 .5 0 .7-.2l.4-.6.2-.9c0-.3 0-.6-.2-.8 0-.3-.2-.5-.4-.6l-.7-.2a1.1 1.1 0 0 0-1.1.8l-.2.8Zm4.3 2.2v-4.4h.6v.7l.5-.5c.2-.2.4-.2.7-.2a7 7 0 0 1 .3 0v.7a2.4 2.4 0 0 0-.4 0h-.5a1 1 0 0 0-.5.9v2.8h-.7Zm5.7-1.8v-2.6h.7v4.4h-.7v-.7l-.5.5c-.2.2-.5.3-.8.3l-.8-.2a1 1 0 0 1-.5-.6 2 2 0 0 1-.2-.9v-2.8h.7v2.8c0 .3.1.5.3.7.2.2.4.3.7.3a1.1 1.1 0 0 0 1-1.2Zm3.2 1.9c-.3 0-.6 0-.8-.2-.2 0-.4-.2-.5-.4l-.2-.7.1-.6.4-.4.6-.2a6.9 6.9 0 0 1 1.2-.2h.4l.1-.3c0-.3 0-.5-.2-.7-.2-.2-.4-.2-.7-.2-.3 0-.6 0-.8.2l-.4.4-.6-.2a1.5 1.5 0 0 1 1-1 2.6 2.6 0 0 1 1.2 0l.6.2.4.5.2.8v2.9h-.7v-.6l-.3.3-.4.3-.6.1Zm0-.6c.3 0 .6 0 .7-.2a1 1 0 0 0 .6-.9v-.6l-.2.1a3.4 3.4 0 0 1-.7.1 10.8 10.8 0 0 0-.7.2c-.2 0-.3 0-.4.2l-.1.4c0 .2 0 .4.2.5l.7.2Zm3.2.5v-4.4h.6v.7l.5-.5c.2-.2.5-.2.7-.2a7 7 0 0 1 .4 0v.7a2.3 2.3 0 0 0-.4 0h-.6a1 1 0 0 0-.5.9v2.8h-.7Zm3.5 1.6a1.5 1.5 0 0 1-.4 0l.1-.6h.5s.2 0 .3-.2l.3-.4v-.4l-1.5-4.4h.7l1.2 3.5 1.2-3.5h.8l-1.9 5c0 .3-.2.4-.3.6l-.4.3-.6.1Zm50.5-7.4h.8l2 4.8 2-4.8h.9v5.8h-.7v-4.4L195 279h-.6l-1.8-4.4v4.4h-.7v-5.8Zm8.3 5.9c-.3 0-.5 0-.8-.2-.2 0-.4-.2-.5-.4l-.2-.7.1-.6.4-.4.6-.2a7 7 0 0 1 1.2-.2h.4l.1-.3c0-.3 0-.5-.2-.7-.2-.2-.4-.2-.7-.2-.3 0-.6 0-.8.2l-.3.4-.7-.2c.1-.3.3-.5.5-.6l.6-.3a2.6 2.6 0 0 1 1.2 0l.5.1.4.5.2.8v2.9h-.7v-.6l-.2.3-.5.3-.6.1Zm0-.6c.4 0 .6 0 .8-.2a1 1 0 0 0 .5-.9v-.6l-.2.1a3.4 3.4 0 0 1-.7.1 11.6 11.6 0 0 0-.7.2c-.2 0-.3 0-.4.2l-.1.4c0 .2 0 .4.2.5l.7.2Zm3.2.5v-4.4h.7v.7c0-.2.2-.4.4-.5.2-.2.5-.2.7-.2a7 7 0 0 1 .4 0v.7a2.1 2.1 0 0 0-.4 0h-.6a1 1 0 0 0-.5.9v2.8h-.7Zm4.6 0c-.4 0-.7 0-1-.2-.3-.2-.6-.5-.7-.8-.2-.3-.3-.7-.3-1.2 0-.4.1-.8.3-1.1a1.8 1.8 0 0 1 1.7-1c.3-.1.6 0 .8 0l.6.5c.2.2.3.5.3.7h-.6a1 1 0 0 0-.4-.5 1 1 0 0 0-.7-.2c-.2 0-.5 0-.7.2-.2.1-.3.3-.4.6l-.2.8c0 .4 0 .6.2.9 0 .2.2.4.4.6l.7.2.5-.1a1 1 0 0 0 .6-.7h.6a1.6 1.6 0 0 1-.8 1.2l-.9.2Zm3.4-2.6v2.6h-.7v-5.8h.7v2.1l.5-.5c.2-.2.5-.2.8-.2.3 0 .6 0 .8.2.2 0 .4.3.5.5.2.2.2.6.2 1v2.7h-.7v-2.7c0-.4 0-.6-.2-.8a1 1 0 0 0-.8-.3l-.6.1a1 1 0 0 0-.4.4l-.1.7Zm59 2.6h-.7l2.1-5.8h.7l2.2 5.8h-.8l-1.7-4.9-1.8 4.9Zm.3-2.3h3v.7h-3v-.7Zm4.8 4v-6h.6v.6h.1l.2-.3.4-.3.7-.1a1.7 1.7 0 0 1 1.6 1c.2.4.2.8.2 1.2 0 .5 0 .9-.2 1.2-.1.4-.4.6-.6.8-.3.2-.6.3-1 .3l-.7-.1-.4-.4-.2-.3v2.3h-.7Zm.7-3.9.1.9c0 .2.2.4.4.6l.7.2c.3 0 .5 0 .7-.2l.4-.6.2-.9c0-.3 0-.6-.2-.8 0-.3-.2-.5-.4-.6l-.7-.2a1.1 1.1 0 0 0-1.1.8l-.1.8Zm4.2 2.2v-4.4h.6v.7l.5-.5c.2-.2.4-.2.7-.2a7 7 0 0 1 .3 0v.7a2.1 2.1 0 0 0-.4 0h-.5a1 1 0 0 0-.5.9v2.8h-.7Zm3 0v-4.4h.6v4.4h-.7Zm.3-5-.4-.2v-.7l.4-.1.3.1.2.4s0 .2-.2.3l-.3.1Zm2.2-.8v5.8h-.7v-5.8h.7Zm59.8 0h.9l2 4.8 2-4.8h.8v5.8h-.6v-4.4l-1.9 4.4h-.6l-1.8-4.4h-.1v4.4h-.7v-5.8Zm8.4 5.9c-.3 0-.6 0-.8-.2-.2 0-.4-.2-.5-.4-.2-.2-.2-.5-.2-.7l.1-.6.4-.4.6-.2a7 7 0 0 1 1.2-.2h.4v-.3l-.1-.7c-.2-.2-.4-.2-.7-.2-.4 0-.6 0-.8.2l-.4.4-.6-.2.4-.6c.2-.2.4-.3.7-.3a2.6 2.6 0 0 1 1.1 0l.6.1.4.5.2.8v2.9h-.7v-.6l-.3.3-.4.3-.6.1Zm0-.6c.3 0 .5 0 .7-.2a1 1 0 0 0 .6-.9v-.6l-.2.1a3.4 3.4 0 0 1-.7.1 11.6 11.6 0 0 0-.8.2c-.1 0-.2 0-.3.2l-.2.4c0 .2.1.4.3.5l.7.2Zm3.5 2.1a1.5 1.5 0 0 1-.5 0l.1-.6h.5s.2 0 .3-.2l.3-.4v-.4l-1.5-4.4h.7l1.2 3.5 1.3-3.5h.7l-1.9 5c0 .3-.1.4-.3.6-.1.1-.2.3-.4.3l-.5.1Zm64.2-7.4h.7v4.1l-.2 1-.6.6-.9.2a2 2 0 0 1-.8-.2 1 1 0 0 1-.6-.5c-.2-.2-.2-.5-.2-.8h.7v.5c.2 0 .3.2.4.3h1l.4-.4v-4.8Zm4.7 4v-2.6h.7v4.4h-.7v-.7l-.5.5c-.2.2-.5.3-.8.3l-.7-.2a1 1 0 0 1-.5-.6 2 2 0 0 1-.2-.9v-2.8h.7v2.8c0 .3 0 .5.2.7.2.2.4.3.7.3a1.1 1.1 0 0 0 1-.5l.1-.7Zm2.6-.8v2.6h-.7v-4.4h.7v.7l.5-.5c.2-.2.5-.2.8-.2.3 0 .6 0 .8.2.2 0 .4.3.5.5l.2 1v2.7h-.7v-2.7c0-.4 0-.6-.2-.8a1 1 0 0 0-.8-.3l-.5.1a1 1 0 0 0-.4.4l-.2.7Zm5.9 2.7a1.9 1.9 0 0 1-1.8-1l-.3-1.2c0-.5.1-.9.3-1.2.1-.4.4-.6.6-.8a2 2 0 0 1 1-.3h.8a1.7 1.7 0 0 1 1 1.1l.2 1v.3h-3.4v-.5h2.7c0-.3 0-.5-.2-.7a1.1 1.1 0 0 0-1-.6c-.3 0-.5 0-.7.2l-.5.5-.1.7v.4c0 .3 0 .6.2.8 0 .2.2.4.4.5l.8.2h.4l.4-.3.2-.4.7.2c0 .2-.2.4-.4.6l-.6.4h-.7Z"/>
  <path fill="#E6E6E6" d="M27 163a4 4 0 0 1 4-4h15a4 4 0 0 1 4 4v101H27V163Zm76-31a4 4 0 0 1 4-4h15a4 4 0 0 1 4 4v132h-23V132Zm75-26a4 4 0 0 1 4-4h15a4 4 0 0 1 4 4v158h-23V106Zm150-64a4 4 0 0 1 4-4h15a4 4 0 0 1 4 4v222h-23V42Zm75 86a4 4 0 0 1 4-4h15a4 4 0 0 1 4 4v136h-23V128ZM253 246a4 4 0 0 1 4-4h15a4 4 0 0 1 4 4v18h-23v-18Z"/>
  <path fill="#B1B1B1" d="M205 88a4 4 0 0 1 4-4h15a4 4 0 0 1 4 4v176h-23V88ZM54 77a4 4 0 0 1 4-4h15a4 4 0 0 1 4 4v187H54V77Zm301 34a4 4 0 0 1 4-4h15a4 4 0 0 1 4 4v153h-23V111Zm75 87a4 4 0 0 1 4-4h15a4 4 0 0 1 4 4v66h-23v-66Zm-300-46a4 4 0 0 1 4-4h15a4 4 0 0 1 4 4v112h-23V152Zm150 69a4 4 0 0 1 4-4h15a4 4 0 0 1 4 4v43h-23v-43Z"/>
</svg>