<svg width="204" height="204" fill="none" xmlns="http://www.w3.org/2000/svg"><path d="M131.825 36.53l.228.407c.258.462.641.841 1.106 1.094l.408.224-.408.225c-.466.253-.85.633-1.106 1.097l-.228.408-.225-.408a2.775 2.775 0 00-1.106-1.097l-.408-.225.408-.224a2.795 2.795 0 001.106-1.093l.225-.409zM46.009 18.076l.228.408c.254.463.636.843 1.102 1.093l.408.229-.408.224a2.757 2.757 0 00-1.102 1.094l-.228.408-.229-.408a2.758 2.758 0 00-1.102-1.094l-.407-.224.407-.229c.466-.25.848-.63 1.102-1.093l.229-.408zM180.842 62.923l.228.408c.255.464.639.843 1.106 1.093l.408.225-.408.224c-.467.25-.851.63-1.106 1.094l-.228.408-.229-.408a2.759 2.759 0 00-1.101-1.094l-.408-.224.408-.225a2.759 2.759 0 001.101-1.093l.229-.408zM13.124 91.328l.224.408c.257.463.64.844 1.106 1.098l.408.224-.408.224a2.796 2.796 0 00-1.106 1.094l-.224.408-.229-.408a2.742 2.742 0 00-1.093-1.094l-.408-.224.408-.224c.466-.25.85-.63 1.106-1.094l.216-.412zM91.163 16.819l.408.714a4.745 4.745 0 001.889 1.885l.71.408-.71.388a4.753 4.753 0 00-1.89 1.889l-.407.71-.388-.71a4.753 4.753 0 00-1.889-1.894l-.71-.407.71-.409a4.746 4.746 0 001.89-1.884l.387-.69zM38.172 51.736l.408.71a4.782 4.782 0 001.889 1.889l.71.408-.71.387a4.782 4.782 0 00-1.89 1.89l-.407.71-.388-.71a4.753 4.753 0 00-1.889-1.89l-.71-.387.71-.408a4.753 4.753 0 001.889-1.893l.388-.706zM170.107 28.116l.114.204c.126.232.316.422.547.547l.204.114-.204.115a1.362 1.362 0 00-.547.546l-.114.204-.11-.204a1.383 1.383 0 00-.547-.546l-.208-.115.208-.114c.231-.126.42-.316.547-.547l.11-.204zM16.384 60.822l.115.208c.125.231.315.421.547.547l.204.114-.204.11c-.231.127-.42.316-.547.547l-.114.208-.11-.208a1.408 1.408 0 00-.547-.547l-.208-.11.208-.114c.236-.124.432-.314.563-.547l.093-.208zM183 126c0 45.287-38.213 61.5-83.5 61.5S19 171.287 19 126s36.713-82 82-82 82 36.713 82 82z" fill="#F6F7FB"/><path d="M144.901 106.896h50.698s-4.488-8.16-17.544-6.969c-12.464 1.135-13.096-4.014-19.433-4.647-6.336-.632-11.607 4.24-13.721 11.616zM8.16 117.373h32.391s-2.856-5.218-11.208-4.459c-7.968.726-8.372-2.562-12.423-2.97-4.052-.408-7.43 2.701-8.76 7.429z" fill="#fff"/><path d="M182.095 187.68c0 .057-36.186.106-80.813.106s-80.825-.049-80.825-.106c0-.057 36.178-.106 80.825-.106 44.648 0 80.813.053 80.813.106z" fill="#263238"/><path d="M161.771 40.263a6.764 6.764 0 10-13.52-.504 6.764 6.764 0 0013.52.504z" fill="#585C6B"/><path d="M157.201 37.409a1.106 1.106 0 112.212.04 1.106 1.106 0 01-2.212-.04zM159.408 39.992a.65.65 0 01.411-.588.642.642 0 01.869.489.642.642 0 01-.29.656.646.646 0 01-.99-.557zM158.547 41.962a.238.238 0 01.168.404.239.239 0 01-.168.07.232.232 0 01-.228-.241.235.235 0 01.228-.233z" fill="#263238"/><path d="M151.393 81.384l.232.408c.26.475.651.866 1.126 1.126l.408.232-.408.233c-.476.258-.868.65-1.126 1.126l-.232.408-.233-.408a2.772 2.772 0 00-1.126-1.126l-.408-.233.408-.232c.477-.258.868-.65 1.126-1.126l.233-.408zM60.253 45.97l.408.734a4.896 4.896 0 001.946 1.942l.73.408-.73.408a4.896 4.896 0 00-1.946 1.946l-.408.73-.408-.73a4.896 4.896 0 00-1.942-1.946l-.734-.408.734-.408a4.896 4.896 0 001.942-1.942l.408-.735zM34.166 21.852l.15.27c.164.306.414.559.719.726l.27.147-.27.147a1.787 1.787 0 00-.718.718l-.151.27-.147-.27a1.787 1.787 0 00-.718-.718l-.253-.155.27-.147c.303-.165.552-.415.717-.718l.13-.27zM75.125 136.607l.073.134a.917.917 0 00.36.359l.134.074-.135.073a.95.95 0 00-.359.359l-.073.135-.074-.135a.923.923 0 00-.359-.359l-.134-.073.134-.074a.89.89 0 00.36-.359l.073-.134zM60.326 87.41l.073.135c.084.15.209.275.36.359l.134.073-.135.073a.923.923 0 00-.359.36l-.073.134-.074-.135a.893.893 0 00-.359-.359l-.134-.073.134-.073a.895.895 0 00.36-.36l.073-.134zM179.781 73.648l.073.135a.903.903 0 00.359.359l.135.073-.135.074a.903.903 0 00-.359.359l-.073.134-.073-.134a.903.903 0 00-.359-.36l-.135-.073.135-.073a.903.903 0 00.359-.36l.073-.134zM24.345 73.032l.15.27c.166.303.415.552.719.717l.27.147-.27.147c-.312.166-.567.42-.734.73l-.151.27-.147-.27a1.787 1.787 0 00-.718-.718l-.27-.147.27-.147c.303-.164.553-.414.718-.718l.163-.281zM136.406 133.008l.151.269c.164.303.412.552.714.718l.273.147-.273.147c-.302.166-.55.415-.714.718l-.151.269-.147-.269a1.81 1.81 0 00-.718-.718l-.27-.147.27-.147a1.81 1.81 0 00.718-.718l.147-.269zM130.084 21l.408.73a4.903 4.903 0 001.943 1.947l.73.407-.73.409a4.896 4.896 0 00-1.943 1.942l-.408.73-.408-.73a4.89 4.89 0 00-1.946-1.942l-.73-.409.73-.407a4.89 4.89 0 001.946-1.947l.408-.73zM42.403 96.61A8.845 8.845 0 0139.396 81a8.841 8.841 0 108.752 15.214 8.809 8.809 0 01-5.745.396z" fill="#585C6B"/><path d="M40.013 144.065a.79.79 0 01.236-.033c.237-.004.472.047.686.151.349.168.653.415.889.722.317.425.57.894.75 1.392.43 1.126.633 2.59.87 4.296a57.79 57.79 0 01.534 5.883c.098.331.319.722.682.751a1 1 0 00.518-.171c.171-.098.338-.209.506-.323.34-.242.696-.461 1.065-.657a1.748 1.748 0 011.285-.208 1.634 1.634 0 01.934.967c.142.447.168.924.073 1.383-.154.931-.62 1.779-.979 2.669-.359.889-.775 1.803-1.17 2.733l-.609 1.416c-.102.237-.204.477-.31.718a1.366 1.366 0 00-.118.351.586.586 0 00.029.339c.077.2.359.159.587.045l.735-.327c.499-.229 1.011-.429 1.534-.6a5.36 5.36 0 011.664-.289c.296.001.588.071.853.204.274.139.49.368.616.648.21.562.24 1.176.082 1.755a9.079 9.079 0 01-.551 1.677 22.274 22.274 0 01-1.718 3.162 4.619 4.619 0 00-.449.763.463.463 0 000 .371.307.307 0 00.05.077c0 .021.056.07.052.053a.23.23 0 00.147 0 12.121 12.121 0 001.612-.86c.54-.325 1.11-.598 1.701-.816.306-.115.628-.182.955-.196a1.193 1.193 0 01.942.347c.232.259.36.594.36.942.008.331-.025.661-.098.983a8.23 8.23 0 01-.67 1.844 16.722 16.722 0 01-2.182 3.301 27.508 27.508 0 01-2.787 2.905c-.505.444-1.034.861-1.583 1.249l-1.632 1.264-.049.037-.053-.02-1.914-.739a19.06 19.06 0 01-1.88-.779 27.416 27.416 0 01-3.505-1.983 16.677 16.677 0 01-3.04-2.538 7.883 7.883 0 01-1.17-1.575 3.822 3.822 0 01-.38-.913c-.1-.333-.075-.69.073-1.004a1.226 1.226 0 01.816-.608c.318-.077.645-.106.971-.086a10.19 10.19 0 011.869.31c.587.165 1.186.285 1.791.359a.291.291 0 00.143-.024s.028-.049.037-.069a.37.37 0 00.024-.09.466.466 0 00-.106-.351 4.235 4.235 0 00-.653-.604 22.694 22.694 0 01-2.55-2.538 8.995 8.995 0 01-1.012-1.448 2.858 2.858 0 01-.408-1.706c.037-.311.181-.6.408-.816.219-.2.48-.349.763-.436a5.366 5.366 0 011.677-.2c.546.013 1.091.056 1.632.131l.816.106c.249.04.53 0 .547-.217a.644.644 0 00-.07-.33 1.478 1.478 0 00-.22-.302 28.311 28.311 0 00-.502-.6l-.987-1.183-1.905-2.281c-.604-.746-1.294-1.428-1.706-2.276a2.703 2.703 0 01-.326-1.343 1.634 1.634 0 01.616-1.195 1.74 1.74 0 011.277-.147c.415.08.824.187 1.224.322a7.3 7.3 0 00.575.164.977.977 0 00.547 0c.339-.127.437-.568.437-.914a57.547 57.547 0 01-1.176-5.778 21.532 21.532 0 01-.408-4.357 5.173 5.173 0 01.302-1.546c.13-.364.34-.694.616-.963.171-.164.378-.286.604-.355a.863.863 0 01.237-.037 1.454 1.454 0 00-.816.408c-.267.269-.47.596-.592.955a5.246 5.246 0 00-.281 1.534c0 1.457.146 2.91.436 4.337a58.306 58.306 0 001.175 5.822c.002.2-.03.399-.098.588a.758.758 0 01-.407.457c-.204.061-.421.061-.625 0a7.259 7.259 0 01-.587-.168c-.39-.128-.789-.233-1.192-.314a1.63 1.63 0 00-1.183.151 1.5 1.5 0 00-.55 1.081c-.006.443.102.88.313 1.269.408.816 1.082 1.485 1.69 2.236l1.913 2.281.992 1.179.501.595a1.027 1.027 0 01.33.772.408.408 0 01-.31.35c-.142.031-.29.031-.432 0l-.816-.102a15.365 15.365 0 00-1.632-.126 5.143 5.143 0 00-1.632.196 1.365 1.365 0 00-1.036 1.085c-.033.558.11 1.111.408 1.583.284.505.618.981.996 1.42a22.19 22.19 0 002.53 2.509c.249.187.477.401.68.637a.658.658 0 01.147.502.691.691 0 01-.036.13.33.33 0 01-.078.131.38.38 0 01-.285.089 11.241 11.241 0 01-1.845-.363 10.375 10.375 0 00-1.827-.302 3.062 3.062 0 00-.91.082 1.024 1.024 0 00-.674.498c-.122.272-.14.58-.053.865.08.301.2.59.355.861a7.86 7.86 0 001.143 1.534c.899.95 1.907 1.791 3.003 2.505a28.147 28.147 0 003.48 1.966c.609.291 1.233.55 1.869.776l1.909.734h-.102.02l1.608-1.261a20.01 20.01 0 001.567-1.285 27.378 27.378 0 002.762-2.885 16.449 16.449 0 002.158-3.264c.29-.571.509-1.175.653-1.799.072-.303.103-.615.094-.926.002-.3-.105-.59-.302-.816a1.01 1.01 0 00-.788-.286 3.104 3.104 0 00-.893.184c-.579.221-1.136.494-1.665.816-.53.336-1.084.629-1.66.877a.404.404 0 01-.302 0 .403.403 0 01-.11-.102.638.638 0 01-.07-.636 4.4 4.4 0 01.47-.816c.65-.997 1.22-2.043 1.705-3.13a9.014 9.014 0 00.543-1.632 2.673 2.673 0 00-.066-1.632 1.371 1.371 0 00-1.305-.746 5.12 5.12 0 00-1.604.277c-.515.168-1.02.364-1.513.588l-.739.33a1.072 1.072 0 01-.408.106.408.408 0 01-.408-.245 1.022 1.022 0 01.094-.816c.102-.24.204-.477.31-.718l.608-1.411 1.179-2.734c.367-.898.816-1.73.975-2.627a2.564 2.564 0 00-.061-1.306 1.504 1.504 0 00-.816-.881 1.628 1.628 0 00-1.18.196c-.361.193-.712.408-1.048.644-.171.114-.338.225-.514.327a1.08 1.08 0 01-.595.183.734.734 0 01-.535-.314 1.6 1.6 0 01-.265-.534c-.061-2.2-.294-4.166-.506-5.872-.212-1.705-.408-3.166-.816-4.284a5.343 5.343 0 00-.726-1.383 2.53 2.53 0 00-.865-.726 1.495 1.495 0 00-.93-.163z" fill="#263238"/><path d="M46.365 187.762c-.571-3.762-1.893-12.53-2.7-18.283-.809-5.753-1.54-10.959-2.09-14.725l-.66-4.459c-.074-.522-.136-.93-.176-1.224l-.045-.314v-.11.106c0 .069.032.179.057.314l.196 1.224c.175 1.048.408 2.57.697 4.451.572 3.766 1.318 8.976 2.126 14.721.808 5.744 2.114 14.521 2.664 18.286" fill="#263238"/><path d="M38.087 159.34c.073.038.142.085.204.139.13.098.31.241.534.408.441.359 1.04.877 1.69 1.461l1.66 1.497.502.449c.066.051.127.11.18.175a1.432 1.432 0 01-.209-.138c-.126-.098-.31-.241-.53-.408a75.195 75.195 0 01-1.681-1.473l-1.677-1.485-.498-.437a1.051 1.051 0 01-.175-.188zM43.15 163.355c-.024-.02.984-1.301 2.253-2.856 1.268-1.554 2.321-2.811 2.346-2.791.024.021-.984 1.306-2.253 2.856-1.269 1.551-2.321 2.811-2.346 2.791zM43.99 172.241c.061-.058.128-.11.2-.155l.568-.408c.477-.334 1.138-.795 1.848-1.334.71-.538 1.338-1.04 1.791-1.407l.535-.437c.063-.057.131-.107.204-.151 0 0-.058.073-.176.184-.118.11-.29.273-.51.465-.44.387-1.06.905-1.775 1.44-.714.534-1.379.991-1.872 1.306-.245.159-.445.281-.588.367a.964.964 0 01-.224.13zM38.61 169.622a.893.893 0 01.224.078l.583.257c.494.22 1.171.53 1.914.881.742.351 1.415.677 1.897.918.245.118.436.216.571.29a.998.998 0 01.204.118.815.815 0 01-.224-.078l-.584-.257c-.493-.22-1.17-.534-1.913-.885-.743-.351-1.416-.673-1.901-.914-.241-.118-.433-.22-.568-.29a1.023 1.023 0 01-.204-.118zM38.352 177.562c.098.024.192.06.282.106l.75.322c.633.282 1.502.673 2.448 1.114.947.441 1.824.849 2.448 1.146l.735.359c.093.04.182.09.265.147a1.18 1.18 0 01-.282-.106l-.754-.326c-.633-.278-1.502-.669-2.448-1.114-.947-.445-1.824-.845-2.448-1.142l-.735-.359a1.608 1.608 0 01-.26-.147zM45.15 180.634c.075-.077.158-.145.248-.204l.706-.526a102.68 102.68 0 002.289-1.763 95.823 95.823 0 002.232-1.84l.669-.567a1.43 1.43 0 01.253-.196c-.067.084-.142.16-.224.229-.147.146-.368.35-.645.595a49.53 49.53 0 01-4.529 3.607c-.302.216-.55.383-.722.498-.088.063-.18.118-.278.167z" fill="#263238"/><path d="M192.081 55.544l-17.54 2.133 3.164 26.022 17.54-2.133-3.164-26.022z" fill="#F5F5F5"/><path d="M195.04 81.685a1.985 1.985 0 01-.265-.215l-.721-.646-2.629-2.416-8.625-8.056-.071-.068.047-.084.125-.201 6.301-10.16 1.941-3.069.535-.827c.055-.1.122-.194.199-.28a1.74 1.74 0 01-.16.303l-.499.855-1.87 3.104-6.259 10.208-.12.199-.022-.148 8.589 8.1 2.581 2.471.693.682c.085.074.162.157.23.248z" fill="#E0E0E0"/><path d="M174.337 57.794c.037-.055 2.664 1.626 5.901 3.719 3.237 2.092 5.807 3.862 5.77 3.917-.037.054-2.664-1.627-5.901-3.72-3.237-2.092-5.807-3.861-5.77-3.916zM187.281 74.057c.047.045-2.106 2.272-4.804 4.967-2.699 2.695-4.928 4.84-4.998 4.804-.071-.037 2.107-2.268 4.805-4.963 2.699-2.694 4.952-4.86 4.997-4.808z" fill="#E0E0E0"/><path d="M53.942 107.987l98.459-.917 2.881 66.929-101.95-.729.61-65.283z" fill="#5DA9FE"/><path d="M53.942 108l46.512-37.8a5.358 5.358 0 016.761 0l45.179 36.877" fill="#5DA9FE"/><path opacity=".3" d="M53.942 108l46.512-37.8a5.358 5.358 0 016.761 0l45.179 36.877" fill="#000"/><path d="M53.33 173.256c-.117-.118 7.741-8.74 17.564-19.257 9.823-10.518 17.89-18.924 18.015-18.827.125.097-7.74 8.733-17.57 19.257-9.83 10.524-17.883 18.952-18.008 18.827zM155.282 173.999c-.125.118-7.817-8.331-17.181-18.792-9.365-10.462-16.856-19.091-16.731-19.202.125-.111 7.817 8.33 17.189 18.799s16.848 19.084 16.723 19.195z" fill="#263238"/><path opacity=".5" d="M152.401 107.07l-49.358 39.598-49.101-38.681" fill="#000"/><path d="M58.913 111.638l-.223-30.753 86.214-1.194 1.034 32.35-42.902 34.106-44.123-34.509z" fill="#FAFAFA"/><path d="M58.913 111.638s.284.201.819.611l2.346 1.812 8.928 6.942c7.692 6.005 18.743 14.578 32.121 25.047h-.181l42.881-34.134-.062.146c-.201-6.172-.41-12.649-.618-19.237-.146-4.436-.285-8.823-.423-13.12l.18.173-86.207 1.139.111-.118c.042 9.67.084 17.355.105 22.617V109.583c0-1.388-.042-3.401-.07-6.025-.049-5.283-.125-12.968-.215-22.66v-.11h.111l86.158-1.25h.181v.18c.138 4.298.277 8.678.423 13.114.208 6.588.417 13.065.611 19.237v.09l-.069.055-42.93 34.086-.091.076-.09-.076-32.086-25.179-8.858-6.984-2.312-1.832-.763-.667z" fill="#263238"/><path d="M131.312 95.2c0 .097-13.19.284-29.449.416-16.258.132-29.448.16-29.448.062 0-.097 13.19-.284 29.448-.423 16.259-.139 29.449-.16 29.449-.056zM131.325 103.884c0 .097-13.19.291-29.441.423-16.252.132-29.448.16-29.448.056 0-.104 13.19-.285 29.448-.417 16.258-.132 29.441-.159 29.441-.062zM131.346 113.894c0 .104-13.19.292-29.441.424-16.252.132-29.448.159-29.448.055 0-.104 13.19-.284 29.448-.416 16.258-.132 29.441-.16 29.441-.063zM131.367 123.905c0 .104-12.572.284-28.088.409-15.515.125-28.094.153-28.094.049s12.572-.285 28.094-.41c15.523-.125 28.088-.145 28.088-.048zM120.371 132.714c-.113.032-.23.046-.347.042l-.993.042-3.638.09-12.016.222c-4.693.083-8.949.111-12.024.111h-4.63a1.352 1.352 0 01-.347-.035c.112-.031.23-.045.347-.041l.985-.042 3.645-.09 12.017-.215c4.693-.091 8.941-.118 12.016-.118h4.638c.116 0 .233.011.347.034zM109.263 141.184a53.181 53.181 0 01-6.248.194c-2.084.066-4.17.01-6.247-.167a55.202 55.202 0 016.247-.194 55.432 55.432 0 016.248.167z" fill="#263238"/><path d="M154.452 168.364a9.732 9.732 0 00-4.174-1.442c-.682-.068-1.429-.049-1.979.364a.418.418 0 00-.203.362.464.464 0 00.194.246 5.982 5.982 0 006.174.47M154.344 168.243a20.274 20.274 0 01-2.701-2.377 6.793 6.793 0 01-1.692-3.13 1.261 1.261 0 01.133-1.049c2.161 1.682 3.843 3.858 4.26 6.556z" fill="#EBEBEB"/><path d="M154.431 168.345a9.685 9.685 0 01.049-3.544 4.787 4.787 0 011.889-2.926c.371.867.213 1.871-.049 2.778a13.474 13.474 0 01-1.874 3.945M156.542 172.142c-1.284.158-2.399.834-3.355 1.698a6.335 6.335 0 00-1.917 3.294c1.256-.077 2.321-.963 3.086-1.957.766-.994 1.309-2.084 2.161-3.013M156.999 172.732a8.28 8.28 0 01.953-7.823c.732 2.596.463 5.529-.953 7.823zM159.786 176.053a5.993 5.993 0 00-5.717 3.294.443.443 0 00-.04.448.436.436 0 00.379.111c1.127-.074 2.127-.75 2.952-1.522.824-.772 1.543-1.667 2.454-2.334M159.7 175.874a10.633 10.633 0 01-.108-5.951c.21-.766.562-1.572 1.269-1.933a.259.259 0 01.194-.034.264.264 0 01.123.142c.243.535.349 1.121.309 1.707a10.622 10.622 0 01-.265 1.729c-.226 1.056-.343 2.192-.926 3.102-.137.22-.259.448-.368.683-.111.231-.111.308-.21.497M167.081 176.973c-.547-2.08.034-4.602 1.346-6.31.095-.123.222-.259.379-.243.244.021.309.342.309.586a11.38 11.38 0 01-2.019 5.967M167.748 177.427a9.176 9.176 0 007.529-1.543 6.107 6.107 0 00-4.078-.501c-1.362.309-2.606.927-3.451 2.032M168.306 176.041c1.417-2.306 4.13-3.812 6.835-3.951-.309 1.102-1.217 1.957-2.235 2.469a12.467 12.467 0 01-3.282.979c-.435.083-1.034.176-1.318.518M167.223 169.321c.429-1.304.722-2.649.873-4.013a6.662 6.662 0 00-.799-3.961c-1.321 2.559-1.454 5.557-.114 8.1M171.674 167.07c1.544-2.809 4.702-5.053 7.894-5.368-1.235 3.065-4.591 5.436-7.894 5.368zM170.699 167.623c2.309.349 4.272 1.824 6.427 2.716.452.218.953.314 1.454.278a1.13 1.13 0 001.059-.758 1.142 1.142 0 00-.349-1.255 3.118 3.118 0 00-1.053-.639c-2.349-.978-4.865-1.003-7.338-.41" fill="#EBEBEB"/><path d="M169.365 169.24c.522.149.701.42 1.115.772a12.011 12.011 0 004.874 2.504c.185.046.429.061.522-.105.092-.167-.022-.324-.127-.457a6.735 6.735 0 00-2.942-1.997c-1.123-.417-2.099-.927-3.442-.815M167.874 159.486a9.234 9.234 0 007.072 2.404c.114 0 .223-.04.309-.114.179-.194-.037-.494-.244-.654-2.077-1.621-4.596-2.294-7.149-1.636" fill="#EBEBEB"/><path d="M169.646 158.816a9.847 9.847 0 018.823-1.454 7.021 7.021 0 01-4.205 1.852 13.309 13.309 0 01-4.63-.392M168.936 154.327c-.204-2.074-.071-3.704-.216-5.797 0-.167-.047-.367-.204-.426-.216-.083-.398.182-.469.404a6.65 6.65 0 00.886 5.773" fill="#EBEBEB"/><path d="M168.8 154.546a12.145 12.145 0 003.436-3.34c.679-.926 1.235-2.04 1.096-3.179a3.285 3.285 0 00-2.47 1.235 6.895 6.895 0 00-1.262 2.54c-.275.926-.469 1.852-.79 2.747M172.162 153.62a27.709 27.709 0 008.458-4.988c-1.009-.408-2.161-.164-3.176.244a10.016 10.016 0 00-5.325 4.72M169.726 155.692c1.557.221 3.136.229 4.695.024 1.525-.256 2.964-.858 4.387-1.457a.503.503 0 00.309-.228.343.343 0 00-.105-.374.934.934 0 00-.374-.176c-1.543-.432-3.216-.228-4.738.284a22.022 22.022 0 00-4.174 1.927zM160.821 159.541c-1.065-2.161-.998-4.658-.078-6.875.649.985.729 2.245.618 3.418-.111 1.173-.476 2.383-.497 3.565M156.563 157.396a9.556 9.556 0 00-7.125 3.034 6.65 6.65 0 003.902-.722 19.867 19.867 0 003.344-2.238M153.705 156.439c-1.303-.105-2.553-.269-3.806.117a4.559 4.559 0 00-2.899 2.47 6.878 6.878 0 003.565-.673 20.683 20.683 0 003.14-1.902M157.94 156.482c-1.17-.769-2.373-1.544-3.735-1.852-1.361-.309-2.942-.084-3.893.926 1.103.648 2.442.725 3.705.725 1.262 0 2.849-.015 4.053.411" fill="#EBEBEB"/><path d="M157.946 156.544c-2-1.967-2.76-5.495-1.954-8.181a12.463 12.463 0 011.954 8.181zM163.451 150.975c.376-.877.642-1.797.978-2.689a7.783 7.783 0 011.402-2.47 3.678 3.678 0 012.469-1.284 9.983 9.983 0 01-4.812 6.483M162.453 152.135c-.617-.858-1.346-2.025-2.192-2.667-.845-.642-1.95-1.031-2.985-.784a6.954 6.954 0 005.177 3.451zM162.654 151.049a14.732 14.732 0 01-.988-3.198 4.989 4.989 0 01.5-3.251c1.099 2.078 1.451 4.322.544 6.483M163.459 144.6c.618-2.059 2.507-3.575 4.541-4.269.253-.102.526-.144.797-.12a.69.69 0 01.586.49c.074.349-.213.664-.487.896a15.472 15.472 0 01-5.437 3.003zM163.481 142.918c.081-1.328.164-2.673.593-3.933.429-1.259 1.266-2.436 2.47-2.985.206 1.34-.386 2.673-1.099 3.825-.713 1.151-1.575 2.244-2.001 3.528M163.45 143.832c-.515-1.501-.568-3.396-1.466-4.714-.618-.926-1.633-1.544-2.161-2.504a3.826 3.826 0 00.127 2.843c.409.885.972 1.69 1.663 2.377.664.71 1.235 1.235 1.853 1.998" fill="#EBEBEB"/><path d="M163.46 188.006c-.04 0-.074-10.005-.077-22.347-.004-12.341.027-22.352.067-22.352.041 0 .075 10.005.078 22.352.003 12.348-.028 22.347-.068 22.347z" fill="#263238"/><path d="M172.196 158.032a2.45 2.45 0 01-.377.142l-1.037.348c-.871.309-2.072.729-3.374 1.26-1.303.531-2.504 1.003-3.195 1.602a2.35 2.35 0 00-.642.852c-.099.235-.118.377-.13.374-.012-.004 0-.034 0-.105.016-.099.04-.196.074-.291.128-.348.34-.658.618-.904a5.574 5.574 0 011.386-.864c.555-.257 1.17-.528 1.824-.797a47.693 47.693 0 013.396-1.235c.441-.135.802-.237 1.052-.308.132-.038.268-.063.405-.074z" fill="#263238"/><path d="M175.07 150.99a.528.528 0 01-.105.111l-.309.309-1.198 1.09-3.991 3.553c-1.544 1.386-2.902 2.71-3.834 3.704-.469.5-.837.911-1.087 1.198l-.29.333a.65.65 0 01-.108.108s.025-.046.086-.126c.062-.08.149-.201.269-.349.238-.309.596-.725 1.053-1.235a50.709 50.709 0 013.815-3.747 687.695 687.695 0 014.013-3.523l1.235-1.055c.136-.111.25-.204.34-.281a.607.607 0 01.111-.09z" fill="#263238"/><path d="M167.775 157.454c-.043-.015.284-.768.618-1.719.333-.951.481-1.75.521-1.744a5.94 5.94 0 01-.385 1.79c-.139.41-.301.812-.485 1.204a1.968 1.968 0 01-.269.469zM163.469 163.514a1.797 1.797 0 01-.241-.281l-.617-.787a334.92 334.92 0 00-2.032-2.599c-.796-1.01-1.543-1.911-2.068-2.566l-.617-.777a2.115 2.115 0 01-.216-.309c.095.077.182.164.259.259.161.173.386.429.664.747a97.91 97.91 0 012.105 2.544c.803 1 1.503 1.945 1.997 2.627.25.342.448.617.581.818.072.102.134.21.185.324z" fill="#263238"/><path d="M161.552 161.051a3.502 3.502 0 01-.806-1.504 4.36 4.36 0 01-.182-1.515h.065c-.028.114-.05.176-.062.173-.012-.004 0-.065 0-.186h.062c.033.5.119.994.256 1.476.182.535.405 1.055.667 1.556zM159.076 157.942a2.83 2.83 0 00-.562-.324 3.761 3.761 0 00-1.543-.124 9.573 9.573 0 00-1.569.254 5.044 5.044 0 01-.645.154c.192-.116.4-.202.618-.253a7.177 7.177 0 011.583-.309 3.4 3.4 0 011.606.173c.215.08.396.231.512.429zM158.49 157.183c0 .021-.328-.13-.862-.309a8.642 8.642 0 00-4.321-.33c-.556.098-.89.2-.899.179a.832.832 0 01.229-.099c.212-.074.428-.134.648-.182a7.682 7.682 0 014.386.333c.212.081.418.175.618.281.073.032.14.075.201.127zM163.45 153.991a17.086 17.086 0 01-.617-2.177 17.23 17.23 0 01-.488-2.213c.252.713.458 1.441.618 2.179.208.726.371 1.464.487 2.211z" fill="#263238"/><path d="M163.49 153.991a11.059 11.059 0 00-.694-1.303 5.856 5.856 0 00-1.025-1.056.97.97 0 01.395.204c.291.212.544.472.747.769.31.404.509.881.577 1.386zM163.46 182.672c-.016 0-.047-.241-.158-.664a9.317 9.317 0 00-.67-1.735 23.97 23.97 0 00-3.546-4.998c-.794-.904-1.562-1.759-2.214-2.574a18.189 18.189 0 01-1.583-2.284 11.27 11.27 0 01-.8-1.692 7.637 7.637 0 01-.154-.485.931.931 0 01-.043-.173s.086.229.25.636c.238.574.517 1.131.836 1.664a19.57 19.57 0 001.596 2.251c.658.808 1.426 1.657 2.22 2.562 1.602 1.799 2.858 3.615 3.531 5.05a8.46 8.46 0 01.617 1.763c.04.166.07.334.09.503a.936.936 0 01.028.176zM171.362 173.747a4.446 4.446 0 01-.401.247 9.364 9.364 0 00-1.074.71c-.503.392-.975.822-1.411 1.288a28.49 28.49 0 00-1.528 1.781c-1.04 1.306-2.013 2.469-2.596 3.395-.309.46-.512.846-.651 1.115a3.518 3.518 0 01-.229.417s0-.041.037-.118c.037-.077.074-.185.139-.324.183-.393.389-.774.618-1.142a36.528 36.528 0 012.571-3.42 25.435 25.435 0 011.543-1.785c.447-.464.931-.891 1.448-1.275a7.81 7.81 0 011.108-.679c.139-.068.25-.111.309-.142.059-.031.114-.074.117-.068z" fill="#263238"/><path d="M171.517 176.643a6.02 6.02 0 01-.865.13c-.702.073-1.397.21-2.074.41a6.126 6.126 0 00-1.852.976c-.43.33-.633.617-.652.586a.737.737 0 01.13-.201c.135-.17.289-.327.457-.466a5.603 5.603 0 011.877-1.034 9.229 9.229 0 012.111-.373 4.75 4.75 0 01.868-.028z" fill="#263238"/><path d="M166.312 178.424c-.046-.025.349-.617.654-1.438.306-.822.355-1.544.405-1.525a1.42 1.42 0 010 .469 5.248 5.248 0 01-.257 1.105 5.392 5.392 0 01-.509 1.016c-.167.243-.275.385-.293.373zM173.922 165.968a1.127 1.127 0 01-.142.074l-.411.186a7.96 7.96 0 00-.645.308c-.247.133-.534.26-.837.442l-.478.271c-.164.093-.327.207-.503.309-.352.216-.704.478-1.081.747a20.194 20.194 0 00-2.259 1.985 20.589 20.589 0 00-1.908 2.321c-.256.386-.506.747-.707 1.109-.102.176-.21.345-.309.512-.099.167-.173.333-.256.488-.17.308-.29.599-.411.852-.12.253-.213.472-.284.654-.071.182-.126.309-.172.417a.686.686 0 01-.068.142.532.532 0 01.043-.151c.037-.115.086-.253.145-.429s.148-.411.262-.667c.115-.256.229-.553.392-.865l.25-.493c.087-.17.195-.34.309-.522.201-.364.448-.732.704-1.121a19.484 19.484 0 011.911-2.349 20.08 20.08 0 012.281-1.991c.383-.269.741-.528 1.096-.738.179-.108.346-.219.512-.308.167-.09.331-.18.485-.266.309-.173.599-.309.852-.42.214-.106.434-.201.658-.284l.422-.163a.468.468 0 01.149-.05z" fill="#263238"/><path d="M167.667 170.163a1.01 1.01 0 01.343-.512 2.182 2.182 0 011.386-.531c.5-.002.995.095 1.457.284.196.062.383.153.553.269a3.202 3.202 0 01-.584-.17 4.341 4.341 0 00-1.42-.238 2.246 2.246 0 00-1.324.463c-.147.135-.285.28-.411.435zM166.732 171.126c.42-.804.529-1.734.309-2.614a.84.84 0 01.163.373 2.626 2.626 0 01-.225 1.905c-.127.235-.232.349-.247.336z" fill="#263238"/><path d="M8.186 26L2 52.793l39.75 9.176 6.185-26.792L8.185 26z" fill="#F5F5F5"/><path d="M48 35.54a3.045 3.045 0 01-.455.273l-1.328.713-4.93 2.564-16.362 8.344-.137.068-.098-.114-.228-.288L12.94 32.49l-3.46-4.468-.925-1.22a2.228 2.228 0 01-.303-.44c.13.12.25.251.356.394l.987 1.183 3.55 4.384 11.613 14.572.227.28-.227-.045 16.407-8.268 4.984-2.465 1.365-.652c.154-.086.317-.155.486-.205z" fill="#E0E0E0"/><path d="M2.063 53.153c-.061-.083 3.792-3.034 8.571-6.66 4.78-3.626 8.731-6.448 8.792-6.364.06.083-3.793 3.034-8.572 6.66-4.779 3.626-8.73 6.448-8.791 6.364zM32.723 42.844c.09-.045 2.207 4.286 4.718 9.664 2.51 5.378 4.468 9.778 4.377 9.861-.091.084-2.2-4.285-4.71-9.663-2.512-5.379-4.484-9.824-4.385-9.862z" fill="#E0E0E0"/></svg>