<svg width="30" height="30" viewBox="0 0 30 30" fill="none" xmlns="http://www.w3.org/2000/svg">
<path fill-rule="evenodd" clip-rule="evenodd" d="M4.99072 7.73438H10.3623C10.5268 7.73438 10.6641 7.59865 10.6641 7.43115V4.99072C10.6641 4.82401 10.5275 4.6875 10.3608 4.6875H4.99072C4.82401 4.6875 4.6875 4.82401 4.6875 4.99072V7.43262C4.6875 7.59708 4.82323 7.73438 4.99072 7.73438ZM10.3623 9.14062H4.99072C4.04736 9.14062 3.28125 8.37451 3.28125 7.43262V4.99072C3.28125 4.04736 4.04736 3.28125 4.99072 3.28125H10.3608C11.3042 3.28125 12.0703 4.04736 12.0703 4.99072V7.43115C12.0703 8.37451 11.3042 9.14062 10.3623 9.14062Z" fill="#7389A6"/>
<path fill-rule="evenodd" clip-rule="evenodd" d="M4.99072 16.5234H10.3623C10.5268 16.5234 10.6641 16.3877 10.6641 16.2202V13.7783C10.6641 13.6139 10.5283 13.4766 10.3608 13.4766H4.99072C4.82401 13.4766 4.6875 13.6131 4.6875 13.7798V16.2217C4.6875 16.3861 4.82323 16.5234 4.99072 16.5234ZM10.3623 17.9297H4.99072C4.04736 17.9297 3.28125 17.1636 3.28125 16.2217V13.7798C3.28125 12.8364 4.04736 12.0703 4.99072 12.0703H10.3608C11.3042 12.0703 12.0703 12.8364 12.0703 13.7783V16.2202C12.0703 17.1636 11.3042 17.9297 10.3623 17.9297Z" fill="#7389A6"/>
<path fill-rule="evenodd" clip-rule="evenodd" d="M4.99072 25.3125H10.3623C10.5268 25.3125 10.6641 25.1768 10.6641 25.0093V22.5674C10.6641 22.4029 10.5283 22.2656 10.3608 22.2656H4.99072C4.82401 22.2656 4.6875 22.4021 4.6875 22.5688V25.0107C4.6875 25.1752 4.82323 25.3125 4.99072 25.3125ZM10.3623 26.7188H4.99072C4.04736 26.7188 3.28125 25.9526 3.28125 25.0107V22.5688C3.28125 21.6255 4.04736 20.8594 4.99072 20.8594H10.3608C11.3042 20.8594 12.0703 21.6255 12.0703 22.5674V25.0093C12.0703 25.9526 11.3042 26.7188 10.3623 26.7188Z" fill="#7389A6"/>
<path d="M25.9868 4.64856H14.7559C14.3516 4.64856 14.0234 4.91106 14.0234 5.2345C14.0234 5.55793 14.3516 5.82043 14.7559 5.82043H25.9868C26.3911 5.82043 26.7192 5.55793 26.7192 5.2345C26.7192 4.91106 26.3911 4.64856 25.9868 4.64856Z" fill="#3F4B5B"/>
<path d="M25.9868 6.60168H14.7559C14.3516 6.60168 14.0234 6.86418 14.0234 7.18762C14.0234 7.51106 14.3516 7.77356 14.7559 7.77356H25.9868C26.3911 7.77356 26.7192 7.51106 26.7192 7.18762C26.7192 6.86418 26.3911 6.60168 25.9868 6.60168Z" fill="#3F4B5B"/>
<path d="M25.9868 13.4376H14.7559C14.3516 13.4376 14.0234 13.7001 14.0234 14.0236C14.0234 14.347 14.3516 14.6095 14.7559 14.6095H25.9868C26.3911 14.6095 26.7192 14.347 26.7192 14.0236C26.7192 13.7001 26.3911 13.4376 25.9868 13.4376Z" fill="#3F4B5B"/>
<path d="M25.9868 15.3907H14.7559C14.3516 15.3907 14.0234 15.6532 14.0234 15.9767C14.0234 16.3001 14.3516 16.5626 14.7559 16.5626H25.9868C26.3911 16.5626 26.7192 16.3001 26.7192 15.9767C26.7192 15.6532 26.3911 15.3907 25.9868 15.3907Z" fill="#3F4B5B"/>
<path d="M25.9868 22.2267H14.7559C14.3516 22.2267 14.0234 22.4892 14.0234 22.8126C14.0234 23.1361 14.3516 23.3986 14.7559 23.3986H25.9868C26.3911 23.3986 26.7192 23.1361 26.7192 22.8126C26.7192 22.4892 26.3911 22.2267 25.9868 22.2267Z" fill="#3F4B5B"/>
<path d="M25.9868 24.1798H14.7559C14.3516 24.1798 14.0234 24.4423 14.0234 24.7657C14.0234 25.0892 14.3516 25.3517 14.7559 25.3517H25.9868C26.3911 25.3517 26.7192 25.0892 26.7192 24.7657C26.7192 24.4423 26.3911 24.1798 25.9868 24.1798Z" fill="#3F4B5B"/>
</svg>
