<svg xmlns="http://www.w3.org/2000/svg" width="55" height="63" viewBox="0 0 55 63">
  <defs>
    <style>
      .cls-1 {
        fill: #fff;
      }

      .cls-2, .cls-3, .cls-4 {
        fill: none;
        stroke-linecap: round;
        stroke-width: 2px;
      }

      .cls-2 {
        stroke: #dfe4e7;
      }

      .cls-3 {
        stroke: #657d95;
      }

      .cls-4 {
        stroke: #b2bdca;
      }

      .cls-5 {
        fill: #657d95;
      }

      .cls-6, .cls-7 {
        stroke: none;
      }

      .cls-7 {
        fill: #ddd;
      }
    </style>
  </defs>
  <g id="Group_1095" data-name="Group 1095" transform="translate(-662 -77)">
    <g id="Path_595" data-name="Path 595" class="cls-1" transform="translate(662 77)">
      <path class="cls-6" d="M 52 62.5 L 3 62.5 C 1.621500015258789 62.5 0.5 61.37850189208984 0.5 60 L 0.5 3 C 0.5 1.621500015258789 1.621500015258789 0.5 3 0.5 L 52 0.5 C 53.37850189208984 0.5 54.5 1.621500015258789 54.5 3 L 54.5 60 C 54.5 61.37850189208984 53.37850189208984 62.5 52 62.5 Z"/>
      <path class="cls-7" d="M 3 1 C 1.897201538085938 1 1 1.897201538085938 1 3 L 1 60 C 1 61.10279846191406 1.897201538085938 62 3 62 L 52 62 C 53.10279846191406 62 54 61.10279846191406 54 60 L 54 3 C 54 1.897201538085938 53.10279846191406 1 52 1 L 3 1 M 3 0 L 52 0 C 53.6568489074707 0 55 1.343151092529297 55 3 L 55 60 C 55 61.6568489074707 53.6568489074707 63 52 63 L 3 63 C 1.343151092529297 63 0 61.6568489074707 0 60 L 0 3 C 0 1.343151092529297 1.343151092529297 0 3 0 Z"/>
    </g>
    <line id="Line_358" data-name="Line 358" class="cls-2" x2="12" transform="translate(670.5 106.5)"/>
    <line id="Line_360" data-name="Line 360" class="cls-2" x2="12" transform="translate(670.5 117.5)"/>
    <line id="Line_355" data-name="Line 355" class="cls-2" x2="12" transform="translate(670.5 94.5)"/>
    <line id="Line_356" data-name="Line 356" class="cls-3" x2="16" transform="translate(670.5 85.5)"/>
    <line id="Line_357" data-name="Line 357" class="cls-4" x2="36" transform="translate(670.5 98.5)"/>
    <line id="Line_359" data-name="Line 359" class="cls-4" x2="36" transform="translate(670.5 110.5)"/>
    <line id="Line_361" data-name="Line 361" class="cls-4" x2="36" transform="translate(670.5 121.5)"/>
    <rect id="Rectangle_1398" data-name="Rectangle 1398" class="cls-5" width="15" height="4" rx="2" transform="translate(669 130)"/>
  </g>
</svg>
