<svg xmlns="http://www.w3.org/2000/svg" width="55" height="63" viewBox="0 0 55 63">
  <defs>
    <style>
      .cls-1 {
        fill: #fff;
      }

      .cls-2, .cls-3, .cls-4 {
        fill: none;
        stroke-linecap: round;
        stroke-width: 2px;
      }

      .cls-2 {
        stroke: #dfe4e7;
      }

      .cls-2, .cls-3, .cls-4, .cls-6 {
        opacity: 0.151;
      }

      .cls-3 {
        stroke: #657d95;
      }

      .cls-4 {
        stroke: #b2bdca;
      }

      .cls-5 {
        fill: #3177c7;
      }

      .cls-6 {
        fill: #657d95;
      }

      .cls-7, .cls-8 {
        stroke: none;
      }

      .cls-8 {
        fill: #ddd;
      }
    </style>
  </defs>
  <g id="Group_1113" data-name="Group 1113" transform="translate(13112 22372)">
    <g id="Path_633" data-name="Path 633" class="cls-1" transform="translate(-13112 -22372)">
      <path class="cls-7" d="M 52 62.5 L 3 62.5 C 1.621500015258789 62.5 0.5 61.37850189208984 0.5 60 L 0.5 3 C 0.5 1.621500015258789 1.621500015258789 0.5 3 0.5 L 52 0.5 C 53.37850189208984 0.5 54.5 1.621500015258789 54.5 3 L 54.5 60 C 54.5 61.37850189208984 53.37850189208984 62.5 52 62.5 Z"/>
      <path class="cls-8" d="M 3 1 C 1.897201538085938 1 1 1.897201538085938 1 3 L 1 60 C 1 61.10279846191406 1.897201538085938 62 3 62 L 52 62 C 53.10279846191406 62 54 61.10279846191406 54 60 L 54 3 C 54 1.897201538085938 53.10279846191406 1 52 1 L 3 1 M 3 0 L 52 0 C 53.6568489074707 0 55 1.343151092529297 55 3 L 55 60 C 55 61.6568489074707 53.6568489074707 63 52 63 L 3 63 C 1.343151092529297 63 0 61.6568489074707 0 60 L 0 3 C 0 1.343151092529297 1.343151092529297 0 3 0 Z"/>
    </g>
    <g id="Path_634" data-name="Path 634" class="cls-1" transform="translate(-13112 -22372)">
      <path class="cls-7" d="M 52 62.5 L 3 62.5 C 1.621500015258789 62.5 0.5 61.37850189208984 0.5 60 L 0.5 3 C 0.5 1.621500015258789 1.621500015258789 0.5 3 0.5 L 52 0.5 C 53.37850189208984 0.5 54.5 1.621500015258789 54.5 3 L 54.5 60 C 54.5 61.37850189208984 53.37850189208984 62.5 52 62.5 Z"/>
      <path class="cls-8" d="M 3 1 C 1.897201538085938 1 1 1.897201538085938 1 3 L 1 60 C 1 61.10279846191406 1.897201538085938 62 3 62 L 52 62 C 53.10279846191406 62 54 61.10279846191406 54 60 L 54 3 C 54 1.897201538085938 53.10279846191406 1 52 1 L 3 1 M 3 0 L 52 0 C 53.6568489074707 0 55 1.343151092529297 55 3 L 55 60 C 55 61.6568489074707 53.6568489074707 63 52 63 L 3 63 C 1.343151092529297 63 0 61.6568489074707 0 60 L 0 3 C 0 1.343151092529297 1.343151092529297 0 3 0 Z"/>
    </g>
    <line id="Line_360" data-name="Line 360" class="cls-2" x2="12" transform="translate(-13103.5 -22342.5)"/>
    <line id="Line_362" data-name="Line 362" class="cls-2" x2="12" transform="translate(-13103.5 -22331.5)"/>
    <line id="Line_358" data-name="Line 358" class="cls-2" x2="12" transform="translate(-13103.5 -22354.5)"/>
    <line id="Line_357" data-name="Line 357" class="cls-3" x2="16" transform="translate(-13103.5 -22363.5)"/>
    <line id="Line_359" data-name="Line 359" class="cls-4" x2="36" transform="translate(-13103.5 -22350.5)"/>
    <line id="Line_361" data-name="Line 361" class="cls-4" x2="36" transform="translate(-13103.5 -22338.5)"/>
    <line id="Line_363" data-name="Line 363" class="cls-4" x2="36" transform="translate(-13103.5 -22327.5)"/>
    <path id="Path_635" data-name="Path 635" class="cls-5" d="M3.562,0a.542.542,0,0,1-.4-.164A.542.542,0,0,1,3-.562V-1.687a.542.542,0,0,1,.164-.4.542.542,0,0,1,.4-.164H7.5a2.17,2.17,0,0,0,1.594-.656A2.17,2.17,0,0,0,9.75-4.5v-9a2.17,2.17,0,0,0-.656-1.594A2.17,2.17,0,0,0,7.5-15.75H3.562a.542.542,0,0,1-.4-.164.542.542,0,0,1-.164-.4v-1.125a.542.542,0,0,1,.164-.4.542.542,0,0,1,.4-.164H7.5a4.34,4.34,0,0,1,3.187,1.312A4.34,4.34,0,0,1,12-13.5v9a4.34,4.34,0,0,1-1.312,3.187A4.34,4.34,0,0,1,7.5,0ZM-4.172-17.109v.047a.583.583,0,0,1,.422-.187.507.507,0,0,1,.375.141L4.359-9.422A.686.686,0,0,1,4.5-9a.507.507,0,0,1-.141.375L-3.375-.937A.445.445,0,0,1-3.75-.75a.583.583,0,0,1-.422-.187l-.937-.891A.686.686,0,0,1-5.25-2.25a.445.445,0,0,1,.187-.375l5.3-5.156H-11.438a.542.542,0,0,1-.4-.164.542.542,0,0,1-.164-.4V-9.656a.542.542,0,0,1,.164-.4.542.542,0,0,1,.4-.164H.234l-5.3-5.156a.445.445,0,0,1-.187-.375.583.583,0,0,1,.187-.422Z" transform="translate(-13084 -22333)"/>
    <rect id="Rectangle_1401" data-name="Rectangle 1401" class="cls-6" width="15" height="4" rx="2" transform="translate(-13105 -22319)"/>
  </g>
</svg>
