<svg width="173" height="140" viewBox="0 0 173 140" fill="none" xmlns="http://www.w3.org/2000/svg">
<circle cx="86.8231" cy="70" r="70" fill="#F5FAFF"/>
<g filter="url(#filter0_d_511_808)">
<rect x="1.14447" y="39.2457" width="67.7841" height="67.7841" rx="13.5568" transform="rotate(-10 1.14447 39.2457)" fill="white"/>
<rect x="0.162909" y="38.5584" width="69.4787" height="69.4787" rx="14.4041" transform="rotate(-10 0.162909 38.5584)" stroke="#D0D5DD" stroke-opacity="0.2" stroke-width="1.6946"/>
<g clip-path="url(#clip0_511_808)">
<path fill-rule="evenodd" clip-rule="evenodd" d="M62.0064 62.3819C61.4534 59.2456 59.5226 57.0343 56.6662 57.538C53.7978 58.0437 52.4986 60.8245 53.0473 63.9364C53.6976 67.624 56.0748 69.125 59.0155 68.6064C60.4497 68.3535 61.4761 67.8315 62.2136 67.2214L61.7815 64.7712C61.0354 65.3322 60.1407 65.7553 58.9475 65.9657C57.7785 66.1718 56.6685 65.938 56.2811 64.5157L62.1746 63.4765C62.1465 63.3173 62.0583 62.6759 62.0064 62.3819ZM55.8474 62.2678C55.6033 60.8834 56.3334 60.161 57.0927 60.0271C57.8278 59.8975 58.7128 60.3352 58.9569 61.7196L55.8474 62.2678Z" fill="#635BFF"/>
<path fill-rule="evenodd" clip-rule="evenodd" d="M47.41 59.1699C46.2288 59.3782 45.5689 60.0756 45.2162 60.542L44.9256 59.8101L42.2741 60.2776L44.793 74.5627L47.6915 73.3821L47.0922 69.9128C47.5823 70.1548 48.301 70.4955 49.3616 70.3085C51.5189 69.9281 53.1723 67.8175 52.4875 63.9338C51.849 60.3831 49.5191 58.798 47.41 59.1699ZM48.1752 67.7386C47.4641 67.864 46.997 67.6811 46.6515 67.4135L45.838 62.8704C46.0887 62.4599 46.4794 62.1383 47.1664 62.0172C48.2631 61.8238 49.2428 62.9396 49.5258 64.5445C49.8152 66.1862 49.284 67.5431 48.1752 67.7386Z" fill="#635BFF"/>
<path fill-rule="evenodd" clip-rule="evenodd" d="M37.9661 60.0899L40.8746 58.8949L40.436 56.4079L37.5254 57.5906L37.9661 60.0899Z" fill="#635BFF"/>
<path d="M41.1556 60.4875L38.1305 61.0209L40.0207 71.7408L43.0458 71.2074L41.1556 60.4875Z" fill="#635BFF"/>
<path fill-rule="evenodd" clip-rule="evenodd" d="M35.0482 62.4993L34.6955 61.6267L32.0923 62.0857L33.9825 72.8056L36.9955 72.2743L35.7145 65.0093C36.2593 63.9405 37.4947 63.8996 37.8921 63.9684L37.3952 61.1506C36.9836 61.0716 35.526 61.0507 35.0482 62.4993Z" fill="#635BFF"/>
<path fill-rule="evenodd" clip-rule="evenodd" d="M28.3933 59.9966L25.5649 61.1522L27.2832 70.9677C27.6029 72.7809 29.1762 73.8804 30.9599 73.5659C31.9482 73.3916 32.6389 73.0804 32.9977 72.7897L32.5592 70.3027C32.2016 70.53 30.3967 71.4293 30.077 69.6161L29.3101 65.2669L31.6 64.8631L31.1399 62.2535L28.85 62.6573L28.3933 59.9966Z" fill="#635BFF"/>
<path fill-rule="evenodd" clip-rule="evenodd" d="M21.2637 67.2036C21.1795 66.7258 21.5327 66.4741 22.1715 66.3614C23.0875 66.1999 24.2942 66.2777 25.2987 66.6185L24.791 63.7394C23.7194 63.5115 22.7031 63.5265 21.7027 63.7029C19.2561 64.1343 17.8581 65.7198 18.2404 67.8883C18.8367 71.2697 23.3214 69.9231 23.5785 71.381C23.6779 71.9445 23.2282 72.2133 22.5533 72.3323C21.5529 72.5087 20.202 72.3174 19.0902 71.9324L19.6044 74.8482C20.8116 75.1406 21.9812 75.1491 23.0177 74.9664C25.5246 74.5243 27.0255 72.9586 26.6389 70.7656C25.9831 67.1168 21.5057 68.5758 21.2637 67.2036Z" fill="#635BFF"/>
</g>
</g>
<g filter="url(#filter1_d_511_808)">
<rect x="53.9644" y="22" width="67.7841" height="67.7841" rx="13.5568" fill="white"/>
<rect x="53.1171" y="21.1527" width="69.4787" height="69.4787" rx="14.4041" stroke="#D0D5DD" stroke-opacity="0.2" stroke-width="1.6946"/>
<path d="M105.367 44.6095V67.1742C105.367 70.3017 102.832 72.8377 99.7036 72.8377H77.1382C74.0101 72.8377 71.4747 70.303 71.4747 67.1742V44.6095C71.4747 41.482 74.0108 38.946 77.1382 38.946H99.7029C102.832 38.946 105.366 41.4807 105.366 44.6095H105.367ZM99.2028 46.8981C99.2028 45.9106 98.4018 45.1104 97.415 45.1104H79.4255C78.438 45.1104 77.6377 45.9106 77.6377 46.8981V64.8903C77.6377 65.8778 78.438 66.6781 79.4255 66.6781H97.4163C98.4038 66.6781 99.2041 65.8771 99.2041 64.8903V46.8981H99.2028ZM83.798 52.3021C83.798 51.7323 84.2569 51.2706 84.8234 51.2706H92.0151C92.5822 51.2706 93.0405 51.733 93.0405 52.3021V59.483C93.0405 60.0528 92.5842 60.5144 92.0151 60.5144H84.8234C84.2563 60.5144 83.798 60.0521 83.798 59.483V52.3021Z" fill="black"/>
</g>
<g filter="url(#filter2_d_511_808)">
<rect x="103.746" y="27.475" width="67.7841" height="67.7841" rx="13.5568" transform="rotate(10 103.746 27.475)" fill="white"/>
<rect x="103.059" y="26.4934" width="69.4787" height="69.4787" rx="14.4041" transform="rotate(10 103.059 26.4934)" stroke="#D0D5DD" stroke-opacity="0.2" stroke-width="1.6946"/>
<g clip-path="url(#clip1_511_808)">
<path d="M130.099 56.2122C129.873 56.1724 129.641 56.2157 129.443 56.3342C129.245 56.4528 129.095 56.6388 129.02 56.8589L125.699 66.5978L122.647 75.5467L122.645 75.5542L122.648 75.5468L125.7 66.5979C125.855 66.1431 126.312 65.8689 126.778 65.9511L131.335 66.7546C135.921 67.5632 140.412 64.8527 141.934 60.3752C142.05 60.035 142.14 59.6937 142.207 59.3531L142.207 59.3525L142.206 59.3524C141.151 58.5262 139.845 57.9306 138.345 57.6662L130.099 56.2122Z" fill="#001C64"/>
<path d="M142.206 59.3535C142.139 59.6942 142.049 60.0357 141.933 60.3759C140.411 64.8535 135.92 67.5639 131.334 66.7553L126.777 65.9519C126.311 65.8697 125.854 66.1439 125.699 66.5987L122.647 75.5476L120.733 81.162C120.696 81.2705 120.682 81.3856 120.694 81.4996C120.705 81.6135 120.74 81.7236 120.797 81.8221C120.854 81.9206 120.932 82.0054 121.024 82.0704C121.117 82.1354 121.223 82.1793 121.334 82.1989L126.28 83.071C126.505 83.1108 126.738 83.0675 126.936 82.949C127.134 82.8304 127.283 82.6444 127.359 82.4243L130.141 74.2649C130.296 73.8101 130.754 73.5355 131.22 73.6177L134.132 74.1312C138.718 74.9398 143.208 72.2294 144.731 67.7522C145.812 64.5737 144.716 61.3157 142.206 59.3535Z" fill="#0070E0"/>
<path d="M125.656 48.5458C125.43 48.506 125.198 48.5493 125 48.668C124.802 48.7867 124.652 48.9729 124.577 49.193L116.29 73.4948C116.253 73.6032 116.24 73.7185 116.251 73.8325C116.262 73.9465 116.297 74.0566 116.355 74.1552C116.412 74.2538 116.489 74.3385 116.582 74.4036C116.675 74.4687 116.78 74.5126 116.891 74.5322L122.647 75.547L125.698 66.5981L129.019 56.8593C129.094 56.6392 129.244 56.4531 129.442 56.3346C129.64 56.216 129.873 56.1727 130.098 56.2125L138.344 57.6665C139.844 57.931 141.15 58.5271 142.206 59.3525C143.024 55.176 140.229 51.1153 135.546 50.2896L125.656 48.5458Z" fill="#003087"/>
</g>
</g>
<defs>
<filter id="filter0_d_511_808" x="-0.450979" y="26.6774" width="81.7157" height="81.7157" filterUnits="userSpaceOnUse" color-interpolation-filters="sRGB">
<feFlood flood-opacity="0" result="BackgroundImageFix"/>
<feColorMatrix in="SourceAlpha" type="matrix" values="0 0 0 0 0 0 0 0 0 0 0 0 0 0 0 0 0 0 127 0" result="hardAlpha"/>
<feOffset dy="0.797725"/>
<feGaussianBlur stdDeviation="0.797725"/>
<feColorMatrix type="matrix" values="0 0 0 0 0.0627451 0 0 0 0 0.0941176 0 0 0 0 0.156863 0 0 0 0.03 0"/>
<feBlend mode="normal" in2="BackgroundImageFix" result="effect1_dropShadow_511_808"/>
<feBlend mode="normal" in="SourceGraphic" in2="effect1_dropShadow_511_808" result="shape"/>
</filter>
<filter id="filter1_d_511_808" x="39.2698" y="13.3054" width="91.1733" height="91.1733" filterUnits="userSpaceOnUse" color-interpolation-filters="sRGB">
<feFlood flood-opacity="0" result="BackgroundImageFix"/>
<feColorMatrix in="SourceAlpha" type="matrix" values="0 0 0 0 0 0 0 0 0 0 0 0 0 0 0 0 0 0 127 0" result="hardAlpha"/>
<feOffset dx="-3" dy="3"/>
<feGaussianBlur stdDeviation="5"/>
<feColorMatrix type="matrix" values="0 0 0 0 0.0627451 0 0 0 0 0.0941176 0 0 0 0 0.156863 0 0 0 0.05 0"/>
<feBlend mode="normal" in2="BackgroundImageFix" result="effect1_dropShadow_511_808"/>
<feBlend mode="normal" in="SourceGraphic" in2="effect1_dropShadow_511_808" result="shape"/>
</filter>
<filter id="filter2_d_511_808" x="83.9757" y="25.475" width="88.5248" height="88.5249" filterUnits="userSpaceOnUse" color-interpolation-filters="sRGB">
<feFlood flood-opacity="0" result="BackgroundImageFix"/>
<feColorMatrix in="SourceAlpha" type="matrix" values="0 0 0 0 0 0 0 0 0 0 0 0 0 0 0 0 0 0 127 0" result="hardAlpha"/>
<feOffset dx="-3" dy="3"/>
<feGaussianBlur stdDeviation="2.5"/>
<feColorMatrix type="matrix" values="0 0 0 0 0.0627451 0 0 0 0 0.0941176 0 0 0 0 0.156863 0 0 0 0.1 0"/>
<feBlend mode="normal" in2="BackgroundImageFix" result="effect1_dropShadow_511_808"/>
<feBlend mode="normal" in="SourceGraphic" in2="effect1_dropShadow_511_808" result="shape"/>
</filter>
<clipPath id="clip0_511_808">
<rect width="44.4237" height="18.4891" fill="white" transform="translate(16.9464 60.5499) rotate(-10)"/>
</clipPath>
<clipPath id="clip1_511_808">
<rect width="27.3207" height="33.6371" fill="white" transform="translate(120.83 47.6948) rotate(10)"/>
</clipPath>
</defs>
</svg>
