<svg width="28" height="28" viewBox="0 0 28 28" fill="none" xmlns="http://www.w3.org/2000/svg">
<path d="M25.014 12.8916L14.2923 23.6133C12.9788 24.9268 11.1974 25.6647 9.33983 25.6647C7.48228 25.6647 5.70081 24.9268 4.38733 23.6133C3.07385 22.2998 2.33594 20.5183 2.33594 18.6608C2.33594 16.8032 3.07385 15.0218 4.38733 13.7083L15.109 2.98661C15.9847 2.11096 17.1723 1.61902 18.4107 1.61902C19.649 1.61902 20.8367 2.11096 21.7123 2.98661C22.588 3.86227 23.0799 5.04991 23.0799 6.28828C23.0799 7.52664 22.588 8.71429 21.7123 9.58995L10.979 20.3116C10.5412 20.7494 9.94735 20.9954 9.32816 20.9954C8.70898 20.9954 8.11516 20.7494 7.67733 20.3116C7.2395 19.8738 6.99353 19.28 6.99353 18.6608C6.99353 18.0416 7.2395 17.4478 7.67733 17.0099L17.5823 7.11661" stroke="#3F4B5B" stroke-width="1.5" stroke-linecap="round" stroke-linejoin="round"/>
</svg>
