<svg xmlns="http://www.w3.org/2000/svg" width="392" height="124" fill="none"><rect width="391" height="35" x=".5" y=".5" fill="#fff" rx="7.5"/><rect width="391" height="35" x=".5" y=".5" stroke="#BFC3C8" rx="7.5"/><rect width="31" height="19" x="8.5" y="8.5" fill="#fff" stroke="#BFC3C8" rx="3.5"/><path fill="#555" d="m27.5 16 2.5 2.5 2.5-2.5 1 .5L30 20l-3.5-3.5 1-.5Z"/><path fill="#344054" d="M20.15 13.273V22h-1.32v-7.406h-.052l-2.088 1.363v-1.261l2.178-1.423h1.283Z"/><path fill="#444" d="M57.824 17.91c0 1.073-.194 2.001-.582 2.783-.387.782-.92 1.386-1.596 1.81-.676.424-1.448.636-2.316.636-.869 0-1.641-.212-2.317-.636-.676-.424-1.208-1.028-1.596-1.81-.388-.782-.582-1.71-.582-2.784 0-1.074.194-2.002.582-2.784.388-.782.92-1.385 1.596-1.81.676-.424 1.448-.636 2.317-.636.868 0 1.64.212 2.316.636.676.425 1.209 1.028 1.596 1.81.388.782.582 1.71.582 2.784Zm-1.193 0c0-.883-.148-1.627-.443-2.233C55.897 15.07 55.5 14.61 55 14.3a3.082 3.082 0 0 0-1.67-.468c-.617 0-1.175.156-1.676.468-.497.311-.893.77-1.188 1.377-.292.606-.438 1.35-.438 2.232 0 .882.146 1.626.438 2.232.295.607.691 1.066 1.188 1.378.5.311 1.06.467 1.676.467.616 0 1.173-.156 1.67-.468.5-.311.897-.77 1.188-1.377.295-.606.443-1.35.443-2.232Zm3.107 7.954v-10.5h1.133v1.213h.14c.086-.133.205-.302.358-.507.155-.21.377-.395.666-.557.292-.166.686-.249 1.183-.249.643 0 1.21.161 1.7.482.49.322.874.778 1.149 1.368.275.59.413 1.286.413 2.088 0 .808-.138 1.51-.413 2.103-.275.59-.656 1.047-1.144 1.372-.487.321-1.049.482-1.685.482-.49 0-.883-.081-1.178-.243a2.184 2.184 0 0 1-.681-.562 7.527 7.527 0 0 1-.368-.527h-.1v4.037h-1.173Zm1.153-6.682c0 .577.085 1.085.254 1.526.169.438.416.78.74 1.03.326.245.723.367 1.194.367.49 0 .9-.13 1.228-.388a2.37 2.37 0 0 0 .746-1.054c.169-.444.253-.938.253-1.481 0-.537-.083-1.021-.248-1.452a2.243 2.243 0 0 0-.741-1.029c-.328-.255-.74-.383-1.238-.383-.477 0-.878.121-1.203.363-.325.239-.57.573-.736 1.004-.166.428-.249.927-.249 1.497Zm10.7-3.818v.994h-3.958v-.994h3.957Zm-2.805-1.83h1.174v7.278c0 .332.048.58.144.746.1.163.225.272.378.328.155.053.32.08.492.08.129 0 .235-.007.318-.02l.199-.04.239 1.054c-.08.03-.191.06-.334.09a2.45 2.45 0 0 1-.541.05c-.332 0-.657-.072-.975-.214a1.937 1.937 0 0 1-.785-.652c-.206-.291-.309-.66-.309-1.103v-7.597ZM73.356 23v-7.636h1.172V23h-1.173Zm.596-8.91a.834.834 0 0 1-.592-.233.75.75 0 0 1-.243-.561.75.75 0 0 1 .243-.562.834.834 0 0 1 .592-.234c.228 0 .424.078.586.234a.744.744 0 0 1 .249.562.744.744 0 0 1-.249.561.817.817 0 0 1-.586.234Zm5.828 9.07c-.69 0-1.295-.165-1.815-.493a3.344 3.344 0 0 1-1.213-1.377c-.288-.59-.432-1.28-.432-2.068 0-.796.144-1.49.432-2.084a3.337 3.337 0 0 1 1.213-1.382c.52-.328 1.125-.492 1.815-.492s1.292.164 1.81.492c.52.328.924.79 1.212 1.383.292.593.438 1.287.438 2.083 0 .788-.146 1.478-.438 2.068a3.298 3.298 0 0 1-1.213 1.377c-.517.328-1.12.492-1.81.492Zm0-1.055c.523 0 .954-.134 1.292-.403.338-.268.589-.621.751-1.059.162-.437.244-.911.244-1.421s-.082-.986-.244-1.427a2.404 2.404 0 0 0-.75-1.07c-.339-.27-.77-.407-1.293-.407-.524 0-.955.136-1.293.408a2.404 2.404 0 0 0-.75 1.069c-.163.44-.244.916-.244 1.427 0 .51.081.984.243 1.421.163.438.413.79.751 1.06.338.268.769.402 1.293.402Zm6.424-3.699V23h-1.173v-7.636h1.133v1.193h.1c.179-.388.45-.7.815-.935.365-.239.836-.358 1.412-.358.517 0 .97.106 1.357.318.388.21.69.527.905.955.216.424.323.961.323 1.61V23h-1.173v-4.773c0-.6-.156-1.067-.467-1.402-.312-.338-.74-.507-1.283-.507-.374 0-.71.081-1.004.244-.292.162-.522.4-.691.71-.17.312-.254.69-.254 1.134Zm14.514-5.588V23h-1.233v-8.89h-.06l-2.486 1.651V14.51l2.546-1.69h1.233Z"/><g clip-path="url(#a)"><path fill="#555" d="M373.2 23a1.7 1.7 0 1 1-1.7-1.7c1 0 1.7.8 1.7 1.7Zm-1.7-6.7a1.698 1.698 0 0 0-1.667 2.031 1.694 1.694 0 0 0 1.335 1.336A1.702 1.702 0 0 0 373.2 18c0-1-.8-1.7-1.7-1.7Zm0-5a1.698 1.698 0 0 0-1.667 2.031 1.694 1.694 0 0 0 1.335 1.336A1.702 1.702 0 0 0 373.2 13c0-1-.8-1.7-1.7-1.7Zm5 3.4a1.698 1.698 0 0 0 1.667-2.032 1.694 1.694 0 0 0-1.335-1.335A1.702 1.702 0 0 0 374.8 13c0 1 .8 1.7 1.7 1.7Zm0 1.6a1.698 1.698 0 0 0-1.667 2.031 1.694 1.694 0 0 0 1.335 1.336A1.702 1.702 0 0 0 378.2 18c0-1-.8-1.7-1.7-1.7Zm0 5a1.698 1.698 0 0 0-1.667 2.031 1.694 1.694 0 0 0 1.335 1.336A1.702 1.702 0 0 0 378.2 23c0-1-.8-1.7-1.7-1.7Z"/></g><rect width="391" height="35" x=".5" y="44.5" fill="#fff" rx="7.5"/><rect width="391" height="35" x=".5" y="44.5" stroke="#BFC3C8" rx="7.5"/><rect width="31" height="19" x="8.5" y="52.5" fill="#fff" stroke="#BFC3C8" rx="3.5"/><path fill="#555" d="m27.5 60 2.5 2.5 2.5-2.5 1 .5L30 64l-3.5-3.5 1-.5Z"/><path fill="#344054" d="M16.84 66v-.954l2.953-3.06c.315-.333.575-.624.78-.874.207-.253.362-.493.464-.72.102-.227.153-.469.153-.724 0-.29-.068-.54-.204-.75a1.336 1.336 0 0 0-.558-.49 1.775 1.775 0 0 0-.797-.175c-.313 0-.585.064-.819.192a1.313 1.313 0 0 0-.536.54 1.705 1.705 0 0 0-.188.819h-1.257c0-.531.122-.996.366-1.394a2.49 2.49 0 0 1 1.006-.924c.426-.222.91-.333 1.453-.333.549 0 1.032.11 1.45.328.42.216.748.512.983.887.236.372.354.792.354 1.261 0 .324-.06.64-.183.95-.12.31-.328.655-.627 1.036-.298.378-.712.837-1.244 1.377l-1.734 1.815v.064h3.929V66H16.84Z"/><path fill="#444" d="M57.824 61.91c0 1.073-.194 2.001-.582 2.783-.388.782-.92 1.386-1.596 1.81-.676.424-1.448.636-2.316.636-.869 0-1.641-.212-2.317-.636-.676-.424-1.208-1.028-1.596-1.81-.388-.782-.582-1.71-.582-2.784 0-1.074.194-2.002.582-2.784.388-.782.92-1.385 1.596-1.81.676-.424 1.448-.636 2.317-.636.868 0 1.64.212 2.316.636.676.425 1.208 1.028 1.596 1.81.388.782.582 1.71.582 2.784Zm-1.193 0c0-.882-.148-1.627-.443-2.233C55.897 59.07 55.5 58.61 55 58.3a3.082 3.082 0 0 0-1.67-.468c-.617 0-1.175.156-1.676.468-.497.311-.893.77-1.188 1.377-.292.606-.438 1.35-.438 2.232 0 .882.146 1.626.438 2.232.295.607.691 1.066 1.188 1.377.5.312 1.06.468 1.675.468.617 0 1.174-.156 1.671-.468.5-.311.897-.77 1.188-1.377.295-.606.443-1.35.443-2.232Zm3.107 7.954v-10.5h1.133v1.213h.14c.086-.133.205-.302.358-.507.155-.21.377-.395.666-.557.292-.166.686-.249 1.183-.249.643 0 1.21.161 1.7.482.49.322.874.778 1.149 1.368.275.59.412 1.286.412 2.088 0 .808-.137 1.51-.412 2.103-.275.59-.656 1.047-1.144 1.372-.487.321-1.049.482-1.685.482-.49 0-.883-.081-1.178-.244a2.182 2.182 0 0 1-.681-.561 7.492 7.492 0 0 1-.368-.527h-.1v4.037h-1.173Zm1.153-6.682c0 .576.085 1.085.254 1.526.169.438.416.78.74 1.03.326.245.723.367 1.194.367.49 0 .9-.13 1.228-.388.331-.261.58-.613.746-1.054.169-.444.253-.938.253-1.481 0-.537-.083-1.021-.248-1.452a2.243 2.243 0 0 0-.741-1.029c-.328-.255-.741-.383-1.238-.383-.477 0-.879.121-1.203.363-.325.239-.57.574-.736 1.004-.166.428-.249.927-.249 1.497Zm10.7-3.818v.994h-3.958v-.994h3.957Zm-2.805-1.83h1.174v7.279c0 .33.048.58.144.745.1.163.225.272.377.328.156.053.32.08.493.08.129 0 .235-.007.318-.02l.199-.04.238 1.054c-.08.03-.19.06-.333.09-.142.033-.323.05-.542.05-.331 0-.656-.072-.974-.214a1.937 1.937 0 0 1-.785-.652c-.206-.291-.309-.66-.309-1.103v-7.597ZM73.356 67v-7.636h1.172V67h-1.173Zm.596-8.91a.834.834 0 0 1-.592-.233.75.75 0 0 1-.243-.562.75.75 0 0 1 .243-.561.834.834 0 0 1 .592-.234c.228 0 .424.078.586.234a.744.744 0 0 1 .249.561.743.743 0 0 1-.249.562.817.817 0 0 1-.586.234Zm5.828 9.07c-.69 0-1.295-.165-1.815-.493a3.344 3.344 0 0 1-1.213-1.377c-.288-.59-.433-1.28-.433-2.068 0-.796.145-1.49.433-2.084a3.337 3.337 0 0 1 1.213-1.382c.52-.328 1.125-.492 1.815-.492.689 0 1.292.164 1.81.492.52.328.924.79 1.212 1.383.292.593.438 1.287.438 2.083 0 .788-.146 1.478-.438 2.068a3.298 3.298 0 0 1-1.213 1.377c-.517.328-1.12.492-1.81.492Zm0-1.055c.523 0 .954-.134 1.292-.403.338-.268.589-.621.751-1.058.162-.438.244-.912.244-1.422 0-.51-.082-.986-.244-1.427a2.405 2.405 0 0 0-.75-1.07c-.339-.27-.77-.407-1.293-.407-.524 0-.955.136-1.293.408a2.405 2.405 0 0 0-.75 1.069c-.163.44-.244.916-.244 1.427 0 .51.08.984.243 1.422.163.437.413.79.751 1.058.338.269.769.403 1.293.403Zm6.424-3.699V67h-1.173v-7.636h1.133v1.193h.1c.179-.388.45-.7.815-.935.365-.239.835-.358 1.412-.358.517 0 .97.106 1.357.318.388.21.69.527.905.955.216.424.323.961.323 1.61V67h-1.173v-4.773c0-.6-.156-1.067-.467-1.402-.312-.338-.74-.507-1.283-.507-.375 0-.71.081-1.004.244-.292.162-.522.4-.691.71-.17.312-.254.69-.254 1.134ZM97.138 67v-.895l3.361-3.679c.394-.43.719-.805.974-1.123.255-.322.444-.623.567-.905a2.19 2.19 0 0 0 .189-.895 1.647 1.647 0 0 0-.955-1.536 2.255 2.255 0 0 0-.994-.214c-.391 0-.733.081-1.024.243-.288.16-.512.383-.671.672a2.102 2.102 0 0 0-.234 1.014h-1.173c0-.597.137-1.12.412-1.571.275-.451.65-.802 1.124-1.054a3.387 3.387 0 0 1 1.606-.378c.596 0 1.125.126 1.586.378.46.252.822.591 1.084 1.019.261.428.392.903.392 1.427 0 .374-.068.74-.204 1.099-.132.354-.364.75-.696 1.188a21.03 21.03 0 0 1-1.367 1.59l-2.287 2.447v.08h4.733V67h-6.423Z"/><g clip-path="url(#b)"><path fill="#555" d="M373.2 67a1.7 1.7 0 1 1-1.7-1.7c1 0 1.7.8 1.7 1.7Zm-1.7-6.7a1.698 1.698 0 0 0-1.667 2.032 1.694 1.694 0 0 0 1.335 1.335A1.702 1.702 0 0 0 373.2 62c0-1-.8-1.7-1.7-1.7Zm0-5a1.698 1.698 0 0 0-1.667 2.032 1.694 1.694 0 0 0 1.335 1.335A1.702 1.702 0 0 0 373.2 57c0-1-.8-1.7-1.7-1.7Zm5 3.4a1.698 1.698 0 0 0 1.667-2.032 1.694 1.694 0 0 0-1.335-1.335A1.702 1.702 0 0 0 374.8 57c0 1 .8 1.7 1.7 1.7Zm0 1.6a1.698 1.698 0 0 0-1.667 2.032 1.694 1.694 0 0 0 1.335 1.335A1.702 1.702 0 0 0 378.2 62c0-1-.8-1.7-1.7-1.7Zm0 5a1.698 1.698 0 0 0-1.667 2.032 1.694 1.694 0 0 0 1.335 1.335A1.702 1.702 0 0 0 378.2 67c0-1-.8-1.7-1.7-1.7Z"/></g><rect width="391" height="35" x=".5" y="88.5" fill="#fff" rx="7.5"/><rect width="391" height="35" x=".5" y="88.5" stroke="#BFC3C8" rx="7.5"/><rect width="31" height="19" x="8.5" y="96.5" fill="#fff" stroke="#BFC3C8" rx="3.5"/><path fill="#555" d="m27.5 104 2.5 2.5 2.5-2.5 1 .5L30 108l-3.5-3.5 1-.5Z"/><path fill="#344054" d="M19.878 110.119c-.585 0-1.108-.101-1.568-.302a2.665 2.665 0 0 1-1.087-.84 2.228 2.228 0 0 1-.426-1.253h1.338c.017.259.104.483.26.674.159.187.366.332.622.434.256.103.54.154.852.154a2.2 2.2 0 0 0 .912-.179c.267-.12.476-.286.627-.499.15-.216.226-.464.226-.746 0-.292-.076-.549-.226-.771a1.475 1.475 0 0 0-.652-.528c-.284-.128-.628-.192-1.032-.192h-.737v-1.074h.737c.324 0 .608-.058.853-.175.247-.116.44-.278.58-.485.139-.211.208-.456.208-.738 0-.269-.061-.504-.183-.703a1.238 1.238 0 0 0-.511-.473 1.67 1.67 0 0 0-.776-.17 2 2 0 0 0-.797.158 1.47 1.47 0 0 0-.597.443c-.153.19-.235.419-.247.686H16.98c.014-.472.154-.887.418-1.245.267-.358.619-.637 1.056-.839a3.435 3.435 0 0 1 1.458-.303c.56 0 1.043.11 1.449.329.409.215.724.504.946.865.224.36.335.755.332 1.184.003.489-.133.904-.409 1.245a1.99 1.99 0 0 1-1.09.686v.068c.579.088 1.028.318 1.346.69.32.372.48.834.477 1.385.003.48-.13.911-.4 1.291a2.718 2.718 0 0 1-1.096.899c-.463.216-.993.324-1.59.324Z"/><path fill="#444" d="M57.824 105.909c0 1.074-.194 2.002-.582 2.784-.388.782-.92 1.386-1.596 1.81-.676.424-1.448.636-2.316.636-.869 0-1.641-.212-2.317-.636-.676-.424-1.208-1.028-1.596-1.81-.388-.782-.582-1.71-.582-2.784 0-1.074.194-2.002.582-2.784.388-.782.92-1.385 1.596-1.81.676-.424 1.448-.636 2.317-.636.868 0 1.64.212 2.316.636.676.425 1.208 1.028 1.596 1.81.388.782.582 1.71.582 2.784Zm-1.193 0c0-.882-.148-1.626-.443-2.232-.291-.607-.688-1.066-1.188-1.377a3.078 3.078 0 0 0-1.67-.468c-.617 0-1.175.156-1.676.468-.497.311-.893.77-1.188 1.377-.292.606-.438 1.35-.438 2.232 0 .882.146 1.626.438 2.232.295.607.691 1.066 1.188 1.377.5.312 1.06.468 1.675.468.617 0 1.174-.156 1.671-.468.5-.311.897-.77 1.188-1.377.295-.606.443-1.35.443-2.232Zm3.107 7.955v-10.5h1.133v1.213h.14c.086-.133.205-.302.358-.507a2.09 2.09 0 0 1 .666-.557c.292-.166.686-.249 1.183-.249.643 0 1.21.161 1.7.482.49.322.874.778 1.149 1.368.275.59.412 1.286.412 2.088 0 .808-.137 1.509-.412 2.103-.275.59-.656 1.047-1.144 1.372-.487.321-1.049.482-1.685.482-.49 0-.883-.081-1.178-.244a2.182 2.182 0 0 1-.681-.561 7.516 7.516 0 0 1-.368-.527h-.1v4.037h-1.173Zm1.153-6.682c0 .577.085 1.085.254 1.526.169.438.416.781.74 1.029.326.245.723.368 1.194.368.49 0 .9-.129 1.228-.388.331-.262.58-.613.746-1.054.169-.444.253-.938.253-1.481a4.02 4.02 0 0 0-.248-1.452 2.245 2.245 0 0 0-.741-1.029c-.328-.255-.741-.383-1.238-.383-.477 0-.879.121-1.203.363-.325.239-.57.573-.736 1.004-.166.428-.249.927-.249 1.497Zm10.7-3.818v.994h-3.958v-.994h3.957Zm-2.805-1.83h1.174v7.278c0 .332.048.581.144.746.1.163.225.272.377.328.156.053.32.08.493.08.129 0 .235-.007.318-.02l.199-.04.238 1.054c-.08.03-.19.06-.333.09a2.466 2.466 0 0 1-.542.049c-.331 0-.656-.071-.974-.213a1.938 1.938 0 0 1-.785-.652c-.206-.291-.309-.659-.309-1.103v-7.597Zm4.57 9.466v-7.636h1.172V111h-1.173Zm.596-8.909a.833.833 0 0 1-.592-.234.751.751 0 0 1-.243-.562c0-.218.08-.406.243-.561a.833.833 0 0 1 .592-.234c.228 0 .424.078.586.234a.742.742 0 0 1 .249.561.744.744 0 0 1-.249.562.817.817 0 0 1-.586.234Zm5.828 9.068c-.69 0-1.295-.164-1.815-.492a3.342 3.342 0 0 1-1.213-1.377c-.288-.59-.433-1.28-.433-2.068 0-.796.145-1.49.433-2.084a3.344 3.344 0 0 1 1.213-1.382c.52-.328 1.125-.492 1.815-.492.689 0 1.292.164 1.81.492.52.329.924.789 1.212 1.382.292.594.438 1.288.438 2.084 0 .788-.146 1.478-.438 2.068a3.297 3.297 0 0 1-1.213 1.377c-.517.328-1.12.492-1.81.492Zm0-1.054c.523 0 .954-.134 1.292-.403a2.37 2.37 0 0 0 .751-1.059 4.05 4.05 0 0 0 .244-1.421c0-.511-.082-.986-.244-1.427a2.406 2.406 0 0 0-.75-1.069c-.339-.272-.77-.408-1.293-.408-.524 0-.955.136-1.293.408a2.406 2.406 0 0 0-.75 1.069 4.095 4.095 0 0 0-.244 1.427c0 .51.08.984.243 1.421.163.438.413.791.751 1.059.338.269.769.403 1.293.403Zm6.424-3.699V111h-1.173v-7.636h1.133v1.193h.1c.179-.388.45-.7.815-.935.365-.238.835-.358 1.412-.358.517 0 .97.106 1.357.318.388.209.69.527.905.955.216.424.323.961.323 1.611V111h-1.173v-4.773c0-.6-.156-1.067-.467-1.402-.312-.338-.74-.507-1.283-.507-.375 0-.71.081-1.004.244a1.738 1.738 0 0 0-.691.711c-.17.311-.254.689-.254 1.133Zm14.374 4.733c-.656 0-1.24-.112-1.755-.338a3.002 3.002 0 0 1-1.218-.939 2.53 2.53 0 0 1-.487-1.407h1.253c.026.328.14.611.338.85.199.235.459.417.78.547.322.129.678.193 1.069.193.438 0 .826-.076 1.164-.228.338-.153.603-.365.795-.637.192-.271.289-.586.289-.944a1.77 1.77 0 0 0-.279-.99c-.185-.288-.457-.513-.815-.676-.358-.162-.796-.243-1.313-.243h-.815v-1.094h.815c.405 0 .759-.073 1.064-.219a1.651 1.651 0 0 0 .985-1.551c0-.345-.077-.645-.229-.9a1.566 1.566 0 0 0-.646-.596 2.087 2.087 0 0 0-.975-.214c-.351 0-.683.064-.994.194-.308.126-.56.31-.756.552a1.435 1.435 0 0 0-.318.865h-1.193c.02-.534.18-1.001.482-1.402.302-.405.696-.72 1.183-.945a3.828 3.828 0 0 1 1.616-.338c.63 0 1.17.128 1.621.383.451.252.797.585 1.039.999.242.414.363.862.363 1.342 0 .574-.151 1.063-.453 1.467a2.294 2.294 0 0 1-1.218.84v.08c.643.106 1.145.379 1.507.82.361.438.542.979.542 1.626 0 .553-.151 1.05-.453 1.491a3.068 3.068 0 0 1-1.223 1.034c-.517.252-1.105.378-1.765.378Z"/><g clip-path="url(#c)"><path fill="#555" d="M373.2 111a1.697 1.697 0 0 1-1.049 1.57 1.697 1.697 0 0 1-2.318-1.239 1.702 1.702 0 0 1 .723-1.745c.279-.186.608-.286.944-.286 1 0 1.7.8 1.7 1.7Zm-1.7-6.7a1.704 1.704 0 0 0-1.571 1.049 1.702 1.702 0 0 0 2.222 2.221A1.697 1.697 0 0 0 373.2 106c0-1-.8-1.7-1.7-1.7Zm0-5a1.698 1.698 0 0 0-1.667 2.031 1.695 1.695 0 0 0 1.335 1.336 1.697 1.697 0 0 0 1.745-.723c.187-.279.287-.608.287-.944 0-1-.8-1.7-1.7-1.7Zm5 3.4a1.697 1.697 0 0 0 1.571-1.05 1.7 1.7 0 1 0-3.271-.65c0 1 .8 1.7 1.7 1.7Zm0 1.6a1.704 1.704 0 0 0-1.571 1.049 1.702 1.702 0 0 0 2.222 2.221A1.697 1.697 0 0 0 378.2 106c0-1-.8-1.7-1.7-1.7Zm0 5a1.704 1.704 0 0 0-1.571 1.049 1.702 1.702 0 0 0 2.222 2.221A1.697 1.697 0 0 0 378.2 111c0-1-.8-1.7-1.7-1.7Z"/></g><defs><clipPath id="a"><path fill="#fff" d="M364 8h20v20h-20z"/></clipPath><clipPath id="b"><path fill="#fff" d="M364 52h20v20h-20z"/></clipPath><clipPath id="c"><path fill="#fff" d="M364 96h20v20h-20z"/></clipPath></defs></svg>