<svg width="477" height="326" viewBox="0 0 477 326" fill="none" xmlns="http://www.w3.org/2000/svg"><g filter="url(#filter0_d)"><rect x="63" y="46" width="331.7" height="238.7" rx="10.1" fill="#fff"/><rect x="77.4" y="60.9" width="289.5" height="16.4" rx="8.2" fill="#9EA9B8" fill-opacity=".7"/><rect x="77.4" y="85.7" width="160.1" height="8.7" rx="4.3" fill="#9AA6B5" fill-opacity=".5"/><path d="M98.2 184.9L81 213.2v52.4h294.7V144.9c0-.6-.9-1-1.3-.4l-15.8 19.5a7.2 7.2 0 01-11.2 0L337 151a7.2 7.2 0 00-11.9 1l-13.4 23.6a7.2 7.2 0 01-10.6 2.2l-9-6.8a7.2 7.2 0 00-11 2.7L269.8 198a7.2 7.2 0 01-13.3-.7l-12.7-34.8a7.2 7.2 0 00-12-2.4l-8.6 9.3a7.2 7.2 0 01-11.3-.8L199.2 150a7.2 7.2 0 00-11-1L178 159.3a7.2 7.2 0 01-11.2-1.2l-9.4-14.8a7.2 7.2 0 00-13 1.8l-14.1 46.5c-1.7 5.6-9 7-12.6 2.4l-7.7-9.8a7.2 7.2 0 00-11.8.7z" fill="url(#paint0_linear)"/><path d="M81 213l17.2-28.4a7.2 7.2 0 0111.8-.7l7.7 9.8a7.2 7.2 0 0012.6-2.4l14-46.3c1.9-5.9 9.8-7 13-1.8l9.5 14.8c2.5 3.9 8 4.5 11.2 1.2l10.2-10.3a7.2 7.2 0 0111 1l12.7 18.4a7.2 7.2 0 0011.2.8l8.5-9.2a7.2 7.2 0 0112.1 2.4l12.7 34.6a7.2 7.2 0 0013.3.7l11.5-24c2-4.2 7.2-5.5 10.8-2.8l9.1 6.8a7.2 7.2 0 0010.6-2.2L325 152c2.5-4.4 8.7-5 11.9-1l10.4 12.9a7.2 7.2 0 0011.2 0l17-21" stroke="#4278C1" stroke-width="2.2" stroke-linecap="round" stroke-linejoin="round"/></g><g filter="url(#filter1_d)"><rect x="252" y="160" width="200.1" height="144" rx="6.1" fill="#fff"/></g><path d="M402 232a50 50 0 00-50-50v28.4a21.6 21.6 0 0121.6 21.6H402z" fill="#4278C0"/><path d="M402 233.3a50 50 0 01-79.3 39.2l16.6-23a21.6 21.6 0 0034.3-17l28.4.8z" fill="#EEF3FA"/><path d="M321.3 271.5A50 50 0 01351 182l.6 28.4a21.6 21.6 0 00-12.8 38.7l-17.4 22.4z" fill="#3F4B5B"/><defs><filter id="filter0_d" x="22.5" y=".4" width="412.8" height="319.7" filterUnits="userSpaceOnUse" color-interpolation-filters="sRGB"><feFlood flood-opacity="0" result="BackgroundImageFix"/><feColorMatrix in="SourceAlpha" values="0 0 0 0 0 0 0 0 0 0 0 0 0 0 0 0 0 0 127 0"/><feOffset dy="-5.1"/><feGaussianBlur stdDeviation="20.3"/><feColorMatrix values="0 0 0 0 0.164706 0 0 0 0 0.223529 0 0 0 0 0.294118 0 0 0 0.21 0"/><feBlend in2="BackgroundImageFix" result="effect1_dropShadow"/><feBlend in="SourceGraphic" in2="effect1_dropShadow" result="shape"/></filter><filter id="filter1_d" x="227.6" y="132.5" width="249" height="192.9" filterUnits="userSpaceOnUse" color-interpolation-filters="sRGB"><feFlood flood-opacity="0" result="BackgroundImageFix"/><feColorMatrix in="SourceAlpha" values="0 0 0 0 0 0 0 0 0 0 0 0 0 0 0 0 0 0 127 0"/><feOffset dy="-3.1"/><feGaussianBlur stdDeviation="12.2"/><feColorMatrix values="0 0 0 0 0.164706 0 0 0 0 0.223529 0 0 0 0 0.294118 0 0 0 0.21 0"/><feBlend in2="BackgroundImageFix" result="effect1_dropShadow"/><feBlend in="SourceGraphic" in2="effect1_dropShadow" result="shape"/></filter><linearGradient id="paint0_linear" x1="228.3" y1="130.1" x2="228.3" y2="265.7" gradientUnits="userSpaceOnUse"><stop stop-color="#4278C1" stop-opacity=".4"/><stop offset="1" stop-color="#7CADF0" stop-opacity=".1"/></linearGradient></defs></svg>