<svg width="263" height="200" fill="none" xmlns="http://www.w3.org/2000/svg"><g filter="url(#a)"><path d="M41.05 16.413A4.413 4.413 0 0 1 45.463 12h188.388a4.413 4.413 0 0 1 4.413 4.413v142.491a4.413 4.413 0 0 1-4.413 4.413H45.463a4.413 4.413 0 0 1-4.413-4.413V16.414Z" fill="#fff"/></g><path opacity=".3" d="M45.352 18.98a2.677 2.677 0 0 1 2.677-2.677h182.537a2.677 2.677 0 0 1 2.677 2.676v127.318a2.677 2.677 0 0 1-2.677 2.677H48.029a2.677 2.677 0 0 1-2.677-2.677V18.979Z" fill="#fff" fill-opacity=".3"/><circle cx="199.156" cy="23.389" r="3.5" fill="#BCC4CE"/><circle cx="210.629" cy="23.389" r="3.5" fill="#BCC4CE"/><circle cx="222.102" cy="23.389" r="3.5" fill="#BCC4CE"/><rect x="84" y="39" width="106" height="16" rx="1.502" fill="#8F99A6" fill-opacity=".16"/><rect x="84" y="67" width="106" height="16" rx="1.502" fill="#8F99A6" fill-opacity=".16"/><rect x="84" y="95" width="106" height="16" rx="1.502" fill="#8F99A6" fill-opacity=".16"/><rect x="84" y="123" width="48" height="16" rx="1.502" fill="#8F99A6" fill-opacity=".16"/><rect x="142" y="123" width="48" height="16" rx="1.502" fill="#8F99A6" fill-opacity=".16"/><g filter="url(#b)"><rect x="87.5" y="28" width="44" height="149" rx="8" transform="rotate(30 87.5 28)" fill="#fff"/></g><rect x="88.964" y="33.464" width="36" height="20" rx="4" transform="rotate(30 88.964 33.464)" fill="#B9C1CC"/><rect opacity=".8" x="77.464" y="53.383" width="36" height="20" rx="4" transform="rotate(30 77.464 53.383)" fill="#B9C1CC"/><rect opacity=".6" x="65.964" y="73.301" width="36" height="20" rx="4" transform="rotate(30 65.964 73.301)" fill="#B9C1CC"/><rect opacity=".4" x="54.465" y="93.22" width="36" height="20" rx="4" transform="rotate(30 54.465 93.22)" fill="#B9C1CC"/><rect opacity=".2" x="42.961" y="113.138" width="36" height="20" rx="4" transform="rotate(30 42.961 113.138)" fill="#B9C1CC"/><g filter="url(#c)"><rect x="50.563" y="18" width="44" height="149" rx="8" transform="rotate(15 50.563 18)" fill="#fff"/></g><rect x="53.391" y="22.899" width="36" height="20" rx="4" transform="rotate(15 53.39 22.899)" fill="#B9C1CC"/><rect opacity=".8" x="47.438" y="45.115" width="36" height="20" rx="4" transform="rotate(15 47.438 45.115)" fill="#B9C1CC"/><rect opacity=".6" x="41.485" y="67.332" width="36" height="20" rx="4" transform="rotate(15 41.485 67.332)" fill="#B9C1CC"/><rect opacity=".4" x="35.531" y="89.548" width="36" height="20" rx="4" transform="rotate(15 35.531 89.548)" fill="#B9C1CC"/><rect opacity=".2" x="29.578" y="111.764" width="36" height="20" rx="4" transform="rotate(15 29.578 111.764)" fill="#B9C1CC"/><g filter="url(#d)"><rect x="15" y="18" width="44" height="149" rx="8" fill="#fff"/></g><rect x="19" y="22" width="36" height="20" rx="4" fill="#4278C0"/><rect opacity=".8" x="19" y="45" width="36" height="20" rx="4" fill="#4278C0"/><rect opacity=".6" x="19" y="68" width="36" height="20" rx="4" fill="#4278C0"/><rect opacity=".4" x="19" y="91" width="36" height="20" rx="4" fill="#4278C0"/><rect opacity=".2" x="19" y="114" width="36" height="20" rx="4" fill="#4278C0"/><g filter="url(#e)"><circle cx="37" cy="152" r="6" fill="#fff"/></g><defs><filter id="a" x="17.05" y="0" width="245.214" height="199.317" filterUnits="userSpaceOnUse" color-interpolation-filters="sRGB"><feFlood flood-opacity="0" result="BackgroundImageFix"/><feColorMatrix in="SourceAlpha" values="0 0 0 0 0 0 0 0 0 0 0 0 0 0 0 0 0 0 127 0" result="hardAlpha"/><feOffset dy="12"/><feGaussianBlur stdDeviation="12"/><feColorMatrix values="0 0 0 0 0.139288 0 0 0 0 0.192514 0 0 0 0 0.295833 0 0 0 0.22 0"/><feBlend in2="BackgroundImageFix" result="effect1_dropShadow_104_2591"/><feBlend in="SourceGraphic" in2="effect1_dropShadow_104_2591" result="shape"/></filter><filter id="b" x="2.593" y="20.72" width="133.418" height="171.851" filterUnits="userSpaceOnUse" color-interpolation-filters="sRGB"><feFlood flood-opacity="0" result="BackgroundImageFix"/><feColorMatrix in="SourceAlpha" values="0 0 0 0 0 0 0 0 0 0 0 0 0 0 0 0 0 0 127 0" result="hardAlpha"/><feOffset dy="3.126"/><feGaussianBlur stdDeviation="6.667"/><feColorMatrix values="0 0 0 0 0.139288 0 0 0 0 0.192514 0 0 0 0 0.295833 0 0 0 0.15 0"/><feBlend in2="BackgroundImageFix" result="effect1_dropShadow_104_2591"/><feBlend in="SourceGraphic" in2="effect1_dropShadow_104_2591" result="shape"/></filter><filter id="c" x=".461" y="9.589" width="104.14" height="178.386" filterUnits="userSpaceOnUse" color-interpolation-filters="sRGB"><feFlood flood-opacity="0" result="BackgroundImageFix"/><feColorMatrix in="SourceAlpha" values="0 0 0 0 0 0 0 0 0 0 0 0 0 0 0 0 0 0 127 0" result="hardAlpha"/><feOffset dy="3.126"/><feGaussianBlur stdDeviation="6.667"/><feColorMatrix values="0 0 0 0 0.139288 0 0 0 0 0.192514 0 0 0 0 0.295833 0 0 0 0.15 0"/><feBlend in2="BackgroundImageFix" result="effect1_dropShadow_104_2591"/><feBlend in="SourceGraphic" in2="effect1_dropShadow_104_2591" result="shape"/></filter><filter id="d" x="1.667" y="7.793" width="70.667" height="175.667" filterUnits="userSpaceOnUse" color-interpolation-filters="sRGB"><feFlood flood-opacity="0" result="BackgroundImageFix"/><feColorMatrix in="SourceAlpha" values="0 0 0 0 0 0 0 0 0 0 0 0 0 0 0 0 0 0 127 0" result="hardAlpha"/><feOffset dy="3.126"/><feGaussianBlur stdDeviation="6.667"/><feColorMatrix values="0 0 0 0 0.139288 0 0 0 0 0.192514 0 0 0 0 0.295833 0 0 0 0.15 0"/><feBlend in2="BackgroundImageFix" result="effect1_dropShadow_104_2591"/><feBlend in="SourceGraphic" in2="effect1_dropShadow_104_2591" result="shape"/></filter><filter id="e" x="31" y="146" width="12" height="16" filterUnits="userSpaceOnUse" color-interpolation-filters="sRGB"><feFlood flood-opacity="0" result="BackgroundImageFix"/><feBlend in="SourceGraphic" in2="BackgroundImageFix" result="shape"/><feColorMatrix in="SourceAlpha" values="0 0 0 0 0 0 0 0 0 0 0 0 0 0 0 0 0 0 127 0" result="hardAlpha"/><feOffset dy="4"/><feGaussianBlur stdDeviation="2"/><feComposite in2="hardAlpha" operator="arithmetic" k2="-1" k3="1"/><feColorMatrix values="0 0 0 0 0.8 0 0 0 0 0.811765 0 0 0 0 0.835294 0 0 0 1 0"/><feBlend in2="shape" result="effect1_innerShadow_104_2591"/></filter></defs></svg>