<svg width="172" height="29" fill="none" xmlns="http://www.w3.org/2000/svg"><path d="M0 6a6 6 0 0 1 6-6h160a6 6 0 0 1 6 6v23H0V6Z" fill="#fff"/><g clip-path="url(#a)"><path d="M15.743 15.974h3.29v1.735h-3.29v-1.735Z" fill="#F15A24"/><path d="M18.345 10.41H13.68a.744.744 0 0 0-.748.742v.993h6.103V10.41h-.689Zm-.06 2.752h-5.348v4.547h1.735v-2.812h3.626a.754.754 0 0 0 .706-.496.582.582 0 0 0 .035-.21v-1.029h-.753ZM16 21a7 7 0 1 1 .008-14.002A7 7 0 0 1 16 21Zm0-13.073a6.072 6.072 0 0 0-4.296 10.369 6.075 6.075 0 1 0 6.621-9.908A6.031 6.031 0 0 0 16 7.933v-.006Z" fill="#686666"/></g><path d="M32.168 19h-.996v-8.566h4.77v.879h-3.774v3.14h3.545v.873h-3.545V19Zm10.594-3.223c0 .528-.069.998-.205 1.412a2.892 2.892 0 0 1-.592 1.05c-.258.284-.57.503-.938.655a3.243 3.243 0 0 1-1.236.223 3.07 3.07 0 0 1-1.184-.223 2.672 2.672 0 0 1-.925-.656 3.033 3.033 0 0 1-.604-1.049 4.381 4.381 0 0 1-.21-1.412c0-.703.118-1.3.357-1.793a2.547 2.547 0 0 1 1.02-1.13c.445-.262.974-.393 1.587-.393.586 0 1.098.13 1.535.393.442.261.783.64 1.026 1.136.246.492.369 1.088.369 1.787Zm-4.887 0c0 .516.068.963.205 1.342.137.379.348.672.633.879.285.207.652.31 1.102.31.445 0 .81-.103 1.095-.31.29-.207.502-.5.639-.879.136-.379.205-.826.205-1.342 0-.511-.069-.953-.205-1.324-.137-.375-.348-.664-.633-.867-.285-.203-.654-.305-1.107-.305-.668 0-1.159.221-1.471.662-.309.442-.463 1.053-.463 1.834Zm9.486-3.316c.13 0 .264.008.405.023.14.012.265.03.375.053l-.123.902a3.032 3.032 0 0 0-.715-.088 1.74 1.74 0 0 0-.733.159c-.226.101-.425.25-.597.445a2.072 2.072 0 0 0-.405.697c-.097.27-.146.57-.146.903V19h-.979v-6.422h.809l.105 1.184h.041c.133-.239.293-.455.48-.65.188-.2.405-.358.651-.475.25-.117.528-.176.832-.176Zm8.965 0c.707 0 1.24.185 1.6.557.36.367.539.959.539 1.775V19h-.961v-4.16c0-.52-.113-.908-.34-1.166-.223-.262-.555-.393-.996-.393-.621 0-1.072.18-1.353.54-.282.359-.422.888-.422 1.587V19h-.967v-4.16c0-.348-.051-.637-.153-.867a1.036 1.036 0 0 0-.445-.516c-.195-.117-.443-.176-.744-.176-.426 0-.768.088-1.025.264-.258.176-.446.437-.563.785-.113.344-.17.768-.17 1.272V19h-.973v-6.422h.786l.146.908h.053c.129-.222.29-.41.486-.562.196-.152.414-.268.657-.346.242-.078.5-.117.773-.117.488 0 .896.092 1.224.275.332.18.573.455.721.826h.053c.21-.37.5-.646.867-.826.367-.183.77-.275 1.207-.275Zm5.11.117V19h-.973v-6.422h.972Zm-.475-2.402a.58.58 0 0 1 .41.158c.117.101.176.262.176.48 0 .215-.059.376-.176.48a.58.58 0 0 1-.41.16.595.595 0 0 1-.422-.16c-.11-.104-.164-.265-.164-.48 0-.218.055-.379.164-.48a.595.595 0 0 1 .422-.158Zm4.822 8.941c-.812 0-1.457-.277-1.933-.832-.473-.555-.71-1.379-.71-2.473 0-1.105.243-1.939.727-2.502.485-.566 1.13-.85 1.934-.85.34 0 .636.046.89.136a2.2 2.2 0 0 1 1.12.873h.07a9.621 9.621 0 0 1-.047-.498 7.288 7.288 0 0 1-.023-.516V9.883h.972V19h-.785l-.146-.914h-.041a2.23 2.23 0 0 1-1.126.896c-.253.09-.554.135-.902.135Zm.153-.808c.687 0 1.173-.196 1.458-.586.286-.391.428-.971.428-1.74v-.176c0-.817-.136-1.444-.41-1.881-.27-.438-.762-.656-1.477-.656-.597 0-1.044.23-1.341.69-.297.458-.446 1.083-.446 1.876 0 .789.147 1.398.44 1.828.297.43.746.645 1.348.645Zm7.312-5.836c.766 0 1.334.171 1.705.515s.557.893.557 1.647V19h-.71l-.187-.95h-.047c-.18.235-.367.432-.562.593a2.091 2.091 0 0 1-.68.357 3.227 3.227 0 0 1-.937.117c-.39 0-.739-.068-1.043-.205-.301-.137-.54-.344-.715-.621-.172-.277-.258-.629-.258-1.055 0-.64.254-1.133.762-1.476.508-.344 1.281-.531 2.32-.563l1.108-.047v-.392c0-.555-.12-.943-.358-1.166-.238-.223-.574-.334-1.008-.334-.336 0-.656.049-.96.146a6.58 6.58 0 0 0-.868.346l-.299-.738a5.35 5.35 0 0 1 .996-.381 4.35 4.35 0 0 1 1.184-.158Zm1.3 3.363-.978.041c-.8.031-1.365.162-1.693.393-.328.23-.492.556-.492.978 0 .367.111.639.334.814.222.176.517.264.885.264.57 0 1.037-.158 1.4-.474.363-.317.545-.791.545-1.424v-.592Zm3.938-5.953v2.28c0 .26-.008.515-.023.76l-.03.575h.053c.176-.289.43-.533.762-.732.332-.2.756-.3 1.271-.3.805 0 1.446.28 1.922.839.48.554.721 1.38.721 2.478 0 .723-.11 1.332-.328 1.828-.219.496-.527.871-.926 1.125-.398.254-.869.381-1.412.381-.508 0-.926-.094-1.254-.281a2.197 2.197 0 0 1-.75-.697h-.076l-.2.861h-.702V9.883h.972Zm1.875 3.398c-.465 0-.834.092-1.107.276-.273.18-.47.453-.592.82-.117.363-.176.824-.176 1.383v.053c0 .808.135 1.427.405 1.857.27.426.76.639 1.47.639.598 0 1.045-.22 1.342-.657.3-.437.451-1.062.451-1.875 0-.828-.148-1.45-.445-1.869-.293-.418-.742-.627-1.348-.627ZM85.84 19h-.979V9.883h.979V19Zm4.53-6.54c.546 0 1.015.122 1.405.364.391.242.69.582.897 1.02.207.433.31.941.31 1.523v.604h-4.435c.012.754.2 1.328.562 1.722.364.395.875.592 1.535.592.407 0 .766-.037 1.079-.111.312-.074.636-.184.972-.328v.855c-.324.145-.646.25-.966.317-.317.066-.692.1-1.126.1-.617 0-1.156-.126-1.617-.376a2.623 2.623 0 0 1-1.066-1.113c-.254-.488-.38-1.086-.38-1.793 0-.691.114-1.29.345-1.793.234-.508.562-.898.984-1.172.426-.273.926-.41 1.5-.41Zm-.013.798c-.52 0-.933.17-1.242.51-.308.34-.492.814-.55 1.423h3.398a2.745 2.745 0 0 0-.182-1.007 1.415 1.415 0 0 0-.521-.68c-.235-.164-.535-.246-.903-.246ZM95.777 19h-.996v-8.566h4.77v.879h-3.774v3.14h3.545v.873h-3.545V19Zm10.594-3.223c0 .528-.068.998-.205 1.412a2.895 2.895 0 0 1-.592 1.05c-.258.284-.57.503-.937.655a3.25 3.25 0 0 1-1.237.223c-.429 0-.824-.074-1.183-.223a2.67 2.67 0 0 1-.926-.656 3.02 3.02 0 0 1-.603-1.049 4.37 4.37 0 0 1-.211-1.412c0-.703.119-1.3.357-1.793a2.543 2.543 0 0 1 1.02-1.13c.445-.262.974-.393 1.587-.393.586 0 1.098.13 1.536.393.441.261.783.64 1.025 1.136.246.492.369 1.088.369 1.787Zm-4.887 0c0 .516.069.963.205 1.342.137.379.348.672.633.879.285.207.653.31 1.102.31.445 0 .81-.103 1.096-.31.289-.207.501-.5.638-.879s.205-.826.205-1.342c0-.511-.068-.953-.205-1.324-.137-.375-.347-.664-.633-.867-.285-.203-.654-.305-1.107-.305-.668 0-1.158.221-1.471.662-.308.442-.463 1.053-.463 1.834Zm9.487-3.316c.129 0 .263.008.404.023.141.012.266.03.375.053l-.123.902a3.033 3.033 0 0 0-.715-.088c-.258 0-.502.053-.732.159-.227.101-.426.25-.598.445a2.06 2.06 0 0 0-.404.697c-.098.27-.147.57-.147.903V19h-.978v-6.422h.808l.106 1.184h.041a3.17 3.17 0 0 1 .48-.65c.188-.2.405-.358.651-.475.25-.117.527-.176.832-.176Zm8.965 0c.707 0 1.24.185 1.599.557.36.367.539.959.539 1.775V19h-.961v-4.16c0-.52-.113-.908-.34-1.166-.222-.262-.554-.393-.996-.393-.621 0-1.072.18-1.353.54-.281.359-.422.888-.422 1.587V19h-.967v-4.16c0-.348-.051-.637-.152-.867a1.039 1.039 0 0 0-.445-.516c-.196-.117-.444-.176-.745-.176-.425 0-.767.088-1.025.264-.258.176-.445.437-.563.785-.113.344-.169.768-.169 1.272V19h-.973v-6.422h.785l.147.908h.052c.129-.222.291-.41.487-.562a2.11 2.11 0 0 1 .656-.346c.242-.078.5-.117.773-.117.489 0 .897.092 1.225.275.332.18.572.455.721.826h.052c.211-.37.5-.646.868-.826a2.659 2.659 0 0 1 1.207-.275Zm8.291 4.781c0 .41-.104.756-.311 1.037-.203.278-.496.487-.879.627-.379.14-.832.211-1.359.211-.449 0-.838-.035-1.166-.105a3.382 3.382 0 0 1-.862-.3v-.896c.262.13.575.247.938.352.363.105.734.158 1.113.158.555 0 .957-.09 1.207-.27a.855.855 0 0 0 .375-.732.744.744 0 0 0-.152-.463c-.098-.136-.264-.267-.498-.392a7.42 7.42 0 0 0-.973-.422c-.41-.156-.765-.31-1.066-.463a1.99 1.99 0 0 1-.692-.568c-.16-.223-.24-.512-.24-.868 0-.543.219-.958.656-1.248.442-.293 1.02-.44 1.735-.44.386 0 .748.04 1.084.118.34.074.656.176.949.305l-.328.78a6.03 6.03 0 0 0-.85-.288 3.645 3.645 0 0 0-.92-.117c-.449 0-.795.074-1.037.223-.238.148-.357.351-.357.609 0 .2.054.363.164.492.113.129.293.25.539.363.246.114.57.246.973.399.402.148.75.303 1.042.463.293.156.518.347.674.574.16.223.241.51.241.861Z" fill="#4A4A4A"/><defs><clipPath id="a"><path fill="#fff" transform="translate(9 7)" d="M0 0h14v14H0z"/></clipPath></defs></svg>