<svg xmlns="http://www.w3.org/2000/svg" width="195" height="116" fill="none"><g filter="url(#a)"><g clip-path="url(#b)"><rect width="76.2" height="59.3" x="23" y="24" fill="#fff" rx="2.3"/><path fill="url(#c)" d="M0 0h76.2v40.9H0z" transform="translate(23 24)"/><path fill="#fff" d="M30 30.7v2.5h-.5v-2.5h.5Zm1 1v1.5h-.5v-1.8h.4v.4Zm-.2.6h-.1v-.4l.2-.3a.7.7 0 0 1 .5-.2h.3l.2.1v.2l.1.4v1.1h-.4V32l-.2-.2h-.1a.4.4 0 0 0-.4.2v.4Zm2-.6V34h-.4v-2.6h.4v.3Zm1.3.6v.4l-.2.3-.2.2H33c-.1 0-.2 0-.3-.2l-.1-.3V32l.1-.3.3-.2h.6l.2.2.1.3v.4Zm-.5 0v-.4l-.2-.1H33V32.8l.1.2h.4l.1-.1.1-.2v-.3Zm2 .5v-1.4h.4v1.8h-.5v-.4Zm0-.4h.1v.4l-.2.2c0 .1 0 .2-.2.2h-.7l-.2-.3v-1.5h.4v1.3l.1.2h.5l.1-.2v-.3Zm1.6-1v.3h-1v-.3h1Zm-.7-.5h.4V32.8l.1.1h.1a.6.6 0 0 0 .2 0v.3a.8.8 0 0 1-.3 0h-.3l-.2-.1v-2.2Zm2.5 2.3h-.5v-2l.1-.3.3-.2.4-.1h.6v.4H39l-.1.3v2Zm.4-1.8v.3h-1.1v-.3h1Zm.7 0v1.8h-.5v-1.8h.5Zm1.3 1.9a1 1 0 0 1-.4 0 .8.8 0 0 1-.5-.6V32l.2-.3.3-.2h.7l.2.2.2.3V32.5h-1.4V32h1V32l-.2-.1h-.2a.3.3 0 0 0-.3 0v1h.2l.2.1h.2l.2-.2.3.2-.2.2-.2.1h-.3Zm1.5-2.7v2.6h-.5v-2.6h.5Zm1.5 2.3v-2.3h.5v2.6h-.4V33Zm-1.1-.6V32l.1-.3.3-.2h.6l.2.2.1.3.1.4v.4l-.2.3-.2.2H44a.7.7 0 0 1-.6-.2l-.1-.3v-.4Zm.4 0v.5h.2l.2.1h.2l.1-.2.1-.2V32l-.1-.1-.1-.1H44a.3.3 0 0 0-.3 0v.5Z" opacity=".6"/><rect width="63.7" height="9.4" x="29.2" y="36" fill="#fff" fill-opacity=".2" rx="4.7"/><path fill="#fff" d="M34.2 41v-.2H34c0-.1 0-.2-.2-.2l-.3-.1a3 3 0 0 1-.4-.2l-.2-.1-.2-.3v-.2a.7.7 0 0 1 .2-.6l.3-.1.4-.1.5.1.3.3.1.4h-.3l-.1-.2-.2-.2-.3-.1h-.4l-.2.2v.4l.1.1.2.2h.3l.4.2c.2 0 .3.1.3.2l.2.2v.6l-.2.3-.3.1a1.4 1.4 0 0 1-.8 0c-.1 0-.2 0-.3-.2a.7.7 0 0 1-.3-.6h.3v.3l.2.1.2.1a1 1 0 0 0 .6 0s.2 0 .2-.2V41Zm1.6.8a.9.9 0 0 1-.9-.6v-1l.2-.3a.9.9 0 0 1 1-.2c.2 0 .2.1.3.2l.2.3V40.8h-1.5v-.3h1.2v-.3L36 40l-.3-.1a.5.5 0 0 0-.4.2l-.1.2v1l.3.1H36.2l.2-.2.2.2-.2.1-.2.2a1 1 0 0 1-.4 0Zm1.6-3v3h-.3v-3h.3Zm1.4 3a.9.9 0 0 1-.9-.6v-1l.3-.3a.9.9 0 0 1 1-.2l.2.2.2.3V40.8h-1.5v-.3h1.2v-.3L39 40l-.3-.1a.5.5 0 0 0-.4.2l-.1.2v.7l.1.3.2.1h.6l.2-.2.2.2-.2.1-.2.2a1 1 0 0 1-.4 0Zm2-.3h.3l.2-.2V41h.4l-.1.3a.8.8 0 0 1-.7.4 1 1 0 0 1-.4-.1.8.8 0 0 1-.3-.3 1 1 0 0 1-.2-.3v-.8l.2-.4.3-.2h.8l.3.3.1.4h-.3l-.1-.3-.2-.1-.2-.1h-.3l-.2.2V41.2l.2.2h.3Zm2.2-1.8v.2h-1.2v-.2H43Zm-.8-.5h.4v2.2h.2a.6.6 0 0 0 .2 0v.3h-.5c-.1 0-.2 0-.2-.2v-2.3Zm2 2.6a.9.9 0 0 1-.9-.6v-1l.3-.3a.9.9 0 0 1 1-.2l.2.2.2.3V40.8h-1.5v-.3h1.2v-.3l-.2-.2-.3-.1a.5.5 0 0 0-.4.2l-.1.2v.7l.1.3.2.1H44.6l.2-.2.2.2-.2.1-.2.2a1 1 0 0 1-.4 0Zm2.5-.5v-2.5h.4v3h-.3v-.5Zm-1.3-.6v-.5l.2-.3.2-.2h.7c.1 0 .2 0 .3.2l.1.3.1.4V41.2l-.2.3-.3.2a.8.8 0 0 1-.7 0 .8.8 0 0 1-.2-.2l-.2-.4v-.4Zm.3 0v.3l.1.2.2.2h.5l.2-.2.1-.3V40.3l-.1-.2-.2-.1H46l-.2.1v.6Zm3.5.7.6-1.7h.4l-.8 2h-.2v-.3Zm-.4-1.7.6 1.7v.3h-.2l-.8-2h.4Zm2.9 1.7V40l-.2-.2H51l-.1.2v.1h-.4V40l.2-.2.2-.1h.8l.3.2V41.5l.1.2h-.3v-.1l-.1-.2Zm0-1v.3h-.6l-.2.1v.1l-.1.2v.2l.1.1h.3a.6.6 0 0 0 .5-.2V41l.2.2v.2a.8.8 0 0 1-.5.3h-.7a.6.6 0 0 1-.3-.5v-.3l.3-.3h.3l.3-.1h.5Zm1.3-1.6v3h-.4v-3h.4Zm1.8 2.4v-1.5h.4v2h-.4v-.5Zm0-.4h.2v.4c0 .1 0 .2-.2.3l-.2.2h-.7a.6.6 0 0 1-.3-.4v-1.6h.3v1.5l.1.2H54.6l.2-.3v-.3Zm1.8 1a.9.9 0 0 1-.9-.6v-1l.2-.3a.9.9 0 0 1 1-.2l.3.2.1.3V40.8h-1.5v-.3H57v-.3l-.2-.2-.3-.1a.5.5 0 0 0-.4.2v.2l-.1.4v.3l.1.3.2.1h.6l.2-.2.2.2-.1.1-.3.2a1 1 0 0 1-.3 0Z"/><rect width="63.7" height="9.4" x="29.2" y="49.3" fill="#FFEA7C" rx="4.7"/><path fill="#293241" d="M56.6 54.3V54h-.1l-.2-.2-.3-.1-.4-.1-.2-.2-.2-.3-.1-.3a.7.7 0 0 1 .3-.5l.3-.2h.9l.4.4v.4h-.4v-.2l-.2-.2h-.6l-.2.1v.4l.1.1.2.1.3.1.4.2.3.1a.7.7 0 0 1 .2.6v.3l-.3.2-.3.2a1.5 1.5 0 0 1-1.2-.2.8.8 0 0 1-.3-.7h.5v.3l.2.1.2.1a1 1 0 0 0 .5 0l.1-.1.1-.2Zm2.1.2V53h.5V55h-.5v-.5Zm0-.4h.2v.4l-.2.3-.2.2H57.9l-.3-.1-.1-.3V53h.4V54.5h.1l.1.1h.5l.1-.2V54Zm1-2h.4V55h-.5v-3Zm1.7 1.8v.5c0 .1 0 .2-.2.3l-.2.3h-.7a.7.7 0 0 1-.2-.2l-.2-.4v-.9l.2-.3.2-.2.3-.1h.4l.2.3.2.3v.4Zm-.4 0v-.2l-.1-.2-.2-.2h-.4l-.1.1-.1.2v.8l.2.2h.4l.2-.1V54Zm1.3-.5V55h-.5v-2h.5v.4Zm0 .5H62v-.4l.2-.3.2-.2.4-.1h.2l.2.2.2.2V55h-.4v-1.6l-.2-.1h-.4l-.2.1v.5Zm1.2-.1h-.2v-.3c0-.2.1-.2.2-.3a.7.7 0 0 1 .6-.3h.3l.2.2.1.2V55h-.4v-1.6l-.2-.1h-.4v.1l-.2.2v.2Zm2.2-.9V55h-.4v-2h.4Zm-.5-.5.1-.2h.4v.4h-.4v-.2Zm2 .5v.4H66v-.4h1.2Zm-.9-.5h.5v2.2h.2a.7.7 0 0 0 .2 0v.4a1.2 1.2 0 0 1-.3 0h-.3l-.2-.2v-2.3Z"/><path fill="#282F36" fill-opacity=".8" d="M32 74.6c0 .2 0 .4-.2.6a1 1 0 0 1-.5.3l-.7.2a4 4 0 0 1-.8-.1l-.3-.1V75l.5.1h1.1c.2 0 .3-.1.3-.2l.1-.4v-.3L31 74l-.5-.2a3 3 0 0 1-.4-.2l-.4-.2-.2-.3v-.4a.9.9 0 0 1 .6-1h.6a2.7 2.7 0 0 1 1 .2v.4a3 3 0 0 0-.5-.2 2 2 0 0 0-.5 0 1 1 0 0 0-.4 0l-.3.2v.7l.3.2.5.3.6.2.4.4v.5Zm1.2-3.1v2.1a5.1 5.1 0 0 1 0 .6 18.3 18.3 0 0 0 .3-.5l1-1h.5l-1.2 1.2 1.3 1.7h-.6l-1-1.4-.3.4v1h-.5v-4.1h.5Zm2 1.2h.4l.6 1.7a12 12 0 0 1 .3.8 10.1 10.1 0 0 1 .3-.8l.6-1.7h.5L36.6 76l-.2.5c-.1.2-.2.3-.4.3a1 1 0 0 1-.4.1 1.4 1.4 0 0 1-.4 0v-.4a1.5 1.5 0 0 0 .3 0 .6.6 0 0 0 .5-.2l.1-.3.2-.4-1.2-3Zm3.6 3h-.5v-4.2h.5v4.1Zm1.4-3v3h-.5v-3h.5Zm-.3-1.1h.2l.1.3v.2h-.5v-.4l.2-.1Zm2.6 1c.3 0 .6.1.8.3l.2.8v2h-.4v-2c0-.2 0-.4-.2-.5l-.5-.2c-.3 0-.5.1-.7.3l-.2.8v1.5h-.4v-3h.4v.5l.3-.2.3-.2h.4Zm3 0c.3 0 .5 0 .7.2l.4.5.2.7v.2h-2c0 .4 0 .6.2.8.2.2.4.3.7.3a2.1 2.1 0 0 0 1-.2v.4a2.2 2.2 0 0 1-1 .2c-.3 0-.5 0-.8-.2l-.4-.5c-.2-.2-.2-.5-.2-.8l.1-.8c.1-.3.3-.5.5-.6l.7-.2Zm0 .4c-.2 0-.4 0-.5.2a1 1 0 0 0-.2.7h1.5v-.5l-.3-.3a.7.7 0 0 0-.4-.1Z"/><path fill="#E9EAEA" d="M23 65.3h76.2v-.8H23v.8Z" mask="url(#path-7-inside-1_1380_16157)"/></g></g><g filter="url(#d)"><g clip-path="url(#e)"><rect width="76.2" height="59.3" x="103.8" y="24" fill="#fff" rx="2.3"/><path fill="#559D6C" d="M103.8 24H180v40.9h-76.2z"/><path fill="#fff" d="M110.8 30.7v2.5h-.4v-2.5h.4Zm1 1v1.5h-.5v-1.8h.4v.4Zm-.1.6h-.2l.1-.4c0-.1 0-.2.2-.3a.7.7 0 0 1 .5-.2h.2l.2.1.1.2v1.5h-.4V32l-.1-.2h-.4l-.1.2v.1l-.1.3Zm2-.6V34h-.4v-2.6h.4v.3Zm1.2.6v.4l-.2.3-.2.2h-.6s-.2 0-.2-.2l-.2-.3V32l.2-.3.2-.2h.6l.2.2.2.3v.4Zm-.4 0v-.2l-.1-.2-.1-.1h-.5l-.1.2v.7l.2.2h.4v-.1l.1-.2v-.3Zm1.9.5v-1.4h.4v1.8h-.4v-.4Zm0-.4h.2v.4l-.2.2-.2.2h-.8l-.1-.3v-1.5h.4v1.5h.5l.2-.2v-.3Zm1.7-1v.3h-1v-.3h1Zm-.8-.5h.5v2h.2a.6.6 0 0 0 .1 0v.3a.9.9 0 0 1-.3 0h-.2l-.2-.1v-2.2Zm2.5 2.3h-.4V31l.3-.2.5-.1h.5v.4h-.8v2.3Zm.4-1.8v.3h-1v-.3h1Zm.7 0v1.8h-.4v-1.8h.4Zm1.3 1.9a1 1 0 0 1-.4 0 .8.8 0 0 1-.4-.6l-.1-.3v-.5l.2-.3.3-.2h.7l.3.2.1.3V32.5h-1.4V32h1V32l-.1-.1H121.8v1h.2l.2.1h.3l.2-.2.2.2-.1.2-.3.1h-.3Zm1.5-2.7v2.6h-.4v-2.6h.4Zm1.6 2.3v-2.3h.4v2.6h-.4V33Zm-1.2-.6V32l.2-.3.2-.2h.3a.6.6 0 0 1 .5.2l.2.3v.8l-.2.3-.2.2h-.6l-.2-.2-.2-.3v-.4Zm.5 0v.5h.2l.1.1h.3v-.2l.2-.2V32l-.2-.1a.4.4 0 0 0-.3-.2.3.3 0 0 0-.3.2v.4Z" opacity=".6"/><rect width="63.7" height="9.4" x="110.1" y="36" fill="#fff" fill-opacity=".2" rx="1.6"/><path fill="#fff" d="M115 41v-.2h-.1l-.2-.2-.3-.1a3 3 0 0 1-.4-.2l-.3-.1-.2-.3v-.2a.7.7 0 0 1 .2-.6l.3-.1.4-.1.5.1.4.3v.4h-.3v-.2l-.3-.2-.3-.1h-.3l-.2.2a.4.4 0 0 0 0 .4v.1l.3.2h.3l.4.2.3.2.1.2a.7.7 0 0 1 0 .6c0 .1 0 .2-.2.3l-.3.1a1.4 1.4 0 0 1-.8 0s-.2 0-.3-.2a.7.7 0 0 1-.3-.6h.3v.3l.2.1.3.1a1 1 0 0 0 .5 0c.1 0 .2 0 .2-.2l.1-.2Zm1.7.8a.9.9 0 0 1-.9-.6v-1l.2-.3a.9.9 0 0 1 .6-.3h.4l.3.3.1.3V40.8H116v-.3h1.2v-.3l-.2-.2-.3-.1a.5.5 0 0 0-.4.2v.2l-.1.4v.3l.1.3a.6.6 0 0 0 .5.2l.3-.1.2-.2.2.2-.1.1-.3.2a1 1 0 0 1-.3 0Zm1.6-3v3h-.4v-3h.4Zm1.4 3a.9.9 0 0 1-.9-.6v-1l.2-.3a.9.9 0 0 1 1-.2l.3.2.1.3V40.8H119v-.3h1.2v-.3l-.2-.2-.3-.1a.5.5 0 0 0-.4.2v.2l-.1.4v.3l.1.3a.6.6 0 0 0 .5.2l.3-.1.2-.2.3.2-.2.1-.3.2a1 1 0 0 1-.3 0Zm2-.3h.3l.1-.2.1-.2h.3v.3a.8.8 0 0 1-.8.4 1 1 0 0 1-.4-.1.8.8 0 0 1-.3-.3 1 1 0 0 1-.1-.3v-.8l.1-.4.3-.2h.8c.2 0 .3.2.3.3l.1.4h-.3V40l-.2-.1-.3-.1h-.3l-.1.2-.1.3v.8l.2.2h.3Zm2.1-1.8v.2h-1.1v-.2h1.1Zm-.7-.5h.3v2.2h.2a.6.6 0 0 0 .2 0v.3h-.5l-.2-.2v-2.3Zm2 2.6a.9.9 0 0 1-.9-.6v-1l.2-.3a.9.9 0 0 1 1-.2l.3.2.1.3V40.8h-1.5v-.3h1.2v-.3l-.2-.2-.3-.1a.5.5 0 0 0-.4.2v.2l-.1.4v.3l.1.3.2.1h.6l.2-.2.3.2-.2.1-.3.2a1 1 0 0 1-.3 0Zm2.5-.5v-2.5h.3v3h-.3v-.5Zm-1.4-.6v-.5l.2-.3.3-.2h.7l.2.2.2.3v1l-.2.3-.2.2a.8.8 0 0 1-.7 0 .8.8 0 0 1-.3-.2l-.1-.4-.1-.4Zm.4 0v.5l.3.2h.2a.5.5 0 0 0 .5-.2V40.3l-.1-.2-.2-.1h-.4l-.2.1-.1.3v.3Zm3.5.7.6-1.7h.3l-.7 2h-.3v-.3Zm-.5-1.7.6 1.7v.3h-.2l-.7-2h.3Zm3 1.7v-1.1l-.1-.2-.2-.2h-.4l-.2.2v.1h-.4V40l.2-.2.3-.1h.7l.3.2v1.4l.1.2v.2h-.3V41.4Zm0-1v.3H132l-.2.1-.1.1v.5h.3a.6.6 0 0 0 .5-.2V41l.2.2v.2a.9.9 0 0 1-.4.3h-.7a.6.6 0 0 1-.3-.5v-.3l.2-.3h.3l.4-.1h.4Zm1.2-1.6v3h-.3v-3h.3Zm1.9 2.4v-1.5h.3v2h-.3v-.5Zm0-.4h.2v.4l-.2.3-.3.2h-.6a.6.6 0 0 1-.4-.4v-1.6h.3v1.5l.2.2H135.6l.2-.3v-.3Zm1.7 1a.9.9 0 0 1-.9-.6v-1l.2-.3a.9.9 0 0 1 1-.2c.2 0 .2.1.3.2l.2.3V40.8h-1.5v-.3h1.2l-.1-.3s0-.2-.2-.2l-.2-.1a.5.5 0 0 0-.4.2l-.1.2v1a.6.6 0 0 0 .5.2l.3-.1.3-.2.2.2-.2.1-.2.2a1 1 0 0 1-.4 0Z"/><rect width="63.7" height="9.4" x="110.1" y="49.3" fill="#fff" rx="1.6"/><path fill="#293241" d="M137.4 54.3V54l-.3-.2-.2-.1-.4-.1-.3-.2-.2-.3V53a.7.7 0 0 1 .2-.5l.3-.2h1l.3.4.1.4h-.5v-.2l-.2-.2h-.6l-.1.1v.5l.2.1.3.1.4.2.3.1a.7.7 0 0 1 .2.6v.3l-.2.2-.4.2a1.5 1.5 0 0 1-1.1-.2.8.8 0 0 1-.3-.7h.4v.3l.2.1.2.1a1 1 0 0 0 .5 0l.2-.1v-.2Zm2.1.2V53h.5V55h-.4v-.5Zm.1-.4h.2v.4l-.2.3-.3.2h-.6a.6.6 0 0 1-.4-.4V53h.5V54.5l.2.1h.4l.2-.2V54Zm.9-2h.4V55h-.4v-3Zm1.8 1.8v.5l-.2.3a.7.7 0 0 1-.6.3h-.3l-.3-.2-.1-.4-.1-.4v-.5l.2-.3a.7.7 0 0 1 .6-.3h.3l.3.3.1.3v.4Zm-.5 0v-.4l-.2-.2h-.4l-.2.1v.2l-.1.2v.6l.2.2h.5l.1-.1.1-.2V54Zm1.3-.5V55h-.4v-2h.4v.4Zm0 .5h-.2v-.4l.2-.3.3-.2.3-.1h.3l.2.2.1.2V55h-.4v-1.6l-.2-.1h-.4l-.1.1-.1.2v.3Zm1.2-.1h-.2v-.3l.2-.3a.7.7 0 0 1 .6-.3h.3a.5.5 0 0 1 .4.4V55h-.5v-1.6l-.1-.1h-.4l-.1.1-.1.2v.2Zm2.3-.9V55h-.5v-2h.5Zm-.5-.5v-.2h.4l.1.2v.2h-.5v-.2Zm2 .5v.4h-1.2v-.4h1.1Zm-1-.5h.6v2.2h.2a.7.7 0 0 0 .1 0v.4a1.2 1.2 0 0 1-.3 0h-.2l-.2-.2-.1-.3v-2Z"/><path fill="#282F36" fill-opacity=".8" d="M111 75.6h-.4v-3.9h2.2v.4h-1.7v1.4h1.6v.4H111v1.7Zm5-1.5-.2.7c0 .2-.1.3-.3.5l-.4.3H114a1.2 1.2 0 0 1-.7-.8 2 2 0 0 1 0-.7v-.8l.5-.5.8-.2.7.2.4.5c.2.3.2.5.2.8Zm-2.3 0v.7l.4.4.5.1.5-.1.3-.4V73.5l-.3-.3a.9.9 0 0 0-.5-.2c-.3 0-.6.1-.7.3l-.2.8Zm4.3-1.5a1.7 1.7 0 0 1 .4 0l-.1.5a1.3 1.3 0 0 0-.3 0 .8.8 0 0 0-.6.2l-.2.3v2h-.5v-3h.3v.6h.1l.2-.3.3-.2h.4Zm2 0c.3 0 .5 0 .7.2l.4.5.1.7v.2h-2c0 .4.1.6.3.8.1.2.4.3.7.3a2.1 2.1 0 0 0 .9-.2v.4a2.2 2.2 0 0 1-1 .2c-.2 0-.5 0-.7-.2l-.5-.5-.2-.8.2-.8c.1-.3.3-.5.5-.6l.6-.2Zm0 .4c-.2 0-.4 0-.5.2a1 1 0 0 0-.3.7h1.6l-.1-.5-.3-.3a.7.7 0 0 0-.4-.1Zm3.9 1.8c0 .2 0 .4-.2.5l-.4.3h-1.1l-.4-.1V75l.4.1.5.1.6-.1.1-.3v-.3l-.3-.1-.4-.2-.5-.2a1 1 0 0 1-.3-.3l-.1-.4c0-.2 0-.4.3-.6l.8-.2a2.2 2.2 0 0 1 1 .2l-.2.4-.4-.1-.4-.1a1 1 0 0 0-.5.1l-.2.3v.2l.3.2c.2 0 .3 0 .5.2.2 0 .3 0 .5.2l.3.2v.4Zm1.6.5a1.4 1.4 0 0 0 .4 0v.3h-.4a1 1 0 0 1-.5 0 .7.7 0 0 1-.3-.3 1 1 0 0 1 0-.5V73h-.5v-.2l.4-.2.2-.6h.3v.7h.8v.3h-.8v2.2l.4.1Z"/><path fill="#E9EAEA" d="M103.8 65.3H180v-.8h-76.2v.8Z" mask="url(#path-16-inside-2_1380_16157)"/></g></g><g filter="url(#f)"><g clip-path="url(#g)"><rect width="76.2" height="59.3" x="59.5" y="14" fill="#fff" rx="2.3"/><path fill="#FDE6DE" d="M59.5 14h76.2v40.9H59.5z"/><path fill="#000" fill-opacity=".7" d="M66.5 20.7v2.5H66v-2.5h.5Zm.9 1v1.5H67v-1.8h.3v.4Zm-.1.6h-.1v-.4l.2-.3a.7.7 0 0 1 .5-.2h.2l.2.1.1.2v1.5h-.3v-1.4h-.2l-.2-.1a.4.4 0 0 0-.3.2v.1l-.1.3Zm2-.6V24H69v-2.6h.4v.3Zm1.2.6v.4l-.1.3-.3.2h-.6l-.2-.2-.1-.2-.1-.4v-.5l.2-.3a.6.6 0 0 1 .5-.2h.3l.3.2v.3l.1.4Zm-.4 0v-.4a.4.4 0 0 0-.4-.2h-.2l-.1.1-.1.2v.7l.2.2h.4l.1-.1.1-.2v-.3Zm2 .5v-1.4h.3v1.8H72v-.4Zm0-.4h.1v.4l-.2.2c0 .1 0 .2-.2.2h-.7l-.2-.3v-1.5h.4v1.4l.2.1h.4l.1-.2v-.3Zm1.6-1v.3h-1v-.3h1Zm-.7-.5h.4v2h.2a.6.6 0 0 0 .1 0v.3a1 1 0 0 1-.3 0h-.2l-.2-.1V20.9Zm2.4 2.3H75v-2l.1-.3c0-.1.1-.2.3-.2l.4-.1h.5v.4h-.8v2.3Zm.4-1.8v.3h-1v-.3h1Zm.7 0v1.8H76v-1.8h.4Zm1.3 1.9a1 1 0 0 1-.4 0 .8.8 0 0 1-.5-.6V22l.2-.3.3-.2h.7l.2.2.2.3v.5h-1.4v-.3h1V22l-.2-.2h-.4l-.1.2v.2l-.1.2v.3l.1.2.2.1h.2a.6.6 0 0 0 .5-.2l.2.2-.2.2-.2.1h-.3Zm1.5-2.7v2.6h-.4v-2.6h.4Zm1.6 2.3v-2.3h.4v2.6h-.4V23Zm-1.2-.6v-.4l.1-.3a.6.6 0 0 1 .6-.2h.3l.2.2.1.3.1.4v.4l-.2.3a.6.6 0 0 1-.5.3.6.6 0 0 1-.6-.3l-.1-.3v-.4Zm.4 0v.5l.2.1h.4l.2-.2V22l-.1-.2h-.1l-.2-.1h-.2l-.1.2-.1.2v.2Z" opacity=".6"/><rect width="63.7" height="9.4" x="65.7" y="26" fill="#fff" rx="1.6"/><path fill="#242426" d="M70.7 31v-.2h-.2c0-.1 0-.2-.2-.2l-.3-.1a3 3 0 0 1-.4-.2l-.2-.1-.2-.3v-.2a.7.7 0 0 1 .2-.6l.3-.1.4-.1.5.1.3.3.1.4h-.3l-.1-.2-.2-.2-.3-.1h-.4l-.2.2v.4l.1.1.2.2h.3l.4.2c.2 0 .3.1.3.2l.2.2v.6l-.2.3-.3.1a1.4 1.4 0 0 1-.8 0c-.1 0-.2 0-.3-.2a.7.7 0 0 1-.3-.6h.3v.3l.2.1.2.1a1 1 0 0 0 .6 0s.2 0 .2-.2V31Zm1.6.8a.9.9 0 0 1-.9-.6v-1l.2-.3a.9.9 0 0 1 1-.2c.2 0 .2.1.3.2l.2.3V30.8h-1.5v-.3h1.2v-.3l-.2-.2-.3-.1a.5.5 0 0 0-.4.2l-.1.2v1l.3.1H72.7l.2-.2.2.2-.2.1-.2.2a1 1 0 0 1-.4 0Zm1.6-3v3h-.3v-3h.3Zm1.4 3a.9.9 0 0 1-.9-.6v-1l.3-.3a.9.9 0 0 1 1-.2l.2.2.2.3V30.8h-1.5v-.3h1.2v-.3l-.2-.2-.3-.1a.5.5 0 0 0-.4.2l-.1.2v.7l.1.3.2.1h.6l.2-.2.2.2-.2.1-.2.2a1 1 0 0 1-.4 0Zm2-.3h.3l.2-.2V31h.4l-.1.3a.8.8 0 0 1-.7.4 1 1 0 0 1-.4-.1.8.8 0 0 1-.3-.3 1 1 0 0 1-.2-.3v-.8l.2-.4.3-.2h.8l.3.3.1.4h-.3l-.1-.3-.2-.1-.2-.1H77l-.2.2V31.2l.2.2h.3Zm2.2-1.8v.2h-1.2v-.2h1.2Zm-.8-.5h.4v2.2h.2a.6.6 0 0 0 .2 0v.3H79c-.1 0-.2 0-.2-.2v-2.3Zm2 2.6a.9.9 0 0 1-.9-.6v-1l.3-.3a.9.9 0 0 1 1-.2l.2.2.2.3V30.8H80v-.3h1.2v-.3L81 30l-.3-.1a.5.5 0 0 0-.4.2l-.1.2v.7l.1.3.2.1H81l.2-.2.2.2-.2.1-.2.2a1 1 0 0 1-.4 0Zm2.5-.5v-2.5h.4v3h-.3v-.5Zm-1.3-.6v-.5l.2-.3.2-.2h.7c.1 0 .2 0 .3.2l.1.3.1.4V31.2l-.2.3-.3.2a.8.8 0 0 1-.7 0 .8.8 0 0 1-.2-.2l-.2-.4v-.4Zm.3 0v.3l.1.2.2.2h.5l.2-.2.1-.3V30.3l-.1-.2-.2-.1h-.5l-.2.1v.6Zm3.5.7.6-1.7h.4l-.8 2h-.2v-.3Zm-.4-1.7.6 1.7v.3h-.2l-.8-2h.4Zm2.9 1.7V30l-.2-.2h-.5l-.1.2v.1H87V30l.2-.2.2-.1h.8l.3.2V31.5l.1.2h-.3v-.1l-.1-.2Zm0-1v.3h-.6l-.2.1v.1l-.1.2v.2l.1.1h.3a.6.6 0 0 0 .5-.2V31l.2.2v.2a.8.8 0 0 1-.5.3h-.7a.6.6 0 0 1-.3-.5v-.3l.3-.3h.3l.3-.1h.5Zm1.3-1.6v3H89v-3h.4Zm1.8 2.4v-1.5h.4v2h-.4v-.5Zm0-.4h.2v.4c0 .1 0 .2-.2.3l-.2.2h-.7a.6.6 0 0 1-.3-.4v-1.6h.3v1.5l.1.2H91.1l.2-.3v-.3Zm1.8 1a.9.9 0 0 1-.9-.6v-1l.2-.3a.9.9 0 0 1 1-.2l.3.2.1.3V30.8h-1.5v-.3h1.2v-.3l-.2-.2-.3-.1a.5.5 0 0 0-.4.2v.2l-.1.4v.3l.1.3.2.1h.6l.2-.2.2.2-.1.1-.3.2a1 1 0 0 1-.3 0Z"/><rect width="63.7" height="9.4" x="65.7" y="39.3" fill="#D67350" rx="1.6"/><path fill="#fff" d="M93.1 44.3V44H93l-.2-.2-.3-.1-.4-.1-.2-.2-.2-.3-.1-.3a.7.7 0 0 1 .3-.5l.3-.2h.9l.4.4v.4h-.4v-.2l-.2-.2h-.6l-.2.1v.4l.1.1.2.1.3.1.4.2.3.1a.7.7 0 0 1 .2.6v.3l-.3.2-.3.2a1.5 1.5 0 0 1-1.2-.2.8.8 0 0 1-.3-.7h.5v.3l.2.1.2.1a1 1 0 0 0 .5 0l.1-.1.1-.2Zm2.1.2V43h.5V45h-.5v-.5Zm0-.4h.2v.4l-.2.3-.2.2H94.4l-.3-.1-.1-.3V43h.4V44.5h.1l.1.1h.5l.1-.2V44Zm1-2h.4V45H96v-3Zm1.7 1.8v.5c0 .1 0 .2-.2.3l-.2.3h-.7a.7.7 0 0 1-.2-.2l-.2-.4v-.9l.2-.3.2-.2.3-.1h.4l.2.3.2.3v.4Zm-.4 0v-.2l-.1-.2-.2-.2h-.4l-.1.1-.1.2v.8l.2.2h.4l.2-.1V44Zm1.3-.5V45h-.5v-2h.5v.4Zm0 .5h-.2v-.4l.2-.3.2-.2.4-.1h.2l.2.2.2.2V45h-.4v-1.6l-.2-.1H99l-.2.1v.5Zm1.2-.1h-.2v-.3c0-.2.1-.2.2-.3a.7.7 0 0 1 .6-.3h.3l.2.2.1.2V45h-.4v-1.6l-.2-.1h-.4v.1l-.2.2v.2Zm2.2-.9V45h-.4v-2h.4Zm-.5-.5.1-.2h.4v.4h-.4v-.2Zm2 .5v.4h-1.2v-.4h1.2Zm-.9-.5h.5v2.2h.2a.7.7 0 0 0 .2 0v.4a1.2 1.2 0 0 1-.3 0h-.3l-.2-.2v-2.3Z"/><path fill="#282F36" fill-opacity=".8" d="M69.4 63.6c0 .5-.1.8-.3 1.1-.1.3-.4.5-.7.7l-1 .2h-1.1v-3.9h1.2c.4 0 .7 0 1 .2.3.2.5.4.6.7.2.3.3.6.3 1Zm-.5 0c0-.3 0-.6-.2-.8 0-.3-.3-.4-.5-.5l-.8-.2h-.7v3.1h.6c.5 0 1-.1 1.2-.4.3-.2.4-.6.4-1.2Zm2.4-1c.3 0 .5 0 .7.2l.4.5.1.7v.2h-2c0 .4 0 .6.2.8.2.2.4.3.7.3a2.1 2.1 0 0 0 1-.2v.4a2.2 2.2 0 0 1-1 .2c-.3 0-.5 0-.7-.2l-.5-.5-.2-.8c0-.3 0-.6.2-.8 0-.3.2-.5.4-.6l.7-.2Zm0 .4c-.2 0-.4 0-.6.2a1 1 0 0 0-.2.7H72v-.5l-.3-.3a.7.7 0 0 0-.4-.1Zm3.8 1.8-.1.5-.4.3h-1.1l-.4-.1V65l.4.1.5.1.5-.1c.2 0 .2-.2.2-.3v-.3l-.3-.1-.4-.2-.5-.2a1 1 0 0 1-.3-.3l-.1-.4c0-.2 0-.4.3-.6l.8-.2a2.2 2.2 0 0 1 .9.2l-.2.4-.4-.1-.4-.1a1 1 0 0 0-.4.1c-.2 0-.2.2-.2.3v.2l.3.2c.1 0 .3 0 .5.2.1 0 .3 0 .4.2.2 0 .3.1.3.2l.1.4Zm1.9-2.2c.2 0 .4 0 .6.2l.4.5.2.7v.2h-2c0 .4 0 .6.2.8.2.2.4.3.7.3a2.1 2.1 0 0 0 1-.2v.4a2.2 2.2 0 0 1-1 .2c-.3 0-.5 0-.7-.2-.3-.1-.4-.3-.5-.5l-.2-.8c0-.3 0-.6.2-.8 0-.3.2-.5.4-.6l.7-.2Zm0 .4c-.3 0-.4 0-.6.2a1 1 0 0 0-.2.7h1.5v-.5l-.3-.3a.7.7 0 0 0-.4-.1Zm3.3-.4a1.7 1.7 0 0 1 .3 0v.5a1.2 1.2 0 0 0-.4 0 .8.8 0 0 0-.6.2l-.2.3v2h-.5v-3h.4v.6l.3-.3.3-.2h.4Zm1.8 2.7a1.4 1.4 0 0 0 .4 0v.3H82a1 1 0 0 1-.4 0 .7.7 0 0 1-.3-.3 1 1 0 0 1-.1-.5V63h-.4v-.2l.4-.2.2-.6h.2v.7h.9v.3h-.9v1.8c0 .1 0 .3.2.4l.3.1Z"/><path fill="#E9EAEA" d="M59.5 55.3h76.2v-.8H59.5v.8Z" mask="url(#path-25-inside-3_1380_16157)"/></g></g><defs><clipPath id="b"><rect width="76.2" height="59.3" x="23" y="24" fill="#fff" rx="2.3"/></clipPath><clipPath id="e"><rect width="76.2" height="59.3" x="103.8" y="24" fill="#fff" rx="2.3"/></clipPath><clipPath id="g"><rect width="76.2" height="59.3" x="59.5" y="14" fill="#fff" rx="2.3"/></clipPath><filter id="a" width="124.2" height="107.3" x="-1" y="8" color-interpolation-filters="sRGB" filterUnits="userSpaceOnUse"><feFlood flood-opacity="0" result="BackgroundImageFix"/><feColorMatrix in="SourceAlpha" result="hardAlpha" values="0 0 0 0 0 0 0 0 0 0 0 0 0 0 0 0 0 0 127 0"/><feOffset dy="8"/><feGaussianBlur stdDeviation="12"/><feColorMatrix values="0 0 0 0 0.156863 0 0 0 0 0.184314 0 0 0 0 0.211765 0 0 0 0.15 0"/><feBlend in2="BackgroundImageFix" result="effect1_dropShadow_1380_16157"/><feBlend in="SourceGraphic" in2="effect1_dropShadow_1380_16157" result="shape"/></filter><filter id="d" width="124.2" height="107.3" x="79.8" y="8" color-interpolation-filters="sRGB" filterUnits="userSpaceOnUse"><feFlood flood-opacity="0" result="BackgroundImageFix"/><feColorMatrix in="SourceAlpha" result="hardAlpha" values="0 0 0 0 0 0 0 0 0 0 0 0 0 0 0 0 0 0 127 0"/><feOffset dy="8"/><feGaussianBlur stdDeviation="12"/><feColorMatrix values="0 0 0 0 0.156863 0 0 0 0 0.184314 0 0 0 0 0.211765 0 0 0 0.15 0"/><feBlend in2="BackgroundImageFix" result="effect1_dropShadow_1380_16157"/><feBlend in="SourceGraphic" in2="effect1_dropShadow_1380_16157" result="shape"/></filter><filter id="f" width="124.2" height="107.3" x="35.5" y="-2" color-interpolation-filters="sRGB" filterUnits="userSpaceOnUse"><feFlood flood-opacity="0" result="BackgroundImageFix"/><feColorMatrix in="SourceAlpha" result="hardAlpha" values="0 0 0 0 0 0 0 0 0 0 0 0 0 0 0 0 0 0 127 0"/><feOffset dy="8"/><feGaussianBlur stdDeviation="12"/><feColorMatrix values="0 0 0 0 0.156863 0 0 0 0 0.184314 0 0 0 0 0.211765 0 0 0 0.15 0"/><feBlend in2="BackgroundImageFix" result="effect1_dropShadow_1380_16157"/><feBlend in="SourceGraphic" in2="effect1_dropShadow_1380_16157" result="shape"/></filter><linearGradient id="c" x1="38.1" x2="38.1" y1="0" y2="40.9" gradientUnits="userSpaceOnUse"><stop stop-color="#43D7EB"/><stop offset="1" stop-color="#55699D" stop-opacity=".7"/></linearGradient></defs></svg>