<svg width="204" height="204" fill="none" xmlns="http://www.w3.org/2000/svg"><path d="M131.824 36.53l.229.407c.257.462.641.841 1.105 1.094l.408.224-.408.225a2.779 2.779 0 00-1.105 1.097l-.229.408-.224-.408a2.775 2.775 0 00-1.106-1.097l-.408-.225.408-.224a2.795 2.795 0 001.106-1.093l.224-.409zM46.009 18.076l.228.408c.254.463.637.843 1.102 1.093l.408.229-.408.224a2.758 2.758 0 00-1.102 1.094l-.228.408-.229-.408a2.758 2.758 0 00-1.101-1.094l-.408-.224.408-.229c.465-.25.847-.63 1.101-1.093l.229-.408zM180.842 62.923l.228.408c.255.464.639.843 1.106 1.093l.408.225-.408.224c-.467.25-.851.63-1.106 1.094l-.228.408-.229-.408a2.759 2.759 0 00-1.101-1.094l-.408-.224.408-.225a2.759 2.759 0 001.101-1.093l.229-.408zM13.124 91.328l.225.408c.257.463.64.844 1.105 1.098l.408.224-.408.224a2.795 2.795 0 00-1.105 1.094l-.225.408-.228-.408a2.742 2.742 0 00-1.094-1.094l-.408-.224.408-.224c.467-.25.85-.63 1.106-1.094l.216-.412zM91.163 16.819l.408.714a4.745 4.745 0 001.889 1.885l.71.408-.71.388a4.753 4.753 0 00-1.89 1.889l-.407.71-.388-.71a4.753 4.753 0 00-1.889-1.894l-.71-.407.71-.409a4.746 4.746 0 001.89-1.884l.387-.69zM38.172 51.736l.408.71a4.782 4.782 0 001.889 1.889l.71.408-.71.387a4.782 4.782 0 00-1.89 1.89l-.407.71-.388-.71a4.753 4.753 0 00-1.889-1.89l-.71-.387.71-.408a4.753 4.753 0 001.889-1.893l.388-.706zM170.107 28.116l.114.204c.126.232.316.422.547.547l.204.114-.204.115a1.362 1.362 0 00-.547.546l-.114.204-.11-.204a1.383 1.383 0 00-.547-.546l-.208-.115.208-.114c.231-.126.42-.316.547-.547l.11-.204zM16.384 60.822l.115.208c.125.231.315.421.547.547l.204.114-.204.11c-.231.127-.42.316-.547.547l-.114.208-.11-.208a1.408 1.408 0 00-.547-.547l-.208-.11.208-.114c.236-.124.432-.314.563-.547l.093-.208zM40.77 159.884c3.045 2.897 6.145 6.826 10.331 6.43 4.607-.448 8.03-6.16 12.518-5.116 2.448.567 3.929 2.93 5.867 4.488 3.896 3.15 9.792 2.921 14.141.469 4.35-2.452 7.426-6.728 9.662-11.207 6.642-13.252 7.07-28.658 6.923-43.473l1.351-49.751 1.35 51c-.146 14.818.29 30.216 6.908 43.476 2.236 4.488 5.304 8.76 9.661 11.212 4.358 2.452 10.245 2.676 14.142-.469 1.938-1.567 3.439-3.929 5.867-4.488 4.488-1.049 7.927 4.684 12.529 5.116 4.186.408 7.287-3.533 10.331-6.43a26.993 26.993 0 0115.675-7.083 82.481 82.481 0 004.562-27.132c0-45.614-36.977-82.595-82.592-82.595-45.614 0-82.595 36.977-82.595 82.591a82.47 82.47 0 004.08 25.704c7.05-.131 14.178 2.395 19.29 7.258z" fill="#F6F7FB"/><path d="M144.902 106.896H195.6s-4.488-8.16-17.544-6.969c-12.465 1.135-13.097-4.014-19.433-4.647-6.337-.632-11.608 4.24-13.721 11.616zM8.16 117.373h32.391s-2.856-5.218-11.208-4.459c-7.968.726-8.372-2.562-12.423-2.97-4.052-.408-7.43 2.701-8.76 7.429z" fill="#fff"/><path d="M85.231 165.648c.209-.135.408-.273.608-.408l.27-.204c.195-.151.408-.302.579-.457l.233-.192c.216-.187.432-.375.644-.571l.123-.114a23.8 23.8 0 002.231-2.448c.233-.29.457-.584.678-.885-2.738-.192-5.553.171-8.16-.629-5.357-1.632-8.32-7.564-13.424-9.869-6.723-3.04-15.426.926-21.624-3.089-4.65-3.011-5.818-9.196-8.8-13.872-4.419-6.936-12.811-10.608-20.702-8.331a72.36 72.36 0 00-.045 2.55c0 8.38 1.276 16.711 3.782 24.708.192.331.38.661.584.996h1.517c.351 0 .698.032 1.045.061a.89.89 0 01.253.024c.35.029.702.066 1.048.111l.253.032c.347.049.694.098 1.04.159l.258.049c.343.066.685.131 1.024.204l.273.066c.33.077.665.155.996.244l.294.086c.318.09.64.184.958.286l.319.11c.306.102.612.204.914.318l.346.139c.29.11.58.224.861.347.13.053.257.114.384.171.269.122.538.241.816.371.142.066.281.143.408.216.249.123.493.249.738.38.155.086.302.179.457.265.225.131.449.257.67.408l.501.322.596.388c.187.131.367.269.555.408.187.139.338.241.502.367.163.127.407.343.64.514.122.106.253.204.38.31.33.282.656.576.975.878 3.043 2.896 6.144 6.825 10.33 6.43 4.586-.441 8.01-6.153 12.497-5.108 2.448.567 3.93 2.929 5.867 4.488 3.897 3.149 9.792 2.921 14.141.469.307-.168.6-.351.894-.539l.273-.159zM163.853 160.377l.567-.47c.102-.081.212-.159.318-.24.18-.139.359-.278.543-.408l.339-.241.546-.375.347-.225c.188-.118.375-.24.567-.355.114-.073.233-.138.347-.204l.588-.338.35-.188.612-.318.343-.163c.212-.102.408-.204.637-.302l.338-.147.661-.278.331-.13.685-.257.322-.11.71-.237.315-.094c.244-.073.485-.147.73-.212l.31-.082.747-.183.306-.07.763-.155.297-.057c.257-.045.514-.09.776-.126l.293-.045.433-.061c.322-.449.628-.894.918-1.343a82.408 82.408 0 004.133-25.847c0-1.67-.05-3.326-.151-4.969-7.968-1.999-15.463 2.04-19.633 9.135-2.815 4.774-3.766 10.996-8.307 14.174-6.051 4.227-14.884.567-21.502 3.843-5.014 2.477-7.768 8.511-13.072 10.335-2.448.845-5.141.645-7.752.873.216.318.437.637.665.947.057.085.119.167.18.249.187.248.375.497.567.738l.167.208c.241.302.494.596.751.881l.134.151c.217.237.437.47.661.694l.233.233c.228.228.465.448.706.665l.143.13c.285.249.579.49.877.722l.236.176c.233.179.474.351.719.518l.273.184c.318.208.645.408.983.599 4.366 2.448 10.245 2.677 14.141-.469 1.938-1.567 3.44-3.929 5.868-4.488 4.488-1.048 7.927 4.684 12.529 5.116 4.186.408 7.287-3.533 10.331-6.43.261-.249.53-.493.816-.73.09-.077.179-.147.265-.224z" fill="#E6E8F0"/><path d="M182.095 187.68c0 .057-36.186.106-80.813.106s-80.825-.049-80.825-.106c0-.057 36.178-.106 80.825-.106 44.648 0 80.813.053 80.813.106z" fill="#263238"/><path d="M171.548 51.406a6.764 6.764 0 10-13.52-.503 6.764 6.764 0 0013.52.503z" fill="#585C6B"/><path d="M166.978 48.552a1.106 1.106 0 112.212.04 1.106 1.106 0 01-2.212-.04zM169.185 51.135a.65.65 0 01.411-.588.643.643 0 01.823.86.638.638 0 01-.605.385.645.645 0 01-.629-.657zM168.325 53.105a.236.236 0 010 .474.233.233 0 01-.229-.241.235.235 0 01.229-.233z" fill="#263238"/><path d="M151.393 81.384l.232.408c.26.475.651.866 1.126 1.126l.408.232-.408.233c-.476.258-.868.65-1.126 1.126l-.232.408-.233-.408a2.772 2.772 0 00-1.126-1.126l-.408-.233.408-.232c.477-.258.868-.65 1.126-1.126l.233-.408zM60.253 45.97l.408.734a4.896 4.896 0 001.946 1.942l.73.408-.73.408a4.896 4.896 0 00-1.946 1.946l-.408.73-.408-.73a4.896 4.896 0 00-1.942-1.946l-.734-.408.734-.408a4.896 4.896 0 001.942-1.942l.408-.735zM34.166 21.852l.15.27c.164.306.414.559.719.726l.27.147-.27.147a1.787 1.787 0 00-.718.718l-.151.27-.147-.27a1.787 1.787 0 00-.718-.718l-.253-.155.27-.147c.303-.165.552-.415.717-.718l.13-.27zM75.125 136.607l.073.134a.916.916 0 00.36.359l.134.074-.134.073a.95.95 0 00-.36.359l-.073.135-.073-.135a.923.923 0 00-.36-.359l-.134-.073.134-.074a.89.89 0 00.36-.359l.073-.134zM60.326 87.41l.074.135c.083.15.208.275.359.359l.134.073-.134.073a.922.922 0 00-.36.36l-.073.134-.073-.135a.893.893 0 00-.36-.359l-.134-.073.135-.073a.894.894 0 00.359-.36l.073-.134zM179.781 73.648l.073.135a.903.903 0 00.359.359l.135.073-.135.074a.903.903 0 00-.359.359l-.073.134-.073-.134a.903.903 0 00-.359-.36l-.135-.073.135-.073a.903.903 0 00.359-.36l.073-.134zM24.345 73.032l.151.27c.165.303.414.552.718.717l.27.147-.27.147c-.311.166-.567.42-.734.73l-.151.27-.147-.27a1.787 1.787 0 00-.718-.718l-.27-.147.27-.147c.304-.164.553-.414.718-.718l.163-.281zM136.406 133.008l.151.269c.164.303.412.552.714.718l.273.147-.273.147c-.302.166-.55.415-.714.718l-.151.269-.147-.269a1.81 1.81 0 00-.718-.718l-.269-.147.269-.147a1.81 1.81 0 00.718-.718l.147-.269zM145.06 19.107l.408.73a4.894 4.894 0 001.942 1.946l.731.408-.731.408a4.9 4.9 0 00-1.942 1.942l-.408.73-.408-.73a4.896 4.896 0 00-1.946-1.942l-.73-.408.73-.408a4.89 4.89 0 001.946-1.946l.408-.73zM47.41 107.602a8.843 8.843 0 01-5.946-11.721 8.845 8.845 0 012.939-3.89 8.84 8.84 0 005.38 16.77 8.832 8.832 0 003.371-1.555 8.81 8.81 0 01-5.745.396z" fill="#585C6B"/><path d="M164.681 174.701c.604.861 1.775.576 2.318.049a4.368 4.368 0 00.979-2.011c.477-1.661.959-3.399.604-5.092a2.861 2.861 0 00-.649-1.383 1.486 1.486 0 00-.637-.42 1.483 1.483 0 00-.762-.045c-.592.155-.959.734-1.224 1.285a12.157 12.157 0 00-1.2 5.206 4.238 4.238 0 00.571 2.411z" fill="#5DA9FE"/><path opacity=".2" d="M164.681 174.701c.604.861 1.775.576 2.318.049a4.368 4.368 0 00.979-2.011c.477-1.661.959-3.399.604-5.092a2.861 2.861 0 00-.649-1.383 1.486 1.486 0 00-.637-.42 1.483 1.483 0 00-.762-.045c-.592.155-.959.734-1.224 1.285a12.157 12.157 0 00-1.2 5.206 4.238 4.238 0 00.571 2.411z" fill="#000"/><path d="M166.937 179.059a5.192 5.192 0 013.24-.408c.6.05 1.165.301 1.603.714.408.441.474 1.224 0 1.595a1.522 1.522 0 01-1.011.257c-.857 0-1.804-.159-2.489.355-.408.294-.653.784-1.118.926a1.103 1.103 0 01-1.224-.538 1.885 1.885 0 01-.135-1.392 2.128 2.128 0 011.134-1.509zM163.025 175.934a3.133 3.133 0 00.489-2.881 5.596 5.596 0 00-1.709-2.476 9.25 9.25 0 00-3.056-1.804 3.27 3.27 0 00-1.375-.232 1.444 1.444 0 00-1.155.697c-.318.612 0 1.359.322 1.963a23.47 23.47 0 002.008 3.06c.6.775 1.289 1.542 2.207 1.889.918.347 1.869.31 2.358-.326" fill="#5DA9FE"/><path d="M164.641 187.68c.032-.134.05-.27.053-.408.028-.286.061-.641.106-1.065.052-.526.131-1.049.236-1.567.143-.63.334-1.247.572-1.848.233-.599.55-1.163.942-1.673.32-.415.728-.754 1.196-.991a3.337 3.337 0 011.003-.314c.131-.007.26-.024.388-.053a1.548 1.548 0 00-.408 0 3.06 3.06 0 00-1.049.273c-.49.232-.92.574-1.256 1a6.699 6.699 0 00-.98 1.705 11.453 11.453 0 00-.563 1.877 13.026 13.026 0 00-.208 1.587c-.036.453-.049.816-.053 1.073-.01.135-.003.271.021.404z" fill="#263238"/><path d="M164.714 186.864a.943.943 0 000-.184v-.518c0-.449 0-1.101.025-1.905a76.97 76.97 0 01.444-6.275c.27-2.444.629-4.639.955-6.218.073-.408.151-.751.224-1.061.074-.31.131-.583.188-.816l.123-.506c.016-.059.027-.119.032-.179a.61.61 0 00-.065.171l-.151.498c-.065.216-.135.481-.212.795-.078.315-.168.665-.253 1.057a58.977 58.977 0 00-1 6.226c-.269 2.448-.408 4.676-.408 6.287 0 .816 0 1.461.029 1.91 0 .212.02.383.028.522a.728.728 0 00.041.196z" fill="#263238"/><path d="M164.722 182.564a3.077 3.077 0 000-.543c-.02-.347-.069-.849-.167-1.469a20.052 20.052 0 00-.477-2.138 18.96 18.96 0 00-.898-2.533 13.458 13.458 0 00-2.627-4.08 6.529 6.529 0 00-.616-.572c-.094-.081-.18-.163-.266-.224l-.24-.167a2.733 2.733 0 00-.457-.29c.528.411 1.028.856 1.497 1.334a14.193 14.193 0 012.562 4.08c.354.816.656 1.654.902 2.509.232.788.388 1.51.506 2.118.118.608.179 1.11.216 1.456.011.174.033.347.065.519zM40.013 144.065a.79.79 0 01.236-.033c.238-.004.472.047.686.151.349.168.654.415.89.722.316.425.57.894.75 1.392.428 1.126.632 2.59.869 4.296a57.82 57.82 0 01.534 5.883c.098.331.319.722.682.751a1 1 0 00.518-.171 7.63 7.63 0 00.506-.323c.34-.242.696-.461 1.065-.657a1.748 1.748 0 011.285-.208 1.635 1.635 0 01.934.967c.143.447.168.924.074 1.383-.155.931-.62 1.779-.98 2.669-.358.889-.775 1.803-1.17 2.733l-.608 1.416c-.102.237-.204.477-.31.718a1.37 1.37 0 00-.119.351.584.584 0 00.029.339c.077.2.359.159.587.045l.735-.327c.5-.229 1.011-.429 1.534-.6a5.36 5.36 0 011.664-.289c.297.001.588.071.853.204.274.139.491.368.616.648.211.562.24 1.176.082 1.755a9.086 9.086 0 01-.55 1.677 22.275 22.275 0 01-1.719 3.162 4.633 4.633 0 00-.448.763.464.464 0 000 .371.304.304 0 00.049.077c0 .021.057.07.053.053a.23.23 0 00.146 0 12.127 12.127 0 001.612-.86c.54-.325 1.11-.598 1.702-.816a3.09 3.09 0 01.954-.196 1.193 1.193 0 01.943.347c.231.259.36.594.359.942.008.331-.025.661-.098.983a8.23 8.23 0 01-.67 1.844 16.721 16.721 0 01-2.182 3.301 27.519 27.519 0 01-2.787 2.905 19.01 19.01 0 01-1.583 1.249l-1.632 1.264-.049.037-.053-.02-1.913-.739a19.04 19.04 0 01-1.881-.779 27.416 27.416 0 01-3.505-1.983 16.674 16.674 0 01-3.04-2.538 7.879 7.879 0 01-1.17-1.575 3.814 3.814 0 01-.38-.913c-.1-.333-.074-.69.074-1.004a1.224 1.224 0 01.816-.608c.317-.077.644-.106.97-.086.632.045 1.257.149 1.87.31.586.165 1.185.285 1.79.359a.292.292 0 00.143-.024s.029-.049.037-.069a.37.37 0 00.024-.09.47.47 0 00-.106-.351 4.226 4.226 0 00-.653-.604 22.694 22.694 0 01-2.55-2.538 9.001 9.001 0 01-1.011-1.448 2.857 2.857 0 01-.408-1.706c.036-.311.18-.6.408-.816.218-.2.479-.349.762-.436a5.367 5.367 0 011.677-.2c.546.013 1.091.056 1.632.131l.816.106c.25.04.53 0 .547-.217a.644.644 0 00-.07-.33 1.486 1.486 0 00-.22-.302 28.314 28.314 0 00-.501-.6l-.988-1.183-1.905-2.281c-.604-.746-1.294-1.428-1.706-2.276a2.702 2.702 0 01-.326-1.343 1.633 1.633 0 01.616-1.195 1.74 1.74 0 011.277-.147c.415.08.824.187 1.224.322.192.062.384.119.576.164a.977.977 0 00.546 0c.339-.127.437-.568.437-.914a57.519 57.519 0 01-1.175-5.778 21.532 21.532 0 01-.408-4.357 5.17 5.17 0 01.302-1.546c.128-.364.34-.694.616-.963.17-.164.377-.286.603-.355a.864.864 0 01.237-.037 1.454 1.454 0 00-.816.408 2.49 2.49 0 00-.591.955 5.242 5.242 0 00-.282 1.534c0 1.457.146 2.91.437 4.337a58.335 58.335 0 001.175 5.822c.002.2-.032.399-.098.588a.757.757 0 01-.408.457c-.204.061-.421.061-.624 0a7.259 7.259 0 01-.588-.168 10.42 10.42 0 00-1.191-.314 1.63 1.63 0 00-1.184.151 1.5 1.5 0 00-.55 1.081c-.006.443.102.88.314 1.269.408.816 1.081 1.485 1.689 2.236l1.913 2.281.992 1.179.502.595a1.026 1.026 0 01.33.772.408.408 0 01-.31.35c-.142.031-.29.031-.432 0l-.816-.102a15.361 15.361 0 00-1.632-.126 5.143 5.143 0 00-1.632.196 1.365 1.365 0 00-1.037 1.085c-.033.558.11 1.111.408 1.583.285.505.618.981.996 1.42.775.903 1.62 1.742 2.53 2.509.249.187.477.401.68.637a.66.66 0 01.148.502.684.684 0 01-.037.13.328.328 0 01-.078.131.378.378 0 01-.285.089 11.24 11.24 0 01-1.844-.363 10.376 10.376 0 00-1.828-.302 3.062 3.062 0 00-.91.082 1.023 1.023 0 00-.673.498c-.123.272-.142.58-.053.865.08.301.2.59.355.861.317.556.7 1.071 1.142 1.534.9.95 1.907 1.791 3.003 2.505a28.153 28.153 0 003.48 1.966c.61.291 1.233.55 1.869.776l1.91.734h-.103.02l1.608-1.261c.544-.402 1.067-.83 1.567-1.285a27.379 27.379 0 002.762-2.885 16.448 16.448 0 002.158-3.264c.29-.571.509-1.175.653-1.799.072-.303.103-.615.094-.926.003-.3-.105-.59-.302-.816a1.008 1.008 0 00-.787-.286 3.104 3.104 0 00-.894.184c-.578.221-1.136.494-1.664.816a11.84 11.84 0 01-1.661.877.404.404 0 01-.302 0 .401.401 0 01-.11-.102.64.64 0 01-.07-.636 4.4 4.4 0 01.47-.816c.65-.997 1.22-2.043 1.705-3.13a9.013 9.013 0 00.543-1.632 2.672 2.672 0 00-.066-1.632 1.371 1.371 0 00-1.305-.746c-.546.006-1.087.1-1.603.277-.516.168-1.02.364-1.514.588l-.739.33a1.071 1.071 0 01-.408.106.407.407 0 01-.408-.245 1.02 1.02 0 01.094-.816c.102-.24.204-.477.31-.718l.608-1.411 1.18-2.734c.367-.898.815-1.73.974-2.627a2.564 2.564 0 00-.06-1.306 1.502 1.502 0 00-.817-.881 1.628 1.628 0 00-1.179.196c-.362.193-.712.408-1.048.644-.172.114-.34.225-.514.327a1.08 1.08 0 01-.596.183.735.735 0 01-.535-.314 1.599 1.599 0 01-.265-.534c-.061-2.2-.294-4.166-.506-5.872-.212-1.705-.408-3.166-.816-4.284a5.343 5.343 0 00-.726-1.383 2.53 2.53 0 00-.865-.726 1.495 1.495 0 00-.93-.163z" fill="#263238"/><path d="M46.365 187.762c-.57-3.762-1.893-12.53-2.7-18.283-.808-5.753-1.539-10.959-2.09-14.725-.277-1.876-.501-3.398-.66-4.459-.074-.522-.135-.93-.176-1.224l-.045-.314v-.11.106c0 .069.033.179.057.314l.196 1.224c.176 1.048.408 2.57.698 4.451.571 3.766 1.318 8.976 2.126 14.721.807 5.744 2.113 14.521 2.664 18.286" fill="#263238"/><path d="M38.087 159.34c.073.038.142.085.204.139.13.098.31.241.534.408.441.359 1.04.877 1.69 1.461l1.66 1.497.502.449c.066.051.127.11.18.175a1.432 1.432 0 01-.209-.138c-.126-.098-.31-.241-.53-.408a75.195 75.195 0 01-1.681-1.473l-1.677-1.485-.498-.437a1.051 1.051 0 01-.175-.188zM43.15 163.355c-.024-.02.984-1.301 2.253-2.856 1.269-1.554 2.321-2.811 2.346-2.791.024.021-.983 1.306-2.252 2.856-1.27 1.551-2.322 2.811-2.346 2.791zM43.991 172.241c.06-.058.128-.11.2-.155l.567-.408c.477-.334 1.138-.795 1.848-1.334.71-.538 1.338-1.04 1.791-1.407l.535-.437c.063-.057.131-.107.204-.151 0 0-.057.073-.176.184-.118.11-.29.273-.51.465-.44.387-1.06.905-1.774 1.44a32.09 32.09 0 01-1.873 1.306c-.245.159-.445.281-.588.367a.968.968 0 01-.224.13zM38.61 169.622a.892.892 0 01.224.078l.583.257c.494.22 1.171.53 1.914.881.742.351 1.416.677 1.897.918.245.118.437.216.571.29.073.031.141.071.204.118a.813.813 0 01-.224-.078l-.584-.257c-.493-.22-1.17-.534-1.913-.885-.742-.351-1.416-.673-1.901-.914-.241-.118-.433-.22-.567-.29a1.023 1.023 0 01-.204-.118zM38.352 177.562c.098.024.192.06.282.106l.75.322c.633.282 1.502.673 2.449 1.114.946.441 1.823.849 2.448 1.146l.734.359c.093.04.182.09.265.147a1.183 1.183 0 01-.281-.106l-.755-.326a109.22 109.22 0 01-2.448-1.114c-.947-.445-1.824-.845-2.448-1.142l-.735-.359a1.612 1.612 0 01-.26-.147zM45.15 180.634c.075-.077.159-.145.248-.204l.706-.526a102.68 102.68 0 002.29-1.763 95.79 95.79 0 002.231-1.84l.67-.567c.076-.075.16-.14.252-.196-.067.084-.142.16-.224.229-.147.146-.367.35-.645.595a49.535 49.535 0 01-5.251 4.105 2.13 2.13 0 01-.277.167z" fill="#263238"/><path d="M131.391 175.984a15.558 15.558 0 00-5.41-1.367c-5.304-.367-10.261-2.754-14.219-6.324a23.384 23.384 0 00-.489-.428c-2.526-2.122-5.174-5.455-5.712-8.707-2.04-12.081-3.542-28.727-3.436-37.475h-1.224s-.134 21.261-4.08 39.242a5.684 5.684 0 01-3.403 3.978 18.7 18.7 0 00-9.09 8.188 5.773 5.773 0 01-5.891 2.889 13.871 13.871 0 00-15.57 11.334l77.406.041a15.978 15.978 0 00-8.882-11.371z" fill="#F6F7FB"/><path d="M88.181 114.171H71.808V58.646a8.16 8.16 0 1116.32 0l.053 55.525z" fill="#5DA9FE"/><path d="M88.181 114.171H71.808V58.646a8.16 8.16 0 1116.32 0l.053 55.525z" fill="#585C6B"/><path d="M88.181 57.757c0 .057-3.651.106-8.16.106-4.508 0-8.16-.05-8.16-.106 0-.058 3.672-.107 8.16-.107 4.488 0 8.16.045 8.16.107zM88.181 71.93c0 .062-3.651.107-8.16.107-4.508 0-8.16-.045-8.16-.107 0-.06 3.672-.106 8.16-.106 4.488 0 8.16.05 8.16.106z" fill="#263238"/><path d="M83.64 71.93c-.057 0-.106-3.174-.106-7.086 0-3.913.05-7.087.106-7.087.057 0 .106 3.17.106 7.087 0 3.916-.04 7.087-.106 7.087zM81.727 61.881a.575.575 0 11-1.151 0 .575.575 0 011.15 0zM81.727 66.781a.575.575 0 11-1.151 0 .575.575 0 011.15 0zM88.181 100.776c0 .057-3.651.106-8.16.106-4.508 0-8.16-.049-8.16-.106 0-.057 3.672-.106 8.16-.106 4.488 0 8.16.037 8.16.106z" fill="#263238"/><path d="M83.64 100.776c-.057 0-.106-3.174-.106-7.087s.05-7.087.106-7.087c.057 0 .106 3.17.106 7.087s-.04 7.087-.106 7.087zM81.151 91.286a.575.575 0 100-1.15.575.575 0 000 1.15zM81.151 96.19a.575.575 0 100-1.15.575.575 0 000 1.15zM71.873 86.496c0-.057 3.672-.106 8.16-.106 4.488 0 8.16.049 8.16.106 0 .057-3.651.106-8.16.106-4.508 0-8.16-.07-8.16-.106z" fill="#263238"/><path d="M76.407 86.496c-.057 0-.106-3.174-.106-7.087s.049-7.087.106-7.087c.057 0 .106 3.17.106 7.087s-.045 7.087-.106 7.087zM78.336 76.427a.575.575 0 101.15-.008.575.575 0 00-1.15.008zM78.336 81.327a.575.575 0 101.15 0 .575.575 0 00-1.15 0z" fill="#263238"/><path d="M72.898 59.16a1.13 1.13 0 010-.326c.018-.297.054-.593.106-.886.164-.971.468-1.914.902-2.799a8.23 8.23 0 01.873-1.37c.28-.346.594-.662.938-.943.131-.106.267-.206.408-.298.104-.075.215-.14.33-.196.093-.059.193-.104.299-.134.02.036-.388.257-.943.746-.324.288-.62.605-.885.947a9.285 9.285 0 00-.837 1.346 11.997 11.997 0 00-.938 2.73c-.159.722-.216 1.183-.253 1.183zM79.52 51.51c0 .057-.246.147-.572.204-.326.057-.596.053-.604 0-.008-.053.245-.15.571-.208.327-.057.596-.057.604.004z" fill="#FAFAFA"/><path d="M114.481 114.171h16.357V58.646a8.167 8.167 0 00-2.397-5.777 8.164 8.164 0 00-5.783-2.383 8.16 8.16 0 00-8.16 8.16l-.017 55.525z" fill="#5DA9FE"/><path d="M114.481 114.171h16.357V58.646a8.167 8.167 0 00-2.397-5.777 8.164 8.164 0 00-5.783-2.383 8.16 8.16 0 00-8.16 8.16l-.017 55.525z" fill="#585C6B"/><path d="M114.481 57.757c0-.062 3.672-.107 8.16-.107 4.488 0 8.16.045 8.16.107 0 .06-3.651.106-8.16.106-4.508 0-8.16-.05-8.16-.106zM114.481 71.93c0-.057 3.672-.106 8.16-.106 4.488 0 8.16.05 8.16.106 0 .058-3.651.107-8.16.107-4.508 0-8.16-.045-8.16-.107z" fill="#263238"/><path d="M119.014 71.93c-.057 0-.106-3.174-.106-7.086 0-3.913.049-7.087.106-7.087.057 0 .106 3.17.106 7.087 0 3.916-.045 7.087-.106 7.087zM120.931 61.881a.577.577 0 00.982.407.571.571 0 00.125-.627.57.57 0 00-.531-.355.575.575 0 00-.576.575zM120.931 66.781a.577.577 0 00.982.407.571.571 0 00.125-.627.57.57 0 00-.531-.355.575.575 0 00-.576.575zM114.481 100.776c0-.057 3.672-.106 8.16-.106 4.488 0 8.16.049 8.16.106 0 .057-3.651.106-8.16.106-4.508 0-8.16-.061-8.16-.106z" fill="#263238"/><path d="M119.014 100.776c-.057 0-.106-3.174-.106-7.087s.049-7.087.106-7.087c.057 0 .123 3.158.123 7.075 0 3.917-.062 7.099-.123 7.099zM121.507 91.286a.576.576 0 10-.001-1.151.576.576 0 00.001 1.151zM121.507 96.19a.576.576 0 10-.001-1.15.576.576 0 00.001 1.15zM130.789 86.496c0 .057-3.652.106-8.16.106-4.509 0-8.16-.049-8.16-.106 0-.057 3.672-.106 8.16-.106 4.488 0 8.16.029 8.16.106z" fill="#263238"/><path d="M126.252 86.496c-.057 0-.106-3.174-.106-7.087s.049-7.087.106-7.087c.057 0 .106 3.17.106 7.087s-.044 7.087-.106 7.087zM124.335 76.427a.575.575 0 11-1.15-.008.575.575 0 011.15.008zM124.334 81.327a.577.577 0 01-.982.407.578.578 0 01-.125-.627.576.576 0 011.107.22z" fill="#263238"/><path d="M129.744 59.16c-.032 0-.093-.457-.253-1.183a11.99 11.99 0 00-.942-2.73 8.674 8.674 0 00-.836-1.346 6.974 6.974 0 00-.882-.947c-.555-.49-.967-.71-.946-.746.107.028.209.074.302.134.116.055.226.12.33.196a4.9 4.9 0 01.408.298c.345.28.659.597.939.943.335.426.628.886.873 1.37.431.886.733 1.828.897 2.8.054.292.09.588.11.885a.853.853 0 010 .326zM123.139 51.51c0-.061.281-.061.608 0 .326.061.579.147.571.208-.008.061-.282.057-.608 0s-.579-.15-.571-.208z" fill="#fff"/><path d="M96.492 28.621L90.756 39.45a22.08 22.08 0 00-2.575 10.355v75.337l10.058 6.426h6.972l9.384-6.426V50.135a22.13 22.13 0 00-2.395-9.963l-5.838-11.612a3.894 3.894 0 00-3.48-2.142h-2.889a3.896 3.896 0 00-3.5 2.203z" fill="#5DA9FE"/><path d="M88.181 119.136H62.886s0-11.151 10.579-19.086c10.58-7.936 14.72-25.884 14.72-25.884l-.004 44.97zM114.587 119.136h25.296s0-11.151-10.579-19.086c-10.579-7.936-14.717-25.884-14.717-25.884v44.97z" fill="#5DA9FE"/><path opacity=".2" d="M88.181 119.136H62.886s0-11.151 10.579-19.086c10.58-7.936 14.72-25.884 14.72-25.884l-.004 44.97zM114.587 119.136h25.296s0-11.151-10.579-19.086c-10.579-7.936-14.717-25.884-14.717-25.884v44.97z" fill="#000"/><path d="M90.042 79.76c-.057 0-.106-5.561-.106-12.424 0-6.862.049-12.423.106-12.423.057 0 .127 5.56.127 12.407 0 6.846-.07 12.44-.127 12.44zM90.319 47.544c.106.367.142.75.106 1.13.036.38 0 .764-.106 1.13a3.14 3.14 0 01-.106-1.13 3.14 3.14 0 01.106-1.13zM98.483 28.307c.053.024-1.677 3.497-3.86 7.752-2.182 4.256-3.994 7.687-4.047 7.658-.053-.028 1.677-3.496 3.86-7.752 2.183-4.255 3.994-7.687 4.047-7.658zM85.444 85.929a.303.303 0 010 .098c0 .077-.029.171-.049.29l-.09.465c-.037.214-.089.425-.155.632a16.145 16.145 0 01-1.575 3.823 27.287 27.287 0 01-3.643 4.933c-1.555 1.713-3.41 3.447-5.373 5.242a38.16 38.16 0 00-5.01 5.541 30.661 30.661 0 00-1.78 2.734 27.31 27.31 0 00-1.268 2.546 22.834 22.834 0 00-1.294 3.904c-.122.469-.171.845-.232 1.094l-.061.285a.26.26 0 01-.029.098.357.357 0 010-.098l.04-.289c.046-.253.082-.633.193-1.11a21.641 21.641 0 011.224-3.946c.37-.878.788-1.737 1.252-2.57a30.305 30.305 0 011.775-2.762 37.846 37.846 0 015.026-5.586c1.963-1.79 3.82-3.517 5.374-5.218a27.78 27.78 0 003.672-4.876 17.135 17.135 0 001.632-3.765c.068-.205.125-.414.171-.625.041-.18.078-.33.106-.46.029-.131.053-.209.074-.286a.303.303 0 01.02-.094z" fill="#FAFAFA"/><path d="M103.563 52.265h-4.362a4.782 4.782 0 110-9.564h4.362a4.775 4.775 0 014.781 4.782 4.78 4.78 0 01-4.781 4.782z" fill="#fff"/><path opacity=".4" d="M88.181 125.142l10.058 6.422h6.972l9.376-6.422v-2.648H88.181v2.648z" fill="#000"/></svg>