<svg width="403" height="243" viewBox="0 0 403 243" fill="none" xmlns="http://www.w3.org/2000/svg"><g filter="url(#filter0_d)"><rect x="52" y="27" width="290" height="175" rx="15.3" fill="#fff"/><mask id="a" maskUnits="userSpaceOnUse" x="52" y="27" width="290" height="175"><rect x="52" y="27" width="290" height="175" rx="15.3" fill="#fff"/></mask><g mask="url(#a)"><path fill="#F6F7FB" d="M52 27h290v38H52z"/><rect x="74" y="44" width="24" height="9" rx="4.5" fill="#9AA6B5" fill-opacity=".5"/><rect x="74" y="71" width="24" height="4" rx="2" fill="#9AA6B5" fill-opacity=".3"/><rect x="74" y="88" width="24" height="4" rx="2" fill="#9AA6B5" fill-opacity=".3"/><rect x="74" y="105" width="24" height="4" rx="2" fill="#9AA6B5" fill-opacity=".3"/><rect x="74" y="123" width="24" height="4" rx="2" fill="#9AA6B5" fill-opacity=".3"/><rect x="74" y="141" width="24" height="4" rx="2" fill="#9AA6B5" fill-opacity=".3"/><rect x="74" y="159" width="24" height="4" rx="2" fill="#9AA6B5" fill-opacity=".3"/><rect x="74" y="177" width="24" height="4" rx="2" fill="#9AA6B5" fill-opacity=".3"/><rect x="74" y="195" width="24" height="4" rx="2" fill="#9AA6B5" fill-opacity=".3"/><rect x="120" y="44" width="53" height="9" rx="4.5" fill="#9AA6B5" fill-opacity=".5"/><rect x="120" y="71" width="53" height="4" rx="2" fill="#9AA6B5" fill-opacity=".3"/><rect x="120" y="88" width="53" height="4" rx="2" fill="#9AA6B5" fill-opacity=".3"/><rect x="120" y="105" width="53" height="4" rx="2" fill="#9AA6B5" fill-opacity=".3"/><rect x="120" y="123" width="53" height="4" rx="2" fill="#9AA6B5" fill-opacity=".3"/><rect x="120" y="141" width="53" height="4" rx="2" fill="#9AA6B5" fill-opacity=".3"/><rect x="120" y="159" width="53" height="4" rx="2" fill="#9AA6B5" fill-opacity=".3"/><rect x="120" y="177" width="53" height="4" rx="2" fill="#9AA6B5" fill-opacity=".3"/><rect x="120" y="195" width="53" height="4" rx="2" fill="#9AA6B5" fill-opacity=".3"/><rect x="193" y="44" width="54" height="9" rx="4.5" fill="#9AA6B5" fill-opacity=".5"/><rect x="193" y="71" width="54" height="4" rx="2" fill="#9AA6B5" fill-opacity=".3"/><rect x="193" y="88" width="54" height="4" rx="2" fill="#9AA6B5" fill-opacity=".3"/><rect x="193" y="105" width="54" height="4" rx="2" fill="#9AA6B5" fill-opacity=".3"/><rect x="193" y="123" width="54" height="4" rx="2" fill="#9AA6B5" fill-opacity=".3"/><rect x="193" y="141" width="54" height="4" rx="2" fill="#9AA6B5" fill-opacity=".3"/><rect x="193" y="159" width="54" height="4" rx="2" fill="#9AA6B5" fill-opacity=".3"/><rect x="193" y="177" width="54" height="4" rx="2" fill="#9AA6B5" fill-opacity=".3"/><rect x="193" y="195" width="54" height="4" rx="2" fill="#9AA6B5" fill-opacity=".3"/><rect x="267" y="44" width="53" height="9" rx="4.5" fill="#9AA6B5" fill-opacity=".5"/><rect x="267" y="71" width="53" height="4" rx="2" fill="#9AA6B5" fill-opacity=".3"/><rect x="267" y="88" width="53" height="4" rx="2" fill="#9AA6B5" fill-opacity=".3"/><rect x="267" y="105" width="53" height="4" rx="2" fill="#9AA6B5" fill-opacity=".3"/><rect x="267" y="123" width="53" height="4" rx="2" fill="#9AA6B5" fill-opacity=".3"/><rect x="267" y="141" width="53" height="4" rx="2" fill="#9AA6B5" fill-opacity=".3"/><rect x="267" y="159" width="53" height="4" rx="2" fill="#9AA6B5" fill-opacity=".3"/><rect x="267" y="177" width="53" height="4" rx="2" fill="#9AA6B5" fill-opacity=".3"/><rect x="267" y="195" width="53" height="4" rx="2" fill="#9AA6B5" fill-opacity=".3"/><path fill="#9AA6B5" fill-opacity=".2" d="M108 27h1v175h-1z"/><path fill="#9AA6B5" fill-opacity=".2" d="M51 81v-1h292v1zM51 99v-1h292v1zM51 117v-1h292v1zM51 135v-1h292v1zM51 153v-1h292v1zM51 171v-1h292v1zM51 189v-1h292v1z"/><path fill="#9AA6B5" fill-opacity=".2" d="M182 27h1v175h-1zM256 27h1v175h-1z"/></g></g><g filter="url(#filter1_d)"><g filter="url(#filter2_d)"><rect x="17" y="150" width="168" height="62" rx="3.8" fill="#fff"/></g><circle cx="46" cy="181.3" r="17" fill="#BCC4CE"/><rect x="84.8" y="167.5" width="59.7" height="9" rx="4.5" fill="#9EA9B8" fill-opacity=".7"/><rect x="85" y="181" width="73" height="5" rx="2.5" fill="#9AA6B5" fill-opacity=".3"/><rect x="85" y="191" width="73" height="5" rx="2.5" fill="#9AA6B5" fill-opacity=".3"/></g><g filter="url(#filter3_d)"><rect x="253" y="102" width="132.8" height="115" rx="1.5" fill="#fff"/><rect x="287" y="111" width="46" height="5" rx="2.5" fill="#9EA9B8" fill-opacity=".7"/><rect x="336" y="111" width="18" height="5" rx="2.5" fill="#9EA9B8" fill-opacity=".7"/><path d="M376 113.6l-.1-.2-2.3-2.2a.3.3 0 00-.4 0v.3l2 2.1-2 2v.5h.4l2.3-2.3v-.2zM265.7 113.6v.2l2.4 2.3h.4c.1-.1.1-.3 0-.4l-2-2 2-2.2v-.3a.3.3 0 00-.4 0l-2.3 2.2-.1.2z" fill="#6B6C7E"/><circle cx="372.2" cy="202.7" r="4" fill="#E1E4E9"/><circle cx="354.8" cy="202.7" r="4" fill="#E1E4E9"/><circle cx="337.4" cy="202.7" r="4" fill="#E1E4E9"/><circle cx="319.9" cy="202.7" r="4" fill="#E1E4E9"/><circle cx="302.5" cy="202.7" r="4" fill="#E1E4E9"/><circle cx="285.1" cy="202.7" r="4" fill="#E1E4E9"/><circle cx="267.7" cy="202.7" r="4" fill="#E1E4E9"/><circle cx="372" cy="188" r="5.8" fill="#9CA4AF"/><circle cx="354.8" cy="188.2" r="4" fill="#E1E4E9"/><circle cx="337.4" cy="188.2" r="4" fill="#E1E4E9"/><circle cx="319.9" cy="188.2" r="4" fill="#E1E4E9"/><circle cx="302.5" cy="188.2" r="4" fill="#E1E4E9"/><circle cx="285.1" cy="188.2" r="4" fill="#E1E4E9"/><circle cx="267.7" cy="188.2" r="4" fill="#E1E4E9"/><circle cx="372.2" cy="173.7" r="4" fill="#E1E4E9"/><circle cx="354.8" cy="173.7" r="4" fill="#E1E4E9"/><circle cx="337.4" cy="173.7" r="4" fill="#E1E4E9"/><circle cx="319.9" cy="173.7" r="4" fill="#E1E4E9"/><circle cx="302.5" cy="173.7" r="4" fill="#E1E4E9"/><circle cx="285.1" cy="173.7" r="4" fill="#E1E4E9"/><circle cx="267.7" cy="173.7" r="4" fill="#E1E4E9"/><circle cx="372.2" cy="159.2" r="4" fill="#E1E4E9"/><circle cx="354.8" cy="159.2" r="4" fill="#E1E4E9"/><circle cx="337.4" cy="159.2" r="4" fill="#E1E4E9"/><circle cx="319.9" cy="159.2" r="4" fill="#E1E4E9"/><circle cx="302.5" cy="159.2" r="4" fill="#E1E4E9"/><circle cx="285.1" cy="159.2" r="4" fill="#E1E4E9"/><circle cx="267.7" cy="159.2" r="4" fill="#E1E4E9"/><circle cx="372.2" cy="144.6" r="4" fill="#E1E4E9"/><circle cx="354.8" cy="144.6" r="4" fill="#E1E4E9"/><circle cx="337.4" cy="144.6" r="4" fill="#E1E4E9"/><circle cx="319.9" cy="144.6" r="4" fill="#E1E4E9"/><circle cx="302.5" cy="144.6" r="4" fill="#E1E4E9"/><circle cx="285.1" cy="144.6" r="4" fill="#E1E4E9"/><circle cx="267.7" cy="144.6" r="4" fill="#E1E4E9"/><path d="M373.2 130.2c0 .4-.2.6-.4.8-.2.2-.5.3-1 .3l-1-.2v-.6a2.7 2.7 0 001 .3c.3 0 .5 0 .6-.2l.2-.3c0-.2 0-.3-.2-.4l-.6-.3c-.3-.1-.6-.3-.7-.5a1 1 0 01-.2-.6c0-.3 0-.5.3-.7.2-.2.5-.3.9-.3.3 0 .7.1 1 .3l-.2.5-.8-.3c-.2 0-.4 0-.5.2l-.1.3v.2l.2.2.5.3c.3 0 .5.2.6.3l.3.3v.4zM355.8 130.2c0 .4-.2.6-.4.8-.2.2-.6.3-1 .3l-1-.2v-.6a2.7 2.7 0 001 .3c.3 0 .5 0 .6-.2l.2-.3c0-.2 0-.3-.2-.4l-.6-.3c-.4-.1-.6-.3-.7-.5a1 1 0 01-.2-.6c0-.3 0-.5.3-.7.2-.2.5-.3.9-.3.3 0 .7.1 1 .3l-.2.5-.9-.3c-.1 0-.3 0-.4.2l-.1.3v.2l.2.2.5.3c.3 0 .5.2.6.3l.3.3v.4zM336.9 131.2h-.6v-3.6h2v.5H337v1.1h1.3v.5H337v1.5zM320 131.2h-.5v-3.1h-1.1v-.5h2.7v.5h-1v3.1zM303.8 131.2h-.7l-.6-2.1a8.2 8.2 0 01-.2-.8 6.1 6.1 0 01-.1.8l-.6 2.1h-.7l-.5-1.8-.4-1.8h.6l.5 2.1.2.9a6.2 6.2 0 01.1-.9l.6-2.1h.6l.6 2.1.2.9c0-.2 0-.5.2-.9l.5-2.1h.6l-1 3.6zM285.2 131.2h-.6v-3.1h-1v-.5h2.7v.5h-1v3.1zM267.2 131.2l-1-3v3h-.6v-3.6h.9l1 2.9 1-3h.9v3.7h-.6v-1.8a26.7 26.7 0 010-1.2l-1 3h-.6z" fill="#596069"/></g><defs><filter id="filter0_d" x="20" y="0" width="354" height="239" filterUnits="userSpaceOnUse" color-interpolation-filters="sRGB"><feFlood flood-opacity="0" result="BackgroundImageFix"/><feColorMatrix in="SourceAlpha" values="0 0 0 0 0 0 0 0 0 0 0 0 0 0 0 0 0 0 127 0"/><feOffset dy="5"/><feGaussianBlur stdDeviation="16"/><feColorMatrix values="0 0 0 0 0.247059 0 0 0 0 0.294118 0 0 0 0 0.356863 0 0 0 0.15 0"/><feBlend in2="BackgroundImageFix" result="effect1_dropShadow"/><feBlend in="SourceGraphic" in2="effect1_dropShadow" result="shape"/></filter><filter id="filter1_d" x=".2" y="141.6" width="201.7" height="95.7" filterUnits="userSpaceOnUse" color-interpolation-filters="sRGB"><feFlood flood-opacity="0" result="BackgroundImageFix"/><feColorMatrix in="SourceAlpha" values="0 0 0 0 0 0 0 0 0 0 0 0 0 0 0 0 0 0 127 0"/><feOffset dy="8.4"/><feGaussianBlur stdDeviation="8.4"/><feColorMatrix values="0 0 0 0 0.247059 0 0 0 0 0.294118 0 0 0 0 0.356863 0 0 0 0.15 0"/><feBlend in2="BackgroundImageFix" result="effect1_dropShadow"/><feBlend in="SourceGraphic" in2="effect1_dropShadow" result="shape"/></filter><filter id="filter2_d" x="13.2" y="147" width="175.5" height="69.5" filterUnits="userSpaceOnUse" color-interpolation-filters="sRGB"><feFlood flood-opacity="0" result="BackgroundImageFix"/><feColorMatrix in="SourceAlpha" values="0 0 0 0 0 0 0 0 0 0 0 0 0 0 0 0 0 0 127 0"/><feOffset dy=".8"/><feGaussianBlur stdDeviation="1.9"/><feColorMatrix values="0 0 0 0 0 0 0 0 0 0 0 0 0 0 0 0 0 0 0.05 0"/><feBlend in2="BackgroundImageFix" result="effect1_dropShadow"/><feBlend in="SourceGraphic" in2="effect1_dropShadow" result="shape"/></filter><filter id="filter3_d" x="236.2" y="93.6" width="166.5" height="148.7" filterUnits="userSpaceOnUse" color-interpolation-filters="sRGB"><feFlood flood-opacity="0" result="BackgroundImageFix"/><feColorMatrix in="SourceAlpha" values="0 0 0 0 0 0 0 0 0 0 0 0 0 0 0 0 0 0 127 0"/><feOffset dy="8.4"/><feGaussianBlur stdDeviation="8.4"/><feColorMatrix values="0 0 0 0 0.247059 0 0 0 0 0.294118 0 0 0 0 0.356863 0 0 0 0.15 0"/><feBlend in2="BackgroundImageFix" result="effect1_dropShadow"/><feBlend in="SourceGraphic" in2="effect1_dropShadow" result="shape"/></filter></defs></svg>