<svg width="160" height="204" viewBox="0 0 160 204" fill="none" xmlns="http://www.w3.org/2000/svg">
<rect width="160" height="204" rx="12" fill="#F2F4F7"/>
<rect x="16" y="16" width="128" height="172" rx="8" fill="#F2F4F7"/>
<rect x="32" y="31" width="30.8257" height="8" rx="4" fill="#98A2B3"/>
<rect x="70.7523" y="31" width="57.2477" height="8" rx="4" fill="#D0D5DD"/>
<rect x="32" y="53" width="96" height="1" fill="#D0D5DD"/>
<rect x="32" y="68" width="30.8257" height="8" rx="4" fill="#98A2B3"/>
<rect x="70.7523" y="68" width="57.2477" height="8" rx="4" fill="#D0D5DD"/>
<rect x="32" y="90" width="96" height="1" fill="#D0D5DD"/>
<rect x="32" y="105" width="25.5413" height="8" rx="4" fill="#98A2B3"/>
<rect x="70.7523" y="105" width="57.2477" height="8" rx="4" fill="#D0D5DD"/>
<rect x="32" y="127" width="96" height="1" fill="#D0D5DD"/>
<rect x="32" y="142" width="30.8257" height="8" rx="4" fill="#98A2B3"/>
<rect x="70.7523" y="142" width="57.2477" height="8" rx="4" fill="#D0D5DD"/>
<rect x="70.7523" y="154" width="49.3211" height="8" rx="4" fill="#D0D5DD"/>
<rect x="70.7523" y="166" width="53.7248" height="8" rx="4" fill="#D0D5DD"/>
</svg>
