<svg xmlns="http://www.w3.org/2000/svg" width="164" height="207" fill="none"><rect width="160" height="204" x="2" y="1" fill="#F2F4F7" rx="12"/><rect width="159" height="203" x="2.5" y="1.5" stroke="#EAECF0" rx="11.5"/><rect width="128" height="172" x="18" y="17" fill="#F2F4F7" rx="8"/><rect width="30.826" height="8" x="34" y="32" fill="#98A2B3" rx="4"/><rect width="57.248" height="8" x="72.752" y="32" fill="#D0D5DD" rx="4"/><path fill="#D0D5DD" d="M34 54h96v1H34z"/><rect width="30.826" height="8" x="34" y="69" fill="#98A2B3" rx="4"/><rect width="57.248" height="8" x="72.752" y="69" fill="#D0D5DD" rx="4"/><path fill="#D0D5DD" d="M34 91h96v1H34z"/><rect width="25.541" height="8" x="34" y="106" fill="#98A2B3" rx="4"/><rect width="57.248" height="8" x="72.752" y="106" fill="#D0D5DD" rx="4"/><path fill="#D0D5DD" d="M34 128h96v1H34z"/><rect width="30.826" height="8" x="34" y="143" fill="#98A2B3" rx="4"/><rect width="57.248" height="8" x="72.752" y="143" fill="#D0D5DD" rx="4"/><rect width="49.321" height="8" x="72.752" y="155" fill="#D0D5DD" rx="4"/><rect width="53.725" height="8" x="72.752" y="167" fill="#D0D5DD" rx="4"/></svg>