<svg width="160" height="204" viewBox="0 0 160 204" fill="none" xmlns="http://www.w3.org/2000/svg">
<rect width="160" height="204" rx="12" fill="#F2F4F7"/>
<rect x="16" y="45" width="128" height="143" rx="8" fill="white"/>
<rect x="32" y="64" width="30.8257" height="8" rx="4" fill="#98A2B3"/>
<rect x="32" y="101" width="25.5413" height="8" rx="4" fill="#98A2B3"/>
<rect x="70.7523" y="64" width="57.2477" height="8" rx="4" fill="#D0D5DD"/>
<rect x="32" y="138" width="30.8257" height="8" rx="4" fill="#98A2B3"/>
<rect x="70.7523" y="101" width="57.2477" height="8" rx="4" fill="#D0D5DD"/>
<rect x="70.7523" y="138" width="57.2477" height="8" rx="4" fill="#D0D5DD"/>
<rect x="70.7523" y="150" width="49.3211" height="8" rx="4" fill="#D0D5DD"/>
<rect x="70.7523" y="162" width="53.7248" height="8" rx="4" fill="#D0D5DD"/>
<rect x="32" y="86" width="96" height="1" fill="#EAECF0"/>
<rect x="32" y="123" width="96" height="1" fill="#EAECF0"/>
<rect x="68" y="16" width="24" height="24" rx="8" fill="white"/>
<circle cx="82.6028" cy="24.0548" r="2.05479" fill="#D0D5DD"/>
<path d="M84.8958 30.9432L85.8367 32.3792C86.449 33.3138 86.7552 33.7812 86.561 34.1405C86.3669 34.4998 85.8082 34.4998 84.6908 34.4998H74.6785C73.7001 34.4998 73.2109 34.4998 73.0094 34.1795C72.808 33.8591 73.02 33.4182 73.444 32.5364L75.8083 27.6185C76.2435 26.7133 76.4611 26.2607 76.8436 26.2224C77.2261 26.1841 77.5291 26.5845 78.1352 27.3855L80.6264 30.6773C81.0681 31.261 81.289 31.5529 81.5999 31.5743C81.9109 31.5957 82.1697 31.3369 82.6873 30.8193L82.7814 30.7253C83.3321 30.1746 83.6074 29.8993 83.9315 29.9327C84.2557 29.9661 84.469 30.2918 84.8958 30.9432Z" fill="#98A2B3"/>
</svg>
