<svg xmlns="http://www.w3.org/2000/svg" width="164" height="207" fill="none"><rect width="160" height="204" x="2" y="1" fill="#F2F4F7" rx="12"/><rect width="159" height="203" x="2.5" y="1.5" stroke="#EAECF0" rx="11.5"/><rect width="128" height="143" x="18" y="46" fill="#fff" rx="8"/><rect width="30.826" height="8" x="34" y="61" fill="#98A2B3" rx="4"/><rect width="35.229" height="8" x="34" y="102" fill="#98A2B3" rx="4"/><rect width="30.826" height="8" x="34" y="143" fill="#98A2B3" rx="4"/><rect width="68.697" height="8" x="34" y="73" fill="#D0D5DD" rx="4"/><rect width="86.312" height="8" x="34" y="114" fill="#D0D5DD" rx="4"/><rect width="96" height="8" x="34" y="155" fill="#D0D5DD" rx="4"/><rect width="68.697" height="8" x="34" y="167" fill="#D0D5DD" rx="4"/><path fill="#EAECF0" d="M34 91h96v1H34zM34 132h96v1H34z"/><rect width="24" height="24" x="70" y="17" fill="#fff" rx="8"/><circle cx="84.603" cy="25.055" r="2.055" fill="#D0D5DD"/><path fill="#98A2B3" d="m86.896 31.943.94 1.436c.613.935.92 1.402.725 1.762-.194.359-.753.359-1.87.359H76.678c-.978 0-1.467 0-1.669-.32-.201-.32.011-.762.435-1.644l2.364-4.918c.435-.905.653-1.357 1.036-1.396.382-.038.685.362 1.291 1.163l2.491 3.292c.442.584.663.876.974.897.31.022.57-.237 1.087-.755l.094-.094c.551-.55.826-.826 1.15-.792.325.033.538.359.965 1.01Z"/></svg>