<svg xmlns="http://www.w3.org/2000/svg" width="164" height="207" fill="none"><rect width="160" height="204" x="2" y="1" fill="#F2F4F7" rx="12"/><rect width="159" height="203" x="2.5" y="1.5" stroke="#EAECF0" rx="11.5"/><rect width="141" height="172" x="12" y="17" fill="#F2F4F7" rx="8"/><rect width="109" height="8" x="28" y="35" fill="#98A2B3" rx="4"/><rect width="104" height="8" x="28" y="51" fill="#98A2B3" rx="4"/><rect width="109" height="8" x="28" y="67" fill="#98A2B3" rx="4"/><rect width="104" height="8" x="28" y="83" fill="#98A2B3" rx="4"/><rect width="109" height="8" x="28" y="99" fill="#98A2B3" rx="4"/><rect width="104" height="8" x="28" y="115" fill="#98A2B3" rx="4"/><rect width="109" height="8" x="28" y="131" fill="#98A2B3" rx="4"/><rect width="98" height="8" x="28" y="147" fill="#98A2B3" rx="4"/><rect width="85" height="8" x="28" y="163" fill="#98A2B3" rx="4"/></svg>