<svg viewBox="0 0 1440 856" fill="none" xmlns="http://www.w3.org/2000/svg">
<circle opacity="0.2" cx="720" cy="592" r="174.757" fill="#4199FD" fill-opacity="0.2" stroke="#3680D3" stroke-width="0.873786" stroke-linecap="round" stroke-linejoin="round"/>
<circle opacity="0.2" cx="720" cy="592" r="216.699" stroke="#3680D3" stroke-width="0.873786" stroke-linecap="round" stroke-linejoin="round"/>
<circle opacity="0.2" cx="720" cy="592" r="258.641" fill="#4199FD" fill-opacity="0.2" stroke="#3680D3" stroke-width="0.873786" stroke-linecap="round" stroke-linejoin="round"/>
<circle opacity="0.2" cx="720" cy="592" r="300.583" fill="#4199FD" fill-opacity="0.2" stroke="#3680D3" stroke-width="0.873786" stroke-linecap="round" stroke-linejoin="round"/>
<circle opacity="0.2" cx="720" cy="592" r="342.524" fill="#4199FD" fill-opacity="0.4" stroke="#3680D3" stroke-width="0.873786" stroke-linecap="round" stroke-linejoin="round"/>
<circle opacity="0.2" cx="720" cy="592" r="384.466" fill="#4199FD" fill-opacity="0.2" stroke="#3680D3" stroke-width="0.873786" stroke-linecap="round" stroke-linejoin="round"/>
<circle opacity="0.2" cx="720" cy="592" r="426.408" fill="#4199FD" fill-opacity="0.2" stroke="#3680D3" stroke-width="0.873786" stroke-linecap="round" stroke-linejoin="round"/>
<circle opacity="0.2" cx="720" cy="592" r="468.35" stroke="#3680D3" stroke-width="0.873786" stroke-linecap="round" stroke-linejoin="round"/>
<path opacity="0.2" d="M1230.29 592C1230.29 873.826 1001.83 1102.29 720 1102.29C438.174 1102.29 209.709 873.826 209.709 592C209.709 310.174 438.174 81.7087 720 81.7087C1001.83 81.7087 1230.29 310.174 1230.29 592Z" fill="#4199FD" fill-opacity="0.2" stroke="#3680D3" stroke-width="0.873786" stroke-linecap="round" stroke-linejoin="round"/>
<circle opacity="0.2" cx="720" cy="592" r="552.233" stroke="#3680D3" stroke-width="0.873786" stroke-linecap="round" stroke-linejoin="round"/>
<circle opacity="0.2" cx="720" cy="592" r="594.175" stroke="#3680D3" stroke-width="0.873786" stroke-linecap="round" stroke-linejoin="round"/>
<circle opacity="0.2" cx="720" cy="592" r="636.117" stroke="#3680D3" stroke-width="0.873786" stroke-linecap="round" stroke-linejoin="round"/>
<circle opacity="0.2" cx="720" cy="592" r="678.058" stroke="#3680D3" stroke-width="0.873786" stroke-linecap="round" stroke-linejoin="round"/>
<circle opacity="0.2" cx="720" cy="592" r="720" stroke="#3680D3" stroke-width="0.873786" stroke-linecap="round" stroke-linejoin="round"/>
</svg>
