<svg xmlns="http://www.w3.org/2000/svg" fill="none" viewBox="0 0 1440 985"><mask id="b" width="1440" height="985" x="0" y="0" maskUnits="userSpaceOnUse" style="mask-type:alpha"><path fill="url(#a)" fill-opacity=".8" d="M0 0h1440v985H0z"/></mask><g stroke="#3680D3" stroke-linecap="round" stroke-linejoin="round" stroke-width=".874" mask="url(#b)"><circle cx="720" cy="720.999" r="174.757" fill="#4199FD" fill-opacity=".2" opacity=".2"/><circle cx="720" cy="721" r="216.699" opacity=".2"/><circle cx="720" cy="721" r="258.641" fill="#4199FD" fill-opacity=".2" opacity=".2"/><circle cx="720" cy="721" r="300.583" fill="#4199FD" fill-opacity=".2" opacity=".2"/><circle cx="720" cy="721.001" r="342.524" fill="#4199FD" fill-opacity=".4" opacity=".2"/><circle cx="720" cy="720.999" r="384.466" fill="#4199FD" fill-opacity=".2" opacity=".2"/><circle cx="720" cy="721" r="426.408" fill="#4199FD" fill-opacity=".2" opacity=".2"/><circle cx="720" cy="721" r="468.35" opacity=".2"/><path fill="#4199FD" fill-opacity=".2" d="M1230.29 721c0 281.83-228.46 510.29-510.29 510.29-281.826 0-510.291-228.46-510.291-510.29 0-281.826 228.465-510.291 510.291-510.291 281.83 0 510.29 228.465 510.29 510.291Z" opacity=".2"/><circle cx="720" cy="721.001" r="552.233" opacity=".2"/><circle cx="720" cy="721.001" r="594.175" opacity=".2"/><circle cx="720" cy="720.999" r="636.117" opacity=".2"/><circle cx="720" cy="721" r="678.058" opacity=".2"/><circle cx="720" cy="721" r="720" opacity=".2"/></g><defs><radialGradient id="a" cx="0" cy="0" r="1" gradientTransform="matrix(0 976.343 -1567.31 0 720 8.657)" gradientUnits="userSpaceOnUse"><stop stop-color="#D9D9D9"/><stop offset=".757" stop-color="#D9D9D9" stop-opacity="0"/></radialGradient></defs></svg>