<svg xmlns="http://www.w3.org/2000/svg" width="204" height="204" fill="none"><path fill="#F6F7FB" d="m131.82 36.53.23.4c.26.47.64.85 1.1 1.1l.42.22-.41.23c-.47.25-.85.63-1.1 1.1l-.24.4-.22-.4a2.77 2.77 0 0 0-1.1-1.1l-.41-.23.4-.22a2.8 2.8 0 0 0 1.11-1.1l.23-.4zM46.01 18.08l.23.4c.25.47.63.85 1.1 1.1l.4.23-.4.22a2.76 2.76 0 0 0-1.1 1.1l-.23.4-.23-.4a2.76 2.76 0 0 0-1.1-1.1l-.4-.22.4-.23c.46-.25.85-.63 1.1-1.1l.23-.4zm134.83 44.84.23.41c.26.47.64.84 1.1 1.1l.41.22-.4.22c-.47.25-.85.63-1.11 1.1l-.23.4-.23-.4a2.76 2.76 0 0 0-1.1-1.1l-.4-.22.4-.23a2.76 2.76 0 0 0 1.1-1.09l.23-.4zM13.12 91.32l.23.42c.25.46.64.84 1.1 1.1l.41.22-.4.22a2.8 2.8 0 0 0-1.11 1.1l-.23.4-.23-.4a2.74 2.74 0 0 0-1.09-1.1l-.4-.22.4-.23c.47-.25.85-.63 1.1-1.09l.22-.41zm78.04-74.5.41.71a4.75 4.75 0 0 0 1.89 1.89l.71.4-.71.4a4.75 4.75 0 0 0-1.89 1.88l-.4.71-.4-.7a4.75 4.75 0 0 0-1.88-1.9l-.71-.4.7-.42a4.75 4.75 0 0 0 1.9-1.88l.38-.7zM38.17 51.74l.41.7a4.78 4.78 0 0 0 1.89 1.9l.7.4-.7.39a4.78 4.78 0 0 0-1.9 1.89l-.4.71-.39-.71a4.75 4.75 0 0 0-1.88-1.89l-.71-.39.7-.4a4.75 4.75 0 0 0 1.9-1.9l.38-.7zm131.94-23.62.11.2c.13.23.32.42.55.55l.2.11-.2.12a1.36 1.36 0 0 0-.55.54l-.11.2-.11-.2a1.38 1.38 0 0 0-.55-.54l-.2-.12.2-.11c.23-.13.42-.32.55-.55l.1-.2zM16.38 60.82l.12.21c.12.23.31.42.55.55l.2.11-.2.11c-.24.13-.42.32-.55.55l-.12.2-.1-.2a1.4 1.4 0 0 0-.55-.55l-.21-.1.2-.12c.24-.13.44-.32.57-.55l.1-.2zM183 126c0 45.29-38.21 61.5-83.5 61.5S19 171.29 19 126a82 82 0 1 1 164 0z"/><path fill="#fff" d="M144.9 106.9h50.7s-4.49-8.16-17.54-6.97c-12.47 1.13-13.1-4.02-19.44-4.65-6.33-.63-11.6 4.24-13.72 11.62zM8.16 117.37h32.4s-2.87-5.21-11.22-4.46c-7.97.73-8.37-2.56-12.42-2.97-4.05-.4-7.43 2.7-8.76 7.43z"/><path fill="#263238" d="M182.1 187.68c0 .06-36.2.1-80.82.1s-80.82-.04-80.82-.1c0-.06 36.17-.1 80.82-.1 44.65 0 80.81.05 80.81.1z"/><path fill="#585C6B" d="M161.77 40.26a6.76 6.76 0 1 0-13.52-.5 6.76 6.76 0 0 0 13.52.5z"/><path fill="#263238" d="M157.2 37.4a1.1 1.1 0 1 1 2.21.05 1.1 1.1 0 0 1-2.2-.04zm2.2 2.6a.65.65 0 0 1 .42-.6.64.64 0 0 1 .87.5.64.64 0 0 1-.3.65.65.65 0 0 1-.98-.56zm-.85 1.96a.24.24 0 0 1 .16.4.24.24 0 0 1-.16.08.23.23 0 0 1-.23-.24.23.23 0 0 1 .23-.24z"/><path fill="#585C6B" d="m151.4 81.38.22.41c.26.48.66.87 1.13 1.13l.4.23-.4.23a2.8 2.8 0 0 0-1.12 1.13l-.24.4-.23-.4a2.77 2.77 0 0 0-1.13-1.13l-.4-.23.4-.23a2.8 2.8 0 0 0 1.13-1.13l.23-.4zM60.24 45.97l.41.73a4.9 4.9 0 0 0 1.95 1.95l.73.4-.73.41a4.9 4.9 0 0 0-1.95 1.95l-.4.73-.41-.73a4.9 4.9 0 0 0-1.95-1.95l-.73-.4.73-.41a4.9 4.9 0 0 0 1.95-1.95l.4-.73zM34.17 21.85l.15.27c.16.3.41.56.71.73l.27.14-.26.15a1.79 1.79 0 0 0-.72.72l-.15.27-.15-.27a1.79 1.79 0 0 0-.72-.72l-.25-.15.27-.15c.3-.17.55-.42.71-.72l.13-.27zm40.95 114.76.08.13a.92.92 0 0 0 .36.36l.13.07-.13.08a.95.95 0 0 0-.36.36l-.08.13-.07-.13a.92.92 0 0 0-.36-.36l-.13-.08.13-.07a.89.89 0 0 0 .36-.36l.08-.13zm-14.8-49.2.08.14c.08.15.2.27.36.35l.13.08-.13.07a.92.92 0 0 0-.36.36l-.07.13-.08-.13a.9.9 0 0 0-.36-.36l-.13-.07.13-.08a.9.9 0 0 0 .36-.36l.08-.13zm119.46-13.76.07.13a.9.9 0 0 0 .36.36l.14.07-.14.08a.9.9 0 0 0-.36.36l-.07.13-.07-.13a.9.9 0 0 0-.36-.36l-.14-.08.14-.07a.9.9 0 0 0 .36-.36l.07-.13zm-155.44-.62.15.27c.17.3.42.55.72.72l.27.15-.27.14c-.3.17-.56.42-.73.73l-.15.27-.15-.27a1.79 1.79 0 0 0-.72-.71l-.27-.15.27-.15c.3-.16.56-.41.72-.72l.16-.28zm112.07 59.98.15.27c.16.3.4.55.71.72l.27.14-.27.15c-.3.16-.55.41-.71.72l-.15.27-.15-.27a1.81 1.81 0 0 0-.72-.72l-.27-.15.27-.14a1.81 1.81 0 0 0 .72-.72l.15-.27zM130.08 21l.41.73a4.9 4.9 0 0 0 1.94 1.95l.73.4-.73.41a4.9 4.9 0 0 0-1.94 1.95l-.4.72-.41-.73a4.89 4.89 0 0 0-1.95-1.94l-.73-.4.73-.41a4.89 4.89 0 0 0 1.95-1.95l.4-.73zM42.4 96.61a8.85 8.85 0 0 1-3-15.61 8.84 8.84 0 1 0 8.75 15.21 8.8 8.8 0 0 1-5.75.4z"/><path fill="#263238" d="M40.01 144.06a.79.79 0 0 1 .24-.03c.24 0 .47.05.68.15.35.17.66.42.9.73.31.42.56.89.74 1.39.43 1.12.64 2.59.87 4.3a57.79 57.79 0 0 1 .54 5.88c.1.33.32.72.68.75a1 1 0 0 0 .52-.17c.17-.1.34-.21.5-.33.34-.24.7-.46 1.07-.65a1.75 1.75 0 0 1 1.28-.21 1.63 1.63 0 0 1 .94.97c.14.44.17.92.07 1.38-.15.93-.62 1.78-.98 2.67-.36.89-.77 1.8-1.17 2.73l-.6 1.42-.32.71a1.37 1.37 0 0 0-.12.36.59.59 0 0 0 .03.33c.08.2.36.16.6.05l.73-.33c.5-.23 1-.43 1.53-.6a5.36 5.36 0 0 1 1.66-.29c.3 0 .6.07.86.2.27.15.49.38.61.66.21.56.24 1.17.08 1.75a9.08 9.08 0 0 1-.55 1.68 22.27 22.27 0 0 1-1.71 3.16 4.62 4.62 0 0 0-.45.76.46.46 0 0 0 0 .37.3.3 0 0 0 .05.08c0 .02.05.07.05.05a.23.23 0 0 0 .15 0 12.12 12.12 0 0 0 1.6-.86c.55-.32 1.12-.6 1.7-.81.31-.12.64-.18.96-.2a1.2 1.2 0 0 1 .95.35c.23.26.36.6.36.94a4 4 0 0 1-.1.98 8.23 8.23 0 0 1-.67 1.85 16.72 16.72 0 0 1-2.18 3.3 27.5 27.5 0 0 1-2.8 2.9c-.5.45-1.03.86-1.57 1.25l-1.64 1.27-.05.03-.05-.02-1.91-.74a19.06 19.06 0 0 1-1.88-.77 27.42 27.42 0 0 1-3.5-1.99 16.68 16.68 0 0 1-3.05-2.54 7.88 7.88 0 0 1-1.17-1.57 3.82 3.82 0 0 1-.38-.91 1.4 1.4 0 0 1 .08-1 1.23 1.23 0 0 1 .81-.62c.32-.07.65-.1.97-.08a10.19 10.19 0 0 1 1.87.3 12 12 0 0 0 1.8.37.3.3 0 0 0 .14-.03s.02-.05.03-.07a.37.37 0 0 0 .03-.09.47.47 0 0 0-.1-.35 4.24 4.24 0 0 0-.66-.6 22.7 22.7 0 0 1-2.55-2.54 9 9 0 0 1-1.01-1.45 2.86 2.86 0 0 1-.41-1.7c.03-.31.18-.6.4-.82a2 2 0 0 1 .77-.43 5.37 5.37 0 0 1 1.68-.2c.54 0 1.09.05 1.63.13l.81.1c.25.04.53 0 .55-.21a.64.64 0 0 0-.07-.33 1.48 1.48 0 0 0-.22-.3 28.31 28.31 0 0 0-.5-.6l-.99-1.19-1.9-2.28c-.6-.75-1.3-1.43-1.7-2.28a2.7 2.7 0 0 1-.34-1.34 1.63 1.63 0 0 1 .62-1.2 1.74 1.74 0 0 1 1.28-.14c.41.08.82.19 1.22.32a7.3 7.3 0 0 0 .58.16.98.98 0 0 0 .54 0c.34-.12.44-.56.44-.91a57.55 57.55 0 0 1-1.18-5.78 21.53 21.53 0 0 1-.4-4.35 5.17 5.17 0 0 1 .3-1.55c.13-.36.34-.7.61-.96.18-.17.38-.29.6-.36a.86.86 0 0 1 .25-.04 1.45 1.45 0 0 0-.82.41c-.27.27-.47.6-.6.96a5.25 5.25 0 0 0-.27 1.53c0 1.46.14 2.91.43 4.34a58.3 58.3 0 0 0 1.18 5.82c0 .2-.03.4-.1.59a.76.76 0 0 1-.4.46c-.21.06-.43.06-.63 0a7.26 7.26 0 0 1-.59-.17 10.4 10.4 0 0 0-1.2-.32 1.63 1.63 0 0 0-1.17.15 1.5 1.5 0 0 0-.55 1.09c-.01.44.1.88.3 1.26.42.82 1.1 1.49 1.7 2.24l1.91 2.28 1 1.18.5.6a1.03 1.03 0 0 1 .32.77.4.4 0 0 1-.3.35c-.15.03-.3.03-.44 0l-.81-.1a15.37 15.37 0 0 0-1.64-.13 5.14 5.14 0 0 0-1.63.2 1.36 1.36 0 0 0-1.03 1.08c-.04.56.1 1.11.4 1.58.29.5.62.98 1 1.42a22.19 22.19 0 0 0 2.53 2.51c.25.19.48.4.68.64a.66.66 0 0 1 .15.5.7.7 0 0 1-.04.13.33.33 0 0 1-.08.13.38.38 0 0 1-.28.1 11.24 11.24 0 0 1-1.85-.37 10.38 10.38 0 0 0-1.82-.3 3.06 3.06 0 0 0-.91.08 1.02 1.02 0 0 0-.68.5c-.12.27-.14.58-.05.86.08.3.2.6.35.86a7.86 7.86 0 0 0 1.15 1.54c.9.95 1.9 1.79 3 2.5a28.15 28.15 0 0 0 3.48 1.97c.61.29 1.23.55 1.87.77l1.9.74h-.1.03l1.6-1.26a20.01 20.01 0 0 0 1.57-1.29 27.38 27.38 0 0 0 2.76-2.88 16.45 16.45 0 0 0 2.16-3.27c.3-.57.51-1.17.65-1.8.08-.3.1-.61.1-.92 0-.3-.1-.6-.3-.82a1.01 1.01 0 0 0-.8-.28 3.1 3.1 0 0 0-.88.18c-.58.22-1.14.5-1.67.81-.53.34-1.08.63-1.66.88a.4.4 0 0 1-.3 0 .4.4 0 0 1-.11-.1.64.64 0 0 1-.07-.64 4.4 4.4 0 0 1 .47-.81c.65-1 1.22-2.04 1.7-3.13a9.01 9.01 0 0 0 .55-1.63 2.67 2.67 0 0 0-.07-1.64 1.37 1.37 0 0 0-1.3-.74 5.12 5.12 0 0 0-1.6.27c-.52.17-1.03.37-1.52.6l-.74.32a1.07 1.07 0 0 1-.4.1.4.4 0 0 1-.42-.24 1.02 1.02 0 0 1 .1-.81l.3-.72.62-1.41 1.17-2.74c.37-.9.82-1.73.98-2.62a2.56 2.56 0 0 0-.06-1.3 1.5 1.5 0 0 0-.82-.89 1.63 1.63 0 0 0-1.18.2c-.36.19-.7.4-1.05.64-.17.11-.33.23-.5.33a1.08 1.08 0 0 1-.6.18.73.73 0 0 1-.54-.31 1.6 1.6 0 0 1-.26-.54c-.07-2.2-.3-4.16-.51-5.87-.21-1.7-.4-3.17-.82-4.28a5.34 5.34 0 0 0-.72-1.39 2.53 2.53 0 0 0-.87-.72 1.5 1.5 0 0 0-.93-.17z"/><path fill="#263238" d="M46.37 187.76c-.58-3.76-1.9-12.53-2.7-18.28-.81-5.75-1.55-10.96-2.1-14.73l-.65-4.46-.18-1.22-.05-.31v-.11.1c0 .07.04.18.06.32l.2 1.22.7 4.45c.57 3.77 1.31 8.98 2.12 14.72.8 5.75 2.11 14.52 2.66 18.29"/><path fill="#263238" d="m38.09 159.34.2.14.54.4c.44.37 1.04.88 1.69 1.47l1.65 1.5.5.44.19.18a1.43 1.43 0 0 1-.21-.14l-.53-.4a75.2 75.2 0 0 1-1.68-1.48l-1.68-1.48-.5-.44a1.05 1.05 0 0 1-.17-.19zm5.06 4.01c-.02-.02.98-1.3 2.25-2.85a60.04 60.04 0 0 1 2.35-2.8c.02.03-.99 1.31-2.25 2.86a62.82 62.82 0 0 1-2.35 2.8zm.84 8.9c.06-.07.13-.12.2-.16l.57-.41c.48-.34 1.14-.8 1.85-1.34.7-.53 1.33-1.04 1.79-1.4l.53-.44c.06-.06.13-.1.2-.15 0 0-.05.07-.17.18l-.51.47a29.57 29.57 0 0 1-4.24 3.11.96.96 0 0 1-.22.13zm-5.38-2.63a.9.9 0 0 1 .22.08l.59.26a98.42 98.42 0 0 1 4.38 2.09 1 1 0 0 1 .2.11.81.81 0 0 1-.22-.07l-.59-.26a105.28 105.28 0 0 1-3.8-1.8l-.58-.29a1.02 1.02 0 0 1-.2-.12zm-.26 7.94c.1.03.2.06.28.1l.75.33 2.45 1.11 2.45 1.15.73.36c.1.04.19.09.27.15a1.18 1.18 0 0 1-.28-.11l-.76-.33c-.63-.27-1.5-.66-2.44-1.11-.95-.45-1.83-.84-2.45-1.14l-.74-.36a1.6 1.6 0 0 1-.26-.15zm6.8 3.07c.07-.07.16-.14.25-.2l.7-.53a102.68 102.68 0 0 0 2.3-1.76 95.82 95.82 0 0 0 2.23-1.84l.66-.57a1.43 1.43 0 0 1 .26-.2 16.37 16.37 0 0 1-.87.82 49.53 49.53 0 0 1-4.53 3.62 26.95 26.95 0 0 1-1 .66z"/><path fill="#F5F5F5" d="m192.08 55.54-17.54 2.14 3.17 26.02 17.53-2.13-3.16-26.03z"/><path fill="#E0E0E0" d="M195.04 81.69a1.99 1.99 0 0 1-.27-.22l-.72-.65-2.63-2.41-8.62-8.06-.07-.07.05-.08.12-.2 6.3-10.16 1.94-3.07.54-.83c.05-.1.12-.2.2-.28a1.74 1.74 0 0 1-.16.3l-.5.86-1.87 3.1-6.26 10.21-.12.2-.02-.15 8.59 8.1 2.58 2.48.69.68c.09.07.16.15.23.25z"/><path fill="#E0E0E0" d="M174.34 57.8c.03-.06 2.66 1.62 5.9 3.71a87.5 87.5 0 0 1 5.77 3.92c-.04.05-2.67-1.63-5.9-3.72a87.74 87.74 0 0 1-5.77-3.92zm12.94 16.26c.05.04-2.1 2.27-4.8 4.96a90.65 90.65 0 0 1-5 4.8c-.07-.03 2.1-2.26 4.8-4.95 2.7-2.7 4.96-4.86 5-4.81z"/><path fill="#5DA9FE" d="m53.94 107.99 98.46-.92 2.88 66.93-101.95-.73.61-65.28z"/><path fill="#5DA9FE" d="m53.94 108 46.51-37.8a5.36 5.36 0 0 1 6.77 0l45.17 36.88"/><path fill="#000" d="m53.94 108 46.51-37.8a5.36 5.36 0 0 1 6.77 0l45.17 36.88" opacity=".3"/><path fill="#263238" d="M53.33 173.26c-.12-.12 7.74-8.74 17.56-19.26 9.83-10.52 17.9-18.93 18.02-18.83.12.1-7.74 8.74-17.57 19.26-9.83 10.52-17.88 18.95-18 18.83zm101.95.74c-.12.12-7.81-8.33-17.18-18.8-9.36-10.45-16.85-19.08-16.73-19.2.13-.1 7.82 8.33 17.19 18.8s16.85 19.09 16.72 19.2z"/><path fill="#000" d="m152.4 107.07-49.36 39.6-49.1-38.68" opacity=".5"/><path fill="#FAFAFA" d="m58.91 111.64-.22-30.75 86.21-1.2 1.04 32.35-42.9 34.1-44.13-34.5z"/><path fill="#263238" d="m58.91 111.64.82.6 2.35 1.82L71 121c7.69 6 18.74 14.58 32.12 25.05h-.18l42.88-34.13-.07.14-.61-19.23-.43-13.12.18.17-86.2 1.14.1-.12c.05 9.67.1 17.35.11 22.62v6.06c0-1.38-.04-3.4-.07-6.02l-.21-22.66v-.11h.1l86.17-1.25h.18v.18l.42 13.11.61 19.24v.09l-.07.05-42.93 34.09-.09.08-.09-.08-32.08-25.18-8.86-6.98-2.31-1.83-.77-.67z"/><path fill="#263238" d="M131.31 95.2c0 .1-13.19.28-29.45.42-16.25.13-29.44.16-29.44.06s13.19-.29 29.44-.43c16.26-.13 29.45-.16 29.45-.05zm.01 8.68c0 .1-13.19.3-29.44.43s-29.44.16-29.44.05c0-.1 13.19-.28 29.44-.41 16.26-.14 29.44-.16 29.44-.07zm.03 10.01c0 .1-13.2.3-29.44.43-16.26.13-29.45.16-29.45.05 0-.1 13.19-.28 29.45-.41 16.25-.13 29.44-.16 29.44-.07zm.02 10.02c0 .1-12.58.28-28.1.4-15.5.13-28.09.16-28.09.05s12.58-.28 28.1-.4c15.52-.13 28.09-.15 28.09-.05zm-11 8.8c-.11.04-.23.05-.35.05l-.99.04-3.64.09-12.01.22c-4.7.08-8.95.11-12.03.11h-4.63a1.35 1.35 0 0 1-.34-.03c.1-.03.23-.05.34-.04l.99-.05 3.64-.09 12.02-.21c4.7-.1 8.94-.12 12.02-.12h4.63c.12 0 .24.01.35.03zm-11.1 8.47a53.18 53.18 0 0 1-6.25.2 53.6 53.6 0 0 1-6.25-.17 55.2 55.2 0 0 1 6.25-.2 55.43 55.43 0 0 1 6.24.17z"/><path fill="#EBEBEB" d="M154.45 168.36a9.73 9.73 0 0 0-4.17-1.44c-.68-.07-1.43-.05-1.98.37a.42.42 0 0 0-.2.36.46.46 0 0 0 .19.24 5.98 5.98 0 0 0 6.17.47m-.12-.12a20.27 20.27 0 0 1-2.7-2.37 6.8 6.8 0 0 1-1.69-3.13 1.26 1.26 0 0 1 .13-1.05c2.16 1.68 3.85 3.85 4.26 6.55z"/><path fill="#EBEBEB" d="M154.43 168.34a9.69 9.69 0 0 1 .05-3.54 4.79 4.79 0 0 1 1.89-2.93c.37.87.21 1.88-.05 2.78a13.47 13.47 0 0 1-1.87 3.95m2.1 3.54a6.2 6.2 0 0 0-3.36 1.7 6.33 6.33 0 0 0-1.92 3.3c1.26-.08 2.32-.97 3.09-1.96.76-1 1.3-2.09 2.16-3.02m.48.57a8.28 8.28 0 0 1 .95-7.82c.73 2.6.47 5.53-.95 7.82zm2.79 3.32a6 6 0 0 0-5.72 3.3.44.44 0 0 0-.04.45.44.44 0 0 0 .38.1 4.99 4.99 0 0 0 2.95-1.52c.82-.77 1.54-1.66 2.45-2.33m-.11-.18a10.63 10.63 0 0 1-.1-5.95c.2-.76.55-1.57 1.26-1.93a.26.26 0 0 1 .2-.03.26.26 0 0 1 .12.14c.24.53.35 1.12.3 1.7a10.62 10.62 0 0 1-.26 1.73c-.22 1.06-.34 2.2-.92 3.1-.14.23-.26.45-.37.69-.11.23-.11.3-.21.5m7.36 1.15a7.68 7.68 0 0 1 1.35-6.3c.1-.13.22-.27.38-.25.24.02.3.34.3.59a11.38 11.38 0 0 1-2.01 5.96m.65.46a9.18 9.18 0 0 0 7.53-1.55 6.1 6.1 0 0 0-4.08-.5c-1.36.31-2.6.93-3.45 2.03m.56-1.37a8.71 8.71 0 0 1 6.83-3.95 4.18 4.18 0 0 1-2.23 2.47 12.47 12.47 0 0 1-3.29.98c-.43.08-1.03.17-1.31.52m-1.09-6.74c.43-1.3.73-2.65.88-4.01a6.66 6.66 0 0 0-.8-3.96 8.72 8.72 0 0 0-.12 8.1m4.5-2.38c1.54-2.8 4.7-5.05 7.89-5.37-1.24 3.07-4.6 5.44-7.9 5.37zm-.98.55c2.3.35 4.27 1.83 6.43 2.72.45.22.95.31 1.45.28a1.13 1.13 0 0 0 1.06-.76 1.14 1.14 0 0 0-.35-1.26 3.12 3.12 0 0 0-1.05-.64c-2.35-.97-4.87-1-7.34-.4"/><path fill="#EBEBEB" d="M169.37 169.24c.52.15.7.42 1.11.77a12.01 12.01 0 0 0 4.87 2.5c.19.05.43.07.53-.1.09-.17-.03-.32-.13-.46a6.74 6.74 0 0 0-2.94-2c-1.13-.41-2.1-.92-3.45-.8m-1.49-9.66a9.23 9.23 0 0 0 7.08 2.4c.11 0 .22-.04.3-.11.18-.2-.03-.5-.24-.66a8.14 8.14 0 0 0-7.15-1.63"/><path fill="#EBEBEB" d="M169.65 158.82a9.85 9.85 0 0 1 8.82-1.46 7.02 7.02 0 0 1-4.2 1.85 13.3 13.3 0 0 1-4.64-.39m-.7-4.5c-.2-2.07-.06-3.7-.21-5.79 0-.17-.05-.37-.2-.43-.22-.08-.4.19-.47.4a6.65 6.65 0 0 0 .88 5.78"/><path fill="#EBEBEB" d="M168.8 154.55a12.14 12.14 0 0 0 3.44-3.34c.68-.93 1.23-2.04 1.1-3.18a3.29 3.29 0 0 0-2.48 1.23 6.9 6.9 0 0 0-1.26 2.54c-.27.93-.47 1.85-.79 2.75m3.35-.93a27.7 27.7 0 0 0 8.46-4.99c-1-.4-2.16-.16-3.18.25a10.02 10.02 0 0 0-5.32 4.72m-2.4 2.1c1.56.21 3.14.22 4.7.02 1.53-.26 2.97-.86 4.39-1.46a.5.5 0 0 0 .3-.23.34.34 0 0 0-.1-.37.93.93 0 0 0-.37-.18 8.14 8.14 0 0 0-4.74.29 22.02 22.02 0 0 0-4.17 1.92zm-8.9 3.84a8.3 8.3 0 0 1-.08-6.87c.65.98.73 2.24.62 3.41-.11 1.18-.48 2.39-.5 3.57m-4.3-2.25a9.56 9.56 0 0 0-7.12 3.03 6.65 6.65 0 0 0 3.9-.72 19.87 19.87 0 0 0 3.34-2.24m-2.97-1.03c-1.3-.1-2.56-.27-3.81.12a4.56 4.56 0 0 0-2.9 2.47 6.88 6.88 0 0 0 3.56-.68 20.68 20.68 0 0 0 3.14-1.9m4.24.03a11.72 11.72 0 0 0-3.73-1.85c-1.37-.3-2.95-.08-3.9.93 1.1.64 2.44.72 3.7.72 1.27 0 2.86-.01 4.06.41"/><path fill="#EBEBEB" d="M157.95 156.54c-2-1.96-2.76-5.5-1.96-8.18a12.46 12.46 0 0 1 1.96 8.18zm5.5-5.56c.38-.88.64-1.8.98-2.7a7.78 7.78 0 0 1 1.4-2.46 3.68 3.68 0 0 1 2.47-1.29 9.98 9.98 0 0 1-4.81 6.49m-1.04 1.11c-.61-.85-1.34-2.02-2.19-2.66a3.67 3.67 0 0 0-2.98-.79 6.95 6.95 0 0 0 5.17 3.45zm.2-1.08a14.73 14.73 0 0 1-.98-3.2 4.99 4.99 0 0 1 .5-3.25c1.1 2.08 1.45 4.32.54 6.48m.75-6.48c.62-2.06 2.5-3.58 4.54-4.27.25-.1.53-.14.8-.12a.69.69 0 0 1 .58.5c.08.34-.21.65-.48.89a15.47 15.47 0 0 1-5.44 3zm.02-1.68c.08-1.33.17-2.67.6-3.93a4.96 4.96 0 0 1 2.46-2.99c.21 1.34-.38 2.67-1.1 3.83-.7 1.15-1.57 2.24-2 3.52m.01.48c-.52-1.5-.57-3.4-1.47-4.71-.61-.93-1.63-1.55-2.16-2.5a3.83 3.83 0 0 0 .13 2.84c.4.88.97 1.69 1.66 2.37.67.71 1.24 1.24 1.86 2"/><path fill="#263238" d="M163.46 188c-.04 0-.07-10-.08-22.34 0-12.34.03-22.35.07-22.35.04 0 .08 10 .08 22.35 0 12.35-.03 22.35-.07 22.35z"/><path fill="#263238" d="M172.2 158.03a2.45 2.45 0 0 1-.38.14l-1.04.35c-.87.31-2.07.73-3.37 1.26-1.3.53-2.5 1-3.2 1.6a2.35 2.35 0 0 0-.64.86c-.1.23-.12.37-.13.37v-.1c.02-.1.04-.2.08-.3.12-.34.34-.65.61-.9a5.57 5.57 0 0 1 1.39-.86c.55-.26 1.17-.53 1.82-.8a47.7 47.7 0 0 1 3.4-1.24l1.05-.3c.13-.04.27-.07.4-.08z"/><path fill="#263238" d="M175.07 150.99a.53.53 0 0 1-.1.11l-.31.31-1.2 1.09-4 3.55a65.47 65.47 0 0 0-4.91 4.9l-.3.34a.65.65 0 0 1-.1.1s.02-.04.08-.12l.27-.35c.24-.3.6-.72 1.06-1.23a50.7 50.7 0 0 1 3.81-3.75 687.7 687.7 0 0 1 4.01-3.52l1.24-1.06.34-.28a.6.6 0 0 1 .11-.09z"/><path fill="#263238" d="M167.78 157.45c-.05-.01.28-.76.61-1.71.34-.96.48-1.75.52-1.75a5.94 5.94 0 0 1-.38 1.8c-.14.4-.3.8-.49 1.2a1.97 1.97 0 0 1-.27.46zm-4.31 6.06a1.8 1.8 0 0 1-.24-.28l-.62-.78a334.92 334.92 0 0 0-2.03-2.6c-.8-1.01-1.54-1.91-2.07-2.57l-.62-.78a2.12 2.12 0 0 1-.21-.3c.1.07.18.16.26.25l.66.75a97.91 97.91 0 0 1 2.1 2.55 67.12 67.12 0 0 1 2.58 3.44c.08.1.14.21.19.32z"/><path fill="#263238" d="M161.55 161.05a3.5 3.5 0 0 1-.8-1.5 4.36 4.36 0 0 1-.19-1.52h.07l-.06.18c-.02 0 0-.07 0-.2h.06a7.1 7.1 0 0 0 .92 3.04zm-2.47-3.1a2.83 2.83 0 0 0-.57-.33 3.76 3.76 0 0 0-1.54-.13 9.57 9.57 0 0 0-1.57.26 5.04 5.04 0 0 1-.64.15c.19-.11.4-.2.61-.25a7.18 7.18 0 0 1 1.59-.31 3.4 3.4 0 0 1 1.6.17 1 1 0 0 1 .52.43zm-.59-.77c0 .02-.33-.13-.86-.3a8.64 8.64 0 0 0-4.32-.34c-.56.1-.9.2-.9.18a.83.83 0 0 1 .23-.1c.2-.07.43-.13.65-.18a7.68 7.68 0 0 1 4.38.34 5.55 5.55 0 0 1 .82.4zm4.96-3.19a17.09 17.09 0 0 1-.62-2.18 17.23 17.23 0 0 1-.49-2.2c.26.7.46 1.43.62 2.17.21.73.37 1.46.49 2.21z"/><path fill="#263238" d="M163.49 154a11.06 11.06 0 0 0-.7-1.31 5.86 5.86 0 0 0-1.02-1.06.97.97 0 0 1 .4.2c.29.22.54.48.74.78.31.4.51.88.58 1.38zm-.03 28.67c-.02 0-.05-.24-.16-.66a9.32 9.32 0 0 0-.67-1.74 23.97 23.97 0 0 0-3.54-5c-.8-.9-1.57-1.75-2.22-2.57a18.19 18.19 0 0 1-1.58-2.28 11.27 11.27 0 0 1-.8-1.7 7.64 7.64 0 0 1-.15-.48.93.93 0 0 1-.05-.17s.09.23.25.63c.24.58.52 1.13.84 1.67a19.57 19.57 0 0 0 1.6 2.25c.65.8 1.42 1.65 2.21 2.56 1.6 1.8 2.86 3.61 3.54 5.05a8.46 8.46 0 0 1 .61 1.76l.1.5a.94.94 0 0 1 .02.18zm7.9-8.92a4.45 4.45 0 0 1-.4.24 9.36 9.36 0 0 0-1.07.71c-.5.4-.98.83-1.41 1.3a28.49 28.49 0 0 0-1.53 1.77c-1.04 1.3-2.02 2.47-2.6 3.4-.3.46-.51.84-.65 1.11a3.52 3.52 0 0 1-.23.42s0-.04.04-.12l.14-.32c.18-.4.39-.78.62-1.14a36.53 36.53 0 0 1 2.57-3.42 25.43 25.43 0 0 1 1.54-1.79c.45-.46.93-.89 1.45-1.27a7.81 7.81 0 0 1 1.1-.68l.31-.14.12-.07z"/><path fill="#263238" d="M171.52 176.64a6.02 6.02 0 0 1-.87.13c-.7.08-1.4.21-2.07.41a6.13 6.13 0 0 0-1.85.98c-.43.33-.64.62-.66.58a.74.74 0 0 1 .13-.2c.14-.17.3-.32.46-.46a5.6 5.6 0 0 1 1.88-1.04 9.23 9.23 0 0 1 2.1-.37 4.75 4.75 0 0 1 .88-.03z"/><path fill="#263238" d="M166.31 178.42c-.04-.02.35-.61.66-1.43.3-.83.35-1.55.4-1.53a1.42 1.42 0 0 1 0 .47 5.25 5.25 0 0 1-.26 1.1 5.4 5.4 0 0 1-.5 1.02c-.17.24-.28.39-.3.37zm7.61-12.45a1.13 1.13 0 0 1-.14.07l-.41.19a7.96 7.96 0 0 0-.65.3c-.24.14-.53.27-.83.45l-.48.27-.5.3c-.36.22-.7.49-1.08.75a20.2 20.2 0 0 0-2.26 1.99 20.59 20.59 0 0 0-1.91 2.32c-.26.39-.5.75-.7 1.11l-.32.51c-.1.17-.17.34-.25.49-.17.3-.3.6-.41.85-.12.26-.22.47-.29.66l-.17.41a.69.69 0 0 1-.07.15.53.53 0 0 1 .04-.16l.15-.42a9 9 0 0 1 .26-.67c.12-.26.23-.55.4-.87l.24-.49.31-.52c.2-.37.45-.73.7-1.12a19.48 19.48 0 0 1 1.92-2.35 20.08 20.08 0 0 1 2.28-2c.38-.26.74-.52 1.1-.73.17-.1.34-.22.5-.3l.5-.27c.3-.18.59-.31.84-.42.22-.11.44-.2.66-.29l.42-.16a.47.47 0 0 1 .15-.05z"/><path fill="#263238" d="M167.67 170.16a1.01 1.01 0 0 1 .34-.5 2.18 2.18 0 0 1 1.39-.54 3.8 3.8 0 0 1 2 .55 3.2 3.2 0 0 1-.58-.17 4.34 4.34 0 0 0-1.42-.23 2.25 2.25 0 0 0-1.32.46c-.15.13-.29.28-.41.43zm-.94.97c.42-.8.53-1.74.31-2.62a.84.84 0 0 1 .16.38 2.63 2.63 0 0 1-.22 1.9c-.13.23-.23.35-.25.34z"/><path fill="#F5F5F5" d="M8.19 26 2 52.8l39.75 9.17 6.18-26.8L8.2 26z"/><path fill="#E0E0E0" d="M48 35.54a3.04 3.04 0 0 1-.46.27l-1.32.72-4.93 2.56-16.36 8.34-.14.07-.1-.11-.23-.29-11.52-14.61-3.46-4.47-.93-1.22a2.23 2.23 0 0 1-.3-.44c.13.12.25.25.36.4l.98 1.18 3.55 4.38L24.77 46.9l.22.28-.22-.04 16.4-8.27 4.99-2.46 1.36-.66c.16-.08.32-.15.49-.2z"/><path fill="#E0E0E0" d="M2.06 53.15c-.06-.08 3.8-3.03 8.57-6.66 4.78-3.62 8.73-6.45 8.8-6.36.06.08-3.8 3.03-8.58 6.66-4.77 3.63-8.73 6.45-8.79 6.36zm30.66-10.3c.1-.05 2.21 4.28 4.72 9.66s4.47 9.78 4.38 9.86c-.1.08-2.2-4.29-4.71-9.66-2.51-5.38-4.49-9.83-4.39-9.87z"/></svg>