<svg width="161" height="92" fill="none" xmlns="http://www.w3.org/2000/svg"><g filter="url(#a)"><rect x="53.187" y="15.735" width="32" height="36.667" rx="2.504" transform="rotate(-16.398 53.187 15.735)" fill="#BCC4CE"/></g><g filter="url(#b)"><rect x="73.236" y="5.999" width="32" height="36.667" rx="2.504" transform="rotate(7.58 73.236 5.999)" fill="#fff"/></g><rect x="75.378" y="10.034" width="9.333" height="9.333" rx="2" transform="rotate(7.58 75.378 10.034)" fill="#9EA9B8" fill-opacity=".69"/><rect x="86.524" y="12.19" width="14" height="2.667" rx="1.333" transform="rotate(7.58 86.524 12.19)" fill="#9EA9B8" fill-opacity=".69"/><rect x="85.909" y="16.815" width="14" height="1.333" rx=".667" transform="rotate(7.58 85.909 16.815)" fill="#9EA9B8" fill-opacity=".69"/><rect x="85.645" y="18.798" width="14" height="1.333" rx=".667" transform="rotate(7.58 85.645 18.798)" fill="#9EA9B8" fill-opacity=".69"/><rect x="73.707" y="22.59" width="9.333" height="9.333" rx="2" transform="rotate(7.58 73.707 22.59)" fill="#9EA9B8" fill-opacity=".69"/><rect x="84.853" y="24.745" width="14" height="2.667" rx="1.333" transform="rotate(7.58 84.853 24.745)" fill="#9EA9B8" fill-opacity=".69"/><rect x="84.238" y="29.372" width="14" height="1.333" rx=".667" transform="rotate(7.58 84.238 29.372)" fill="#9EA9B8" fill-opacity=".69"/><rect x="83.974" y="31.355" width="14" height="1.333" rx=".667" transform="rotate(7.58 83.974 31.355)" fill="#9EA9B8" fill-opacity=".69"/><path d="M48.667 22.837a2.504 2.504 0 0 1 2.504-2.504h18.171c.735 0 1.432.323 1.908.882l7 8.236c.476.56 1.173.882 1.908.882h26.672a2.504 2.504 0 0 1 2.503 2.504v32.325a2.504 2.504 0 0 1-2.503 2.504H51.17a2.504 2.504 0 0 1-2.503-2.504V22.837Z" fill="#E1E5E9"/><g filter="url(#c)"><path d="m28.775 68.272 24.358-6.527a3.107 3.107 0 0 0 2.196-3.804l-5.083-18.97-2.943-10.986-.803-2.996-9.73-5.955-7.59 2.033L17 24.331a3.107 3.107 0 0 0-2.196 3.805l10.166 37.94a3.107 3.107 0 0 0 3.805 2.196Z" fill="#fff"/></g><g filter="url(#d)"><path d="m46.5 24.992-9.73-5.956 1.712 6.392a1.654 1.654 0 0 0 2.026 1.17l5.992-1.606Z" fill="#fff"/></g><g clip-path="url(#e)" fill="#9EA9B8"><path d="m34.94 45.772 4.507-1.208.637 2.376-4.507 1.208-.637-2.377Z"/><path d="m36.464 37.196-6.392 1.713a1.053 1.053 0 0 0-.752 1.29l.364 1.36 8.359-2.24-.637-2.375-.942.252Zm.928 3.791-7.326 1.963 1.669 6.228 2.376-.637-1.032-3.851 4.966-1.33a1.07 1.07 0 0 0 .784-.94c.01-.1 0-.203-.027-.3l-.378-1.41-1.032.277Zm-.254 11.573a9.925 9.925 0 0 1-11.162-14.548A9.926 9.926 0 1 1 37.138 52.56ZM32.34 34.656a8.61 8.61 0 0 0-2.078 15.777 8.614 8.614 0 1 0 5.432-15.999 8.55 8.55 0 0 0-3.352.23l-.002-.008Z"/></g><g filter="url(#f)"><path d="m104.325 60.585 26.993 7.233a3.442 3.442 0 0 0 4.216-2.434l5.633-21.022 3.262-12.174.89-3.32-6.039-11.107-8.411-2.254-13.496-3.616a3.442 3.442 0 0 0-4.216 2.434L101.891 56.37a3.443 3.443 0 0 0 2.434 4.216Z" fill="#fff"/></g><g clip-path="url(#g)"><path d="M125.661 35.25c-5.909-1.583-12.009 1.935-13.594 7.849-1.583 5.91 1.939 12.01 7.849 13.594 5.909 1.583 12.01-1.94 13.594-7.849 1.584-5.913-1.939-12.01-7.849-13.593Zm-12.513 8.139a9.906 9.906 0 0 1 1.885-3.698l1.224 13.83a9.99 9.99 0 0 1-3.109-10.132Zm7.057 12.223a9.96 9.96 0 0 1-2.618-1.123l5.144-7.63.786 8.913c.009.053.019.102.033.153a9.994 9.994 0 0 1-3.345-.313Zm5.121-13.802a20.64 20.64 0 0 0 1.127.204c.535.079.679-.703.152-.811 0 0-1.593-.297-2.6-.567-.947-.254-2.505-.801-2.505-.801-.511-.17-.784.61-.274.779 0 0 .477.193.988.362l.397 4.517-3.804 5.76-.713-11.381a20.46 20.46 0 0 0 1.126.204c.535.079.68-.703.153-.811 0 0-1.593-.297-2.6-.567a17.47 17.47 0 0 1-.619-.18 9.972 9.972 0 0 1 9.218-2.187 9.957 9.957 0 0 1 5.832 4.274 1.271 1.271 0 0 0-.123-.042c-.946-.254-1.838.392-2.075 1.278-.213.796.065 1.588.341 2.515.196.738.403 1.678.083 2.872-.221.825-.793 1.696-1.57 2.92l-1.821 2.954-.713-11.292Zm.076 13.79 5.225-7.723c.918-1.227 1.398-2.275 1.661-3.257.095-.354.161-.688.2-1.007a9.942 9.942 0 0 1-.059 4.942 9.966 9.966 0 0 1-7.027 7.046Z" fill="#9EA9B8"/></g><g filter="url(#h)"><path d="M143.319 34.868 137.28 23.76l-1.898 7.083a1.834 1.834 0 0 0 1.297 2.245l6.64 1.779Z" fill="#fff"/></g><defs><filter id="a" x="42.56" y="1.69" width="62.304" height="65.464" filterUnits="userSpaceOnUse" color-interpolation-filters="sRGB"><feFlood flood-opacity="0" result="BackgroundImageFix"/><feColorMatrix in="SourceAlpha" values="0 0 0 0 0 0 0 0 0 0 0 0 0 0 0 0 0 0 127 0" result="hardAlpha"/><feOffset dy=".501"/><feGaussianBlur stdDeviation="1.252"/><feColorMatrix values="0 0 0 0 0 0 0 0 0 0 0 0 0 0 0 0 0 0 0.05 0"/><feBlend in2="BackgroundImageFix" result="effect1_dropShadow_421_5114"/><feColorMatrix in="SourceAlpha" values="0 0 0 0 0 0 0 0 0 0 0 0 0 0 0 0 0 0 127 0" result="hardAlpha"/><feOffset dy="5.616"/><feGaussianBlur stdDeviation="5.616"/><feColorMatrix values="0 0 0 0 0.247059 0 0 0 0 0.294118 0 0 0 0 0.356863 0 0 0 0.15 0"/><feBlend in2="effect1_dropShadow_421_5114" result="effect2_dropShadow_421_5114"/><feBlend in="SourceGraphic" in2="effect2_dropShadow_421_5114" result="shape"/></filter><filter id="b" x="57.476" y=".692" width="58.404" height="62.413" filterUnits="userSpaceOnUse" color-interpolation-filters="sRGB"><feFlood flood-opacity="0" result="BackgroundImageFix"/><feColorMatrix in="SourceAlpha" values="0 0 0 0 0 0 0 0 0 0 0 0 0 0 0 0 0 0 127 0" result="hardAlpha"/><feOffset dy=".501"/><feGaussianBlur stdDeviation="1.252"/><feColorMatrix values="0 0 0 0 0 0 0 0 0 0 0 0 0 0 0 0 0 0 0.05 0"/><feBlend in2="BackgroundImageFix" result="effect1_dropShadow_421_5114"/><feColorMatrix in="SourceAlpha" values="0 0 0 0 0 0 0 0 0 0 0 0 0 0 0 0 0 0 127 0" result="hardAlpha"/><feOffset dy="5.616"/><feGaussianBlur stdDeviation="5.616"/><feColorMatrix values="0 0 0 0 0.247059 0 0 0 0 0.294118 0 0 0 0 0.356863 0 0 0 0.15 0"/><feBlend in2="effect1_dropShadow_421_5114" result="effect2_dropShadow_421_5114"/><feBlend in="SourceGraphic" in2="effect2_dropShadow_421_5114" result="shape"/></filter><filter id="c" x=".763" y="12.066" width="68.608" height="77.215" filterUnits="userSpaceOnUse" color-interpolation-filters="sRGB"><feFlood flood-opacity="0" result="BackgroundImageFix"/><feColorMatrix in="SourceAlpha" values="0 0 0 0 0 0 0 0 0 0 0 0 0 0 0 0 0 0 127 0" result="hardAlpha"/><feOffset dy="6.967"/><feGaussianBlur stdDeviation="6.967"/><feColorMatrix values="0 0 0 0 0.247059 0 0 0 0 0.294118 0 0 0 0 0.356863 0 0 0 0.15 0"/><feBlend in2="BackgroundImageFix" result="effect1_dropShadow_421_5114"/><feBlend in="SourceGraphic" in2="effect1_dropShadow_421_5114" result="shape"/></filter><filter id="d" x="32.634" y="16.551" width="16.973" height="14.239" filterUnits="userSpaceOnUse" color-interpolation-filters="sRGB"><feFlood flood-opacity="0" result="BackgroundImageFix"/><feColorMatrix in="SourceAlpha" values="0 0 0 0 0 0 0 0 0 0 0 0 0 0 0 0 0 0 127 0" result="hardAlpha"/><feOffset dx="-.827" dy=".827"/><feGaussianBlur stdDeviation="1.654"/><feColorMatrix values="0 0 0 0 0.247059 0 0 0 0 0.294118 0 0 0 0 0.356863 0 0 0 0.2 0"/><feBlend in2="BackgroundImageFix" result="effect1_dropShadow_421_5114"/><feColorMatrix in="SourceAlpha" values="0 0 0 0 0 0 0 0 0 0 0 0 0 0 0 0 0 0 127 0" result="hardAlpha"/><feOffset dy=".621"/><feGaussianBlur stdDeviation="1.553"/><feColorMatrix values="0 0 0 0 0 0 0 0 0 0 0 0 0 0 0 0 0 0 0.05 0"/><feBlend in2="effect1_dropShadow_421_5114" result="effect2_dropShadow_421_5114"/><feBlend in="SourceGraphic" in2="effect2_dropShadow_421_5114" result="shape"/></filter><filter id="f" x="86.331" y="4.051" width="74.43" height="87.048" filterUnits="userSpaceOnUse" color-interpolation-filters="sRGB"><feFlood flood-opacity="0" result="BackgroundImageFix"/><feColorMatrix in="SourceAlpha" values="0 0 0 0 0 0 0 0 0 0 0 0 0 0 0 0 0 0 127 0" result="hardAlpha"/><feOffset dy="7.721"/><feGaussianBlur stdDeviation="7.721"/><feColorMatrix values="0 0 0 0 0.247059 0 0 0 0 0.294118 0 0 0 0 0.356863 0 0 0 0.15 0"/><feBlend in2="BackgroundImageFix" result="effect1_dropShadow_421_5114"/><feBlend in="SourceGraphic" in2="effect1_dropShadow_421_5114" result="shape"/></filter><filter id="h" x="130.737" y="21.007" width="16.025" height="18.444" filterUnits="userSpaceOnUse" color-interpolation-filters="sRGB"><feFlood flood-opacity="0" result="BackgroundImageFix"/><feColorMatrix in="SourceAlpha" values="0 0 0 0 0 0 0 0 0 0 0 0 0 0 0 0 0 0 127 0" result="hardAlpha"/><feOffset dx="-.917" dy=".917"/><feGaussianBlur stdDeviation="1.833"/><feColorMatrix values="0 0 0 0 0.247059 0 0 0 0 0.294118 0 0 0 0 0.356863 0 0 0 0.2 0"/><feBlend in2="BackgroundImageFix" result="effect1_dropShadow_421_5114"/><feColorMatrix in="SourceAlpha" values="0 0 0 0 0 0 0 0 0 0 0 0 0 0 0 0 0 0 127 0" result="hardAlpha"/><feOffset dy=".689"/><feGaussianBlur stdDeviation="1.721"/><feColorMatrix values="0 0 0 0 0 0 0 0 0 0 0 0 0 0 0 0 0 0 0.05 0"/><feBlend in2="effect1_dropShadow_421_5114" result="effect2_dropShadow_421_5114"/><feBlend in="SourceGraphic" in2="effect2_dropShadow_421_5114" result="shape"/></filter><clipPath id="e"><path fill="#fff" transform="rotate(-15 147.763 -67.14)" d="M0 0h19.851v19.851H0z"/></clipPath><clipPath id="g"><path fill="#fff" transform="rotate(15 -64.959 443.941)" d="M0 0h22.915v22.915H0z"/></clipPath></defs></svg>