<svg xmlns="http://www.w3.org/2000/svg" width="121" height="45.2" fill="none" style="max-height:500px" viewBox="0 0 121 45.2"><path fill="#fff" d="M17.1 41V23.5h12.3v3.9h-7.5v3h6.7v3.8H22V41h-5Zm13.6 0V23.5h7.5c1.3 0 2.4.3 3.4.8a5 5 0 0 1 2.3 2c.5.9.8 2 .8 3.2 0 1.2-.3 2.3-.9 3.1a5 5 0 0 1-2.3 2c-1 .4-2.1.6-3.5.6h-4.5v-3.6h3.6l1.4-.2c.4-.2.7-.4.9-.7.2-.3.3-.7.3-1.2s0-1-.3-1.2c-.2-.4-.5-.6-1-.7a4 4 0 0 0-1.3-.3h-1.7V41h-4.7Zm10.2-8 4.4 8H40l-4.3-8h5Zm10-9.5V41h-4.7V23.5H51ZM59.5 41h-6.7V23.5h6.7c1.8 0 3.3.4 4.6 1 1.3.8 2.3 1.8 3 3 .8 1.4 1.1 3 1.1 4.8 0 1.8-.3 3.4-1 4.7a7.3 7.3 0 0 1-3 3c-1.4.7-2.9 1-4.7 1Zm-2-4h1.9c.8 0 1.6-.2 2.2-.4.6-.3 1-.8 1.4-1.5a7 7 0 0 0 .5-2.8c0-1.2-.2-2.2-.5-2.9a3 3 0 0 0-1.5-1.4c-.6-.3-1.4-.4-2.3-.4h-1.6V37Zm15.9 4h-5.1L74 23.5h6.5L86.2 41H81l-3.8-12.6h-.1L73.3 41Zm-1-6.9H82v3.6h-9.6V34ZM85 23.5h5l3.5 7.1 3.5-7h5.3l-6.4 12V41h-4.7v-5.5l-6.4-12Z"/><g filter="url(#a)"><path fill="#fff" d="M20.1 21V3.5h7.6c1.3 0 2.4.2 3.3.6a3.9 3.9 0 0 1 2.8 3.8 3.6 3.6 0 0 1-1.6 3c-.5.4-1.1.7-1.8.8v.2c.8 0 1.5.2 2 .6a4 4 0 0 1 2 3.6 4 4 0 0 1-.7 2.5 5 5 0 0 1-2 1.8c-1 .4-2 .6-3.4.6h-8.2Zm4.8-3.8H27a3 3 0 0 0 1.8-.4c.4-.3.6-.8.6-1.4a1.8 1.8 0 0 0-1-1.7l-1.4-.2h-2v3.7Zm0-6.6h2c.3 0 .7 0 1-.2.3-.1.6-.3.7-.6.2-.2.3-.5.3-.9 0-.5-.2-1-.6-1.2-.3-.3-.8-.4-1.4-.4h-2v3.3ZM35.7 21V3.5h4.7v13.7h7V21H35.8Zm17.7 0h-5L54 3.5h6.5L66.3 21h-5l-4-12.6h-.1L53.4 21Zm-1-6.9h9.7v3.6h-9.6V14Zm30.6-4h-4.8c0-.4-.1-.8-.3-1a2 2 0 0 0-.6-1l-.9-.5-1.2-.2c-.8 0-1.5.2-2 .6-.6.4-1 1-1.3 1.7a9.5 9.5 0 0 0 0 5.3c.3.7.7 1.2 1.3 1.6a4 4 0 0 0 2 .5l1.1-.1 1-.5.6-.8.3-1H83c0 .8-.3 1.5-.6 2.3a7.3 7.3 0 0 1-4 3.7 9 9 0 0 1-3.3.5 9 9 0 0 1-4.4-1 7.5 7.5 0 0 1-3-3 10 10 0 0 1-1-5c0-1.9.3-3.5 1-4.8a7.5 7.5 0 0 1 3.1-3c1.3-.7 2.7-1 4.3-1 1 0 2 0 3 .4a6.8 6.8 0 0 1 4.9 6.3ZM84.7 21V3.5h4.7v7.1h.3l5.2-7h5.5l-5.9 7.7 6 9.7H95l-4-6.5-1.5 2V21h-4.7Z"/></g><defs><filter id="a" width="120.4" height="57.9" x=".1" y=".3" color-interpolation-filters="sRGB" filterUnits="userSpaceOnUse"><feFlood flood-opacity="0" result="BackgroundImageFix"/><feColorMatrix in="SourceAlpha" result="hardAlpha" values="0 0 0 0 0 0 0 0 0 0 0 0 0 0 0 0 0 0 127 0"/><feOffset dy="17"/><feGaussianBlur stdDeviation="10"/><feComposite in2="hardAlpha" operator="out"/><feColorMatrix values="0 0 0 0 0 0 0 0 0 0 0 0 0 0 0 0 0 0 1 0"/><feBlend in2="BackgroundImageFix" result="effect1_dropShadow_156_8879"/><feBlend in="SourceGraphic" in2="effect1_dropShadow_156_8879" result="shape"/></filter></defs></svg>