<svg xmlns="http://www.w3.org/2000/svg" width="150" height="90" fill="none" viewBox="0 0 150 90"><g clip-path="url(#a)"><path fill="#F6EBC6" d="m126 34.8-.2-1.8c-2.7-12-10-21-19.2-28.5-4-3.3-8.1-6.2-12-9.4a23.4 23.4 0 0 1-8.8-14.6c-1-6.2-1.1-12.5-1.7-18.8-1-10-1.6-20-3.2-30-1.4-9.8-6.9-16.5-17.1-18.3-5.6-1-11 0-16 2.4a73.9 73.9 0 0 0-35.5 34.9 107.3 107.3 0 0 0-6.6 83.7C9.5 46.6 13 59 15.9 71.3c2.4 10.5 3.2 21.3 5.3 31.9.7 3.7 1.9 7.1 3.4 10.4h2.7l-1.4-3.3A94.7 94.7 0 0 1 20 83.5 199 199 0 0 0 10 40 119 119 0 0 1 2.3 1c.4-21.8 5.8-42.1 18.7-60a66 66 0 0 1 29.5-23.7 21.7 21.7 0 0 1 18.5.4c3.7 2 6.3 4.8 7.8 8.8C80-66 80.6-58 81.1-50c.6 9.2 1 18.4 1.8 27.6.7 8.2 4.7 15 11.2 20 4.9 4 10.1 7.6 14.7 11.9 8 7.3 14 15.9 15.1 27 1 9.2-2.2 17.3-7.2 24.5-4.2 6-8.8 12-13.8 17.3a304.3 304.3 0 0 0-29.5 35.2h3c6.8-10 14.7-19 23-27.9a273 273 0 0 0 19.4-23.5c5-6.7 7.7-14.6 7.6-23.6l-.3-3.8Z"/><path fill="#F6EBC6" d="M88.4 72.2a72.8 72.8 0 0 1-29.5 26.6c-11.7 5.4-21 2.3-27.6-8.7-5.5-9-8-19.1-9.4-29.4-1.7-12.4-2.7-24.9-4-37.3h.8a95.4 95.4 0 0 1 21.6-65.1 45 45 0 0 1 9.1-8.6c4.8-3.4 9.4-2.5 13.5 1.7 4 4.2 5.7 9.6 6.8 15.1 1.6 8.4 1.6 17 .5 25.4a21 21 0 0 0 4.4 15.7c2.7 3.7 5.8 7.1 8.9 10.5a50 50 0 0 1 13.1 32c.4 8.3-3.7 15.5-8.2 22.1ZM99 50.1C98.2 37.4 93.8 26 85 16.4c-2.6-3-5.4-5.9-7.8-9a22.4 22.4 0 0 1-4.8-16.5c.6-6.7.5-13.6 0-20.3a34 34 0 0 0-7-19.8c-5-6-11.6-7.1-18-2.7-2 1.3-4 2.9-5.5 4.6a104 104 0 0 0-16.7 25.2A110.7 110.7 0 0 0 15.6 23c1.3 12.4 2.3 24.8 3.9 37.2 1.4 10.6 4 21 9.4 30.5 7.3 12.6 18.7 16.3 31.9 9.8 13.9-7 24.1-17.8 32-31 3.6-6 6.6-12.5 6.2-19.5Z"/><path fill="#F6EBC6" d="M69.4 72.3c-4.7 6-10.9 8-17.8 4.7-15.9-7.7-25.5-20-27.3-35.8A53.2 53.2 0 0 1 30.5 15c4.5-9 11-16.2 20-21 5.5-2.8 10-.8 11.2 5.3C62.7 4 63 8.8 63 13.5c0 9 2.5 17.3 7.4 25l.7 1c7.6 11.7 7.1 21.7-1.7 32.8ZM73 37.8c-5.5-7-7.6-15.5-7.7-24.5 0-5.3-.5-10.8-1.8-16-1.5-6.2-6.7-8.3-12.7-6a21 21 0 0 0-4.2 2.1A55.5 55.5 0 0 0 22 37.6c0 1.7.2 3.4.3 5 0 .9.2 1.6.4 2.4 3 14.6 11.8 25 24.2 32.4 11.4 6.7 21 3.5 27.3-8.1 6-10.8 7-21-1.2-31.5Z"/><path fill="#F6EBC6" d="M57.5 66c-.3 1.8-1.3 2.4-3.2 1.5-4-1.9-8.2-3.6-12.3-5.4a16.8 16.8 0 0 1-8.4-8.2 31.7 31.7 0 0 1-.6-28A14 14 0 0 1 44.3 17c2.5-.3 4.6.2 5.7 2.7 1.7 4.2 3.8 8.4 4.8 12.8 1.7 8.2 2.8 16.5 4 23.5-.5 4.2-.8 7.1-1.3 10Zm0-32c-1-5.2-3.2-10.2-5.3-15.1-1.4-3.6-4.5-4.8-8.3-4.2-4.9.8-8.7 3-11.3 7.2-5 8-5.8 16.7-3.8 25.7C30.3 54 33.2 60 39.3 63.3c4.8 2.6 10 4.5 15 6.7 2.5 1 4.4.2 5-2.5.8-3.2 1.2-6.4 1.8-10.3-1-7.4-1.9-15.4-3.5-23.2Z"/><path fill="#F6EBC6" d="M35.6 46.7c-2.1-2.6-1.7-5.6 0-8.1 1.5-2.6 3.6-4.7 5.5-7l1.4.8c-.4 2.7-1 5.4-1 8.1.1 2.7.9 5.3 1.4 8.2-2.4.3-5.3.6-7.3-2Zm8.6-9c.7-2.8 1-5.8-.8-8.5A14.7 14.7 0 0 0 32 42.9c-.1 4 2.2 7 6.2 8 4.3 1 7 .1 8.8-3.1-3.9-2.5-3.7-6-2.8-10Z"/><path fill="#6C2D30" d="M41.7 83.7s2 3.5 6 6.7h28.6l1.8-2s-2.6-.1-1-1.8c1.8-1.8 10.1-5.2 9.6-14.7 0 0-5.3 0-7.5.8 0 0 .9-3.9 1-5 0 0-6.2.5-9.7 3 0 0 6.7-9.5 7.5-12.4h-2.8l5.3-7.3-.8-1.5S81 46 82 45.2c0 0-12.8-1.9-20.7 6.8 0 0-1.3-4-2.5-4.5 0 0-6 3.5-5.5 19 0 0-4.3-4-5-7 0 0-1.4-.4-2.9 4.4 0 0-5.2-2.3-6-5.7 0 0-4 13.5 4.6 24.5 0 0 .2 1.7-2.3 1Z"/><path fill="#4E2E2F" d="M43.7 72.7c.2.3 4.5 8.1 11 11.3-.6 2.3-.9 4.5-1 6.4h2l.2-1.5c3-.3 12.9-1.8 23.2-9.5.4-.3.5-.7.4-1.1l-.1-.3a1 1 0 0 0-1.5-.2c-9.3 7-18.4 8.7-21.7 9 .8-5 2.4-11.4 5.5-18.5 1.7-.6 7.2-2.4 9.2-4.8a1 1 0 0 0-.1-1.4 1 1 0 0 0-1.5.1 17.7 17.7 0 0 1-6.5 3.6c1.4-3 3-6.3 5-9.6a1 1 0 1 0-1.8-1 93.3 93.3 0 0 0-11 26.7c-5.6-3-9.5-10.1-9.6-10.2a1 1 0 0 0-1.7 1Z"/><path fill="#6C2D30" d="M0 38.2v37.7l.5.7c4.9 1.6 9 1.4 9 1.4-2-1.8-.5-2.6-.5-2.6 14 1 22.9-9.8 22.9-9.8-3.3 1.1-8-1.9-8-1.9 3-3.9 2-4.9 2-4.9-2.9 1.2-8.7-.2-8.7-.2C30.3 50.3 30 43.4 30 43.4c-1.1-.6-5 .5-5 .5 2.6-11.4-6-20.9-6-20.9-.2 1.2-2.3 4.3-2.3 4.3l-1.8.1-3 8.5-1.6-2.3c-2 2.3-6 13.1-6 13.1 0-4.2-3-9.6-3-9.6l-1.2 1Z"/><path fill="#4E2E2F" d="M0 66.4v2.9a62 62 0 0 0 2-2c6.2 3.6 15.1 2.8 15.5 2.8.5 0 1-.5.9-1.1 0-.6-.5-1-1.1-1 0 .1-8.2.8-13.8-2.2a93.4 93.4 0 0 0 16-24 1 1 0 0 0-1.2-1.4 1 1 0 0 0-.6.5 103 103 0 0 1-5.2 9.5c-.6-2.4-1.2-5.7-.7-7.4a1 1 0 0 0-2-.6c-.8 3 .7 8.6 1.3 10.3A82 82 0 0 1 0 66.4Z"/><path fill="#943235" d="M48.8 90.4 57 80.2s-6.7-5.7-13.4-5.7c0 0 13.8-6.8 18.2-17l-6.3 1.2s6.3-17 6.3-31.2c0 0-22.3 4.1-30.5 22l-6.4-7S14.5 54 16.4 66.6c0 0-8.9-20.9-16.4 7.4v16.3h48.8Z"/><path fill="#6F2D31" d="M9.3 71c.5 0 .9.3 1 .7.7 4.7 4.7 12.7 6 15l9-10c-.1-1-1.4-11.4-1.1-23.7 0-.4.3-.7.8-.7.4 0 .8.3.7.8-.2 9.8.6 18.4 1 21.8C38 61 46.3 47.3 46.4 47.1a.8.8 0 0 1 1.4.8c-.1.2-6 10-14.8 21.5 5.8-.7 14.8-4.2 14.9-4.3a.8.8 0 1 1 .5 1.5c-.4.2-10.9 4.3-16.7 4.5-5 6.5-10.8 13.3-17 19.3h-2.3l2.7-2.6A68.5 68.5 0 0 1 8.7 72c0-.4.2-.9.6-1Z"/><path fill="#7A4231" d="M113.4 28.7c1.5 2.8 4 8.4 2.4 13.8-2.1 7.8-7.4 7.7-12.1 6.3a29.2 29.2 0 0 1-10.2-8.1 7 7 0 0 0 3-1.7c4-3.2 7.9-5.1 9-5.6 1-.3 6.3-2.8 7.9-4.7Z"/><path fill="#48322D" d="M113.8 27.8c0 .3-.2.5-.4.9-1.6 2-7 4.4-8 4.7-1 .5-5 2.4-8.8 5.6a7 7 0 0 1-3.1 1.7c-1.8.3-2.7-1.5-2.5-5.2.4-5.3 6.7-8.8 6.7-8.8s-1.2-1.4-1-2.7c0-1.3 1.3-1.2 1.3-.4 0 .9 1 2.3 1 2.3 10.2-5.1 15-.2 14.8 1.9Z"/><path fill="#FBB548" d="M39.2 12.9s6.4-1.3 9.5 1.9c0 0-1.3.2-.4 1 1 .6 5.3 1.7 5.7 6.3 0 0-2.5.4-3.7.2 0 0 .7 1.7.8 2.3 0 0-3 .2-4.8-.7 0 0 3.9 4 4.5 5.4l-1.4.2 3.1 3.1-.3.8s1 1.6 1.4 1.9c0 0-6 1.8-10.4-1.7 0 0-.4 2-.9 2.3 0 0-3.1-1.3-4-8.8 0 0-1.8 2.3-1.9 3.8 0 0-.7.2-1.7-2 0 0-2.4 1.5-2.5 3.2 0 0-3-6.2.4-12.1 0 0 0-.8-1.2-.4 0 0 2.1-5.3 7.8-6.7Z"/><path fill="#EB9F3A" d="M36.5 10c-.3 0-.5.2-.5.5 0 .2 0 3.3 1.6 8.1-2.8 2-4.4 6-4.4 6.2a.5.5 0 0 0 1 .4s1.3-3.8 3.8-5.6c1.3 3.4 3.6 7.5 7.2 12a.5.5 0 1 0 .8-.6 50 50 0 0 1-3.1-4.2c1.2.2 2.8.6 3.4 1.2a.5.5 0 1 0 .7-.7c-1.2-1-4-1.5-4.8-1.6-2-3.3-3.2-6.2-4-8.6 1.6 0 6.1.1 11.1 2.8a.5.5 0 1 0 .5-.9c-5.6-3-10.4-3-11.9-2.9-1-3.4-1-5.5-1-5.6 0-.3-.1-.5-.4-.5Z"/><path fill="#ED723D" d="M102 77s17.6-.3 25.3-9c0 0 7.3 11-4.3 16.3-13.5 6-21-7.2-21-7.2Z"/><path fill="#F2AD34" d="M112.9 80.3a29 29 0 0 1-4-.3l.2-.7c5.6.8 10.1 0 13.3-2.5a12 12 0 0 0 4.3-7.4l.7.1c0 .2-.6 4.6-4.6 7.8-2.5 2-5.9 3-10 3Z"/><path fill="#ED723D" d="M126.5 17.5c-.7 2.2-2 3.8-2.8 3.5-.9-.3-1-2.3-.2-4.5.7-2.2 2-3.7 2.9-3.5.8.3.9 2.3.1 4.5Z"/></g><defs><clipPath id="a"><path fill="#fff" d="M0 0h150v90H0z"/></clipPath></defs></svg>