<svg xmlns="http://www.w3.org/2000/svg" width="99" height="73" fill="none" viewBox="0 0 99 73"><path fill="#AC61BA" d="M62.5 61 19.8 40.3l12-8.9L62 46.2l.4 14.8Z"/><path fill="#90409A" d="M62.5 61 20 40.4 16 48.2 58.7 69l3.8-8Z"/><path fill="#FDB149" d="M49.2 47c-1.2.1-2.3 0-3.4-.2-2.7-.6-5-2.2-6.7-4.7L54.4 18a2.4 2.4 0 0 1 4.4 2.1l-9.6 27Z"/><path fill="#F68949" d="M49.2 47c-1.2.1-2.3 0-3.4-.2l12-29.7c1 .6 1.4 1.9 1 3l-9.6 27Z"/><path fill="#BF1764" d="M67.1 18A9 9 0 1 1 51 10 9 9 0 0 1 67 18Z"/><path fill="#F1327B" d="M65.7 15A8.5 8.5 0 0 1 50 14a9 9 0 0 1 16-5.6c.8 2 .8 4.5-.3 6.6Z"/><path fill="#F68949" d="M88.3 45.8 88 44l-1.4-.5-2-2.7 12.2-4.5-1.1-2.4h-1.2l-3.6-3.5-16.3 7 4.5 5.9-13.5 5.2 22.7-2.8Z"/><path fill="#FDB149" d="m90.9 27.7 4.8 6.3-12 5.6L88 44l-22.4 4.5L79.5 42l-4.9-4.3 16.3-9.9Z"/><path fill="#F68949" d="m25.3 30.1-2-1.8.4.9c-3.4-1.3-8.6.7-12.4 5.1-4 4.5-5.2 9.9-3.5 13l-1-.3L9 48.8c3.3 2.8 9.6 1 14-4.2 4.6-5.2 5.6-11.7 2.4-14.5Z"/><path fill="#FDB149" d="M21 42.8c-4.6 5.1-10.9 7-14.1 4.2-3.3-2.8-2.2-9.3 2.3-14.5 4.5-5.1 10.8-7 14-4.2 3.3 2.8 2.2 9.3-2.3 14.5Z"/><path fill="#FFE655" d="M19.5 41.6c-3.4 4-8.2 5.4-10.7 3.2-2.5-2.1-1.7-7.1 1.8-11 3.4-4 8.2-5.5 10.7-3.3s1.7 7.1-1.8 11Z"/><path fill="#F68949" d="M9 45a3 3 0 0 1-.2-.2c-2.5-2.1-1.7-7.1 1.8-11 3.4-4 8.2-5.5 10.7-3.3l.3.3c-2.6-1.9-7.2-.4-10.5 3.4S7 42.8 9.1 45ZM53.7 54.5 10.8 66.7l-1-2.1 42.9-12.2 1 2Z"/><path fill="#FDB149" d="m58 58-2.3.6-3-6.2 2.2-.7 3 6.2Z"/><path fill="#F68949" d="m26.6 67.6 36.3-26-1-2.1-36.3 26 1 2Z"/><path fill="#FDB149" d="m26.7 73 1.9-1.3-3-6.3-2 1.4 3 6.2ZM38.7 50.7 33 53.4l1 2.1 5.7-2.7-1-2.1ZM14.2 62.4l-4.4 2.2 1 2.1 4.5-2.1-1-2.2ZM58.4 43.8l4.5-2.2-1-2.1-4.5 2.1 1 2.2ZM32.3 49.2 10.6 59.6l1 2.1 21.7-10.4-1-2.1Z"/><path fill="#FDB149" d="m12.7 58.6-2.1 1 4.6 9.6 2.1-1-4.6-9.6ZM19.5 67.1l-2.2 1 1 2.2 2.2-1-1-2.2ZM22.6 68.3l-2.1 1 1 2.1 2.2-1-1-2.1ZM31.5 66.6l-7.8 3.8 1 2.1 7.8-3.7-1-2.2ZM32.3 49.2l-2.2 1 4.6 9.6 2.2-1-4.6-9.6Z"/><path fill="#FDB149" d="m34.7 59.8-2.1 1 1 2.2 2.2-1-1-2.2ZM33.6 63l-2.1 1 1 2.1 2.2-1-1-2.1ZM32.5 66.1l-2.1 1 1 2.2 2.2-1-1-2.2Z"/><path fill="#62CAF1" d="m31.1 52.3 3.6 7.5-2.1 1 1 2.1-2.1 1 1 2.2-8.8 4.3-1-2.1-2.2 1-1-2.2-2.2 1-3.6-7.4 17.4-8.4Z" opacity=".8"/><g fill="#fff" opacity=".5"><path d="m23.3 69.6-.7-1.3-2.1 1-1-2.2-1 .5 3.9-11 6.6-3.2-5.7 16.2ZM31.1 52.3l1.5 3-4.6 13-3.3 1.6 6.1-17.4.3-.2Z"/></g><path fill="#FDB149" d="M36.8 49.6 58.5 39l-1-2.1-21.7 10.5 1 2Z"/><path fill="#FDB149" d="M62.1 46.6 57.5 37l-2.2 1 4.7 9.6 2.1-1ZM58.9 50.8l2-1-1-2.2-2 1 1 2.2ZM57.7 54l2.2-1-1-2.2-2.2 1 1 2.2ZM51 59.9l7.8-3.8-1-2.1-7.9 3.7 1 2.2ZM42.5 56 38 46.4l-2.1 1 4.6 9.7 2.1-1Z"/><path fill="#FDB149" d="m44.7 55-2.2 1 1 2.2 2.2-1-1-2.2ZM47.9 56.1l-2.2 1 1 2.2 2.2-1-1-2.2ZM51 57.2l-2.1 1 1 2.2 2.2-1-1-2.2Z"/><path fill="#62CAF1" d="m56.4 40.2 3.6 7.4-2.2 1 1 2.2-2 1 1 2.2-9 4.2-1-2.1-2 1-1.1-2.1-2.2 1-3.5-7.4 17.4-8.4Z" opacity=".8"/><g fill="#fff" opacity=".5"><path d="M48.5 57.5 48 56l-2.2 1-1-2.1-1 .4 4-11 6.5-3.2-5.7 16.3ZM56.4 40.2l1.4 3-4.5 13-3.3 1.5 6-17.4.4-.1Z"/></g><path fill="#FDB149" d="M82.3 19.2a5 5 0 1 0 0 0Zm-6 5.3a3 3 0 0 1-.7-4.2 3 3 0 1 1 .7 4.2Z"/><path fill="#F68949" d="M82.2 25a5 5 0 0 1-9-1.8 5.8 5.8 0 0 0 3.9 3 5 5 0 0 0 5.5-3.4c.4-1.2.2-2.5-.3-3.6a5 5 0 0 1 0 5.8Z"/><path fill="#F68949" d="M81 21.2a3 3 0 0 0-5.9 1.2c-.1-.6 0-1.3.1-2a2.9 2.9 0 0 1 4.3-1.5c.8.6 1.3 1.4 1.5 2.3Z"/><path fill="#fff" d="M81.6 19.2c-.1.1-.6 0-1.1-.3-.5-.4-.8-.8-.7-1 .1-.1.6 0 1 .4.6.3.9.7.8.9Z" opacity=".3"/><path fill="#F68949" d="m16.6 7.4-1.3.7v1.2l-1.6 2.5-7-8.7L5 4.7l.4 1-1.8 3.8 10.2 11.2 3.4-5.2 8 9.5-8.6-17.6Z"/><path fill="#FDB149" d="M1.3 10.3 5 4.7l7.8 8 2.5-4.6L25.2 25l-9.3-9.4-2.1 5.1L1.3 10.3Z"/></svg>