<svg xmlns="http://www.w3.org/2000/svg" width="150" height="90" fill="none" viewBox="0 0 150 90"><g clip-path="url(#a)"><path fill="#fff" d="M48.8 62.6c-2.5 0-4.5-.8-5.8-2.2a9.1 9.1 0 0 1-2-6.3v-2h5v2.4c0 2.2 1 3.3 2.8 3.3.9 0 1.6-.3 2-.8.5-.6.7-1.4.7-2.6a7 7 0 0 0-1-3.7c-.6-1-1.8-2.4-3.5-3.9-2.2-1.9-3.7-3.6-4.6-5.2-.8-1.5-1.2-3.3-1.2-5.2 0-2.7.6-4.8 2-6.2 1.3-1.5 3.3-2.2 5.8-2.2 2.6 0 4.5.7 5.7 2.2 1.3 1.4 2 3.5 2 6.2v1.4h-5v-1.7c0-1.1-.2-2-.7-2.5-.4-.5-1-.8-2-.8-1.7 0-2.6 1-2.6 3.2 0 1.2.4 2.4 1 3.4.7 1 1.9 2.4 3.6 3.9 2.2 1.9 3.7 3.6 4.6 5.2.8 1.6 1.2 3.4 1.2 5.5 0 2.8-.7 4.9-2 6.4-1.4 1.4-3.4 2.2-6 2.2ZM63.8 28.5h7.1L76.4 62H71l-1-6.7v.1h-6l-1 6.6h-4.8l5.5-33.6Zm5.7 22.4-2.3-16.6H67L64.8 51h4.7ZM79 28.5h5.2v28.8H93V62H79V28.5ZM95.5 28.5h14.4v4.8h-9.2v8.9h7.3V47h-7.3v10.3h9.2V62H95.5V28.5ZM111.9 63.4l13.8 9.3 2.7-10.7-16.5 1.4ZM115.8 61l9.7-3.1-3-4.6-6.7 7.6ZM111.6 66.2l2 8.3 4-2.3-6-6Z"/><path fill="#FFA8CA" d="m4 44.6-7 14.9L8.6 85l23-10.4L19.8 49 4 44.6ZM9.2 56A2.7 2.7 0 1 1 7 51.2 2.7 2.7 0 0 1 9.2 56Z"/><path fill="#fff" d="m7 51.6-.2-.1c-.3-.3-7-6-8.6-18a.4.4 0 0 1 .8-.2A28.9 28.9 0 0 0 7.3 51a.4.4 0 0 1-.3.7Z"/><path fill="#FFEB00" d="m130.7 20.3-9.5 3.2-6.2 16 14.3 5.5 6.2-16-4.8-8.7Zm-2.8 7.1a1.6 1.6 0 1 1 1.2-3 1.6 1.6 0 0 1-1.2 3Z"/><path fill="#fff" d="M129 24.7a.3.3 0 0 1-.1-.5s2.1-2.2 4.3-6.6a52 52 0 0 0 5.2-20.3c0-.2.1-.3.3-.3a52.5 52.5 0 0 1-5 20.9 28.6 28.6 0 0 1-4.6 6.8Z"/></g><defs><clipPath id="a"><path fill="#fff" d="M0 0h150v90H0z"/></clipPath></defs></svg>