<svg xmlns="http://www.w3.org/2000/svg" width="150" height="90" fill="none" viewBox="0 0 150 90"><g clip-path="url(#a)"><path fill="#99DBDB" d="M39.5 110.7v.4H39.2v-.1H39v-.4h.3v.1h.1ZM6.6 91A412 412 0 0 0-11 82.7c-23.4-10.2-44.5-16.9-55.3-18 8.2 7 27.5 17.9 51 28a243.4 243.4 0 0 0 54.3 18v.1A241.7 241.7 0 0 0 11 161.5C.8 184.9-6 206.1-7 216.9c7.1-8.2 18-27.6 28.1-51 2.7-6.3 5.2-12.4 7.4-18.1-1.2 6-2.3 12.5-3.4 19.3-3.7 25.3-4.8 47.4-3.1 58.2 4.7-9.8 10.2-31.4 14-56.6 1-6.8 1.8-13.3 2.4-19.4.4 6.2 1 12.7 1.7 19.5 3 25.4 7.6 47 12 57 2-10.7 1.8-32.9-1.1-58.2-.8-6.8-1.7-13.3-2.6-19.4 2 5.9 4.2 12 6.7 18.4 9.3 23.8 19.5 43.5 26.3 52-.8-10.9-6.8-32.2-16.1-56-2.5-6.3-5-12.3-7.6-18 3.4 5.2 7.2 10.6 11.3 16 15.1 20.6 30 37 38.8 43.4-3.6-10.3-14.9-29.4-30-49.9-4-5.4-8.1-10.6-12-15.4 4.7 4.1 9.7 8.3 15 12.6 20 15.8 38.6 27.8 48.8 31.7-6.1-9-22-24.4-42-40.3-5.3-4.2-10.5-8.2-15.5-11.8 5.6 2.8 11.5 5.5 17.8 8.2 23.4 10.2 44.5 16.9 55.3 18-8.2-7-27.5-17.9-51-28a409 409 0 0 0-18-7.3c6 1.2 12.6 2.3 19.3 3.3 25.2 3.7 47.4 4.7 58.1 3-9.8-4.7-31.2-10.1-56.5-13.8-6.7-1-13.2-1.8-19.3-2.4 6.2-.5 12.7-1 19.5-1.8 25.3-3 47-7.7 57-12.2-10.7-2-32.9-1.7-58.2 1.3-6.8.8-13.3 1.7-19.4 2.7 6-2 12-4.3 18.4-6.8 23.8-9.4 43.5-19.6 52-26.5-10.9.9-32.2 7-56 16.3-6.3 2.5-12.3 5-18 7.6 5.2-3.4 10.6-7.2 16-11.3 20.6-15.2 37-30.2 43.4-39-10.2 3.6-29.3 15-49.8 30.2a414 414 0 0 0-15.4 12c4-4.6 8.3-9.7 12.6-15 15.8-20 27.8-38.8 31.8-49-9 6.2-24.5 22.1-40.4 42.2C67 67.9 63 73 59.4 78c2.8-5.5 5.5-11.5 8.3-17.8C77.8 37 84.6 15.7 85.7 5c-7 8.3-17.9 27.6-28 51a412 412 0 0 0-7.4 18.2 410 410 0 0 0 3.3-19.4c3.8-25.2 4.9-47.4 3.2-58.2-4.7 9.9-10.2 31.4-14 56.6-1 6.8-1.8 13.3-2.4 19.4-.4-6.2-1-12.7-1.8-19.5-2.8-25.4-7.5-47-12-57-2 10.7-1.7 32.9 1.2 58.2.7 6.8 1.6 13.3 2.6 19.4-2-5.9-4.2-12-6.7-18.4-9.4-23.8-19.5-43.5-26.3-52 .8 11 6.8 32.3 16.1 56 2.5 6.3 5 12.4 7.6 18-3.5-5.2-7.2-10.5-11.3-16-15.2-20.5-30-37-38.8-43.3C-25.5 28-14.2 47.2 1 67.7 5 73.2 9 78.3 13 83c-4.7-4-9.7-8.3-15-12.5-20-16-38.7-27.9-48.8-31.8 6.1 9 22 24.5 42 40.3C-3.7 83.3 1.6 87.3 6.5 91Z"/><path fill="#fff" d="M77.7 14.8h.7a4 4 0 0 1 3.6-2.1 4.4 4.4 0 0 1 6.6-1 4 4 0 0 1 7.6 1h1a6.8 6.8 0 0 1 10.3-1.7l1-.2a5.7 5.7 0 0 1 10.6-.2c.9 0 1.7.2 2.4.5a5.5 5.5 0 0 1 9.5 3.7 5.5 5.5 0 0 1-6.3 5.4 6.4 6.4 0 0 1-10 1.5 6.6 6.6 0 0 1-9 .7 6.8 6.8 0 0 1-7.7-1.7h-.9a4 4 0 0 1-2.5-.8 4.8 4.8 0 0 1-9-.4l-.6-.1a4 4 0 0 1-5.7.4 2.7 2.7 0 1 1-1.6-5Z"/><path fill="#1A2F3D" d="M46.8 76.3A509.8 509.8 0 0 1 71.6 55l6.4-5.2 3.1-2.6 1.7-1.3a4 4 0 0 1 3.3-.6l1 .3 2 .6 3.9 1.3 7.7 2.6-8-2-3.9-1-2-.5-1-.3a2.9 2.9 0 0 0-2.4.5L82 48.3l-3.1 2.6-6.3 5.2a970.5 970.5 0 0 1-25.7 20.3Z"/><path fill="#859D27" d="M71.7 89.3C60 107 45 112.6 26.4 100.5c-17.4-11.3-19.6-28.3-8-46 3.4-5.2 7.6-9.4 12.2-12.5 2.7 6.3 11.8 23.9 30.2 22.4 0 0 2 7 11.1 9 0 0-1.2 7.1 1.9 12.4l-2.1 3.5Z"/><path fill="#BBC649" d="M27 98.3c-3-8.5-1.9-17.3 1.6-25.4a67 67 0 0 1 10.8-17.2A47 47 0 0 1 30.6 42a44.5 44.5 0 0 0-12.2 12.5c-11.6 17.7-9.4 34.7 8 46l2 1.2-1.4-3.4Z"/><path fill="#3FA7B5" d="M48 34c1.8.7 3 2 3 3 .8-.8 2.5-1 4.3-.4 1.7.6 3 1.9 3 3 .8-.8 2.5-1 4.2-.4 1.5.5 2.6 1.5 3 2.5a11.3 11.3 0 0 0-21.3-7.5c.9-.6 2.4-.7 3.9-.1Z"/><path fill="#3FA7B5" d="M58.8 26.6a68.3 68.3 0 0 1-3.3 11.6 124.8 124.8 0 0 1-4.7 11.2 66.9 66.9 0 0 1 3.4-11.6 129.2 129.2 0 0 1 4.6-11.2Z"/><path fill="#78D0D0" d="M51 37c.8-.8 2.5-1 4.3-.4 1.7.6 3 1.9 3 3 2-5.8 2.1-11.1.1-11.8-2-.8-5.3 3.4-7.3 9.2Z"/><path fill="#F68C86" d="M30.6 42c2.7 6.3 11.8 23.9 30.2 22.4l-.6-16L30.6 42Z"/><path fill="#C61D2C" d="m76.6 62.3-4.7 11s-1.2 7.2 1.9 12.5l2.8-23.5Z"/><path fill="#EF3A4E" d="m60.2 48.5.6 16s2 6.8 11.1 8.8l4.7-11C68 61.1 60.2 48.5 60.2 48.5Z"/><path fill="#fff" d="M20 83.9Zm13 16.4h-.3a31.6 31.6 0 0 1-15.8-27.5c0-.4.3-.7.6-.7s.6.2.7.6a45.8 45.8 0 0 0 5 14.7 40.5 40.5 0 0 0 10.2 11.8.6.6 0 0 1-.3 1ZM20 61.5a14.5 14.5 0 0 0-1.3 3.5l.7-1.7.7-1.8ZM17.9 70h-.2a.6.6 0 0 1-.5-.6c-.2-1-.1-2.1.1-3.4a16.3 16.3 0 0 1 2.5-6.2c.7-1.2 1.5-2 2.4-2.6h.7c.3.3.3.6.2.8a77.6 77.6 0 0 0-2.4 5.7l-1.2 3.1-1.1 2.8-.5.4Z"/><path fill="#EEAA0F" d="M105.8 53c1.8-.8 4.5 6.4 7 6.7 2.6.4 9.4-5 11.1-3 1.7 2.1-6.6 7.2-6.6 9.5 0 2.2 6 6.2 4.7 7.9-1.3 1.7-6.9-2.6-9.3-2.3-2.5.3-4.4 8.4-7 7.5-2.1-.6 1-8.3-.5-9.9-1.6-1.6-9 .9-10-.8-1.3-2.1 8-5.6 9.4-6.7 1.5-1.3-.5-8 1.2-8.8Z"/><path fill="#EF3A4E" d="M113 65.6a1 1 0 1 1-1.6-1.1 1 1 0 0 1 1.6 1ZM108.6 59.2c-.1.2-.4.3-.6.1a.4.4 0 0 1-.1-.6c.1-.2.4-.3.6-.1.2.1.3.4.1.6Z"/><path fill="#1A2F3D" d="M109.6 65.3a1 1 0 1 1-1.8-1.2 1 1 0 0 1 1.8 1.2ZM110 71c-.2.3-.7.3-1 .1a.7.7 0 1 1 1-.2ZM119.9 60.5c-.2.2-.4.2-.6.1a.4.4 0 1 1 .6-.1Z"/><path fill="#F0DA9B" d="M111.2 67.7a.4.4 0 1 1-.6-.4c.1-.2.3-.2.5-.1s.2.3 0 .5ZM105.5 65.4c-.1.2-.4.3-.6.1a.4.4 0 0 1 0-.5c0-.2.3-.2.5-.1s.2.4 0 .5ZM103.7 66s-.2.1-.2 0c-.1 0-.2-.1-.1-.2 0-.1.2-.2.3 0 0 0 .1.1 0 .2ZM110.5 62c-.3.3-.8.4-1.1.1a.8.8 0 1 1 .9-1.2c.3.2.4.7.2 1ZM114.8 68.9a.7.7 0 1 1-1.1-.8.7.7 0 0 1 1.1.8ZM109 73.3c-.2.1-.4.2-.6 0a.3.3 0 0 1 0-.4c0-.2.3-.2.4-.1.2.1.2.3.1.5ZM107.6 75.2h-.2c-.1 0-.1-.1 0-.2 0 0 0-.1.1 0 .1 0 .1.1 0 .2ZM107 56c0 .1-.1.1-.2 0a.2.2 0 0 1 0-.2c0-.1.1-.1.2 0 .1 0 .2.1 0 .2ZM117.8 70.8c-.1.2-.3.2-.5.1a.4.4 0 1 1 .5 0ZM119.7 72.5c0 .1-.1.1-.2 0-.1 0-.1-.1 0-.2h.2v.2ZM117 63.3a1 1 0 0 1-1.3.3 1 1 0 0 1 1.1-1.6c.5.3.6.9.3 1.3ZM120.9 59.5h-.2v-.2h.1c.1 0 .1.1 0 .2Z"/><path fill="#EEAA0F" d="M136.7 68.5c0 1-3.7.4-4.5 1.4-.7 1 0 5-1.4 5.3-1.2.2-1.4-4.5-2.3-5-1-.5-4 1-4.5 0-.3-.9 2.8-2.2 3.2-3.3.5-1-2.4-3.8-1.5-4.7.8-.7 3 2.1 4 1.8 1-.2 2.8-3.2 3.8-3.2 1.2 0-.2 4.5 0 5.3.2 1 3.3 1.5 3.2 2.4Z"/></g><defs><clipPath id="a"><path fill="#fff" d="M0 0h150v90H0z"/></clipPath></defs></svg>